M48
; DRILL file {KiCad 9.0.0} date 2025-08-15T01:25:26+0300
; FORMAT={-:-/ absolute / metric / decimal}
; #@! TF.CreationDate,2025-08-15T01:25:26+03:00
; #@! TF.GenerationSoftware,Kicad,Pcbnew,9.0.0
; #@! TF.FileFunction,Plated,1,2,PTH
FMAT,2
METRIC
; #@! TA.AperFunction,Plated,PTH,ViaDrill
T1C0.300
; #@! TA.AperFunction,Plated,PTH,ComponentDrill
T2C0.600
; #@! TA.AperFunction,Plated,PTH,ComponentDrill
T3C0.750
; #@! TA.AperFunction,Plated,PTH,ComponentDrill
T4C0.889
; #@! TA.AperFunction,Plated,PTH,ComponentDrill
T5C0.900
; #@! TA.AperFunction,Plated,PTH,ComponentDrill
T6C1.000
; #@! TA.AperFunction,Plated,PTH,ComponentDrill
T7C1.100
; #@! TA.AperFunction,Plated,PTH,ComponentDrill
T8C1.397
%
G90
G05
T1
X48.55Y-68.1
X48.55Y-78.1
X48.55Y-88.1
X48.55Y-108.1
X48.55Y-118.1
X50.479Y-84.275
X58.55Y-68.1
X58.55Y-78.1
X58.55Y-88.1
X58.55Y-98.1
X58.55Y-118.1
X61.929Y-107.025
X65.729Y-108.075
X66.45Y-112.3
X68.55Y-68.1
X68.55Y-88.1
X68.55Y-98.1
X68.55Y-118.1
X78.4Y-112.2
X78.55Y-88.1
X78.55Y-98.1
X78.55Y-118.1
X88.55Y-88.1
X88.55Y-98.1
X88.55Y-118.1
X88.65Y-68.75
X90.7Y-72.0
X90.8Y-68.5
X91.05Y-112.1
X91.5Y-65.95
X91.529Y-73.2
X92.729Y-73.725
X93.629Y-76.775
X93.9Y-64.75
X94.0Y-71.35
X94.05Y-70.05
X94.879Y-76.825
X95.45Y-70.0
X95.45Y-71.35
X95.95Y-66.3
X96.95Y-81.7
X97.9Y-98.15
X98.129Y-67.725
X98.129Y-70.4
X98.55Y-78.1
X98.55Y-88.1
X98.55Y-118.1
X99.8Y-73.95
X100.15Y-96.25
X101.0Y-76.0
X101.029Y-101.375
X101.129Y-94.175
X101.579Y-97.175
X101.725Y-69.275
X101.929Y-89.875
X102.616Y-90.675
X103.029Y-95.875
X103.85Y-112.25
X104.05Y-82.0
X104.229Y-107.025
X104.75Y-69.0
X105.329Y-90.475
X105.829Y-93.075
X105.879Y-81.15
X106.85Y-72.0
X107.15Y-74.5
X107.829Y-88.675
X107.979Y-107.275
X108.35Y-85.6
X108.55Y-78.1
X108.55Y-98.1
X108.55Y-118.1
X108.6Y-83.4
X108.64Y-63.4
X109.85Y-71.85
X111.279Y-107.175
X111.95Y-68.9
X112.2Y-100.1
X113.1Y-81.95
X113.2Y-90.4
X115.8Y-112.15
X115.9Y-64.8
X117.379Y-97.075
X118.55Y-78.1
X118.55Y-88.1
X118.55Y-118.1
X118.929Y-99.575
X119.05Y-68.05
X119.529Y-101.475
X119.529Y-102.875
X119.979Y-91.625
X122.079Y-92.875
X122.129Y-94.625
X122.579Y-89.725
X123.1Y-105.2
X124.829Y-79.075
X125.779Y-97.925
X126.2Y-83.75
X126.929Y-91.975
X126.929Y-105.475
X127.029Y-100.575
X128.55Y-68.1
X128.55Y-98.1
X128.55Y-108.1
X128.55Y-118.1
X132.479Y-105.675
X132.85Y-85.3
X133.15Y-96.5
X133.75Y-105.4
X135.05Y-105.15
X137.45Y-107.75
X137.729Y-81.675
X138.129Y-98.875
X138.229Y-87.775
X138.55Y-68.1
X138.55Y-118.1
X138.829Y-92.975
X140.329Y-94.275
X147.9Y-81.7
X148.4Y-107.45
X148.55Y-68.1
X148.55Y-118.1
X151.25Y-103.15
X153.8Y-81.55
X155.85Y-103.1
X157.9Y-107.7
X158.55Y-68.1
X158.55Y-118.1
X159.85Y-81.6
X160.45Y-103.15
X168.55Y-68.1
X168.55Y-88.1
X168.55Y-98.1
X168.55Y-118.1
X174.129Y-107.475
X177.329Y-107.475
X178.55Y-68.1
X178.55Y-88.1
X178.55Y-98.1
X178.55Y-108.1
X178.55Y-118.1
X188.55Y-68.1
X188.55Y-78.1
X188.55Y-98.1
X188.55Y-108.1
X188.55Y-118.1
X192.1Y-97.0
X198.55Y-68.1
X198.55Y-78.1
X198.55Y-88.1
X198.55Y-98.1
X198.55Y-108.1
X198.55Y-118.1
X202.129Y-85.325
X203.029Y-109.375
X208.55Y-68.1
X208.55Y-78.1
X208.55Y-88.1
X208.55Y-118.1
X209.35Y-106.15
X217.179Y-91.125
X218.55Y-68.1
X218.55Y-78.1
X218.55Y-88.1
X218.55Y-98.1
X218.55Y-108.1
X218.55Y-118.1
X228.55Y-68.1
X228.55Y-78.1
X228.55Y-88.1
X228.55Y-98.1
X228.55Y-108.1
X228.55Y-118.1
T3
X90.1Y-79.65
X92.1Y-79.65
T4
X48.395Y-96.602
X48.395Y-99.142
X48.395Y-101.682
X56.015Y-109.302
X58.555Y-109.302
X61.095Y-109.302
T5
X55.38Y-86.442
X55.38Y-91.522
X61.73Y-86.442
X61.73Y-91.522
T6
X128.109Y-77.675
X130.649Y-77.675
X133.189Y-77.675
X135.729Y-77.675
X138.789Y-103.675
X141.329Y-103.675
X142.929Y-80.935
X142.929Y-83.475
X142.929Y-86.015
X142.929Y-88.555
X143.869Y-103.675
X146.409Y-103.675
X164.529Y-72.075
X164.529Y-74.615
X164.529Y-77.155
X164.529Y-79.695
X164.529Y-82.235
X164.529Y-84.775
X164.529Y-87.315
X164.529Y-89.855
X164.529Y-92.395
X164.529Y-94.935
X164.529Y-97.475
X164.529Y-100.015
X164.529Y-102.555
X164.529Y-105.095
X182.729Y-86.875
X187.729Y-86.875
T7
X195.6Y-94.89
X195.6Y-99.39
X202.1Y-94.89
X202.1Y-99.39
X205.229Y-86.975
X205.229Y-91.475
X206.029Y-102.775
X206.029Y-107.275
X211.729Y-86.975
X211.729Y-91.475
X212.529Y-102.775
X212.529Y-107.275
X214.929Y-94.815
X214.929Y-99.315
X221.429Y-94.815
X221.429Y-99.315
T8
X50.935Y-92.474
X50.935Y-105.809
X66.175Y-92.474
X66.175Y-105.809
T2
G00X104.32Y-62.725
M15
G01X104.32Y-61.925
M16
G05
G00X104.32Y-67.055
M15
G01X104.32Y-65.955
M16
G05
G00X112.96Y-62.725
M15
G01X112.96Y-61.925
M16
G05
G00X112.96Y-67.055
M15
G01X112.96Y-65.955
M16
G05
M30
