%TF.GenerationSoftware,KiCad,Pcbnew,9.0.0*%
%TF.CreationDate,2025-08-15T01:25:27+03:00*%
%TF.ProjectId,Handheld,48616e64-6865-46c6-942e-6b696361645f,rev?*%
%TF.SameCoordinates,Original*%
%TF.FileFunction,Legend,Top*%
%TF.FilePolarity,Positive*%
%FSLAX46Y46*%
G04 Gerber Fmt 4.6, Leading zero omitted, Abs format (unit mm)*
G04 Created by KiCad (PCBNEW 9.0.0) date 2025-08-15 01:25:27*
%MOMM*%
%LPD*%
G01*
G04 APERTURE LIST*
%ADD10C,0.100000*%
%ADD11C,0.150000*%
%ADD12C,0.120000*%
%ADD13C,0.127000*%
%ADD14C,0.200000*%
G04 APERTURE END LIST*
D10*
X144004008Y-106747777D02*
X143670675Y-106271586D01*
X143432580Y-106747777D02*
X143432580Y-105747777D01*
X143432580Y-105747777D02*
X143813532Y-105747777D01*
X143813532Y-105747777D02*
X143908770Y-105795396D01*
X143908770Y-105795396D02*
X143956389Y-105843015D01*
X143956389Y-105843015D02*
X144004008Y-105938253D01*
X144004008Y-105938253D02*
X144004008Y-106081110D01*
X144004008Y-106081110D02*
X143956389Y-106176348D01*
X143956389Y-106176348D02*
X143908770Y-106223967D01*
X143908770Y-106223967D02*
X143813532Y-106271586D01*
X143813532Y-106271586D02*
X143432580Y-106271586D01*
X144337342Y-105747777D02*
X145004008Y-106747777D01*
X145004008Y-105747777D02*
X144337342Y-106747777D01*
X145506265Y-86874800D02*
X145649122Y-86922419D01*
X145649122Y-86922419D02*
X145887217Y-86922419D01*
X145887217Y-86922419D02*
X145982455Y-86874800D01*
X145982455Y-86874800D02*
X146030074Y-86827180D01*
X146030074Y-86827180D02*
X146077693Y-86731942D01*
X146077693Y-86731942D02*
X146077693Y-86636704D01*
X146077693Y-86636704D02*
X146030074Y-86541466D01*
X146030074Y-86541466D02*
X145982455Y-86493847D01*
X145982455Y-86493847D02*
X145887217Y-86446228D01*
X145887217Y-86446228D02*
X145696741Y-86398609D01*
X145696741Y-86398609D02*
X145601503Y-86350990D01*
X145601503Y-86350990D02*
X145553884Y-86303371D01*
X145553884Y-86303371D02*
X145506265Y-86208133D01*
X145506265Y-86208133D02*
X145506265Y-86112895D01*
X145506265Y-86112895D02*
X145553884Y-86017657D01*
X145553884Y-86017657D02*
X145601503Y-85970038D01*
X145601503Y-85970038D02*
X145696741Y-85922419D01*
X145696741Y-85922419D02*
X145934836Y-85922419D01*
X145934836Y-85922419D02*
X146077693Y-85970038D01*
X146411027Y-85922419D02*
X146649122Y-86922419D01*
X146649122Y-86922419D02*
X146839598Y-86208133D01*
X146839598Y-86208133D02*
X147030074Y-86922419D01*
X147030074Y-86922419D02*
X147268170Y-85922419D01*
X147649122Y-86922419D02*
X147649122Y-85922419D01*
X147649122Y-85922419D02*
X147887217Y-85922419D01*
X147887217Y-85922419D02*
X148030074Y-85970038D01*
X148030074Y-85970038D02*
X148125312Y-86065276D01*
X148125312Y-86065276D02*
X148172931Y-86160514D01*
X148172931Y-86160514D02*
X148220550Y-86350990D01*
X148220550Y-86350990D02*
X148220550Y-86493847D01*
X148220550Y-86493847D02*
X148172931Y-86684323D01*
X148172931Y-86684323D02*
X148125312Y-86779561D01*
X148125312Y-86779561D02*
X148030074Y-86874800D01*
X148030074Y-86874800D02*
X147887217Y-86922419D01*
X147887217Y-86922419D02*
X147649122Y-86922419D01*
X148649122Y-86922419D02*
X148649122Y-85922419D01*
X149315788Y-85922419D02*
X149506264Y-85922419D01*
X149506264Y-85922419D02*
X149601502Y-85970038D01*
X149601502Y-85970038D02*
X149696740Y-86065276D01*
X149696740Y-86065276D02*
X149744359Y-86255752D01*
X149744359Y-86255752D02*
X149744359Y-86589085D01*
X149744359Y-86589085D02*
X149696740Y-86779561D01*
X149696740Y-86779561D02*
X149601502Y-86874800D01*
X149601502Y-86874800D02*
X149506264Y-86922419D01*
X149506264Y-86922419D02*
X149315788Y-86922419D01*
X149315788Y-86922419D02*
X149220550Y-86874800D01*
X149220550Y-86874800D02*
X149125312Y-86779561D01*
X149125312Y-86779561D02*
X149077693Y-86589085D01*
X149077693Y-86589085D02*
X149077693Y-86255752D01*
X149077693Y-86255752D02*
X149125312Y-86065276D01*
X149125312Y-86065276D02*
X149220550Y-85970038D01*
X149220550Y-85970038D02*
X149315788Y-85922419D01*
X124677305Y-83188140D02*
X124724924Y-83045283D01*
X124724924Y-83045283D02*
X124772543Y-82997664D01*
X124772543Y-82997664D02*
X124867781Y-82950045D01*
X124867781Y-82950045D02*
X125010638Y-82950045D01*
X125010638Y-82950045D02*
X125105876Y-82997664D01*
X125105876Y-82997664D02*
X125153496Y-83045283D01*
X125153496Y-83045283D02*
X125201115Y-83140521D01*
X125201115Y-83140521D02*
X125201115Y-83521473D01*
X125201115Y-83521473D02*
X124201115Y-83521473D01*
X124201115Y-83521473D02*
X124201115Y-83188140D01*
X124201115Y-83188140D02*
X124248734Y-83092902D01*
X124248734Y-83092902D02*
X124296353Y-83045283D01*
X124296353Y-83045283D02*
X124391591Y-82997664D01*
X124391591Y-82997664D02*
X124486829Y-82997664D01*
X124486829Y-82997664D02*
X124582067Y-83045283D01*
X124582067Y-83045283D02*
X124629686Y-83092902D01*
X124629686Y-83092902D02*
X124677305Y-83188140D01*
X124677305Y-83188140D02*
X124677305Y-83521473D01*
X125201115Y-82378616D02*
X125153496Y-82473854D01*
X125153496Y-82473854D02*
X125105876Y-82521473D01*
X125105876Y-82521473D02*
X125010638Y-82569092D01*
X125010638Y-82569092D02*
X124724924Y-82569092D01*
X124724924Y-82569092D02*
X124629686Y-82521473D01*
X124629686Y-82521473D02*
X124582067Y-82473854D01*
X124582067Y-82473854D02*
X124534448Y-82378616D01*
X124534448Y-82378616D02*
X124534448Y-82235759D01*
X124534448Y-82235759D02*
X124582067Y-82140521D01*
X124582067Y-82140521D02*
X124629686Y-82092902D01*
X124629686Y-82092902D02*
X124724924Y-82045283D01*
X124724924Y-82045283D02*
X125010638Y-82045283D01*
X125010638Y-82045283D02*
X125105876Y-82092902D01*
X125105876Y-82092902D02*
X125153496Y-82140521D01*
X125153496Y-82140521D02*
X125201115Y-82235759D01*
X125201115Y-82235759D02*
X125201115Y-82378616D01*
X125201115Y-81473854D02*
X125153496Y-81569092D01*
X125153496Y-81569092D02*
X125105876Y-81616711D01*
X125105876Y-81616711D02*
X125010638Y-81664330D01*
X125010638Y-81664330D02*
X124724924Y-81664330D01*
X124724924Y-81664330D02*
X124629686Y-81616711D01*
X124629686Y-81616711D02*
X124582067Y-81569092D01*
X124582067Y-81569092D02*
X124534448Y-81473854D01*
X124534448Y-81473854D02*
X124534448Y-81330997D01*
X124534448Y-81330997D02*
X124582067Y-81235759D01*
X124582067Y-81235759D02*
X124629686Y-81188140D01*
X124629686Y-81188140D02*
X124724924Y-81140521D01*
X124724924Y-81140521D02*
X125010638Y-81140521D01*
X125010638Y-81140521D02*
X125105876Y-81188140D01*
X125105876Y-81188140D02*
X125153496Y-81235759D01*
X125153496Y-81235759D02*
X125201115Y-81330997D01*
X125201115Y-81330997D02*
X125201115Y-81473854D01*
X124534448Y-80854806D02*
X124534448Y-80473854D01*
X124201115Y-80711949D02*
X125058257Y-80711949D01*
X125058257Y-80711949D02*
X125153496Y-80664330D01*
X125153496Y-80664330D02*
X125201115Y-80569092D01*
X125201115Y-80569092D02*
X125201115Y-80473854D01*
X124201115Y-79950044D02*
X124201115Y-79854806D01*
X124201115Y-79854806D02*
X124248734Y-79759568D01*
X124248734Y-79759568D02*
X124296353Y-79711949D01*
X124296353Y-79711949D02*
X124391591Y-79664330D01*
X124391591Y-79664330D02*
X124582067Y-79616711D01*
X124582067Y-79616711D02*
X124820162Y-79616711D01*
X124820162Y-79616711D02*
X125010638Y-79664330D01*
X125010638Y-79664330D02*
X125105876Y-79711949D01*
X125105876Y-79711949D02*
X125153496Y-79759568D01*
X125153496Y-79759568D02*
X125201115Y-79854806D01*
X125201115Y-79854806D02*
X125201115Y-79950044D01*
X125201115Y-79950044D02*
X125153496Y-80045282D01*
X125153496Y-80045282D02*
X125105876Y-80092901D01*
X125105876Y-80092901D02*
X125010638Y-80140520D01*
X125010638Y-80140520D02*
X124820162Y-80188139D01*
X124820162Y-80188139D02*
X124582067Y-80188139D01*
X124582067Y-80188139D02*
X124391591Y-80140520D01*
X124391591Y-80140520D02*
X124296353Y-80092901D01*
X124296353Y-80092901D02*
X124248734Y-80045282D01*
X124248734Y-80045282D02*
X124201115Y-79950044D01*
X180632580Y-78547777D02*
X180632580Y-77547777D01*
X180632580Y-77547777D02*
X181013532Y-77547777D01*
X181013532Y-77547777D02*
X181108770Y-77595396D01*
X181108770Y-77595396D02*
X181156389Y-77643015D01*
X181156389Y-77643015D02*
X181204008Y-77738253D01*
X181204008Y-77738253D02*
X181204008Y-77881110D01*
X181204008Y-77881110D02*
X181156389Y-77976348D01*
X181156389Y-77976348D02*
X181108770Y-78023967D01*
X181108770Y-78023967D02*
X181013532Y-78071586D01*
X181013532Y-78071586D02*
X180632580Y-78071586D01*
X182061151Y-78547777D02*
X182061151Y-78023967D01*
X182061151Y-78023967D02*
X182013532Y-77928729D01*
X182013532Y-77928729D02*
X181918294Y-77881110D01*
X181918294Y-77881110D02*
X181727818Y-77881110D01*
X181727818Y-77881110D02*
X181632580Y-77928729D01*
X182061151Y-78500158D02*
X181965913Y-78547777D01*
X181965913Y-78547777D02*
X181727818Y-78547777D01*
X181727818Y-78547777D02*
X181632580Y-78500158D01*
X181632580Y-78500158D02*
X181584961Y-78404919D01*
X181584961Y-78404919D02*
X181584961Y-78309681D01*
X181584961Y-78309681D02*
X181632580Y-78214443D01*
X181632580Y-78214443D02*
X181727818Y-78166824D01*
X181727818Y-78166824D02*
X181965913Y-78166824D01*
X181965913Y-78166824D02*
X182061151Y-78119205D01*
X182489723Y-78500158D02*
X182584961Y-78547777D01*
X182584961Y-78547777D02*
X182775437Y-78547777D01*
X182775437Y-78547777D02*
X182870675Y-78500158D01*
X182870675Y-78500158D02*
X182918294Y-78404919D01*
X182918294Y-78404919D02*
X182918294Y-78357300D01*
X182918294Y-78357300D02*
X182870675Y-78262062D01*
X182870675Y-78262062D02*
X182775437Y-78214443D01*
X182775437Y-78214443D02*
X182632580Y-78214443D01*
X182632580Y-78214443D02*
X182537342Y-78166824D01*
X182537342Y-78166824D02*
X182489723Y-78071586D01*
X182489723Y-78071586D02*
X182489723Y-78023967D01*
X182489723Y-78023967D02*
X182537342Y-77928729D01*
X182537342Y-77928729D02*
X182632580Y-77881110D01*
X182632580Y-77881110D02*
X182775437Y-77881110D01*
X182775437Y-77881110D02*
X182870675Y-77928729D01*
X183299247Y-78500158D02*
X183394485Y-78547777D01*
X183394485Y-78547777D02*
X183584961Y-78547777D01*
X183584961Y-78547777D02*
X183680199Y-78500158D01*
X183680199Y-78500158D02*
X183727818Y-78404919D01*
X183727818Y-78404919D02*
X183727818Y-78357300D01*
X183727818Y-78357300D02*
X183680199Y-78262062D01*
X183680199Y-78262062D02*
X183584961Y-78214443D01*
X183584961Y-78214443D02*
X183442104Y-78214443D01*
X183442104Y-78214443D02*
X183346866Y-78166824D01*
X183346866Y-78166824D02*
X183299247Y-78071586D01*
X183299247Y-78071586D02*
X183299247Y-78023967D01*
X183299247Y-78023967D02*
X183346866Y-77928729D01*
X183346866Y-77928729D02*
X183442104Y-77881110D01*
X183442104Y-77881110D02*
X183584961Y-77881110D01*
X183584961Y-77881110D02*
X183680199Y-77928729D01*
X184156390Y-78547777D02*
X184156390Y-77881110D01*
X184156390Y-77547777D02*
X184108771Y-77595396D01*
X184108771Y-77595396D02*
X184156390Y-77643015D01*
X184156390Y-77643015D02*
X184204009Y-77595396D01*
X184204009Y-77595396D02*
X184156390Y-77547777D01*
X184156390Y-77547777D02*
X184156390Y-77643015D01*
X184537342Y-77881110D02*
X184775437Y-78547777D01*
X184775437Y-78547777D02*
X185013532Y-77881110D01*
X185775437Y-78500158D02*
X185680199Y-78547777D01*
X185680199Y-78547777D02*
X185489723Y-78547777D01*
X185489723Y-78547777D02*
X185394485Y-78500158D01*
X185394485Y-78500158D02*
X185346866Y-78404919D01*
X185346866Y-78404919D02*
X185346866Y-78023967D01*
X185346866Y-78023967D02*
X185394485Y-77928729D01*
X185394485Y-77928729D02*
X185489723Y-77881110D01*
X185489723Y-77881110D02*
X185680199Y-77881110D01*
X185680199Y-77881110D02*
X185775437Y-77928729D01*
X185775437Y-77928729D02*
X185823056Y-78023967D01*
X185823056Y-78023967D02*
X185823056Y-78119205D01*
X185823056Y-78119205D02*
X185346866Y-78214443D01*
X187346866Y-78023967D02*
X187489723Y-78071586D01*
X187489723Y-78071586D02*
X187537342Y-78119205D01*
X187537342Y-78119205D02*
X187584961Y-78214443D01*
X187584961Y-78214443D02*
X187584961Y-78357300D01*
X187584961Y-78357300D02*
X187537342Y-78452538D01*
X187537342Y-78452538D02*
X187489723Y-78500158D01*
X187489723Y-78500158D02*
X187394485Y-78547777D01*
X187394485Y-78547777D02*
X187013533Y-78547777D01*
X187013533Y-78547777D02*
X187013533Y-77547777D01*
X187013533Y-77547777D02*
X187346866Y-77547777D01*
X187346866Y-77547777D02*
X187442104Y-77595396D01*
X187442104Y-77595396D02*
X187489723Y-77643015D01*
X187489723Y-77643015D02*
X187537342Y-77738253D01*
X187537342Y-77738253D02*
X187537342Y-77833491D01*
X187537342Y-77833491D02*
X187489723Y-77928729D01*
X187489723Y-77928729D02*
X187442104Y-77976348D01*
X187442104Y-77976348D02*
X187346866Y-78023967D01*
X187346866Y-78023967D02*
X187013533Y-78023967D01*
X188442104Y-77881110D02*
X188442104Y-78547777D01*
X188013533Y-77881110D02*
X188013533Y-78404919D01*
X188013533Y-78404919D02*
X188061152Y-78500158D01*
X188061152Y-78500158D02*
X188156390Y-78547777D01*
X188156390Y-78547777D02*
X188299247Y-78547777D01*
X188299247Y-78547777D02*
X188394485Y-78500158D01*
X188394485Y-78500158D02*
X188442104Y-78452538D01*
X188823057Y-77881110D02*
X189346866Y-77881110D01*
X189346866Y-77881110D02*
X188823057Y-78547777D01*
X188823057Y-78547777D02*
X189346866Y-78547777D01*
X189632581Y-77881110D02*
X190156390Y-77881110D01*
X190156390Y-77881110D02*
X189632581Y-78547777D01*
X189632581Y-78547777D02*
X190156390Y-78547777D01*
X190918295Y-78500158D02*
X190823057Y-78547777D01*
X190823057Y-78547777D02*
X190632581Y-78547777D01*
X190632581Y-78547777D02*
X190537343Y-78500158D01*
X190537343Y-78500158D02*
X190489724Y-78404919D01*
X190489724Y-78404919D02*
X190489724Y-78023967D01*
X190489724Y-78023967D02*
X190537343Y-77928729D01*
X190537343Y-77928729D02*
X190632581Y-77881110D01*
X190632581Y-77881110D02*
X190823057Y-77881110D01*
X190823057Y-77881110D02*
X190918295Y-77928729D01*
X190918295Y-77928729D02*
X190965914Y-78023967D01*
X190965914Y-78023967D02*
X190965914Y-78119205D01*
X190965914Y-78119205D02*
X190489724Y-78214443D01*
X191394486Y-78547777D02*
X191394486Y-77881110D01*
X191394486Y-78071586D02*
X191442105Y-77976348D01*
X191442105Y-77976348D02*
X191489724Y-77928729D01*
X191489724Y-77928729D02*
X191584962Y-77881110D01*
X191584962Y-77881110D02*
X191680200Y-77881110D01*
X125701115Y-78701473D02*
X124701115Y-78701473D01*
X124796353Y-78272902D02*
X124748734Y-78225283D01*
X124748734Y-78225283D02*
X124701115Y-78130045D01*
X124701115Y-78130045D02*
X124701115Y-77891950D01*
X124701115Y-77891950D02*
X124748734Y-77796712D01*
X124748734Y-77796712D02*
X124796353Y-77749093D01*
X124796353Y-77749093D02*
X124891591Y-77701474D01*
X124891591Y-77701474D02*
X124986829Y-77701474D01*
X124986829Y-77701474D02*
X125129686Y-77749093D01*
X125129686Y-77749093D02*
X125701115Y-78320521D01*
X125701115Y-78320521D02*
X125701115Y-77701474D01*
X125605876Y-76701474D02*
X125653496Y-76749093D01*
X125653496Y-76749093D02*
X125701115Y-76891950D01*
X125701115Y-76891950D02*
X125701115Y-76987188D01*
X125701115Y-76987188D02*
X125653496Y-77130045D01*
X125653496Y-77130045D02*
X125558257Y-77225283D01*
X125558257Y-77225283D02*
X125463019Y-77272902D01*
X125463019Y-77272902D02*
X125272543Y-77320521D01*
X125272543Y-77320521D02*
X125129686Y-77320521D01*
X125129686Y-77320521D02*
X124939210Y-77272902D01*
X124939210Y-77272902D02*
X124843972Y-77225283D01*
X124843972Y-77225283D02*
X124748734Y-77130045D01*
X124748734Y-77130045D02*
X124701115Y-76987188D01*
X124701115Y-76987188D02*
X124701115Y-76891950D01*
X124701115Y-76891950D02*
X124748734Y-76749093D01*
X124748734Y-76749093D02*
X124796353Y-76701474D01*
X140184961Y-77140214D02*
X140327818Y-77187833D01*
X140327818Y-77187833D02*
X140565913Y-77187833D01*
X140565913Y-77187833D02*
X140661151Y-77140214D01*
X140661151Y-77140214D02*
X140708770Y-77092594D01*
X140708770Y-77092594D02*
X140756389Y-76997356D01*
X140756389Y-76997356D02*
X140756389Y-76902118D01*
X140756389Y-76902118D02*
X140708770Y-76806880D01*
X140708770Y-76806880D02*
X140661151Y-76759261D01*
X140661151Y-76759261D02*
X140565913Y-76711642D01*
X140565913Y-76711642D02*
X140375437Y-76664023D01*
X140375437Y-76664023D02*
X140280199Y-76616404D01*
X140280199Y-76616404D02*
X140232580Y-76568785D01*
X140232580Y-76568785D02*
X140184961Y-76473547D01*
X140184961Y-76473547D02*
X140184961Y-76378309D01*
X140184961Y-76378309D02*
X140232580Y-76283071D01*
X140232580Y-76283071D02*
X140280199Y-76235452D01*
X140280199Y-76235452D02*
X140375437Y-76187833D01*
X140375437Y-76187833D02*
X140613532Y-76187833D01*
X140613532Y-76187833D02*
X140756389Y-76235452D01*
X141565913Y-77140214D02*
X141470675Y-77187833D01*
X141470675Y-77187833D02*
X141280199Y-77187833D01*
X141280199Y-77187833D02*
X141184961Y-77140214D01*
X141184961Y-77140214D02*
X141137342Y-77044975D01*
X141137342Y-77044975D02*
X141137342Y-76664023D01*
X141137342Y-76664023D02*
X141184961Y-76568785D01*
X141184961Y-76568785D02*
X141280199Y-76521166D01*
X141280199Y-76521166D02*
X141470675Y-76521166D01*
X141470675Y-76521166D02*
X141565913Y-76568785D01*
X141565913Y-76568785D02*
X141613532Y-76664023D01*
X141613532Y-76664023D02*
X141613532Y-76759261D01*
X141613532Y-76759261D02*
X141137342Y-76854499D01*
X142042104Y-77187833D02*
X142042104Y-76521166D01*
X142042104Y-76711642D02*
X142089723Y-76616404D01*
X142089723Y-76616404D02*
X142137342Y-76568785D01*
X142137342Y-76568785D02*
X142232580Y-76521166D01*
X142232580Y-76521166D02*
X142327818Y-76521166D01*
X142661152Y-77187833D02*
X142661152Y-76521166D01*
X142661152Y-76187833D02*
X142613533Y-76235452D01*
X142613533Y-76235452D02*
X142661152Y-76283071D01*
X142661152Y-76283071D02*
X142708771Y-76235452D01*
X142708771Y-76235452D02*
X142661152Y-76187833D01*
X142661152Y-76187833D02*
X142661152Y-76283071D01*
X143565913Y-77187833D02*
X143565913Y-76664023D01*
X143565913Y-76664023D02*
X143518294Y-76568785D01*
X143518294Y-76568785D02*
X143423056Y-76521166D01*
X143423056Y-76521166D02*
X143232580Y-76521166D01*
X143232580Y-76521166D02*
X143137342Y-76568785D01*
X143565913Y-77140214D02*
X143470675Y-77187833D01*
X143470675Y-77187833D02*
X143232580Y-77187833D01*
X143232580Y-77187833D02*
X143137342Y-77140214D01*
X143137342Y-77140214D02*
X143089723Y-77044975D01*
X143089723Y-77044975D02*
X143089723Y-76949737D01*
X143089723Y-76949737D02*
X143137342Y-76854499D01*
X143137342Y-76854499D02*
X143232580Y-76806880D01*
X143232580Y-76806880D02*
X143470675Y-76806880D01*
X143470675Y-76806880D02*
X143565913Y-76759261D01*
X144184961Y-77187833D02*
X144089723Y-77140214D01*
X144089723Y-77140214D02*
X144042104Y-77044975D01*
X144042104Y-77044975D02*
X144042104Y-76187833D01*
X145232581Y-76187833D02*
X145470676Y-77187833D01*
X145470676Y-77187833D02*
X145661152Y-76473547D01*
X145661152Y-76473547D02*
X145851628Y-77187833D01*
X145851628Y-77187833D02*
X146089724Y-76187833D01*
X146470676Y-77187833D02*
X146470676Y-76521166D01*
X146470676Y-76187833D02*
X146423057Y-76235452D01*
X146423057Y-76235452D02*
X146470676Y-76283071D01*
X146470676Y-76283071D02*
X146518295Y-76235452D01*
X146518295Y-76235452D02*
X146470676Y-76187833D01*
X146470676Y-76187833D02*
X146470676Y-76283071D01*
X146946866Y-77187833D02*
X146946866Y-76521166D01*
X146946866Y-76711642D02*
X146994485Y-76616404D01*
X146994485Y-76616404D02*
X147042104Y-76568785D01*
X147042104Y-76568785D02*
X147137342Y-76521166D01*
X147137342Y-76521166D02*
X147232580Y-76521166D01*
X147946866Y-77140214D02*
X147851628Y-77187833D01*
X147851628Y-77187833D02*
X147661152Y-77187833D01*
X147661152Y-77187833D02*
X147565914Y-77140214D01*
X147565914Y-77140214D02*
X147518295Y-77044975D01*
X147518295Y-77044975D02*
X147518295Y-76664023D01*
X147518295Y-76664023D02*
X147565914Y-76568785D01*
X147565914Y-76568785D02*
X147661152Y-76521166D01*
X147661152Y-76521166D02*
X147851628Y-76521166D01*
X147851628Y-76521166D02*
X147946866Y-76568785D01*
X147946866Y-76568785D02*
X147994485Y-76664023D01*
X147994485Y-76664023D02*
X147994485Y-76759261D01*
X147994485Y-76759261D02*
X147518295Y-76854499D01*
X142518295Y-78797777D02*
X142518295Y-77797777D01*
X142518295Y-77797777D02*
X142756390Y-77797777D01*
X142756390Y-77797777D02*
X142899247Y-77845396D01*
X142899247Y-77845396D02*
X142994485Y-77940634D01*
X142994485Y-77940634D02*
X143042104Y-78035872D01*
X143042104Y-78035872D02*
X143089723Y-78226348D01*
X143089723Y-78226348D02*
X143089723Y-78369205D01*
X143089723Y-78369205D02*
X143042104Y-78559681D01*
X143042104Y-78559681D02*
X142994485Y-78654919D01*
X142994485Y-78654919D02*
X142899247Y-78750158D01*
X142899247Y-78750158D02*
X142756390Y-78797777D01*
X142756390Y-78797777D02*
X142518295Y-78797777D01*
X143899247Y-78750158D02*
X143804009Y-78797777D01*
X143804009Y-78797777D02*
X143613533Y-78797777D01*
X143613533Y-78797777D02*
X143518295Y-78750158D01*
X143518295Y-78750158D02*
X143470676Y-78654919D01*
X143470676Y-78654919D02*
X143470676Y-78273967D01*
X143470676Y-78273967D02*
X143518295Y-78178729D01*
X143518295Y-78178729D02*
X143613533Y-78131110D01*
X143613533Y-78131110D02*
X143804009Y-78131110D01*
X143804009Y-78131110D02*
X143899247Y-78178729D01*
X143899247Y-78178729D02*
X143946866Y-78273967D01*
X143946866Y-78273967D02*
X143946866Y-78369205D01*
X143946866Y-78369205D02*
X143470676Y-78464443D01*
X144375438Y-78797777D02*
X144375438Y-77797777D01*
X144375438Y-78178729D02*
X144470676Y-78131110D01*
X144470676Y-78131110D02*
X144661152Y-78131110D01*
X144661152Y-78131110D02*
X144756390Y-78178729D01*
X144756390Y-78178729D02*
X144804009Y-78226348D01*
X144804009Y-78226348D02*
X144851628Y-78321586D01*
X144851628Y-78321586D02*
X144851628Y-78607300D01*
X144851628Y-78607300D02*
X144804009Y-78702538D01*
X144804009Y-78702538D02*
X144756390Y-78750158D01*
X144756390Y-78750158D02*
X144661152Y-78797777D01*
X144661152Y-78797777D02*
X144470676Y-78797777D01*
X144470676Y-78797777D02*
X144375438Y-78750158D01*
X145708771Y-78131110D02*
X145708771Y-78797777D01*
X145280200Y-78131110D02*
X145280200Y-78654919D01*
X145280200Y-78654919D02*
X145327819Y-78750158D01*
X145327819Y-78750158D02*
X145423057Y-78797777D01*
X145423057Y-78797777D02*
X145565914Y-78797777D01*
X145565914Y-78797777D02*
X145661152Y-78750158D01*
X145661152Y-78750158D02*
X145708771Y-78702538D01*
X146613533Y-78131110D02*
X146613533Y-78940634D01*
X146613533Y-78940634D02*
X146565914Y-79035872D01*
X146565914Y-79035872D02*
X146518295Y-79083491D01*
X146518295Y-79083491D02*
X146423057Y-79131110D01*
X146423057Y-79131110D02*
X146280200Y-79131110D01*
X146280200Y-79131110D02*
X146184962Y-79083491D01*
X146613533Y-78750158D02*
X146518295Y-78797777D01*
X146518295Y-78797777D02*
X146327819Y-78797777D01*
X146327819Y-78797777D02*
X146232581Y-78750158D01*
X146232581Y-78750158D02*
X146184962Y-78702538D01*
X146184962Y-78702538D02*
X146137343Y-78607300D01*
X146137343Y-78607300D02*
X146137343Y-78321586D01*
X146137343Y-78321586D02*
X146184962Y-78226348D01*
X146184962Y-78226348D02*
X146232581Y-78178729D01*
X146232581Y-78178729D02*
X146327819Y-78131110D01*
X146327819Y-78131110D02*
X146518295Y-78131110D01*
X146518295Y-78131110D02*
X146613533Y-78178729D01*
X77025312Y-73234990D02*
X76949122Y-73196895D01*
X76949122Y-73196895D02*
X76834836Y-73196895D01*
X76834836Y-73196895D02*
X76720550Y-73234990D01*
X76720550Y-73234990D02*
X76644360Y-73311180D01*
X76644360Y-73311180D02*
X76606265Y-73387371D01*
X76606265Y-73387371D02*
X76568169Y-73539752D01*
X76568169Y-73539752D02*
X76568169Y-73654038D01*
X76568169Y-73654038D02*
X76606265Y-73806419D01*
X76606265Y-73806419D02*
X76644360Y-73882609D01*
X76644360Y-73882609D02*
X76720550Y-73958800D01*
X76720550Y-73958800D02*
X76834836Y-73996895D01*
X76834836Y-73996895D02*
X76911027Y-73996895D01*
X76911027Y-73996895D02*
X77025312Y-73958800D01*
X77025312Y-73958800D02*
X77063408Y-73920704D01*
X77063408Y-73920704D02*
X77063408Y-73654038D01*
X77063408Y-73654038D02*
X76911027Y-73654038D01*
X77520550Y-73996895D02*
X77444360Y-73958800D01*
X77444360Y-73958800D02*
X77406265Y-73920704D01*
X77406265Y-73920704D02*
X77368169Y-73844514D01*
X77368169Y-73844514D02*
X77368169Y-73615942D01*
X77368169Y-73615942D02*
X77406265Y-73539752D01*
X77406265Y-73539752D02*
X77444360Y-73501657D01*
X77444360Y-73501657D02*
X77520550Y-73463561D01*
X77520550Y-73463561D02*
X77634836Y-73463561D01*
X77634836Y-73463561D02*
X77711027Y-73501657D01*
X77711027Y-73501657D02*
X77749122Y-73539752D01*
X77749122Y-73539752D02*
X77787217Y-73615942D01*
X77787217Y-73615942D02*
X77787217Y-73844514D01*
X77787217Y-73844514D02*
X77749122Y-73920704D01*
X77749122Y-73920704D02*
X77711027Y-73958800D01*
X77711027Y-73958800D02*
X77634836Y-73996895D01*
X77634836Y-73996895D02*
X77520550Y-73996895D01*
X78244360Y-73996895D02*
X78168170Y-73958800D01*
X78168170Y-73958800D02*
X78130075Y-73920704D01*
X78130075Y-73920704D02*
X78091979Y-73844514D01*
X78091979Y-73844514D02*
X78091979Y-73615942D01*
X78091979Y-73615942D02*
X78130075Y-73539752D01*
X78130075Y-73539752D02*
X78168170Y-73501657D01*
X78168170Y-73501657D02*
X78244360Y-73463561D01*
X78244360Y-73463561D02*
X78358646Y-73463561D01*
X78358646Y-73463561D02*
X78434837Y-73501657D01*
X78434837Y-73501657D02*
X78472932Y-73539752D01*
X78472932Y-73539752D02*
X78511027Y-73615942D01*
X78511027Y-73615942D02*
X78511027Y-73844514D01*
X78511027Y-73844514D02*
X78472932Y-73920704D01*
X78472932Y-73920704D02*
X78434837Y-73958800D01*
X78434837Y-73958800D02*
X78358646Y-73996895D01*
X78358646Y-73996895D02*
X78244360Y-73996895D01*
X79196742Y-73996895D02*
X79196742Y-73196895D01*
X79196742Y-73958800D02*
X79120551Y-73996895D01*
X79120551Y-73996895D02*
X78968170Y-73996895D01*
X78968170Y-73996895D02*
X78891980Y-73958800D01*
X78891980Y-73958800D02*
X78853885Y-73920704D01*
X78853885Y-73920704D02*
X78815789Y-73844514D01*
X78815789Y-73844514D02*
X78815789Y-73615942D01*
X78815789Y-73615942D02*
X78853885Y-73539752D01*
X78853885Y-73539752D02*
X78891980Y-73501657D01*
X78891980Y-73501657D02*
X78968170Y-73463561D01*
X78968170Y-73463561D02*
X79120551Y-73463561D01*
X79120551Y-73463561D02*
X79196742Y-73501657D01*
X80187219Y-73996895D02*
X80187219Y-73196895D01*
X80187219Y-73196895D02*
X80491981Y-73196895D01*
X80491981Y-73196895D02*
X80568171Y-73234990D01*
X80568171Y-73234990D02*
X80606266Y-73273085D01*
X80606266Y-73273085D02*
X80644362Y-73349276D01*
X80644362Y-73349276D02*
X80644362Y-73463561D01*
X80644362Y-73463561D02*
X80606266Y-73539752D01*
X80606266Y-73539752D02*
X80568171Y-73577847D01*
X80568171Y-73577847D02*
X80491981Y-73615942D01*
X80491981Y-73615942D02*
X80187219Y-73615942D01*
X81101504Y-73996895D02*
X81025314Y-73958800D01*
X81025314Y-73958800D02*
X80987219Y-73920704D01*
X80987219Y-73920704D02*
X80949123Y-73844514D01*
X80949123Y-73844514D02*
X80949123Y-73615942D01*
X80949123Y-73615942D02*
X80987219Y-73539752D01*
X80987219Y-73539752D02*
X81025314Y-73501657D01*
X81025314Y-73501657D02*
X81101504Y-73463561D01*
X81101504Y-73463561D02*
X81215790Y-73463561D01*
X81215790Y-73463561D02*
X81291981Y-73501657D01*
X81291981Y-73501657D02*
X81330076Y-73539752D01*
X81330076Y-73539752D02*
X81368171Y-73615942D01*
X81368171Y-73615942D02*
X81368171Y-73844514D01*
X81368171Y-73844514D02*
X81330076Y-73920704D01*
X81330076Y-73920704D02*
X81291981Y-73958800D01*
X81291981Y-73958800D02*
X81215790Y-73996895D01*
X81215790Y-73996895D02*
X81101504Y-73996895D01*
X81634838Y-73463561D02*
X81787219Y-73996895D01*
X81787219Y-73996895D02*
X81939600Y-73615942D01*
X81939600Y-73615942D02*
X82091981Y-73996895D01*
X82091981Y-73996895D02*
X82244362Y-73463561D01*
X82853886Y-73958800D02*
X82777695Y-73996895D01*
X82777695Y-73996895D02*
X82625314Y-73996895D01*
X82625314Y-73996895D02*
X82549124Y-73958800D01*
X82549124Y-73958800D02*
X82511028Y-73882609D01*
X82511028Y-73882609D02*
X82511028Y-73577847D01*
X82511028Y-73577847D02*
X82549124Y-73501657D01*
X82549124Y-73501657D02*
X82625314Y-73463561D01*
X82625314Y-73463561D02*
X82777695Y-73463561D01*
X82777695Y-73463561D02*
X82853886Y-73501657D01*
X82853886Y-73501657D02*
X82891981Y-73577847D01*
X82891981Y-73577847D02*
X82891981Y-73654038D01*
X82891981Y-73654038D02*
X82511028Y-73730228D01*
X83234838Y-73996895D02*
X83234838Y-73463561D01*
X83234838Y-73615942D02*
X83272933Y-73539752D01*
X83272933Y-73539752D02*
X83311028Y-73501657D01*
X83311028Y-73501657D02*
X83387219Y-73463561D01*
X83387219Y-73463561D02*
X83463409Y-73463561D01*
X84491981Y-73196895D02*
X84644362Y-73196895D01*
X84644362Y-73196895D02*
X84720552Y-73234990D01*
X84720552Y-73234990D02*
X84796743Y-73311180D01*
X84796743Y-73311180D02*
X84834838Y-73463561D01*
X84834838Y-73463561D02*
X84834838Y-73730228D01*
X84834838Y-73730228D02*
X84796743Y-73882609D01*
X84796743Y-73882609D02*
X84720552Y-73958800D01*
X84720552Y-73958800D02*
X84644362Y-73996895D01*
X84644362Y-73996895D02*
X84491981Y-73996895D01*
X84491981Y-73996895D02*
X84415790Y-73958800D01*
X84415790Y-73958800D02*
X84339600Y-73882609D01*
X84339600Y-73882609D02*
X84301504Y-73730228D01*
X84301504Y-73730228D02*
X84301504Y-73463561D01*
X84301504Y-73463561D02*
X84339600Y-73311180D01*
X84339600Y-73311180D02*
X84415790Y-73234990D01*
X84415790Y-73234990D02*
X84491981Y-73196895D01*
X85520552Y-73463561D02*
X85520552Y-73996895D01*
X85177695Y-73463561D02*
X85177695Y-73882609D01*
X85177695Y-73882609D02*
X85215790Y-73958800D01*
X85215790Y-73958800D02*
X85291980Y-73996895D01*
X85291980Y-73996895D02*
X85406266Y-73996895D01*
X85406266Y-73996895D02*
X85482457Y-73958800D01*
X85482457Y-73958800D02*
X85520552Y-73920704D01*
X85787219Y-73463561D02*
X86091981Y-73463561D01*
X85901505Y-73196895D02*
X85901505Y-73882609D01*
X85901505Y-73882609D02*
X85939600Y-73958800D01*
X85939600Y-73958800D02*
X86015790Y-73996895D01*
X86015790Y-73996895D02*
X86091981Y-73996895D01*
X117003884Y-65622419D02*
X117003884Y-64622419D01*
X117003884Y-64622419D02*
X117384836Y-64622419D01*
X117384836Y-64622419D02*
X117480074Y-64670038D01*
X117480074Y-64670038D02*
X117527693Y-64717657D01*
X117527693Y-64717657D02*
X117575312Y-64812895D01*
X117575312Y-64812895D02*
X117575312Y-64955752D01*
X117575312Y-64955752D02*
X117527693Y-65050990D01*
X117527693Y-65050990D02*
X117480074Y-65098609D01*
X117480074Y-65098609D02*
X117384836Y-65146228D01*
X117384836Y-65146228D02*
X117003884Y-65146228D01*
X118146741Y-65622419D02*
X118051503Y-65574800D01*
X118051503Y-65574800D02*
X118003884Y-65527180D01*
X118003884Y-65527180D02*
X117956265Y-65431942D01*
X117956265Y-65431942D02*
X117956265Y-65146228D01*
X117956265Y-65146228D02*
X118003884Y-65050990D01*
X118003884Y-65050990D02*
X118051503Y-65003371D01*
X118051503Y-65003371D02*
X118146741Y-64955752D01*
X118146741Y-64955752D02*
X118289598Y-64955752D01*
X118289598Y-64955752D02*
X118384836Y-65003371D01*
X118384836Y-65003371D02*
X118432455Y-65050990D01*
X118432455Y-65050990D02*
X118480074Y-65146228D01*
X118480074Y-65146228D02*
X118480074Y-65431942D01*
X118480074Y-65431942D02*
X118432455Y-65527180D01*
X118432455Y-65527180D02*
X118384836Y-65574800D01*
X118384836Y-65574800D02*
X118289598Y-65622419D01*
X118289598Y-65622419D02*
X118146741Y-65622419D01*
X118813408Y-64955752D02*
X119003884Y-65622419D01*
X119003884Y-65622419D02*
X119194360Y-65146228D01*
X119194360Y-65146228D02*
X119384836Y-65622419D01*
X119384836Y-65622419D02*
X119575312Y-64955752D01*
X120337217Y-65574800D02*
X120241979Y-65622419D01*
X120241979Y-65622419D02*
X120051503Y-65622419D01*
X120051503Y-65622419D02*
X119956265Y-65574800D01*
X119956265Y-65574800D02*
X119908646Y-65479561D01*
X119908646Y-65479561D02*
X119908646Y-65098609D01*
X119908646Y-65098609D02*
X119956265Y-65003371D01*
X119956265Y-65003371D02*
X120051503Y-64955752D01*
X120051503Y-64955752D02*
X120241979Y-64955752D01*
X120241979Y-64955752D02*
X120337217Y-65003371D01*
X120337217Y-65003371D02*
X120384836Y-65098609D01*
X120384836Y-65098609D02*
X120384836Y-65193847D01*
X120384836Y-65193847D02*
X119908646Y-65289085D01*
X120813408Y-65622419D02*
X120813408Y-64955752D01*
X120813408Y-65146228D02*
X120861027Y-65050990D01*
X120861027Y-65050990D02*
X120908646Y-65003371D01*
X120908646Y-65003371D02*
X121003884Y-64955752D01*
X121003884Y-64955752D02*
X121099122Y-64955752D01*
X122146742Y-65574800D02*
X122289599Y-65622419D01*
X122289599Y-65622419D02*
X122527694Y-65622419D01*
X122527694Y-65622419D02*
X122622932Y-65574800D01*
X122622932Y-65574800D02*
X122670551Y-65527180D01*
X122670551Y-65527180D02*
X122718170Y-65431942D01*
X122718170Y-65431942D02*
X122718170Y-65336704D01*
X122718170Y-65336704D02*
X122670551Y-65241466D01*
X122670551Y-65241466D02*
X122622932Y-65193847D01*
X122622932Y-65193847D02*
X122527694Y-65146228D01*
X122527694Y-65146228D02*
X122337218Y-65098609D01*
X122337218Y-65098609D02*
X122241980Y-65050990D01*
X122241980Y-65050990D02*
X122194361Y-65003371D01*
X122194361Y-65003371D02*
X122146742Y-64908133D01*
X122146742Y-64908133D02*
X122146742Y-64812895D01*
X122146742Y-64812895D02*
X122194361Y-64717657D01*
X122194361Y-64717657D02*
X122241980Y-64670038D01*
X122241980Y-64670038D02*
X122337218Y-64622419D01*
X122337218Y-64622419D02*
X122575313Y-64622419D01*
X122575313Y-64622419D02*
X122718170Y-64670038D01*
X123051504Y-64622419D02*
X123289599Y-65622419D01*
X123289599Y-65622419D02*
X123480075Y-64908133D01*
X123480075Y-64908133D02*
X123670551Y-65622419D01*
X123670551Y-65622419D02*
X123908647Y-64622419D01*
X140689723Y-105747777D02*
X141261151Y-105747777D01*
X140975437Y-106747777D02*
X140975437Y-105747777D01*
X141499247Y-105747777D02*
X142165913Y-106747777D01*
X142165913Y-105747777D02*
X141499247Y-106747777D01*
X76913408Y-76770704D02*
X76875312Y-76808800D01*
X76875312Y-76808800D02*
X76761027Y-76846895D01*
X76761027Y-76846895D02*
X76684836Y-76846895D01*
X76684836Y-76846895D02*
X76570550Y-76808800D01*
X76570550Y-76808800D02*
X76494360Y-76732609D01*
X76494360Y-76732609D02*
X76456265Y-76656419D01*
X76456265Y-76656419D02*
X76418169Y-76504038D01*
X76418169Y-76504038D02*
X76418169Y-76389752D01*
X76418169Y-76389752D02*
X76456265Y-76237371D01*
X76456265Y-76237371D02*
X76494360Y-76161180D01*
X76494360Y-76161180D02*
X76570550Y-76084990D01*
X76570550Y-76084990D02*
X76684836Y-76046895D01*
X76684836Y-76046895D02*
X76761027Y-76046895D01*
X76761027Y-76046895D02*
X76875312Y-76084990D01*
X76875312Y-76084990D02*
X76913408Y-76123085D01*
X77256265Y-76846895D02*
X77256265Y-76046895D01*
X77599122Y-76846895D02*
X77599122Y-76427847D01*
X77599122Y-76427847D02*
X77561027Y-76351657D01*
X77561027Y-76351657D02*
X77484836Y-76313561D01*
X77484836Y-76313561D02*
X77370550Y-76313561D01*
X77370550Y-76313561D02*
X77294360Y-76351657D01*
X77294360Y-76351657D02*
X77256265Y-76389752D01*
X78322932Y-76846895D02*
X78322932Y-76427847D01*
X78322932Y-76427847D02*
X78284837Y-76351657D01*
X78284837Y-76351657D02*
X78208646Y-76313561D01*
X78208646Y-76313561D02*
X78056265Y-76313561D01*
X78056265Y-76313561D02*
X77980075Y-76351657D01*
X78322932Y-76808800D02*
X78246741Y-76846895D01*
X78246741Y-76846895D02*
X78056265Y-76846895D01*
X78056265Y-76846895D02*
X77980075Y-76808800D01*
X77980075Y-76808800D02*
X77941979Y-76732609D01*
X77941979Y-76732609D02*
X77941979Y-76656419D01*
X77941979Y-76656419D02*
X77980075Y-76580228D01*
X77980075Y-76580228D02*
X78056265Y-76542133D01*
X78056265Y-76542133D02*
X78246741Y-76542133D01*
X78246741Y-76542133D02*
X78322932Y-76504038D01*
X78703885Y-76846895D02*
X78703885Y-76313561D01*
X78703885Y-76465942D02*
X78741980Y-76389752D01*
X78741980Y-76389752D02*
X78780075Y-76351657D01*
X78780075Y-76351657D02*
X78856266Y-76313561D01*
X78856266Y-76313561D02*
X78932456Y-76313561D01*
X79541980Y-76313561D02*
X79541980Y-76961180D01*
X79541980Y-76961180D02*
X79503885Y-77037371D01*
X79503885Y-77037371D02*
X79465789Y-77075466D01*
X79465789Y-77075466D02*
X79389599Y-77113561D01*
X79389599Y-77113561D02*
X79275313Y-77113561D01*
X79275313Y-77113561D02*
X79199123Y-77075466D01*
X79541980Y-76808800D02*
X79465789Y-76846895D01*
X79465789Y-76846895D02*
X79313408Y-76846895D01*
X79313408Y-76846895D02*
X79237218Y-76808800D01*
X79237218Y-76808800D02*
X79199123Y-76770704D01*
X79199123Y-76770704D02*
X79161027Y-76694514D01*
X79161027Y-76694514D02*
X79161027Y-76465942D01*
X79161027Y-76465942D02*
X79199123Y-76389752D01*
X79199123Y-76389752D02*
X79237218Y-76351657D01*
X79237218Y-76351657D02*
X79313408Y-76313561D01*
X79313408Y-76313561D02*
X79465789Y-76313561D01*
X79465789Y-76313561D02*
X79541980Y-76351657D01*
X79922933Y-76846895D02*
X79922933Y-76313561D01*
X79922933Y-76046895D02*
X79884837Y-76084990D01*
X79884837Y-76084990D02*
X79922933Y-76123085D01*
X79922933Y-76123085D02*
X79961028Y-76084990D01*
X79961028Y-76084990D02*
X79922933Y-76046895D01*
X79922933Y-76046895D02*
X79922933Y-76123085D01*
X80303885Y-76313561D02*
X80303885Y-76846895D01*
X80303885Y-76389752D02*
X80341980Y-76351657D01*
X80341980Y-76351657D02*
X80418170Y-76313561D01*
X80418170Y-76313561D02*
X80532456Y-76313561D01*
X80532456Y-76313561D02*
X80608647Y-76351657D01*
X80608647Y-76351657D02*
X80646742Y-76427847D01*
X80646742Y-76427847D02*
X80646742Y-76846895D01*
X81370552Y-76313561D02*
X81370552Y-76961180D01*
X81370552Y-76961180D02*
X81332457Y-77037371D01*
X81332457Y-77037371D02*
X81294361Y-77075466D01*
X81294361Y-77075466D02*
X81218171Y-77113561D01*
X81218171Y-77113561D02*
X81103885Y-77113561D01*
X81103885Y-77113561D02*
X81027695Y-77075466D01*
X81370552Y-76808800D02*
X81294361Y-76846895D01*
X81294361Y-76846895D02*
X81141980Y-76846895D01*
X81141980Y-76846895D02*
X81065790Y-76808800D01*
X81065790Y-76808800D02*
X81027695Y-76770704D01*
X81027695Y-76770704D02*
X80989599Y-76694514D01*
X80989599Y-76694514D02*
X80989599Y-76465942D01*
X80989599Y-76465942D02*
X81027695Y-76389752D01*
X81027695Y-76389752D02*
X81065790Y-76351657D01*
X81065790Y-76351657D02*
X81141980Y-76313561D01*
X81141980Y-76313561D02*
X81294361Y-76313561D01*
X81294361Y-76313561D02*
X81370552Y-76351657D01*
X82818172Y-76770704D02*
X82780076Y-76808800D01*
X82780076Y-76808800D02*
X82665791Y-76846895D01*
X82665791Y-76846895D02*
X82589600Y-76846895D01*
X82589600Y-76846895D02*
X82475314Y-76808800D01*
X82475314Y-76808800D02*
X82399124Y-76732609D01*
X82399124Y-76732609D02*
X82361029Y-76656419D01*
X82361029Y-76656419D02*
X82322933Y-76504038D01*
X82322933Y-76504038D02*
X82322933Y-76389752D01*
X82322933Y-76389752D02*
X82361029Y-76237371D01*
X82361029Y-76237371D02*
X82399124Y-76161180D01*
X82399124Y-76161180D02*
X82475314Y-76084990D01*
X82475314Y-76084990D02*
X82589600Y-76046895D01*
X82589600Y-76046895D02*
X82665791Y-76046895D01*
X82665791Y-76046895D02*
X82780076Y-76084990D01*
X82780076Y-76084990D02*
X82818172Y-76123085D01*
X83275314Y-76846895D02*
X83199124Y-76808800D01*
X83199124Y-76808800D02*
X83161029Y-76770704D01*
X83161029Y-76770704D02*
X83122933Y-76694514D01*
X83122933Y-76694514D02*
X83122933Y-76465942D01*
X83122933Y-76465942D02*
X83161029Y-76389752D01*
X83161029Y-76389752D02*
X83199124Y-76351657D01*
X83199124Y-76351657D02*
X83275314Y-76313561D01*
X83275314Y-76313561D02*
X83389600Y-76313561D01*
X83389600Y-76313561D02*
X83465791Y-76351657D01*
X83465791Y-76351657D02*
X83503886Y-76389752D01*
X83503886Y-76389752D02*
X83541981Y-76465942D01*
X83541981Y-76465942D02*
X83541981Y-76694514D01*
X83541981Y-76694514D02*
X83503886Y-76770704D01*
X83503886Y-76770704D02*
X83465791Y-76808800D01*
X83465791Y-76808800D02*
X83389600Y-76846895D01*
X83389600Y-76846895D02*
X83275314Y-76846895D01*
X83884839Y-76846895D02*
X83884839Y-76313561D01*
X83884839Y-76389752D02*
X83922934Y-76351657D01*
X83922934Y-76351657D02*
X83999124Y-76313561D01*
X83999124Y-76313561D02*
X84113410Y-76313561D01*
X84113410Y-76313561D02*
X84189601Y-76351657D01*
X84189601Y-76351657D02*
X84227696Y-76427847D01*
X84227696Y-76427847D02*
X84227696Y-76846895D01*
X84227696Y-76427847D02*
X84265791Y-76351657D01*
X84265791Y-76351657D02*
X84341982Y-76313561D01*
X84341982Y-76313561D02*
X84456267Y-76313561D01*
X84456267Y-76313561D02*
X84532458Y-76351657D01*
X84532458Y-76351657D02*
X84570553Y-76427847D01*
X84570553Y-76427847D02*
X84570553Y-76846895D01*
X84951506Y-76313561D02*
X84951506Y-77113561D01*
X84951506Y-76351657D02*
X85027696Y-76313561D01*
X85027696Y-76313561D02*
X85180077Y-76313561D01*
X85180077Y-76313561D02*
X85256268Y-76351657D01*
X85256268Y-76351657D02*
X85294363Y-76389752D01*
X85294363Y-76389752D02*
X85332458Y-76465942D01*
X85332458Y-76465942D02*
X85332458Y-76694514D01*
X85332458Y-76694514D02*
X85294363Y-76770704D01*
X85294363Y-76770704D02*
X85256268Y-76808800D01*
X85256268Y-76808800D02*
X85180077Y-76846895D01*
X85180077Y-76846895D02*
X85027696Y-76846895D01*
X85027696Y-76846895D02*
X84951506Y-76808800D01*
X85789601Y-76846895D02*
X85713411Y-76808800D01*
X85713411Y-76808800D02*
X85675316Y-76732609D01*
X85675316Y-76732609D02*
X85675316Y-76046895D01*
X86399126Y-76808800D02*
X86322935Y-76846895D01*
X86322935Y-76846895D02*
X86170554Y-76846895D01*
X86170554Y-76846895D02*
X86094364Y-76808800D01*
X86094364Y-76808800D02*
X86056268Y-76732609D01*
X86056268Y-76732609D02*
X86056268Y-76427847D01*
X86056268Y-76427847D02*
X86094364Y-76351657D01*
X86094364Y-76351657D02*
X86170554Y-76313561D01*
X86170554Y-76313561D02*
X86322935Y-76313561D01*
X86322935Y-76313561D02*
X86399126Y-76351657D01*
X86399126Y-76351657D02*
X86437221Y-76427847D01*
X86437221Y-76427847D02*
X86437221Y-76504038D01*
X86437221Y-76504038D02*
X86056268Y-76580228D01*
X86665792Y-76313561D02*
X86970554Y-76313561D01*
X86780078Y-76046895D02*
X86780078Y-76732609D01*
X86780078Y-76732609D02*
X86818173Y-76808800D01*
X86818173Y-76808800D02*
X86894363Y-76846895D01*
X86894363Y-76846895D02*
X86970554Y-76846895D01*
X87541983Y-76808800D02*
X87465792Y-76846895D01*
X87465792Y-76846895D02*
X87313411Y-76846895D01*
X87313411Y-76846895D02*
X87237221Y-76808800D01*
X87237221Y-76808800D02*
X87199125Y-76732609D01*
X87199125Y-76732609D02*
X87199125Y-76427847D01*
X87199125Y-76427847D02*
X87237221Y-76351657D01*
X87237221Y-76351657D02*
X87313411Y-76313561D01*
X87313411Y-76313561D02*
X87465792Y-76313561D01*
X87465792Y-76313561D02*
X87541983Y-76351657D01*
X87541983Y-76351657D02*
X87580078Y-76427847D01*
X87580078Y-76427847D02*
X87580078Y-76504038D01*
X87580078Y-76504038D02*
X87199125Y-76580228D01*
X169201115Y-91295283D02*
X169201115Y-91771473D01*
X169201115Y-91771473D02*
X168201115Y-91771473D01*
X169105876Y-90390521D02*
X169153496Y-90438140D01*
X169153496Y-90438140D02*
X169201115Y-90580997D01*
X169201115Y-90580997D02*
X169201115Y-90676235D01*
X169201115Y-90676235D02*
X169153496Y-90819092D01*
X169153496Y-90819092D02*
X169058257Y-90914330D01*
X169058257Y-90914330D02*
X168963019Y-90961949D01*
X168963019Y-90961949D02*
X168772543Y-91009568D01*
X168772543Y-91009568D02*
X168629686Y-91009568D01*
X168629686Y-91009568D02*
X168439210Y-90961949D01*
X168439210Y-90961949D02*
X168343972Y-90914330D01*
X168343972Y-90914330D02*
X168248734Y-90819092D01*
X168248734Y-90819092D02*
X168201115Y-90676235D01*
X168201115Y-90676235D02*
X168201115Y-90580997D01*
X168201115Y-90580997D02*
X168248734Y-90438140D01*
X168248734Y-90438140D02*
X168296353Y-90390521D01*
X169201115Y-89961949D02*
X168201115Y-89961949D01*
X168201115Y-89961949D02*
X168201115Y-89723854D01*
X168201115Y-89723854D02*
X168248734Y-89580997D01*
X168248734Y-89580997D02*
X168343972Y-89485759D01*
X168343972Y-89485759D02*
X168439210Y-89438140D01*
X168439210Y-89438140D02*
X168629686Y-89390521D01*
X168629686Y-89390521D02*
X168772543Y-89390521D01*
X168772543Y-89390521D02*
X168963019Y-89438140D01*
X168963019Y-89438140D02*
X169058257Y-89485759D01*
X169058257Y-89485759D02*
X169153496Y-89580997D01*
X169153496Y-89580997D02*
X169201115Y-89723854D01*
X169201115Y-89723854D02*
X169201115Y-89961949D01*
X169153496Y-88247663D02*
X169201115Y-88104806D01*
X169201115Y-88104806D02*
X169201115Y-87866711D01*
X169201115Y-87866711D02*
X169153496Y-87771473D01*
X169153496Y-87771473D02*
X169105876Y-87723854D01*
X169105876Y-87723854D02*
X169010638Y-87676235D01*
X169010638Y-87676235D02*
X168915400Y-87676235D01*
X168915400Y-87676235D02*
X168820162Y-87723854D01*
X168820162Y-87723854D02*
X168772543Y-87771473D01*
X168772543Y-87771473D02*
X168724924Y-87866711D01*
X168724924Y-87866711D02*
X168677305Y-88057187D01*
X168677305Y-88057187D02*
X168629686Y-88152425D01*
X168629686Y-88152425D02*
X168582067Y-88200044D01*
X168582067Y-88200044D02*
X168486829Y-88247663D01*
X168486829Y-88247663D02*
X168391591Y-88247663D01*
X168391591Y-88247663D02*
X168296353Y-88200044D01*
X168296353Y-88200044D02*
X168248734Y-88152425D01*
X168248734Y-88152425D02*
X168201115Y-88057187D01*
X168201115Y-88057187D02*
X168201115Y-87819092D01*
X168201115Y-87819092D02*
X168248734Y-87676235D01*
X169153496Y-86819092D02*
X169201115Y-86914330D01*
X169201115Y-86914330D02*
X169201115Y-87104806D01*
X169201115Y-87104806D02*
X169153496Y-87200044D01*
X169153496Y-87200044D02*
X169105876Y-87247663D01*
X169105876Y-87247663D02*
X169010638Y-87295282D01*
X169010638Y-87295282D02*
X168724924Y-87295282D01*
X168724924Y-87295282D02*
X168629686Y-87247663D01*
X168629686Y-87247663D02*
X168582067Y-87200044D01*
X168582067Y-87200044D02*
X168534448Y-87104806D01*
X168534448Y-87104806D02*
X168534448Y-86914330D01*
X168534448Y-86914330D02*
X168582067Y-86819092D01*
X169201115Y-86390520D02*
X168534448Y-86390520D01*
X168724924Y-86390520D02*
X168629686Y-86342901D01*
X168629686Y-86342901D02*
X168582067Y-86295282D01*
X168582067Y-86295282D02*
X168534448Y-86200044D01*
X168534448Y-86200044D02*
X168534448Y-86104806D01*
X169153496Y-85390520D02*
X169201115Y-85485758D01*
X169201115Y-85485758D02*
X169201115Y-85676234D01*
X169201115Y-85676234D02*
X169153496Y-85771472D01*
X169153496Y-85771472D02*
X169058257Y-85819091D01*
X169058257Y-85819091D02*
X168677305Y-85819091D01*
X168677305Y-85819091D02*
X168582067Y-85771472D01*
X168582067Y-85771472D02*
X168534448Y-85676234D01*
X168534448Y-85676234D02*
X168534448Y-85485758D01*
X168534448Y-85485758D02*
X168582067Y-85390520D01*
X168582067Y-85390520D02*
X168677305Y-85342901D01*
X168677305Y-85342901D02*
X168772543Y-85342901D01*
X168772543Y-85342901D02*
X168867781Y-85819091D01*
X169153496Y-84533377D02*
X169201115Y-84628615D01*
X169201115Y-84628615D02*
X169201115Y-84819091D01*
X169201115Y-84819091D02*
X169153496Y-84914329D01*
X169153496Y-84914329D02*
X169058257Y-84961948D01*
X169058257Y-84961948D02*
X168677305Y-84961948D01*
X168677305Y-84961948D02*
X168582067Y-84914329D01*
X168582067Y-84914329D02*
X168534448Y-84819091D01*
X168534448Y-84819091D02*
X168534448Y-84628615D01*
X168534448Y-84628615D02*
X168582067Y-84533377D01*
X168582067Y-84533377D02*
X168677305Y-84485758D01*
X168677305Y-84485758D02*
X168772543Y-84485758D01*
X168772543Y-84485758D02*
X168867781Y-84961948D01*
X168534448Y-84057186D02*
X169201115Y-84057186D01*
X168629686Y-84057186D02*
X168582067Y-84009567D01*
X168582067Y-84009567D02*
X168534448Y-83914329D01*
X168534448Y-83914329D02*
X168534448Y-83771472D01*
X168534448Y-83771472D02*
X168582067Y-83676234D01*
X168582067Y-83676234D02*
X168677305Y-83628615D01*
X168677305Y-83628615D02*
X169201115Y-83628615D01*
X145534961Y-83750158D02*
X145677818Y-83797777D01*
X145677818Y-83797777D02*
X145915913Y-83797777D01*
X145915913Y-83797777D02*
X146011151Y-83750158D01*
X146011151Y-83750158D02*
X146058770Y-83702538D01*
X146058770Y-83702538D02*
X146106389Y-83607300D01*
X146106389Y-83607300D02*
X146106389Y-83512062D01*
X146106389Y-83512062D02*
X146058770Y-83416824D01*
X146058770Y-83416824D02*
X146011151Y-83369205D01*
X146011151Y-83369205D02*
X145915913Y-83321586D01*
X145915913Y-83321586D02*
X145725437Y-83273967D01*
X145725437Y-83273967D02*
X145630199Y-83226348D01*
X145630199Y-83226348D02*
X145582580Y-83178729D01*
X145582580Y-83178729D02*
X145534961Y-83083491D01*
X145534961Y-83083491D02*
X145534961Y-82988253D01*
X145534961Y-82988253D02*
X145582580Y-82893015D01*
X145582580Y-82893015D02*
X145630199Y-82845396D01*
X145630199Y-82845396D02*
X145725437Y-82797777D01*
X145725437Y-82797777D02*
X145963532Y-82797777D01*
X145963532Y-82797777D02*
X146106389Y-82845396D01*
X146439723Y-82797777D02*
X146677818Y-83797777D01*
X146677818Y-83797777D02*
X146868294Y-83083491D01*
X146868294Y-83083491D02*
X147058770Y-83797777D01*
X147058770Y-83797777D02*
X147296866Y-82797777D01*
X148249246Y-83702538D02*
X148201627Y-83750158D01*
X148201627Y-83750158D02*
X148058770Y-83797777D01*
X148058770Y-83797777D02*
X147963532Y-83797777D01*
X147963532Y-83797777D02*
X147820675Y-83750158D01*
X147820675Y-83750158D02*
X147725437Y-83654919D01*
X147725437Y-83654919D02*
X147677818Y-83559681D01*
X147677818Y-83559681D02*
X147630199Y-83369205D01*
X147630199Y-83369205D02*
X147630199Y-83226348D01*
X147630199Y-83226348D02*
X147677818Y-83035872D01*
X147677818Y-83035872D02*
X147725437Y-82940634D01*
X147725437Y-82940634D02*
X147820675Y-82845396D01*
X147820675Y-82845396D02*
X147963532Y-82797777D01*
X147963532Y-82797777D02*
X148058770Y-82797777D01*
X148058770Y-82797777D02*
X148201627Y-82845396D01*
X148201627Y-82845396D02*
X148249246Y-82893015D01*
X149154008Y-83797777D02*
X148677818Y-83797777D01*
X148677818Y-83797777D02*
X148677818Y-82797777D01*
X149487342Y-83797777D02*
X149487342Y-82797777D01*
X150058770Y-83797777D02*
X149630199Y-83226348D01*
X150058770Y-82797777D02*
X149487342Y-83369205D01*
X130903496Y-75319092D02*
X130951115Y-75176235D01*
X130951115Y-75176235D02*
X130951115Y-74938140D01*
X130951115Y-74938140D02*
X130903496Y-74842902D01*
X130903496Y-74842902D02*
X130855876Y-74795283D01*
X130855876Y-74795283D02*
X130760638Y-74747664D01*
X130760638Y-74747664D02*
X130665400Y-74747664D01*
X130665400Y-74747664D02*
X130570162Y-74795283D01*
X130570162Y-74795283D02*
X130522543Y-74842902D01*
X130522543Y-74842902D02*
X130474924Y-74938140D01*
X130474924Y-74938140D02*
X130427305Y-75128616D01*
X130427305Y-75128616D02*
X130379686Y-75223854D01*
X130379686Y-75223854D02*
X130332067Y-75271473D01*
X130332067Y-75271473D02*
X130236829Y-75319092D01*
X130236829Y-75319092D02*
X130141591Y-75319092D01*
X130141591Y-75319092D02*
X130046353Y-75271473D01*
X130046353Y-75271473D02*
X129998734Y-75223854D01*
X129998734Y-75223854D02*
X129951115Y-75128616D01*
X129951115Y-75128616D02*
X129951115Y-74890521D01*
X129951115Y-74890521D02*
X129998734Y-74747664D01*
X130951115Y-74319092D02*
X129951115Y-74319092D01*
X129951115Y-74319092D02*
X129951115Y-74080997D01*
X129951115Y-74080997D02*
X129998734Y-73938140D01*
X129998734Y-73938140D02*
X130093972Y-73842902D01*
X130093972Y-73842902D02*
X130189210Y-73795283D01*
X130189210Y-73795283D02*
X130379686Y-73747664D01*
X130379686Y-73747664D02*
X130522543Y-73747664D01*
X130522543Y-73747664D02*
X130713019Y-73795283D01*
X130713019Y-73795283D02*
X130808257Y-73842902D01*
X130808257Y-73842902D02*
X130903496Y-73938140D01*
X130903496Y-73938140D02*
X130951115Y-74080997D01*
X130951115Y-74080997D02*
X130951115Y-74319092D01*
X130665400Y-73366711D02*
X130665400Y-72890521D01*
X130951115Y-73461949D02*
X129951115Y-73128616D01*
X129951115Y-73128616D02*
X130951115Y-72795283D01*
X86825312Y-60877180D02*
X86777693Y-60924800D01*
X86777693Y-60924800D02*
X86634836Y-60972419D01*
X86634836Y-60972419D02*
X86539598Y-60972419D01*
X86539598Y-60972419D02*
X86396741Y-60924800D01*
X86396741Y-60924800D02*
X86301503Y-60829561D01*
X86301503Y-60829561D02*
X86253884Y-60734323D01*
X86253884Y-60734323D02*
X86206265Y-60543847D01*
X86206265Y-60543847D02*
X86206265Y-60400990D01*
X86206265Y-60400990D02*
X86253884Y-60210514D01*
X86253884Y-60210514D02*
X86301503Y-60115276D01*
X86301503Y-60115276D02*
X86396741Y-60020038D01*
X86396741Y-60020038D02*
X86539598Y-59972419D01*
X86539598Y-59972419D02*
X86634836Y-59972419D01*
X86634836Y-59972419D02*
X86777693Y-60020038D01*
X86777693Y-60020038D02*
X86825312Y-60067657D01*
X87682455Y-60305752D02*
X87682455Y-60972419D01*
X87253884Y-60305752D02*
X87253884Y-60829561D01*
X87253884Y-60829561D02*
X87301503Y-60924800D01*
X87301503Y-60924800D02*
X87396741Y-60972419D01*
X87396741Y-60972419D02*
X87539598Y-60972419D01*
X87539598Y-60972419D02*
X87634836Y-60924800D01*
X87634836Y-60924800D02*
X87682455Y-60877180D01*
X88158646Y-60972419D02*
X88158646Y-60305752D01*
X88158646Y-60496228D02*
X88206265Y-60400990D01*
X88206265Y-60400990D02*
X88253884Y-60353371D01*
X88253884Y-60353371D02*
X88349122Y-60305752D01*
X88349122Y-60305752D02*
X88444360Y-60305752D01*
X88777694Y-60972419D02*
X88777694Y-60305752D01*
X88777694Y-60496228D02*
X88825313Y-60400990D01*
X88825313Y-60400990D02*
X88872932Y-60353371D01*
X88872932Y-60353371D02*
X88968170Y-60305752D01*
X88968170Y-60305752D02*
X89063408Y-60305752D01*
X89777694Y-60924800D02*
X89682456Y-60972419D01*
X89682456Y-60972419D02*
X89491980Y-60972419D01*
X89491980Y-60972419D02*
X89396742Y-60924800D01*
X89396742Y-60924800D02*
X89349123Y-60829561D01*
X89349123Y-60829561D02*
X89349123Y-60448609D01*
X89349123Y-60448609D02*
X89396742Y-60353371D01*
X89396742Y-60353371D02*
X89491980Y-60305752D01*
X89491980Y-60305752D02*
X89682456Y-60305752D01*
X89682456Y-60305752D02*
X89777694Y-60353371D01*
X89777694Y-60353371D02*
X89825313Y-60448609D01*
X89825313Y-60448609D02*
X89825313Y-60543847D01*
X89825313Y-60543847D02*
X89349123Y-60639085D01*
X90253885Y-60305752D02*
X90253885Y-60972419D01*
X90253885Y-60400990D02*
X90301504Y-60353371D01*
X90301504Y-60353371D02*
X90396742Y-60305752D01*
X90396742Y-60305752D02*
X90539599Y-60305752D01*
X90539599Y-60305752D02*
X90634837Y-60353371D01*
X90634837Y-60353371D02*
X90682456Y-60448609D01*
X90682456Y-60448609D02*
X90682456Y-60972419D01*
X91015790Y-60305752D02*
X91396742Y-60305752D01*
X91158647Y-59972419D02*
X91158647Y-60829561D01*
X91158647Y-60829561D02*
X91206266Y-60924800D01*
X91206266Y-60924800D02*
X91301504Y-60972419D01*
X91301504Y-60972419D02*
X91396742Y-60972419D01*
X92444362Y-60924800D02*
X92587219Y-60972419D01*
X92587219Y-60972419D02*
X92825314Y-60972419D01*
X92825314Y-60972419D02*
X92920552Y-60924800D01*
X92920552Y-60924800D02*
X92968171Y-60877180D01*
X92968171Y-60877180D02*
X93015790Y-60781942D01*
X93015790Y-60781942D02*
X93015790Y-60686704D01*
X93015790Y-60686704D02*
X92968171Y-60591466D01*
X92968171Y-60591466D02*
X92920552Y-60543847D01*
X92920552Y-60543847D02*
X92825314Y-60496228D01*
X92825314Y-60496228D02*
X92634838Y-60448609D01*
X92634838Y-60448609D02*
X92539600Y-60400990D01*
X92539600Y-60400990D02*
X92491981Y-60353371D01*
X92491981Y-60353371D02*
X92444362Y-60258133D01*
X92444362Y-60258133D02*
X92444362Y-60162895D01*
X92444362Y-60162895D02*
X92491981Y-60067657D01*
X92491981Y-60067657D02*
X92539600Y-60020038D01*
X92539600Y-60020038D02*
X92634838Y-59972419D01*
X92634838Y-59972419D02*
X92872933Y-59972419D01*
X92872933Y-59972419D02*
X93015790Y-60020038D01*
X93349124Y-59972419D02*
X93587219Y-60972419D01*
X93587219Y-60972419D02*
X93777695Y-60258133D01*
X93777695Y-60258133D02*
X93968171Y-60972419D01*
X93968171Y-60972419D02*
X94206267Y-59972419D01*
X95751390Y-78837217D02*
X95703771Y-78980074D01*
X95703771Y-78980074D02*
X95656152Y-79027693D01*
X95656152Y-79027693D02*
X95560914Y-79075312D01*
X95560914Y-79075312D02*
X95418057Y-79075312D01*
X95418057Y-79075312D02*
X95322819Y-79027693D01*
X95322819Y-79027693D02*
X95275200Y-78980074D01*
X95275200Y-78980074D02*
X95227580Y-78884836D01*
X95227580Y-78884836D02*
X95227580Y-78503884D01*
X95227580Y-78503884D02*
X96227580Y-78503884D01*
X96227580Y-78503884D02*
X96227580Y-78837217D01*
X96227580Y-78837217D02*
X96179961Y-78932455D01*
X96179961Y-78932455D02*
X96132342Y-78980074D01*
X96132342Y-78980074D02*
X96037104Y-79027693D01*
X96037104Y-79027693D02*
X95941866Y-79027693D01*
X95941866Y-79027693D02*
X95846628Y-78980074D01*
X95846628Y-78980074D02*
X95799009Y-78932455D01*
X95799009Y-78932455D02*
X95751390Y-78837217D01*
X95751390Y-78837217D02*
X95751390Y-78503884D01*
X95227580Y-79932455D02*
X95751390Y-79932455D01*
X95751390Y-79932455D02*
X95846628Y-79884836D01*
X95846628Y-79884836D02*
X95894247Y-79789598D01*
X95894247Y-79789598D02*
X95894247Y-79599122D01*
X95894247Y-79599122D02*
X95846628Y-79503884D01*
X95275200Y-79932455D02*
X95227580Y-79837217D01*
X95227580Y-79837217D02*
X95227580Y-79599122D01*
X95227580Y-79599122D02*
X95275200Y-79503884D01*
X95275200Y-79503884D02*
X95370438Y-79456265D01*
X95370438Y-79456265D02*
X95465676Y-79456265D01*
X95465676Y-79456265D02*
X95560914Y-79503884D01*
X95560914Y-79503884D02*
X95608533Y-79599122D01*
X95608533Y-79599122D02*
X95608533Y-79837217D01*
X95608533Y-79837217D02*
X95656152Y-79932455D01*
X95894247Y-80265789D02*
X95894247Y-80646741D01*
X96227580Y-80408646D02*
X95370438Y-80408646D01*
X95370438Y-80408646D02*
X95275200Y-80456265D01*
X95275200Y-80456265D02*
X95227580Y-80551503D01*
X95227580Y-80551503D02*
X95227580Y-80646741D01*
X95608533Y-81741980D02*
X95608533Y-82503885D01*
X95227580Y-82122932D02*
X95989485Y-82122932D01*
X148081115Y-105771473D02*
X148890638Y-105771473D01*
X148890638Y-105771473D02*
X148985876Y-105723854D01*
X148985876Y-105723854D02*
X149033496Y-105676235D01*
X149033496Y-105676235D02*
X149081115Y-105580997D01*
X149081115Y-105580997D02*
X149081115Y-105390521D01*
X149081115Y-105390521D02*
X149033496Y-105295283D01*
X149033496Y-105295283D02*
X148985876Y-105247664D01*
X148985876Y-105247664D02*
X148890638Y-105200045D01*
X148890638Y-105200045D02*
X148081115Y-105200045D01*
X149033496Y-104771473D02*
X149081115Y-104628616D01*
X149081115Y-104628616D02*
X149081115Y-104390521D01*
X149081115Y-104390521D02*
X149033496Y-104295283D01*
X149033496Y-104295283D02*
X148985876Y-104247664D01*
X148985876Y-104247664D02*
X148890638Y-104200045D01*
X148890638Y-104200045D02*
X148795400Y-104200045D01*
X148795400Y-104200045D02*
X148700162Y-104247664D01*
X148700162Y-104247664D02*
X148652543Y-104295283D01*
X148652543Y-104295283D02*
X148604924Y-104390521D01*
X148604924Y-104390521D02*
X148557305Y-104580997D01*
X148557305Y-104580997D02*
X148509686Y-104676235D01*
X148509686Y-104676235D02*
X148462067Y-104723854D01*
X148462067Y-104723854D02*
X148366829Y-104771473D01*
X148366829Y-104771473D02*
X148271591Y-104771473D01*
X148271591Y-104771473D02*
X148176353Y-104723854D01*
X148176353Y-104723854D02*
X148128734Y-104676235D01*
X148128734Y-104676235D02*
X148081115Y-104580997D01*
X148081115Y-104580997D02*
X148081115Y-104342902D01*
X148081115Y-104342902D02*
X148128734Y-104200045D01*
X148795400Y-103819092D02*
X148795400Y-103342902D01*
X149081115Y-103914330D02*
X148081115Y-103580997D01*
X148081115Y-103580997D02*
X149081115Y-103247664D01*
X149081115Y-102342902D02*
X148604924Y-102676235D01*
X149081115Y-102914330D02*
X148081115Y-102914330D01*
X148081115Y-102914330D02*
X148081115Y-102533378D01*
X148081115Y-102533378D02*
X148128734Y-102438140D01*
X148128734Y-102438140D02*
X148176353Y-102390521D01*
X148176353Y-102390521D02*
X148271591Y-102342902D01*
X148271591Y-102342902D02*
X148414448Y-102342902D01*
X148414448Y-102342902D02*
X148509686Y-102390521D01*
X148509686Y-102390521D02*
X148557305Y-102438140D01*
X148557305Y-102438140D02*
X148604924Y-102533378D01*
X148604924Y-102533378D02*
X148604924Y-102914330D01*
X148081115Y-102057187D02*
X148081115Y-101485759D01*
X149081115Y-101771473D02*
X148081115Y-101771473D01*
X133643496Y-75219092D02*
X133691115Y-75076235D01*
X133691115Y-75076235D02*
X133691115Y-74838140D01*
X133691115Y-74838140D02*
X133643496Y-74742902D01*
X133643496Y-74742902D02*
X133595876Y-74695283D01*
X133595876Y-74695283D02*
X133500638Y-74647664D01*
X133500638Y-74647664D02*
X133405400Y-74647664D01*
X133405400Y-74647664D02*
X133310162Y-74695283D01*
X133310162Y-74695283D02*
X133262543Y-74742902D01*
X133262543Y-74742902D02*
X133214924Y-74838140D01*
X133214924Y-74838140D02*
X133167305Y-75028616D01*
X133167305Y-75028616D02*
X133119686Y-75123854D01*
X133119686Y-75123854D02*
X133072067Y-75171473D01*
X133072067Y-75171473D02*
X132976829Y-75219092D01*
X132976829Y-75219092D02*
X132881591Y-75219092D01*
X132881591Y-75219092D02*
X132786353Y-75171473D01*
X132786353Y-75171473D02*
X132738734Y-75123854D01*
X132738734Y-75123854D02*
X132691115Y-75028616D01*
X132691115Y-75028616D02*
X132691115Y-74790521D01*
X132691115Y-74790521D02*
X132738734Y-74647664D01*
X133595876Y-73647664D02*
X133643496Y-73695283D01*
X133643496Y-73695283D02*
X133691115Y-73838140D01*
X133691115Y-73838140D02*
X133691115Y-73933378D01*
X133691115Y-73933378D02*
X133643496Y-74076235D01*
X133643496Y-74076235D02*
X133548257Y-74171473D01*
X133548257Y-74171473D02*
X133453019Y-74219092D01*
X133453019Y-74219092D02*
X133262543Y-74266711D01*
X133262543Y-74266711D02*
X133119686Y-74266711D01*
X133119686Y-74266711D02*
X132929210Y-74219092D01*
X132929210Y-74219092D02*
X132833972Y-74171473D01*
X132833972Y-74171473D02*
X132738734Y-74076235D01*
X132738734Y-74076235D02*
X132691115Y-73933378D01*
X132691115Y-73933378D02*
X132691115Y-73838140D01*
X132691115Y-73838140D02*
X132738734Y-73695283D01*
X132738734Y-73695283D02*
X132786353Y-73647664D01*
X133691115Y-72742902D02*
X133691115Y-73219092D01*
X133691115Y-73219092D02*
X132691115Y-73219092D01*
X75113408Y-83770704D02*
X75075312Y-83808800D01*
X75075312Y-83808800D02*
X74961027Y-83846895D01*
X74961027Y-83846895D02*
X74884836Y-83846895D01*
X74884836Y-83846895D02*
X74770550Y-83808800D01*
X74770550Y-83808800D02*
X74694360Y-83732609D01*
X74694360Y-83732609D02*
X74656265Y-83656419D01*
X74656265Y-83656419D02*
X74618169Y-83504038D01*
X74618169Y-83504038D02*
X74618169Y-83389752D01*
X74618169Y-83389752D02*
X74656265Y-83237371D01*
X74656265Y-83237371D02*
X74694360Y-83161180D01*
X74694360Y-83161180D02*
X74770550Y-83084990D01*
X74770550Y-83084990D02*
X74884836Y-83046895D01*
X74884836Y-83046895D02*
X74961027Y-83046895D01*
X74961027Y-83046895D02*
X75075312Y-83084990D01*
X75075312Y-83084990D02*
X75113408Y-83123085D01*
X75456265Y-83846895D02*
X75456265Y-83046895D01*
X75799122Y-83846895D02*
X75799122Y-83427847D01*
X75799122Y-83427847D02*
X75761027Y-83351657D01*
X75761027Y-83351657D02*
X75684836Y-83313561D01*
X75684836Y-83313561D02*
X75570550Y-83313561D01*
X75570550Y-83313561D02*
X75494360Y-83351657D01*
X75494360Y-83351657D02*
X75456265Y-83389752D01*
X76522932Y-83846895D02*
X76522932Y-83427847D01*
X76522932Y-83427847D02*
X76484837Y-83351657D01*
X76484837Y-83351657D02*
X76408646Y-83313561D01*
X76408646Y-83313561D02*
X76256265Y-83313561D01*
X76256265Y-83313561D02*
X76180075Y-83351657D01*
X76522932Y-83808800D02*
X76446741Y-83846895D01*
X76446741Y-83846895D02*
X76256265Y-83846895D01*
X76256265Y-83846895D02*
X76180075Y-83808800D01*
X76180075Y-83808800D02*
X76141979Y-83732609D01*
X76141979Y-83732609D02*
X76141979Y-83656419D01*
X76141979Y-83656419D02*
X76180075Y-83580228D01*
X76180075Y-83580228D02*
X76256265Y-83542133D01*
X76256265Y-83542133D02*
X76446741Y-83542133D01*
X76446741Y-83542133D02*
X76522932Y-83504038D01*
X76903885Y-83846895D02*
X76903885Y-83313561D01*
X76903885Y-83465942D02*
X76941980Y-83389752D01*
X76941980Y-83389752D02*
X76980075Y-83351657D01*
X76980075Y-83351657D02*
X77056266Y-83313561D01*
X77056266Y-83313561D02*
X77132456Y-83313561D01*
X77741980Y-83313561D02*
X77741980Y-83961180D01*
X77741980Y-83961180D02*
X77703885Y-84037371D01*
X77703885Y-84037371D02*
X77665789Y-84075466D01*
X77665789Y-84075466D02*
X77589599Y-84113561D01*
X77589599Y-84113561D02*
X77475313Y-84113561D01*
X77475313Y-84113561D02*
X77399123Y-84075466D01*
X77741980Y-83808800D02*
X77665789Y-83846895D01*
X77665789Y-83846895D02*
X77513408Y-83846895D01*
X77513408Y-83846895D02*
X77437218Y-83808800D01*
X77437218Y-83808800D02*
X77399123Y-83770704D01*
X77399123Y-83770704D02*
X77361027Y-83694514D01*
X77361027Y-83694514D02*
X77361027Y-83465942D01*
X77361027Y-83465942D02*
X77399123Y-83389752D01*
X77399123Y-83389752D02*
X77437218Y-83351657D01*
X77437218Y-83351657D02*
X77513408Y-83313561D01*
X77513408Y-83313561D02*
X77665789Y-83313561D01*
X77665789Y-83313561D02*
X77741980Y-83351657D01*
X78122933Y-83846895D02*
X78122933Y-83313561D01*
X78122933Y-83046895D02*
X78084837Y-83084990D01*
X78084837Y-83084990D02*
X78122933Y-83123085D01*
X78122933Y-83123085D02*
X78161028Y-83084990D01*
X78161028Y-83084990D02*
X78122933Y-83046895D01*
X78122933Y-83046895D02*
X78122933Y-83123085D01*
X78503885Y-83313561D02*
X78503885Y-83846895D01*
X78503885Y-83389752D02*
X78541980Y-83351657D01*
X78541980Y-83351657D02*
X78618170Y-83313561D01*
X78618170Y-83313561D02*
X78732456Y-83313561D01*
X78732456Y-83313561D02*
X78808647Y-83351657D01*
X78808647Y-83351657D02*
X78846742Y-83427847D01*
X78846742Y-83427847D02*
X78846742Y-83846895D01*
X79570552Y-83313561D02*
X79570552Y-83961180D01*
X79570552Y-83961180D02*
X79532457Y-84037371D01*
X79532457Y-84037371D02*
X79494361Y-84075466D01*
X79494361Y-84075466D02*
X79418171Y-84113561D01*
X79418171Y-84113561D02*
X79303885Y-84113561D01*
X79303885Y-84113561D02*
X79227695Y-84075466D01*
X79570552Y-83808800D02*
X79494361Y-83846895D01*
X79494361Y-83846895D02*
X79341980Y-83846895D01*
X79341980Y-83846895D02*
X79265790Y-83808800D01*
X79265790Y-83808800D02*
X79227695Y-83770704D01*
X79227695Y-83770704D02*
X79189599Y-83694514D01*
X79189599Y-83694514D02*
X79189599Y-83465942D01*
X79189599Y-83465942D02*
X79227695Y-83389752D01*
X79227695Y-83389752D02*
X79265790Y-83351657D01*
X79265790Y-83351657D02*
X79341980Y-83313561D01*
X79341980Y-83313561D02*
X79494361Y-83313561D01*
X79494361Y-83313561D02*
X79570552Y-83351657D01*
X80522933Y-83008800D02*
X79837219Y-84037371D01*
X81170552Y-83846895D02*
X80789600Y-83846895D01*
X80789600Y-83846895D02*
X80789600Y-83046895D01*
X81551504Y-83846895D02*
X81475314Y-83808800D01*
X81475314Y-83808800D02*
X81437219Y-83770704D01*
X81437219Y-83770704D02*
X81399123Y-83694514D01*
X81399123Y-83694514D02*
X81399123Y-83465942D01*
X81399123Y-83465942D02*
X81437219Y-83389752D01*
X81437219Y-83389752D02*
X81475314Y-83351657D01*
X81475314Y-83351657D02*
X81551504Y-83313561D01*
X81551504Y-83313561D02*
X81665790Y-83313561D01*
X81665790Y-83313561D02*
X81741981Y-83351657D01*
X81741981Y-83351657D02*
X81780076Y-83389752D01*
X81780076Y-83389752D02*
X81818171Y-83465942D01*
X81818171Y-83465942D02*
X81818171Y-83694514D01*
X81818171Y-83694514D02*
X81780076Y-83770704D01*
X81780076Y-83770704D02*
X81741981Y-83808800D01*
X81741981Y-83808800D02*
X81665790Y-83846895D01*
X81665790Y-83846895D02*
X81551504Y-83846895D01*
X82084838Y-83313561D02*
X82237219Y-83846895D01*
X82237219Y-83846895D02*
X82389600Y-83465942D01*
X82389600Y-83465942D02*
X82541981Y-83846895D01*
X82541981Y-83846895D02*
X82694362Y-83313561D01*
X83875314Y-83427847D02*
X83989600Y-83465942D01*
X83989600Y-83465942D02*
X84027695Y-83504038D01*
X84027695Y-83504038D02*
X84065791Y-83580228D01*
X84065791Y-83580228D02*
X84065791Y-83694514D01*
X84065791Y-83694514D02*
X84027695Y-83770704D01*
X84027695Y-83770704D02*
X83989600Y-83808800D01*
X83989600Y-83808800D02*
X83913410Y-83846895D01*
X83913410Y-83846895D02*
X83608648Y-83846895D01*
X83608648Y-83846895D02*
X83608648Y-83046895D01*
X83608648Y-83046895D02*
X83875314Y-83046895D01*
X83875314Y-83046895D02*
X83951505Y-83084990D01*
X83951505Y-83084990D02*
X83989600Y-83123085D01*
X83989600Y-83123085D02*
X84027695Y-83199276D01*
X84027695Y-83199276D02*
X84027695Y-83275466D01*
X84027695Y-83275466D02*
X83989600Y-83351657D01*
X83989600Y-83351657D02*
X83951505Y-83389752D01*
X83951505Y-83389752D02*
X83875314Y-83427847D01*
X83875314Y-83427847D02*
X83608648Y-83427847D01*
X84751505Y-83846895D02*
X84751505Y-83427847D01*
X84751505Y-83427847D02*
X84713410Y-83351657D01*
X84713410Y-83351657D02*
X84637219Y-83313561D01*
X84637219Y-83313561D02*
X84484838Y-83313561D01*
X84484838Y-83313561D02*
X84408648Y-83351657D01*
X84751505Y-83808800D02*
X84675314Y-83846895D01*
X84675314Y-83846895D02*
X84484838Y-83846895D01*
X84484838Y-83846895D02*
X84408648Y-83808800D01*
X84408648Y-83808800D02*
X84370552Y-83732609D01*
X84370552Y-83732609D02*
X84370552Y-83656419D01*
X84370552Y-83656419D02*
X84408648Y-83580228D01*
X84408648Y-83580228D02*
X84484838Y-83542133D01*
X84484838Y-83542133D02*
X84675314Y-83542133D01*
X84675314Y-83542133D02*
X84751505Y-83504038D01*
X85018172Y-83313561D02*
X85322934Y-83313561D01*
X85132458Y-83046895D02*
X85132458Y-83732609D01*
X85132458Y-83732609D02*
X85170553Y-83808800D01*
X85170553Y-83808800D02*
X85246743Y-83846895D01*
X85246743Y-83846895D02*
X85322934Y-83846895D01*
X85475315Y-83313561D02*
X85780077Y-83313561D01*
X85589601Y-83046895D02*
X85589601Y-83732609D01*
X85589601Y-83732609D02*
X85627696Y-83808800D01*
X85627696Y-83808800D02*
X85703886Y-83846895D01*
X85703886Y-83846895D02*
X85780077Y-83846895D01*
X86351506Y-83808800D02*
X86275315Y-83846895D01*
X86275315Y-83846895D02*
X86122934Y-83846895D01*
X86122934Y-83846895D02*
X86046744Y-83808800D01*
X86046744Y-83808800D02*
X86008648Y-83732609D01*
X86008648Y-83732609D02*
X86008648Y-83427847D01*
X86008648Y-83427847D02*
X86046744Y-83351657D01*
X86046744Y-83351657D02*
X86122934Y-83313561D01*
X86122934Y-83313561D02*
X86275315Y-83313561D01*
X86275315Y-83313561D02*
X86351506Y-83351657D01*
X86351506Y-83351657D02*
X86389601Y-83427847D01*
X86389601Y-83427847D02*
X86389601Y-83504038D01*
X86389601Y-83504038D02*
X86008648Y-83580228D01*
X86732458Y-83846895D02*
X86732458Y-83313561D01*
X86732458Y-83465942D02*
X86770553Y-83389752D01*
X86770553Y-83389752D02*
X86808648Y-83351657D01*
X86808648Y-83351657D02*
X86884839Y-83313561D01*
X86884839Y-83313561D02*
X86961029Y-83313561D01*
X87151505Y-83313561D02*
X87341981Y-83846895D01*
X87532458Y-83313561D02*
X87341981Y-83846895D01*
X87341981Y-83846895D02*
X87265791Y-84037371D01*
X87265791Y-84037371D02*
X87227696Y-84075466D01*
X87227696Y-84075466D02*
X87151505Y-84113561D01*
D11*
X136759580Y-103466666D02*
X136807200Y-103514285D01*
X136807200Y-103514285D02*
X136854819Y-103657142D01*
X136854819Y-103657142D02*
X136854819Y-103752380D01*
X136854819Y-103752380D02*
X136807200Y-103895237D01*
X136807200Y-103895237D02*
X136711961Y-103990475D01*
X136711961Y-103990475D02*
X136616723Y-104038094D01*
X136616723Y-104038094D02*
X136426247Y-104085713D01*
X136426247Y-104085713D02*
X136283390Y-104085713D01*
X136283390Y-104085713D02*
X136092914Y-104038094D01*
X136092914Y-104038094D02*
X135997676Y-103990475D01*
X135997676Y-103990475D02*
X135902438Y-103895237D01*
X135902438Y-103895237D02*
X135854819Y-103752380D01*
X135854819Y-103752380D02*
X135854819Y-103657142D01*
X135854819Y-103657142D02*
X135902438Y-103514285D01*
X135902438Y-103514285D02*
X135950057Y-103466666D01*
X135854819Y-103133332D02*
X135854819Y-102514285D01*
X135854819Y-102514285D02*
X136235771Y-102847618D01*
X136235771Y-102847618D02*
X136235771Y-102704761D01*
X136235771Y-102704761D02*
X136283390Y-102609523D01*
X136283390Y-102609523D02*
X136331009Y-102561904D01*
X136331009Y-102561904D02*
X136426247Y-102514285D01*
X136426247Y-102514285D02*
X136664342Y-102514285D01*
X136664342Y-102514285D02*
X136759580Y-102561904D01*
X136759580Y-102561904D02*
X136807200Y-102609523D01*
X136807200Y-102609523D02*
X136854819Y-102704761D01*
X136854819Y-102704761D02*
X136854819Y-102990475D01*
X136854819Y-102990475D02*
X136807200Y-103085713D01*
X136807200Y-103085713D02*
X136759580Y-103133332D01*
X97666791Y-72380177D02*
X97666791Y-73189700D01*
X97666791Y-73189700D02*
X97714410Y-73284938D01*
X97714410Y-73284938D02*
X97762029Y-73332558D01*
X97762029Y-73332558D02*
X97857267Y-73380177D01*
X97857267Y-73380177D02*
X98047743Y-73380177D01*
X98047743Y-73380177D02*
X98142981Y-73332558D01*
X98142981Y-73332558D02*
X98190600Y-73284938D01*
X98190600Y-73284938D02*
X98238219Y-73189700D01*
X98238219Y-73189700D02*
X98238219Y-72380177D01*
X98619172Y-72380177D02*
X99238219Y-72380177D01*
X99238219Y-72380177D02*
X98904886Y-72761129D01*
X98904886Y-72761129D02*
X99047743Y-72761129D01*
X99047743Y-72761129D02*
X99142981Y-72808748D01*
X99142981Y-72808748D02*
X99190600Y-72856367D01*
X99190600Y-72856367D02*
X99238219Y-72951605D01*
X99238219Y-72951605D02*
X99238219Y-73189700D01*
X99238219Y-73189700D02*
X99190600Y-73284938D01*
X99190600Y-73284938D02*
X99142981Y-73332558D01*
X99142981Y-73332558D02*
X99047743Y-73380177D01*
X99047743Y-73380177D02*
X98762029Y-73380177D01*
X98762029Y-73380177D02*
X98666791Y-73332558D01*
X98666791Y-73332558D02*
X98619172Y-73284938D01*
X133935838Y-83430177D02*
X133602505Y-82953986D01*
X133364410Y-83430177D02*
X133364410Y-82430177D01*
X133364410Y-82430177D02*
X133745362Y-82430177D01*
X133745362Y-82430177D02*
X133840600Y-82477796D01*
X133840600Y-82477796D02*
X133888219Y-82525415D01*
X133888219Y-82525415D02*
X133935838Y-82620653D01*
X133935838Y-82620653D02*
X133935838Y-82763510D01*
X133935838Y-82763510D02*
X133888219Y-82858748D01*
X133888219Y-82858748D02*
X133840600Y-82906367D01*
X133840600Y-82906367D02*
X133745362Y-82953986D01*
X133745362Y-82953986D02*
X133364410Y-82953986D01*
X134316791Y-82525415D02*
X134364410Y-82477796D01*
X134364410Y-82477796D02*
X134459648Y-82430177D01*
X134459648Y-82430177D02*
X134697743Y-82430177D01*
X134697743Y-82430177D02*
X134792981Y-82477796D01*
X134792981Y-82477796D02*
X134840600Y-82525415D01*
X134840600Y-82525415D02*
X134888219Y-82620653D01*
X134888219Y-82620653D02*
X134888219Y-82715891D01*
X134888219Y-82715891D02*
X134840600Y-82858748D01*
X134840600Y-82858748D02*
X134269172Y-83430177D01*
X134269172Y-83430177D02*
X134888219Y-83430177D01*
X135507267Y-82430177D02*
X135602505Y-82430177D01*
X135602505Y-82430177D02*
X135697743Y-82477796D01*
X135697743Y-82477796D02*
X135745362Y-82525415D01*
X135745362Y-82525415D02*
X135792981Y-82620653D01*
X135792981Y-82620653D02*
X135840600Y-82811129D01*
X135840600Y-82811129D02*
X135840600Y-83049224D01*
X135840600Y-83049224D02*
X135792981Y-83239700D01*
X135792981Y-83239700D02*
X135745362Y-83334938D01*
X135745362Y-83334938D02*
X135697743Y-83382558D01*
X135697743Y-83382558D02*
X135602505Y-83430177D01*
X135602505Y-83430177D02*
X135507267Y-83430177D01*
X135507267Y-83430177D02*
X135412029Y-83382558D01*
X135412029Y-83382558D02*
X135364410Y-83334938D01*
X135364410Y-83334938D02*
X135316791Y-83239700D01*
X135316791Y-83239700D02*
X135269172Y-83049224D01*
X135269172Y-83049224D02*
X135269172Y-82811129D01*
X135269172Y-82811129D02*
X135316791Y-82620653D01*
X135316791Y-82620653D02*
X135364410Y-82525415D01*
X135364410Y-82525415D02*
X135412029Y-82477796D01*
X135412029Y-82477796D02*
X135507267Y-82430177D01*
X73581825Y-82001952D02*
X72581825Y-82001952D01*
X72581825Y-82001952D02*
X72581825Y-81763857D01*
X72581825Y-81763857D02*
X72629444Y-81621000D01*
X72629444Y-81621000D02*
X72724682Y-81525762D01*
X72724682Y-81525762D02*
X72819920Y-81478143D01*
X72819920Y-81478143D02*
X73010396Y-81430524D01*
X73010396Y-81430524D02*
X73153253Y-81430524D01*
X73153253Y-81430524D02*
X73343729Y-81478143D01*
X73343729Y-81478143D02*
X73438967Y-81525762D01*
X73438967Y-81525762D02*
X73534206Y-81621000D01*
X73534206Y-81621000D02*
X73581825Y-81763857D01*
X73581825Y-81763857D02*
X73581825Y-82001952D01*
X72677063Y-81049571D02*
X72629444Y-81001952D01*
X72629444Y-81001952D02*
X72581825Y-80906714D01*
X72581825Y-80906714D02*
X72581825Y-80668619D01*
X72581825Y-80668619D02*
X72629444Y-80573381D01*
X72629444Y-80573381D02*
X72677063Y-80525762D01*
X72677063Y-80525762D02*
X72772301Y-80478143D01*
X72772301Y-80478143D02*
X72867539Y-80478143D01*
X72867539Y-80478143D02*
X73010396Y-80525762D01*
X73010396Y-80525762D02*
X73581825Y-81097190D01*
X73581825Y-81097190D02*
X73581825Y-80478143D01*
X101757142Y-89234938D02*
X101709523Y-89282558D01*
X101709523Y-89282558D02*
X101566666Y-89330177D01*
X101566666Y-89330177D02*
X101471428Y-89330177D01*
X101471428Y-89330177D02*
X101328571Y-89282558D01*
X101328571Y-89282558D02*
X101233333Y-89187319D01*
X101233333Y-89187319D02*
X101185714Y-89092081D01*
X101185714Y-89092081D02*
X101138095Y-88901605D01*
X101138095Y-88901605D02*
X101138095Y-88758748D01*
X101138095Y-88758748D02*
X101185714Y-88568272D01*
X101185714Y-88568272D02*
X101233333Y-88473034D01*
X101233333Y-88473034D02*
X101328571Y-88377796D01*
X101328571Y-88377796D02*
X101471428Y-88330177D01*
X101471428Y-88330177D02*
X101566666Y-88330177D01*
X101566666Y-88330177D02*
X101709523Y-88377796D01*
X101709523Y-88377796D02*
X101757142Y-88425415D01*
X102709523Y-89330177D02*
X102138095Y-89330177D01*
X102423809Y-89330177D02*
X102423809Y-88330177D01*
X102423809Y-88330177D02*
X102328571Y-88473034D01*
X102328571Y-88473034D02*
X102233333Y-88568272D01*
X102233333Y-88568272D02*
X102138095Y-88615891D01*
X103566666Y-88330177D02*
X103376190Y-88330177D01*
X103376190Y-88330177D02*
X103280952Y-88377796D01*
X103280952Y-88377796D02*
X103233333Y-88425415D01*
X103233333Y-88425415D02*
X103138095Y-88568272D01*
X103138095Y-88568272D02*
X103090476Y-88758748D01*
X103090476Y-88758748D02*
X103090476Y-89139700D01*
X103090476Y-89139700D02*
X103138095Y-89234938D01*
X103138095Y-89234938D02*
X103185714Y-89282558D01*
X103185714Y-89282558D02*
X103280952Y-89330177D01*
X103280952Y-89330177D02*
X103471428Y-89330177D01*
X103471428Y-89330177D02*
X103566666Y-89282558D01*
X103566666Y-89282558D02*
X103614285Y-89234938D01*
X103614285Y-89234938D02*
X103661904Y-89139700D01*
X103661904Y-89139700D02*
X103661904Y-88901605D01*
X103661904Y-88901605D02*
X103614285Y-88806367D01*
X103614285Y-88806367D02*
X103566666Y-88758748D01*
X103566666Y-88758748D02*
X103471428Y-88711129D01*
X103471428Y-88711129D02*
X103280952Y-88711129D01*
X103280952Y-88711129D02*
X103185714Y-88758748D01*
X103185714Y-88758748D02*
X103138095Y-88806367D01*
X103138095Y-88806367D02*
X103090476Y-88901605D01*
X101838446Y-83584222D02*
X101790827Y-83631842D01*
X101790827Y-83631842D02*
X101647970Y-83679461D01*
X101647970Y-83679461D02*
X101552732Y-83679461D01*
X101552732Y-83679461D02*
X101409875Y-83631842D01*
X101409875Y-83631842D02*
X101314637Y-83536603D01*
X101314637Y-83536603D02*
X101267018Y-83441365D01*
X101267018Y-83441365D02*
X101219399Y-83250889D01*
X101219399Y-83250889D02*
X101219399Y-83108032D01*
X101219399Y-83108032D02*
X101267018Y-82917556D01*
X101267018Y-82917556D02*
X101314637Y-82822318D01*
X101314637Y-82822318D02*
X101409875Y-82727080D01*
X101409875Y-82727080D02*
X101552732Y-82679461D01*
X101552732Y-82679461D02*
X101647970Y-82679461D01*
X101647970Y-82679461D02*
X101790827Y-82727080D01*
X101790827Y-82727080D02*
X101838446Y-82774699D01*
X102790827Y-83679461D02*
X102219399Y-83679461D01*
X102505113Y-83679461D02*
X102505113Y-82679461D01*
X102505113Y-82679461D02*
X102409875Y-82822318D01*
X102409875Y-82822318D02*
X102314637Y-82917556D01*
X102314637Y-82917556D02*
X102219399Y-82965175D01*
X103362256Y-83108032D02*
X103267018Y-83060413D01*
X103267018Y-83060413D02*
X103219399Y-83012794D01*
X103219399Y-83012794D02*
X103171780Y-82917556D01*
X103171780Y-82917556D02*
X103171780Y-82869937D01*
X103171780Y-82869937D02*
X103219399Y-82774699D01*
X103219399Y-82774699D02*
X103267018Y-82727080D01*
X103267018Y-82727080D02*
X103362256Y-82679461D01*
X103362256Y-82679461D02*
X103552732Y-82679461D01*
X103552732Y-82679461D02*
X103647970Y-82727080D01*
X103647970Y-82727080D02*
X103695589Y-82774699D01*
X103695589Y-82774699D02*
X103743208Y-82869937D01*
X103743208Y-82869937D02*
X103743208Y-82917556D01*
X103743208Y-82917556D02*
X103695589Y-83012794D01*
X103695589Y-83012794D02*
X103647970Y-83060413D01*
X103647970Y-83060413D02*
X103552732Y-83108032D01*
X103552732Y-83108032D02*
X103362256Y-83108032D01*
X103362256Y-83108032D02*
X103267018Y-83155651D01*
X103267018Y-83155651D02*
X103219399Y-83203270D01*
X103219399Y-83203270D02*
X103171780Y-83298508D01*
X103171780Y-83298508D02*
X103171780Y-83488984D01*
X103171780Y-83488984D02*
X103219399Y-83584222D01*
X103219399Y-83584222D02*
X103267018Y-83631842D01*
X103267018Y-83631842D02*
X103362256Y-83679461D01*
X103362256Y-83679461D02*
X103552732Y-83679461D01*
X103552732Y-83679461D02*
X103647970Y-83631842D01*
X103647970Y-83631842D02*
X103695589Y-83584222D01*
X103695589Y-83584222D02*
X103743208Y-83488984D01*
X103743208Y-83488984D02*
X103743208Y-83298508D01*
X103743208Y-83298508D02*
X103695589Y-83203270D01*
X103695589Y-83203270D02*
X103647970Y-83155651D01*
X103647970Y-83155651D02*
X103552732Y-83108032D01*
X105735838Y-99528474D02*
X105402505Y-99052283D01*
X105164410Y-99528474D02*
X105164410Y-98528474D01*
X105164410Y-98528474D02*
X105545362Y-98528474D01*
X105545362Y-98528474D02*
X105640600Y-98576093D01*
X105640600Y-98576093D02*
X105688219Y-98623712D01*
X105688219Y-98623712D02*
X105735838Y-98718950D01*
X105735838Y-98718950D02*
X105735838Y-98861807D01*
X105735838Y-98861807D02*
X105688219Y-98957045D01*
X105688219Y-98957045D02*
X105640600Y-99004664D01*
X105640600Y-99004664D02*
X105545362Y-99052283D01*
X105545362Y-99052283D02*
X105164410Y-99052283D01*
X106688219Y-99528474D02*
X106116791Y-99528474D01*
X106402505Y-99528474D02*
X106402505Y-98528474D01*
X106402505Y-98528474D02*
X106307267Y-98671331D01*
X106307267Y-98671331D02*
X106212029Y-98766569D01*
X106212029Y-98766569D02*
X106116791Y-98814188D01*
X107021553Y-98528474D02*
X107688219Y-98528474D01*
X107688219Y-98528474D02*
X107259648Y-99528474D01*
X129216791Y-88380177D02*
X129216791Y-89189700D01*
X129216791Y-89189700D02*
X129264410Y-89284938D01*
X129264410Y-89284938D02*
X129312029Y-89332558D01*
X129312029Y-89332558D02*
X129407267Y-89380177D01*
X129407267Y-89380177D02*
X129597743Y-89380177D01*
X129597743Y-89380177D02*
X129692981Y-89332558D01*
X129692981Y-89332558D02*
X129740600Y-89284938D01*
X129740600Y-89284938D02*
X129788219Y-89189700D01*
X129788219Y-89189700D02*
X129788219Y-88380177D01*
X130788219Y-89380177D02*
X130216791Y-89380177D01*
X130502505Y-89380177D02*
X130502505Y-88380177D01*
X130502505Y-88380177D02*
X130407267Y-88523034D01*
X130407267Y-88523034D02*
X130312029Y-88618272D01*
X130312029Y-88618272D02*
X130216791Y-88665891D01*
X122838276Y-96418215D02*
X122885896Y-96465834D01*
X122885896Y-96465834D02*
X122933515Y-96608691D01*
X122933515Y-96608691D02*
X122933515Y-96703929D01*
X122933515Y-96703929D02*
X122885896Y-96846786D01*
X122885896Y-96846786D02*
X122790657Y-96942024D01*
X122790657Y-96942024D02*
X122695419Y-96989643D01*
X122695419Y-96989643D02*
X122504943Y-97037262D01*
X122504943Y-97037262D02*
X122362086Y-97037262D01*
X122362086Y-97037262D02*
X122171610Y-96989643D01*
X122171610Y-96989643D02*
X122076372Y-96942024D01*
X122076372Y-96942024D02*
X121981134Y-96846786D01*
X121981134Y-96846786D02*
X121933515Y-96703929D01*
X121933515Y-96703929D02*
X121933515Y-96608691D01*
X121933515Y-96608691D02*
X121981134Y-96465834D01*
X121981134Y-96465834D02*
X122028753Y-96418215D01*
X122933515Y-95465834D02*
X122933515Y-96037262D01*
X122933515Y-95751548D02*
X121933515Y-95751548D01*
X121933515Y-95751548D02*
X122076372Y-95846786D01*
X122076372Y-95846786D02*
X122171610Y-95942024D01*
X122171610Y-95942024D02*
X122219229Y-96037262D01*
X122028753Y-95084881D02*
X121981134Y-95037262D01*
X121981134Y-95037262D02*
X121933515Y-94942024D01*
X121933515Y-94942024D02*
X121933515Y-94703929D01*
X121933515Y-94703929D02*
X121981134Y-94608691D01*
X121981134Y-94608691D02*
X122028753Y-94561072D01*
X122028753Y-94561072D02*
X122123991Y-94513453D01*
X122123991Y-94513453D02*
X122219229Y-94513453D01*
X122219229Y-94513453D02*
X122362086Y-94561072D01*
X122362086Y-94561072D02*
X122933515Y-95132500D01*
X122933515Y-95132500D02*
X122933515Y-94513453D01*
X113638276Y-105918215D02*
X113685896Y-105965834D01*
X113685896Y-105965834D02*
X113733515Y-106108691D01*
X113733515Y-106108691D02*
X113733515Y-106203929D01*
X113733515Y-106203929D02*
X113685896Y-106346786D01*
X113685896Y-106346786D02*
X113590657Y-106442024D01*
X113590657Y-106442024D02*
X113495419Y-106489643D01*
X113495419Y-106489643D02*
X113304943Y-106537262D01*
X113304943Y-106537262D02*
X113162086Y-106537262D01*
X113162086Y-106537262D02*
X112971610Y-106489643D01*
X112971610Y-106489643D02*
X112876372Y-106442024D01*
X112876372Y-106442024D02*
X112781134Y-106346786D01*
X112781134Y-106346786D02*
X112733515Y-106203929D01*
X112733515Y-106203929D02*
X112733515Y-106108691D01*
X112733515Y-106108691D02*
X112781134Y-105965834D01*
X112781134Y-105965834D02*
X112828753Y-105918215D01*
X112828753Y-105537262D02*
X112781134Y-105489643D01*
X112781134Y-105489643D02*
X112733515Y-105394405D01*
X112733515Y-105394405D02*
X112733515Y-105156310D01*
X112733515Y-105156310D02*
X112781134Y-105061072D01*
X112781134Y-105061072D02*
X112828753Y-105013453D01*
X112828753Y-105013453D02*
X112923991Y-104965834D01*
X112923991Y-104965834D02*
X113019229Y-104965834D01*
X113019229Y-104965834D02*
X113162086Y-105013453D01*
X113162086Y-105013453D02*
X113733515Y-105584881D01*
X113733515Y-105584881D02*
X113733515Y-104965834D01*
X112733515Y-104632500D02*
X112733515Y-104013453D01*
X112733515Y-104013453D02*
X113114467Y-104346786D01*
X113114467Y-104346786D02*
X113114467Y-104203929D01*
X113114467Y-104203929D02*
X113162086Y-104108691D01*
X113162086Y-104108691D02*
X113209705Y-104061072D01*
X113209705Y-104061072D02*
X113304943Y-104013453D01*
X113304943Y-104013453D02*
X113543038Y-104013453D01*
X113543038Y-104013453D02*
X113638276Y-104061072D01*
X113638276Y-104061072D02*
X113685896Y-104108691D01*
X113685896Y-104108691D02*
X113733515Y-104203929D01*
X113733515Y-104203929D02*
X113733515Y-104489643D01*
X113733515Y-104489643D02*
X113685896Y-104584881D01*
X113685896Y-104584881D02*
X113638276Y-104632500D01*
X129857142Y-104559580D02*
X129809523Y-104607200D01*
X129809523Y-104607200D02*
X129666666Y-104654819D01*
X129666666Y-104654819D02*
X129571428Y-104654819D01*
X129571428Y-104654819D02*
X129428571Y-104607200D01*
X129428571Y-104607200D02*
X129333333Y-104511961D01*
X129333333Y-104511961D02*
X129285714Y-104416723D01*
X129285714Y-104416723D02*
X129238095Y-104226247D01*
X129238095Y-104226247D02*
X129238095Y-104083390D01*
X129238095Y-104083390D02*
X129285714Y-103892914D01*
X129285714Y-103892914D02*
X129333333Y-103797676D01*
X129333333Y-103797676D02*
X129428571Y-103702438D01*
X129428571Y-103702438D02*
X129571428Y-103654819D01*
X129571428Y-103654819D02*
X129666666Y-103654819D01*
X129666666Y-103654819D02*
X129809523Y-103702438D01*
X129809523Y-103702438D02*
X129857142Y-103750057D01*
X130238095Y-103750057D02*
X130285714Y-103702438D01*
X130285714Y-103702438D02*
X130380952Y-103654819D01*
X130380952Y-103654819D02*
X130619047Y-103654819D01*
X130619047Y-103654819D02*
X130714285Y-103702438D01*
X130714285Y-103702438D02*
X130761904Y-103750057D01*
X130761904Y-103750057D02*
X130809523Y-103845295D01*
X130809523Y-103845295D02*
X130809523Y-103940533D01*
X130809523Y-103940533D02*
X130761904Y-104083390D01*
X130761904Y-104083390D02*
X130190476Y-104654819D01*
X130190476Y-104654819D02*
X130809523Y-104654819D01*
X131666666Y-103988152D02*
X131666666Y-104654819D01*
X131428571Y-103607200D02*
X131190476Y-104321485D01*
X131190476Y-104321485D02*
X131809523Y-104321485D01*
X197790476Y-91831009D02*
X197933333Y-91878628D01*
X197933333Y-91878628D02*
X197980952Y-91926247D01*
X197980952Y-91926247D02*
X198028571Y-92021485D01*
X198028571Y-92021485D02*
X198028571Y-92164342D01*
X198028571Y-92164342D02*
X197980952Y-92259580D01*
X197980952Y-92259580D02*
X197933333Y-92307200D01*
X197933333Y-92307200D02*
X197838095Y-92354819D01*
X197838095Y-92354819D02*
X197457143Y-92354819D01*
X197457143Y-92354819D02*
X197457143Y-91354819D01*
X197457143Y-91354819D02*
X197790476Y-91354819D01*
X197790476Y-91354819D02*
X197885714Y-91402438D01*
X197885714Y-91402438D02*
X197933333Y-91450057D01*
X197933333Y-91450057D02*
X197980952Y-91545295D01*
X197980952Y-91545295D02*
X197980952Y-91640533D01*
X197980952Y-91640533D02*
X197933333Y-91735771D01*
X197933333Y-91735771D02*
X197885714Y-91783390D01*
X197885714Y-91783390D02*
X197790476Y-91831009D01*
X197790476Y-91831009D02*
X197457143Y-91831009D01*
X198314286Y-91354819D02*
X198885714Y-91354819D01*
X198600000Y-92354819D02*
X198600000Y-91354819D01*
X199219048Y-92354819D02*
X199219048Y-91354819D01*
X199219048Y-91354819D02*
X199790476Y-92354819D01*
X199790476Y-92354819D02*
X199790476Y-91354819D01*
X200695238Y-91688152D02*
X200695238Y-92354819D01*
X200457143Y-91307200D02*
X200219048Y-92021485D01*
X200219048Y-92021485D02*
X200838095Y-92021485D01*
X142595362Y-90880177D02*
X142595362Y-91594462D01*
X142595362Y-91594462D02*
X142547743Y-91737319D01*
X142547743Y-91737319D02*
X142452505Y-91832558D01*
X142452505Y-91832558D02*
X142309648Y-91880177D01*
X142309648Y-91880177D02*
X142214410Y-91880177D01*
X143595362Y-91880177D02*
X143023934Y-91880177D01*
X143309648Y-91880177D02*
X143309648Y-90880177D01*
X143309648Y-90880177D02*
X143214410Y-91023034D01*
X143214410Y-91023034D02*
X143119172Y-91118272D01*
X143119172Y-91118272D02*
X143023934Y-91165891D01*
X105957142Y-96659580D02*
X105909523Y-96707200D01*
X105909523Y-96707200D02*
X105766666Y-96754819D01*
X105766666Y-96754819D02*
X105671428Y-96754819D01*
X105671428Y-96754819D02*
X105528571Y-96707200D01*
X105528571Y-96707200D02*
X105433333Y-96611961D01*
X105433333Y-96611961D02*
X105385714Y-96516723D01*
X105385714Y-96516723D02*
X105338095Y-96326247D01*
X105338095Y-96326247D02*
X105338095Y-96183390D01*
X105338095Y-96183390D02*
X105385714Y-95992914D01*
X105385714Y-95992914D02*
X105433333Y-95897676D01*
X105433333Y-95897676D02*
X105528571Y-95802438D01*
X105528571Y-95802438D02*
X105671428Y-95754819D01*
X105671428Y-95754819D02*
X105766666Y-95754819D01*
X105766666Y-95754819D02*
X105909523Y-95802438D01*
X105909523Y-95802438D02*
X105957142Y-95850057D01*
X106338095Y-95850057D02*
X106385714Y-95802438D01*
X106385714Y-95802438D02*
X106480952Y-95754819D01*
X106480952Y-95754819D02*
X106719047Y-95754819D01*
X106719047Y-95754819D02*
X106814285Y-95802438D01*
X106814285Y-95802438D02*
X106861904Y-95850057D01*
X106861904Y-95850057D02*
X106909523Y-95945295D01*
X106909523Y-95945295D02*
X106909523Y-96040533D01*
X106909523Y-96040533D02*
X106861904Y-96183390D01*
X106861904Y-96183390D02*
X106290476Y-96754819D01*
X106290476Y-96754819D02*
X106909523Y-96754819D01*
X107528571Y-95754819D02*
X107623809Y-95754819D01*
X107623809Y-95754819D02*
X107719047Y-95802438D01*
X107719047Y-95802438D02*
X107766666Y-95850057D01*
X107766666Y-95850057D02*
X107814285Y-95945295D01*
X107814285Y-95945295D02*
X107861904Y-96135771D01*
X107861904Y-96135771D02*
X107861904Y-96373866D01*
X107861904Y-96373866D02*
X107814285Y-96564342D01*
X107814285Y-96564342D02*
X107766666Y-96659580D01*
X107766666Y-96659580D02*
X107719047Y-96707200D01*
X107719047Y-96707200D02*
X107623809Y-96754819D01*
X107623809Y-96754819D02*
X107528571Y-96754819D01*
X107528571Y-96754819D02*
X107433333Y-96707200D01*
X107433333Y-96707200D02*
X107385714Y-96659580D01*
X107385714Y-96659580D02*
X107338095Y-96564342D01*
X107338095Y-96564342D02*
X107290476Y-96373866D01*
X107290476Y-96373866D02*
X107290476Y-96135771D01*
X107290476Y-96135771D02*
X107338095Y-95945295D01*
X107338095Y-95945295D02*
X107385714Y-95850057D01*
X107385714Y-95850057D02*
X107433333Y-95802438D01*
X107433333Y-95802438D02*
X107528571Y-95754819D01*
X202213515Y-107932024D02*
X201737324Y-108265357D01*
X202213515Y-108503452D02*
X201213515Y-108503452D01*
X201213515Y-108503452D02*
X201213515Y-108122500D01*
X201213515Y-108122500D02*
X201261134Y-108027262D01*
X201261134Y-108027262D02*
X201308753Y-107979643D01*
X201308753Y-107979643D02*
X201403991Y-107932024D01*
X201403991Y-107932024D02*
X201546848Y-107932024D01*
X201546848Y-107932024D02*
X201642086Y-107979643D01*
X201642086Y-107979643D02*
X201689705Y-108027262D01*
X201689705Y-108027262D02*
X201737324Y-108122500D01*
X201737324Y-108122500D02*
X201737324Y-108503452D01*
X201546848Y-107074881D02*
X202213515Y-107074881D01*
X201165896Y-107312976D02*
X201880181Y-107551071D01*
X201880181Y-107551071D02*
X201880181Y-106932024D01*
X191484819Y-95466666D02*
X191008628Y-95799999D01*
X191484819Y-96038094D02*
X190484819Y-96038094D01*
X190484819Y-96038094D02*
X190484819Y-95657142D01*
X190484819Y-95657142D02*
X190532438Y-95561904D01*
X190532438Y-95561904D02*
X190580057Y-95514285D01*
X190580057Y-95514285D02*
X190675295Y-95466666D01*
X190675295Y-95466666D02*
X190818152Y-95466666D01*
X190818152Y-95466666D02*
X190913390Y-95514285D01*
X190913390Y-95514285D02*
X190961009Y-95561904D01*
X190961009Y-95561904D02*
X191008628Y-95657142D01*
X191008628Y-95657142D02*
X191008628Y-96038094D01*
X190484819Y-94561904D02*
X190484819Y-95038094D01*
X190484819Y-95038094D02*
X190961009Y-95085713D01*
X190961009Y-95085713D02*
X190913390Y-95038094D01*
X190913390Y-95038094D02*
X190865771Y-94942856D01*
X190865771Y-94942856D02*
X190865771Y-94704761D01*
X190865771Y-94704761D02*
X190913390Y-94609523D01*
X190913390Y-94609523D02*
X190961009Y-94561904D01*
X190961009Y-94561904D02*
X191056247Y-94514285D01*
X191056247Y-94514285D02*
X191294342Y-94514285D01*
X191294342Y-94514285D02*
X191389580Y-94561904D01*
X191389580Y-94561904D02*
X191437200Y-94609523D01*
X191437200Y-94609523D02*
X191484819Y-94704761D01*
X191484819Y-94704761D02*
X191484819Y-94942856D01*
X191484819Y-94942856D02*
X191437200Y-95038094D01*
X191437200Y-95038094D02*
X191389580Y-95085713D01*
X106435838Y-102780177D02*
X106102505Y-102303986D01*
X105864410Y-102780177D02*
X105864410Y-101780177D01*
X105864410Y-101780177D02*
X106245362Y-101780177D01*
X106245362Y-101780177D02*
X106340600Y-101827796D01*
X106340600Y-101827796D02*
X106388219Y-101875415D01*
X106388219Y-101875415D02*
X106435838Y-101970653D01*
X106435838Y-101970653D02*
X106435838Y-102113510D01*
X106435838Y-102113510D02*
X106388219Y-102208748D01*
X106388219Y-102208748D02*
X106340600Y-102256367D01*
X106340600Y-102256367D02*
X106245362Y-102303986D01*
X106245362Y-102303986D02*
X105864410Y-102303986D01*
X107388219Y-102780177D02*
X106816791Y-102780177D01*
X107102505Y-102780177D02*
X107102505Y-101780177D01*
X107102505Y-101780177D02*
X107007267Y-101923034D01*
X107007267Y-101923034D02*
X106912029Y-102018272D01*
X106912029Y-102018272D02*
X106816791Y-102065891D01*
X107864410Y-102780177D02*
X108054886Y-102780177D01*
X108054886Y-102780177D02*
X108150124Y-102732558D01*
X108150124Y-102732558D02*
X108197743Y-102684938D01*
X108197743Y-102684938D02*
X108292981Y-102542081D01*
X108292981Y-102542081D02*
X108340600Y-102351605D01*
X108340600Y-102351605D02*
X108340600Y-101970653D01*
X108340600Y-101970653D02*
X108292981Y-101875415D01*
X108292981Y-101875415D02*
X108245362Y-101827796D01*
X108245362Y-101827796D02*
X108150124Y-101780177D01*
X108150124Y-101780177D02*
X107959648Y-101780177D01*
X107959648Y-101780177D02*
X107864410Y-101827796D01*
X107864410Y-101827796D02*
X107816791Y-101875415D01*
X107816791Y-101875415D02*
X107769172Y-101970653D01*
X107769172Y-101970653D02*
X107769172Y-102208748D01*
X107769172Y-102208748D02*
X107816791Y-102303986D01*
X107816791Y-102303986D02*
X107864410Y-102351605D01*
X107864410Y-102351605D02*
X107959648Y-102399224D01*
X107959648Y-102399224D02*
X108150124Y-102399224D01*
X108150124Y-102399224D02*
X108245362Y-102351605D01*
X108245362Y-102351605D02*
X108292981Y-102303986D01*
X108292981Y-102303986D02*
X108340600Y-102208748D01*
X109968276Y-105868215D02*
X110015896Y-105915834D01*
X110015896Y-105915834D02*
X110063515Y-106058691D01*
X110063515Y-106058691D02*
X110063515Y-106153929D01*
X110063515Y-106153929D02*
X110015896Y-106296786D01*
X110015896Y-106296786D02*
X109920657Y-106392024D01*
X109920657Y-106392024D02*
X109825419Y-106439643D01*
X109825419Y-106439643D02*
X109634943Y-106487262D01*
X109634943Y-106487262D02*
X109492086Y-106487262D01*
X109492086Y-106487262D02*
X109301610Y-106439643D01*
X109301610Y-106439643D02*
X109206372Y-106392024D01*
X109206372Y-106392024D02*
X109111134Y-106296786D01*
X109111134Y-106296786D02*
X109063515Y-106153929D01*
X109063515Y-106153929D02*
X109063515Y-106058691D01*
X109063515Y-106058691D02*
X109111134Y-105915834D01*
X109111134Y-105915834D02*
X109158753Y-105868215D01*
X109158753Y-105487262D02*
X109111134Y-105439643D01*
X109111134Y-105439643D02*
X109063515Y-105344405D01*
X109063515Y-105344405D02*
X109063515Y-105106310D01*
X109063515Y-105106310D02*
X109111134Y-105011072D01*
X109111134Y-105011072D02*
X109158753Y-104963453D01*
X109158753Y-104963453D02*
X109253991Y-104915834D01*
X109253991Y-104915834D02*
X109349229Y-104915834D01*
X109349229Y-104915834D02*
X109492086Y-104963453D01*
X109492086Y-104963453D02*
X110063515Y-105534881D01*
X110063515Y-105534881D02*
X110063515Y-104915834D01*
X109158753Y-104534881D02*
X109111134Y-104487262D01*
X109111134Y-104487262D02*
X109063515Y-104392024D01*
X109063515Y-104392024D02*
X109063515Y-104153929D01*
X109063515Y-104153929D02*
X109111134Y-104058691D01*
X109111134Y-104058691D02*
X109158753Y-104011072D01*
X109158753Y-104011072D02*
X109253991Y-103963453D01*
X109253991Y-103963453D02*
X109349229Y-103963453D01*
X109349229Y-103963453D02*
X109492086Y-104011072D01*
X109492086Y-104011072D02*
X110063515Y-104582500D01*
X110063515Y-104582500D02*
X110063515Y-103963453D01*
X137933515Y-78008691D02*
X138647800Y-78008691D01*
X138647800Y-78008691D02*
X138790657Y-78056310D01*
X138790657Y-78056310D02*
X138885896Y-78151548D01*
X138885896Y-78151548D02*
X138933515Y-78294405D01*
X138933515Y-78294405D02*
X138933515Y-78389643D01*
X137933515Y-77103929D02*
X137933515Y-77294405D01*
X137933515Y-77294405D02*
X137981134Y-77389643D01*
X137981134Y-77389643D02*
X138028753Y-77437262D01*
X138028753Y-77437262D02*
X138171610Y-77532500D01*
X138171610Y-77532500D02*
X138362086Y-77580119D01*
X138362086Y-77580119D02*
X138743038Y-77580119D01*
X138743038Y-77580119D02*
X138838276Y-77532500D01*
X138838276Y-77532500D02*
X138885896Y-77484881D01*
X138885896Y-77484881D02*
X138933515Y-77389643D01*
X138933515Y-77389643D02*
X138933515Y-77199167D01*
X138933515Y-77199167D02*
X138885896Y-77103929D01*
X138885896Y-77103929D02*
X138838276Y-77056310D01*
X138838276Y-77056310D02*
X138743038Y-77008691D01*
X138743038Y-77008691D02*
X138504943Y-77008691D01*
X138504943Y-77008691D02*
X138409705Y-77056310D01*
X138409705Y-77056310D02*
X138362086Y-77103929D01*
X138362086Y-77103929D02*
X138314467Y-77199167D01*
X138314467Y-77199167D02*
X138314467Y-77389643D01*
X138314467Y-77389643D02*
X138362086Y-77484881D01*
X138362086Y-77484881D02*
X138409705Y-77532500D01*
X138409705Y-77532500D02*
X138504943Y-77580119D01*
X164195362Y-68760177D02*
X164195362Y-69474462D01*
X164195362Y-69474462D02*
X164147743Y-69617319D01*
X164147743Y-69617319D02*
X164052505Y-69712558D01*
X164052505Y-69712558D02*
X163909648Y-69760177D01*
X163909648Y-69760177D02*
X163814410Y-69760177D01*
X165100124Y-69093510D02*
X165100124Y-69760177D01*
X164862029Y-68712558D02*
X164623934Y-69426843D01*
X164623934Y-69426843D02*
X165242981Y-69426843D01*
X108085838Y-88004819D02*
X107752505Y-87528628D01*
X107514410Y-88004819D02*
X107514410Y-87004819D01*
X107514410Y-87004819D02*
X107895362Y-87004819D01*
X107895362Y-87004819D02*
X107990600Y-87052438D01*
X107990600Y-87052438D02*
X108038219Y-87100057D01*
X108038219Y-87100057D02*
X108085838Y-87195295D01*
X108085838Y-87195295D02*
X108085838Y-87338152D01*
X108085838Y-87338152D02*
X108038219Y-87433390D01*
X108038219Y-87433390D02*
X107990600Y-87481009D01*
X107990600Y-87481009D02*
X107895362Y-87528628D01*
X107895362Y-87528628D02*
X107514410Y-87528628D01*
X109038219Y-88004819D02*
X108466791Y-88004819D01*
X108752505Y-88004819D02*
X108752505Y-87004819D01*
X108752505Y-87004819D02*
X108657267Y-87147676D01*
X108657267Y-87147676D02*
X108562029Y-87242914D01*
X108562029Y-87242914D02*
X108466791Y-87290533D01*
X109895362Y-87004819D02*
X109704886Y-87004819D01*
X109704886Y-87004819D02*
X109609648Y-87052438D01*
X109609648Y-87052438D02*
X109562029Y-87100057D01*
X109562029Y-87100057D02*
X109466791Y-87242914D01*
X109466791Y-87242914D02*
X109419172Y-87433390D01*
X109419172Y-87433390D02*
X109419172Y-87814342D01*
X109419172Y-87814342D02*
X109466791Y-87909580D01*
X109466791Y-87909580D02*
X109514410Y-87957200D01*
X109514410Y-87957200D02*
X109609648Y-88004819D01*
X109609648Y-88004819D02*
X109800124Y-88004819D01*
X109800124Y-88004819D02*
X109895362Y-87957200D01*
X109895362Y-87957200D02*
X109942981Y-87909580D01*
X109942981Y-87909580D02*
X109990600Y-87814342D01*
X109990600Y-87814342D02*
X109990600Y-87576247D01*
X109990600Y-87576247D02*
X109942981Y-87481009D01*
X109942981Y-87481009D02*
X109895362Y-87433390D01*
X109895362Y-87433390D02*
X109800124Y-87385771D01*
X109800124Y-87385771D02*
X109609648Y-87385771D01*
X109609648Y-87385771D02*
X109514410Y-87433390D01*
X109514410Y-87433390D02*
X109466791Y-87481009D01*
X109466791Y-87481009D02*
X109419172Y-87576247D01*
X124462029Y-88784938D02*
X124414410Y-88832558D01*
X124414410Y-88832558D02*
X124271553Y-88880177D01*
X124271553Y-88880177D02*
X124176315Y-88880177D01*
X124176315Y-88880177D02*
X124033458Y-88832558D01*
X124033458Y-88832558D02*
X123938220Y-88737319D01*
X123938220Y-88737319D02*
X123890601Y-88642081D01*
X123890601Y-88642081D02*
X123842982Y-88451605D01*
X123842982Y-88451605D02*
X123842982Y-88308748D01*
X123842982Y-88308748D02*
X123890601Y-88118272D01*
X123890601Y-88118272D02*
X123938220Y-88023034D01*
X123938220Y-88023034D02*
X124033458Y-87927796D01*
X124033458Y-87927796D02*
X124176315Y-87880177D01*
X124176315Y-87880177D02*
X124271553Y-87880177D01*
X124271553Y-87880177D02*
X124414410Y-87927796D01*
X124414410Y-87927796D02*
X124462029Y-87975415D01*
X125414410Y-88880177D02*
X124842982Y-88880177D01*
X125128696Y-88880177D02*
X125128696Y-87880177D01*
X125128696Y-87880177D02*
X125033458Y-88023034D01*
X125033458Y-88023034D02*
X124938220Y-88118272D01*
X124938220Y-88118272D02*
X124842982Y-88165891D01*
X88157142Y-67704819D02*
X87823809Y-67228628D01*
X87585714Y-67704819D02*
X87585714Y-66704819D01*
X87585714Y-66704819D02*
X87966666Y-66704819D01*
X87966666Y-66704819D02*
X88061904Y-66752438D01*
X88061904Y-66752438D02*
X88109523Y-66800057D01*
X88109523Y-66800057D02*
X88157142Y-66895295D01*
X88157142Y-66895295D02*
X88157142Y-67038152D01*
X88157142Y-67038152D02*
X88109523Y-67133390D01*
X88109523Y-67133390D02*
X88061904Y-67181009D01*
X88061904Y-67181009D02*
X87966666Y-67228628D01*
X87966666Y-67228628D02*
X87585714Y-67228628D01*
X89109523Y-67704819D02*
X88538095Y-67704819D01*
X88823809Y-67704819D02*
X88823809Y-66704819D01*
X88823809Y-66704819D02*
X88728571Y-66847676D01*
X88728571Y-66847676D02*
X88633333Y-66942914D01*
X88633333Y-66942914D02*
X88538095Y-66990533D01*
X89490476Y-66800057D02*
X89538095Y-66752438D01*
X89538095Y-66752438D02*
X89633333Y-66704819D01*
X89633333Y-66704819D02*
X89871428Y-66704819D01*
X89871428Y-66704819D02*
X89966666Y-66752438D01*
X89966666Y-66752438D02*
X90014285Y-66800057D01*
X90014285Y-66800057D02*
X90061904Y-66895295D01*
X90061904Y-66895295D02*
X90061904Y-66990533D01*
X90061904Y-66990533D02*
X90014285Y-67133390D01*
X90014285Y-67133390D02*
X89442857Y-67704819D01*
X89442857Y-67704819D02*
X90061904Y-67704819D01*
X100659580Y-65792857D02*
X100707200Y-65840476D01*
X100707200Y-65840476D02*
X100754819Y-65983333D01*
X100754819Y-65983333D02*
X100754819Y-66078571D01*
X100754819Y-66078571D02*
X100707200Y-66221428D01*
X100707200Y-66221428D02*
X100611961Y-66316666D01*
X100611961Y-66316666D02*
X100516723Y-66364285D01*
X100516723Y-66364285D02*
X100326247Y-66411904D01*
X100326247Y-66411904D02*
X100183390Y-66411904D01*
X100183390Y-66411904D02*
X99992914Y-66364285D01*
X99992914Y-66364285D02*
X99897676Y-66316666D01*
X99897676Y-66316666D02*
X99802438Y-66221428D01*
X99802438Y-66221428D02*
X99754819Y-66078571D01*
X99754819Y-66078571D02*
X99754819Y-65983333D01*
X99754819Y-65983333D02*
X99802438Y-65840476D01*
X99802438Y-65840476D02*
X99850057Y-65792857D01*
X100754819Y-64840476D02*
X100754819Y-65411904D01*
X100754819Y-65126190D02*
X99754819Y-65126190D01*
X99754819Y-65126190D02*
X99897676Y-65221428D01*
X99897676Y-65221428D02*
X99992914Y-65316666D01*
X99992914Y-65316666D02*
X100040533Y-65411904D01*
X99754819Y-64507142D02*
X99754819Y-63888095D01*
X99754819Y-63888095D02*
X100135771Y-64221428D01*
X100135771Y-64221428D02*
X100135771Y-64078571D01*
X100135771Y-64078571D02*
X100183390Y-63983333D01*
X100183390Y-63983333D02*
X100231009Y-63935714D01*
X100231009Y-63935714D02*
X100326247Y-63888095D01*
X100326247Y-63888095D02*
X100564342Y-63888095D01*
X100564342Y-63888095D02*
X100659580Y-63935714D01*
X100659580Y-63935714D02*
X100707200Y-63983333D01*
X100707200Y-63983333D02*
X100754819Y-64078571D01*
X100754819Y-64078571D02*
X100754819Y-64364285D01*
X100754819Y-64364285D02*
X100707200Y-64459523D01*
X100707200Y-64459523D02*
X100659580Y-64507142D01*
X99263276Y-94988215D02*
X99310896Y-95035834D01*
X99310896Y-95035834D02*
X99358515Y-95178691D01*
X99358515Y-95178691D02*
X99358515Y-95273929D01*
X99358515Y-95273929D02*
X99310896Y-95416786D01*
X99310896Y-95416786D02*
X99215657Y-95512024D01*
X99215657Y-95512024D02*
X99120419Y-95559643D01*
X99120419Y-95559643D02*
X98929943Y-95607262D01*
X98929943Y-95607262D02*
X98787086Y-95607262D01*
X98787086Y-95607262D02*
X98596610Y-95559643D01*
X98596610Y-95559643D02*
X98501372Y-95512024D01*
X98501372Y-95512024D02*
X98406134Y-95416786D01*
X98406134Y-95416786D02*
X98358515Y-95273929D01*
X98358515Y-95273929D02*
X98358515Y-95178691D01*
X98358515Y-95178691D02*
X98406134Y-95035834D01*
X98406134Y-95035834D02*
X98453753Y-94988215D01*
X99358515Y-94035834D02*
X99358515Y-94607262D01*
X99358515Y-94321548D02*
X98358515Y-94321548D01*
X98358515Y-94321548D02*
X98501372Y-94416786D01*
X98501372Y-94416786D02*
X98596610Y-94512024D01*
X98596610Y-94512024D02*
X98644229Y-94607262D01*
X99358515Y-93559643D02*
X99358515Y-93369167D01*
X99358515Y-93369167D02*
X99310896Y-93273929D01*
X99310896Y-93273929D02*
X99263276Y-93226310D01*
X99263276Y-93226310D02*
X99120419Y-93131072D01*
X99120419Y-93131072D02*
X98929943Y-93083453D01*
X98929943Y-93083453D02*
X98548991Y-93083453D01*
X98548991Y-93083453D02*
X98453753Y-93131072D01*
X98453753Y-93131072D02*
X98406134Y-93178691D01*
X98406134Y-93178691D02*
X98358515Y-93273929D01*
X98358515Y-93273929D02*
X98358515Y-93464405D01*
X98358515Y-93464405D02*
X98406134Y-93559643D01*
X98406134Y-93559643D02*
X98453753Y-93607262D01*
X98453753Y-93607262D02*
X98548991Y-93654881D01*
X98548991Y-93654881D02*
X98787086Y-93654881D01*
X98787086Y-93654881D02*
X98882324Y-93607262D01*
X98882324Y-93607262D02*
X98929943Y-93559643D01*
X98929943Y-93559643D02*
X98977562Y-93464405D01*
X98977562Y-93464405D02*
X98977562Y-93273929D01*
X98977562Y-93273929D02*
X98929943Y-93178691D01*
X98929943Y-93178691D02*
X98882324Y-93131072D01*
X98882324Y-93131072D02*
X98787086Y-93083453D01*
X118862029Y-101947438D02*
X118814410Y-101995058D01*
X118814410Y-101995058D02*
X118671553Y-102042677D01*
X118671553Y-102042677D02*
X118576315Y-102042677D01*
X118576315Y-102042677D02*
X118433458Y-101995058D01*
X118433458Y-101995058D02*
X118338220Y-101899819D01*
X118338220Y-101899819D02*
X118290601Y-101804581D01*
X118290601Y-101804581D02*
X118242982Y-101614105D01*
X118242982Y-101614105D02*
X118242982Y-101471248D01*
X118242982Y-101471248D02*
X118290601Y-101280772D01*
X118290601Y-101280772D02*
X118338220Y-101185534D01*
X118338220Y-101185534D02*
X118433458Y-101090296D01*
X118433458Y-101090296D02*
X118576315Y-101042677D01*
X118576315Y-101042677D02*
X118671553Y-101042677D01*
X118671553Y-101042677D02*
X118814410Y-101090296D01*
X118814410Y-101090296D02*
X118862029Y-101137915D01*
X119433458Y-101471248D02*
X119338220Y-101423629D01*
X119338220Y-101423629D02*
X119290601Y-101376010D01*
X119290601Y-101376010D02*
X119242982Y-101280772D01*
X119242982Y-101280772D02*
X119242982Y-101233153D01*
X119242982Y-101233153D02*
X119290601Y-101137915D01*
X119290601Y-101137915D02*
X119338220Y-101090296D01*
X119338220Y-101090296D02*
X119433458Y-101042677D01*
X119433458Y-101042677D02*
X119623934Y-101042677D01*
X119623934Y-101042677D02*
X119719172Y-101090296D01*
X119719172Y-101090296D02*
X119766791Y-101137915D01*
X119766791Y-101137915D02*
X119814410Y-101233153D01*
X119814410Y-101233153D02*
X119814410Y-101280772D01*
X119814410Y-101280772D02*
X119766791Y-101376010D01*
X119766791Y-101376010D02*
X119719172Y-101423629D01*
X119719172Y-101423629D02*
X119623934Y-101471248D01*
X119623934Y-101471248D02*
X119433458Y-101471248D01*
X119433458Y-101471248D02*
X119338220Y-101518867D01*
X119338220Y-101518867D02*
X119290601Y-101566486D01*
X119290601Y-101566486D02*
X119242982Y-101661724D01*
X119242982Y-101661724D02*
X119242982Y-101852200D01*
X119242982Y-101852200D02*
X119290601Y-101947438D01*
X119290601Y-101947438D02*
X119338220Y-101995058D01*
X119338220Y-101995058D02*
X119433458Y-102042677D01*
X119433458Y-102042677D02*
X119623934Y-102042677D01*
X119623934Y-102042677D02*
X119719172Y-101995058D01*
X119719172Y-101995058D02*
X119766791Y-101947438D01*
X119766791Y-101947438D02*
X119814410Y-101852200D01*
X119814410Y-101852200D02*
X119814410Y-101661724D01*
X119814410Y-101661724D02*
X119766791Y-101566486D01*
X119766791Y-101566486D02*
X119719172Y-101518867D01*
X119719172Y-101518867D02*
X119623934Y-101471248D01*
X111754819Y-70466666D02*
X111278628Y-70799999D01*
X111754819Y-71038094D02*
X110754819Y-71038094D01*
X110754819Y-71038094D02*
X110754819Y-70657142D01*
X110754819Y-70657142D02*
X110802438Y-70561904D01*
X110802438Y-70561904D02*
X110850057Y-70514285D01*
X110850057Y-70514285D02*
X110945295Y-70466666D01*
X110945295Y-70466666D02*
X111088152Y-70466666D01*
X111088152Y-70466666D02*
X111183390Y-70514285D01*
X111183390Y-70514285D02*
X111231009Y-70561904D01*
X111231009Y-70561904D02*
X111278628Y-70657142D01*
X111278628Y-70657142D02*
X111278628Y-71038094D01*
X110754819Y-70133332D02*
X110754819Y-69466666D01*
X110754819Y-69466666D02*
X111754819Y-69895237D01*
X90766666Y-76204819D02*
X90766666Y-76919104D01*
X90766666Y-76919104D02*
X90719047Y-77061961D01*
X90719047Y-77061961D02*
X90623809Y-77157200D01*
X90623809Y-77157200D02*
X90480952Y-77204819D01*
X90480952Y-77204819D02*
X90385714Y-77204819D01*
X91147619Y-76204819D02*
X91766666Y-76204819D01*
X91766666Y-76204819D02*
X91433333Y-76585771D01*
X91433333Y-76585771D02*
X91576190Y-76585771D01*
X91576190Y-76585771D02*
X91671428Y-76633390D01*
X91671428Y-76633390D02*
X91719047Y-76681009D01*
X91719047Y-76681009D02*
X91766666Y-76776247D01*
X91766666Y-76776247D02*
X91766666Y-77014342D01*
X91766666Y-77014342D02*
X91719047Y-77109580D01*
X91719047Y-77109580D02*
X91671428Y-77157200D01*
X91671428Y-77157200D02*
X91576190Y-77204819D01*
X91576190Y-77204819D02*
X91290476Y-77204819D01*
X91290476Y-77204819D02*
X91195238Y-77157200D01*
X91195238Y-77157200D02*
X91147619Y-77109580D01*
X68154819Y-76532857D02*
X67678628Y-76866190D01*
X68154819Y-77104285D02*
X67154819Y-77104285D01*
X67154819Y-77104285D02*
X67154819Y-76723333D01*
X67154819Y-76723333D02*
X67202438Y-76628095D01*
X67202438Y-76628095D02*
X67250057Y-76580476D01*
X67250057Y-76580476D02*
X67345295Y-76532857D01*
X67345295Y-76532857D02*
X67488152Y-76532857D01*
X67488152Y-76532857D02*
X67583390Y-76580476D01*
X67583390Y-76580476D02*
X67631009Y-76628095D01*
X67631009Y-76628095D02*
X67678628Y-76723333D01*
X67678628Y-76723333D02*
X67678628Y-77104285D01*
X68154819Y-75580476D02*
X68154819Y-76151904D01*
X68154819Y-75866190D02*
X67154819Y-75866190D01*
X67154819Y-75866190D02*
X67297676Y-75961428D01*
X67297676Y-75961428D02*
X67392914Y-76056666D01*
X67392914Y-76056666D02*
X67440533Y-76151904D01*
X67154819Y-74675714D02*
X67154819Y-75151904D01*
X67154819Y-75151904D02*
X67631009Y-75199523D01*
X67631009Y-75199523D02*
X67583390Y-75151904D01*
X67583390Y-75151904D02*
X67535771Y-75056666D01*
X67535771Y-75056666D02*
X67535771Y-74818571D01*
X67535771Y-74818571D02*
X67583390Y-74723333D01*
X67583390Y-74723333D02*
X67631009Y-74675714D01*
X67631009Y-74675714D02*
X67726247Y-74628095D01*
X67726247Y-74628095D02*
X67964342Y-74628095D01*
X67964342Y-74628095D02*
X68059580Y-74675714D01*
X68059580Y-74675714D02*
X68107200Y-74723333D01*
X68107200Y-74723333D02*
X68154819Y-74818571D01*
X68154819Y-74818571D02*
X68154819Y-75056666D01*
X68154819Y-75056666D02*
X68107200Y-75151904D01*
X68107200Y-75151904D02*
X68059580Y-75199523D01*
X117585896Y-81508690D02*
X117633515Y-81365833D01*
X117633515Y-81365833D02*
X117633515Y-81127738D01*
X117633515Y-81127738D02*
X117585896Y-81032500D01*
X117585896Y-81032500D02*
X117538276Y-80984881D01*
X117538276Y-80984881D02*
X117443038Y-80937262D01*
X117443038Y-80937262D02*
X117347800Y-80937262D01*
X117347800Y-80937262D02*
X117252562Y-80984881D01*
X117252562Y-80984881D02*
X117204943Y-81032500D01*
X117204943Y-81032500D02*
X117157324Y-81127738D01*
X117157324Y-81127738D02*
X117109705Y-81318214D01*
X117109705Y-81318214D02*
X117062086Y-81413452D01*
X117062086Y-81413452D02*
X117014467Y-81461071D01*
X117014467Y-81461071D02*
X116919229Y-81508690D01*
X116919229Y-81508690D02*
X116823991Y-81508690D01*
X116823991Y-81508690D02*
X116728753Y-81461071D01*
X116728753Y-81461071D02*
X116681134Y-81413452D01*
X116681134Y-81413452D02*
X116633515Y-81318214D01*
X116633515Y-81318214D02*
X116633515Y-81080119D01*
X116633515Y-81080119D02*
X116681134Y-80937262D01*
X116633515Y-80603928D02*
X117633515Y-80365833D01*
X117633515Y-80365833D02*
X116919229Y-80175357D01*
X116919229Y-80175357D02*
X117633515Y-79984881D01*
X117633515Y-79984881D02*
X116633515Y-79746786D01*
X117633515Y-78842024D02*
X117633515Y-79413452D01*
X117633515Y-79127738D02*
X116633515Y-79127738D01*
X116633515Y-79127738D02*
X116776372Y-79222976D01*
X116776372Y-79222976D02*
X116871610Y-79318214D01*
X116871610Y-79318214D02*
X116919229Y-79413452D01*
X68104819Y-80182857D02*
X67628628Y-80516190D01*
X68104819Y-80754285D02*
X67104819Y-80754285D01*
X67104819Y-80754285D02*
X67104819Y-80373333D01*
X67104819Y-80373333D02*
X67152438Y-80278095D01*
X67152438Y-80278095D02*
X67200057Y-80230476D01*
X67200057Y-80230476D02*
X67295295Y-80182857D01*
X67295295Y-80182857D02*
X67438152Y-80182857D01*
X67438152Y-80182857D02*
X67533390Y-80230476D01*
X67533390Y-80230476D02*
X67581009Y-80278095D01*
X67581009Y-80278095D02*
X67628628Y-80373333D01*
X67628628Y-80373333D02*
X67628628Y-80754285D01*
X68104819Y-79230476D02*
X68104819Y-79801904D01*
X68104819Y-79516190D02*
X67104819Y-79516190D01*
X67104819Y-79516190D02*
X67247676Y-79611428D01*
X67247676Y-79611428D02*
X67342914Y-79706666D01*
X67342914Y-79706666D02*
X67390533Y-79801904D01*
X67104819Y-78897142D02*
X67104819Y-78278095D01*
X67104819Y-78278095D02*
X67485771Y-78611428D01*
X67485771Y-78611428D02*
X67485771Y-78468571D01*
X67485771Y-78468571D02*
X67533390Y-78373333D01*
X67533390Y-78373333D02*
X67581009Y-78325714D01*
X67581009Y-78325714D02*
X67676247Y-78278095D01*
X67676247Y-78278095D02*
X67914342Y-78278095D01*
X67914342Y-78278095D02*
X68009580Y-78325714D01*
X68009580Y-78325714D02*
X68057200Y-78373333D01*
X68057200Y-78373333D02*
X68104819Y-78468571D01*
X68104819Y-78468571D02*
X68104819Y-78754285D01*
X68104819Y-78754285D02*
X68057200Y-78849523D01*
X68057200Y-78849523D02*
X68009580Y-78897142D01*
X91285838Y-75580177D02*
X90952505Y-75103986D01*
X90714410Y-75580177D02*
X90714410Y-74580177D01*
X90714410Y-74580177D02*
X91095362Y-74580177D01*
X91095362Y-74580177D02*
X91190600Y-74627796D01*
X91190600Y-74627796D02*
X91238219Y-74675415D01*
X91238219Y-74675415D02*
X91285838Y-74770653D01*
X91285838Y-74770653D02*
X91285838Y-74913510D01*
X91285838Y-74913510D02*
X91238219Y-75008748D01*
X91238219Y-75008748D02*
X91190600Y-75056367D01*
X91190600Y-75056367D02*
X91095362Y-75103986D01*
X91095362Y-75103986D02*
X90714410Y-75103986D01*
X92238219Y-75580177D02*
X91666791Y-75580177D01*
X91952505Y-75580177D02*
X91952505Y-74580177D01*
X91952505Y-74580177D02*
X91857267Y-74723034D01*
X91857267Y-74723034D02*
X91762029Y-74818272D01*
X91762029Y-74818272D02*
X91666791Y-74865891D01*
X93190600Y-75580177D02*
X92619172Y-75580177D01*
X92904886Y-75580177D02*
X92904886Y-74580177D01*
X92904886Y-74580177D02*
X92809648Y-74723034D01*
X92809648Y-74723034D02*
X92714410Y-74818272D01*
X92714410Y-74818272D02*
X92619172Y-74865891D01*
X215162029Y-93100177D02*
X214828696Y-92623986D01*
X214590601Y-93100177D02*
X214590601Y-92100177D01*
X214590601Y-92100177D02*
X214971553Y-92100177D01*
X214971553Y-92100177D02*
X215066791Y-92147796D01*
X215066791Y-92147796D02*
X215114410Y-92195415D01*
X215114410Y-92195415D02*
X215162029Y-92290653D01*
X215162029Y-92290653D02*
X215162029Y-92433510D01*
X215162029Y-92433510D02*
X215114410Y-92528748D01*
X215114410Y-92528748D02*
X215066791Y-92576367D01*
X215066791Y-92576367D02*
X214971553Y-92623986D01*
X214971553Y-92623986D02*
X214590601Y-92623986D01*
X215495363Y-92100177D02*
X216114410Y-92100177D01*
X216114410Y-92100177D02*
X215781077Y-92481129D01*
X215781077Y-92481129D02*
X215923934Y-92481129D01*
X215923934Y-92481129D02*
X216019172Y-92528748D01*
X216019172Y-92528748D02*
X216066791Y-92576367D01*
X216066791Y-92576367D02*
X216114410Y-92671605D01*
X216114410Y-92671605D02*
X216114410Y-92909700D01*
X216114410Y-92909700D02*
X216066791Y-93004938D01*
X216066791Y-93004938D02*
X216019172Y-93052558D01*
X216019172Y-93052558D02*
X215923934Y-93100177D01*
X215923934Y-93100177D02*
X215638220Y-93100177D01*
X215638220Y-93100177D02*
X215542982Y-93052558D01*
X215542982Y-93052558D02*
X215495363Y-93004938D01*
X218840476Y-91931009D02*
X218983333Y-91978628D01*
X218983333Y-91978628D02*
X219030952Y-92026247D01*
X219030952Y-92026247D02*
X219078571Y-92121485D01*
X219078571Y-92121485D02*
X219078571Y-92264342D01*
X219078571Y-92264342D02*
X219030952Y-92359580D01*
X219030952Y-92359580D02*
X218983333Y-92407200D01*
X218983333Y-92407200D02*
X218888095Y-92454819D01*
X218888095Y-92454819D02*
X218507143Y-92454819D01*
X218507143Y-92454819D02*
X218507143Y-91454819D01*
X218507143Y-91454819D02*
X218840476Y-91454819D01*
X218840476Y-91454819D02*
X218935714Y-91502438D01*
X218935714Y-91502438D02*
X218983333Y-91550057D01*
X218983333Y-91550057D02*
X219030952Y-91645295D01*
X219030952Y-91645295D02*
X219030952Y-91740533D01*
X219030952Y-91740533D02*
X218983333Y-91835771D01*
X218983333Y-91835771D02*
X218935714Y-91883390D01*
X218935714Y-91883390D02*
X218840476Y-91931009D01*
X218840476Y-91931009D02*
X218507143Y-91931009D01*
X219364286Y-91454819D02*
X219935714Y-91454819D01*
X219650000Y-92454819D02*
X219650000Y-91454819D01*
X220269048Y-92454819D02*
X220269048Y-91454819D01*
X220269048Y-91454819D02*
X220840476Y-92454819D01*
X220840476Y-92454819D02*
X220840476Y-91454819D01*
X221269048Y-91550057D02*
X221316667Y-91502438D01*
X221316667Y-91502438D02*
X221411905Y-91454819D01*
X221411905Y-91454819D02*
X221650000Y-91454819D01*
X221650000Y-91454819D02*
X221745238Y-91502438D01*
X221745238Y-91502438D02*
X221792857Y-91550057D01*
X221792857Y-91550057D02*
X221840476Y-91645295D01*
X221840476Y-91645295D02*
X221840476Y-91740533D01*
X221840476Y-91740533D02*
X221792857Y-91883390D01*
X221792857Y-91883390D02*
X221221429Y-92454819D01*
X221221429Y-92454819D02*
X221840476Y-92454819D01*
X128262029Y-83380177D02*
X127928696Y-82903986D01*
X127690601Y-83380177D02*
X127690601Y-82380177D01*
X127690601Y-82380177D02*
X128071553Y-82380177D01*
X128071553Y-82380177D02*
X128166791Y-82427796D01*
X128166791Y-82427796D02*
X128214410Y-82475415D01*
X128214410Y-82475415D02*
X128262029Y-82570653D01*
X128262029Y-82570653D02*
X128262029Y-82713510D01*
X128262029Y-82713510D02*
X128214410Y-82808748D01*
X128214410Y-82808748D02*
X128166791Y-82856367D01*
X128166791Y-82856367D02*
X128071553Y-82903986D01*
X128071553Y-82903986D02*
X127690601Y-82903986D01*
X129214410Y-83380177D02*
X128642982Y-83380177D01*
X128928696Y-83380177D02*
X128928696Y-82380177D01*
X128928696Y-82380177D02*
X128833458Y-82523034D01*
X128833458Y-82523034D02*
X128738220Y-82618272D01*
X128738220Y-82618272D02*
X128642982Y-82665891D01*
X101528446Y-86234222D02*
X101480827Y-86281842D01*
X101480827Y-86281842D02*
X101337970Y-86329461D01*
X101337970Y-86329461D02*
X101242732Y-86329461D01*
X101242732Y-86329461D02*
X101099875Y-86281842D01*
X101099875Y-86281842D02*
X101004637Y-86186603D01*
X101004637Y-86186603D02*
X100957018Y-86091365D01*
X100957018Y-86091365D02*
X100909399Y-85900889D01*
X100909399Y-85900889D02*
X100909399Y-85758032D01*
X100909399Y-85758032D02*
X100957018Y-85567556D01*
X100957018Y-85567556D02*
X101004637Y-85472318D01*
X101004637Y-85472318D02*
X101099875Y-85377080D01*
X101099875Y-85377080D02*
X101242732Y-85329461D01*
X101242732Y-85329461D02*
X101337970Y-85329461D01*
X101337970Y-85329461D02*
X101480827Y-85377080D01*
X101480827Y-85377080D02*
X101528446Y-85424699D01*
X102480827Y-86329461D02*
X101909399Y-86329461D01*
X102195113Y-86329461D02*
X102195113Y-85329461D01*
X102195113Y-85329461D02*
X102099875Y-85472318D01*
X102099875Y-85472318D02*
X102004637Y-85567556D01*
X102004637Y-85567556D02*
X101909399Y-85615175D01*
X102814161Y-85329461D02*
X103480827Y-85329461D01*
X103480827Y-85329461D02*
X103052256Y-86329461D01*
X205890476Y-83731009D02*
X206033333Y-83778628D01*
X206033333Y-83778628D02*
X206080952Y-83826247D01*
X206080952Y-83826247D02*
X206128571Y-83921485D01*
X206128571Y-83921485D02*
X206128571Y-84064342D01*
X206128571Y-84064342D02*
X206080952Y-84159580D01*
X206080952Y-84159580D02*
X206033333Y-84207200D01*
X206033333Y-84207200D02*
X205938095Y-84254819D01*
X205938095Y-84254819D02*
X205557143Y-84254819D01*
X205557143Y-84254819D02*
X205557143Y-83254819D01*
X205557143Y-83254819D02*
X205890476Y-83254819D01*
X205890476Y-83254819D02*
X205985714Y-83302438D01*
X205985714Y-83302438D02*
X206033333Y-83350057D01*
X206033333Y-83350057D02*
X206080952Y-83445295D01*
X206080952Y-83445295D02*
X206080952Y-83540533D01*
X206080952Y-83540533D02*
X206033333Y-83635771D01*
X206033333Y-83635771D02*
X205985714Y-83683390D01*
X205985714Y-83683390D02*
X205890476Y-83731009D01*
X205890476Y-83731009D02*
X205557143Y-83731009D01*
X206414286Y-83254819D02*
X206985714Y-83254819D01*
X206700000Y-84254819D02*
X206700000Y-83254819D01*
X207319048Y-84254819D02*
X207319048Y-83254819D01*
X207319048Y-83254819D02*
X207890476Y-84254819D01*
X207890476Y-84254819D02*
X207890476Y-83254819D01*
X208890476Y-84254819D02*
X208319048Y-84254819D01*
X208604762Y-84254819D02*
X208604762Y-83254819D01*
X208604762Y-83254819D02*
X208509524Y-83397676D01*
X208509524Y-83397676D02*
X208414286Y-83492914D01*
X208414286Y-83492914D02*
X208319048Y-83540533D01*
X68104819Y-83542857D02*
X67628628Y-83876190D01*
X68104819Y-84114285D02*
X67104819Y-84114285D01*
X67104819Y-84114285D02*
X67104819Y-83733333D01*
X67104819Y-83733333D02*
X67152438Y-83638095D01*
X67152438Y-83638095D02*
X67200057Y-83590476D01*
X67200057Y-83590476D02*
X67295295Y-83542857D01*
X67295295Y-83542857D02*
X67438152Y-83542857D01*
X67438152Y-83542857D02*
X67533390Y-83590476D01*
X67533390Y-83590476D02*
X67581009Y-83638095D01*
X67581009Y-83638095D02*
X67628628Y-83733333D01*
X67628628Y-83733333D02*
X67628628Y-84114285D01*
X68104819Y-82590476D02*
X68104819Y-83161904D01*
X68104819Y-82876190D02*
X67104819Y-82876190D01*
X67104819Y-82876190D02*
X67247676Y-82971428D01*
X67247676Y-82971428D02*
X67342914Y-83066666D01*
X67342914Y-83066666D02*
X67390533Y-83161904D01*
X67438152Y-81733333D02*
X68104819Y-81733333D01*
X67057200Y-81971428D02*
X67771485Y-82209523D01*
X67771485Y-82209523D02*
X67771485Y-81590476D01*
X184347743Y-79636367D02*
X184490600Y-79683986D01*
X184490600Y-79683986D02*
X184538219Y-79731605D01*
X184538219Y-79731605D02*
X184585838Y-79826843D01*
X184585838Y-79826843D02*
X184585838Y-79969700D01*
X184585838Y-79969700D02*
X184538219Y-80064938D01*
X184538219Y-80064938D02*
X184490600Y-80112558D01*
X184490600Y-80112558D02*
X184395362Y-80160177D01*
X184395362Y-80160177D02*
X184014410Y-80160177D01*
X184014410Y-80160177D02*
X184014410Y-79160177D01*
X184014410Y-79160177D02*
X184347743Y-79160177D01*
X184347743Y-79160177D02*
X184442981Y-79207796D01*
X184442981Y-79207796D02*
X184490600Y-79255415D01*
X184490600Y-79255415D02*
X184538219Y-79350653D01*
X184538219Y-79350653D02*
X184538219Y-79445891D01*
X184538219Y-79445891D02*
X184490600Y-79541129D01*
X184490600Y-79541129D02*
X184442981Y-79588748D01*
X184442981Y-79588748D02*
X184347743Y-79636367D01*
X184347743Y-79636367D02*
X184014410Y-79636367D01*
X184919172Y-79160177D02*
X185585838Y-79160177D01*
X185585838Y-79160177D02*
X184919172Y-80160177D01*
X184919172Y-80160177D02*
X185585838Y-80160177D01*
X186490600Y-80160177D02*
X185919172Y-80160177D01*
X186204886Y-80160177D02*
X186204886Y-79160177D01*
X186204886Y-79160177D02*
X186109648Y-79303034D01*
X186109648Y-79303034D02*
X186014410Y-79398272D01*
X186014410Y-79398272D02*
X185919172Y-79445891D01*
X121238276Y-98642024D02*
X121285896Y-98689643D01*
X121285896Y-98689643D02*
X121333515Y-98832500D01*
X121333515Y-98832500D02*
X121333515Y-98927738D01*
X121333515Y-98927738D02*
X121285896Y-99070595D01*
X121285896Y-99070595D02*
X121190657Y-99165833D01*
X121190657Y-99165833D02*
X121095419Y-99213452D01*
X121095419Y-99213452D02*
X120904943Y-99261071D01*
X120904943Y-99261071D02*
X120762086Y-99261071D01*
X120762086Y-99261071D02*
X120571610Y-99213452D01*
X120571610Y-99213452D02*
X120476372Y-99165833D01*
X120476372Y-99165833D02*
X120381134Y-99070595D01*
X120381134Y-99070595D02*
X120333515Y-98927738D01*
X120333515Y-98927738D02*
X120333515Y-98832500D01*
X120333515Y-98832500D02*
X120381134Y-98689643D01*
X120381134Y-98689643D02*
X120428753Y-98642024D01*
X120333515Y-98308690D02*
X120333515Y-97642024D01*
X120333515Y-97642024D02*
X121333515Y-98070595D01*
X149663515Y-104008691D02*
X150377800Y-104008691D01*
X150377800Y-104008691D02*
X150520657Y-104056310D01*
X150520657Y-104056310D02*
X150615896Y-104151548D01*
X150615896Y-104151548D02*
X150663515Y-104294405D01*
X150663515Y-104294405D02*
X150663515Y-104389643D01*
X149663515Y-103056310D02*
X149663515Y-103532500D01*
X149663515Y-103532500D02*
X150139705Y-103580119D01*
X150139705Y-103580119D02*
X150092086Y-103532500D01*
X150092086Y-103532500D02*
X150044467Y-103437262D01*
X150044467Y-103437262D02*
X150044467Y-103199167D01*
X150044467Y-103199167D02*
X150092086Y-103103929D01*
X150092086Y-103103929D02*
X150139705Y-103056310D01*
X150139705Y-103056310D02*
X150234943Y-103008691D01*
X150234943Y-103008691D02*
X150473038Y-103008691D01*
X150473038Y-103008691D02*
X150568276Y-103056310D01*
X150568276Y-103056310D02*
X150615896Y-103103929D01*
X150615896Y-103103929D02*
X150663515Y-103199167D01*
X150663515Y-103199167D02*
X150663515Y-103437262D01*
X150663515Y-103437262D02*
X150615896Y-103532500D01*
X150615896Y-103532500D02*
X150568276Y-103580119D01*
X129775838Y-82100177D02*
X129442505Y-81623986D01*
X129204410Y-82100177D02*
X129204410Y-81100177D01*
X129204410Y-81100177D02*
X129585362Y-81100177D01*
X129585362Y-81100177D02*
X129680600Y-81147796D01*
X129680600Y-81147796D02*
X129728219Y-81195415D01*
X129728219Y-81195415D02*
X129775838Y-81290653D01*
X129775838Y-81290653D02*
X129775838Y-81433510D01*
X129775838Y-81433510D02*
X129728219Y-81528748D01*
X129728219Y-81528748D02*
X129680600Y-81576367D01*
X129680600Y-81576367D02*
X129585362Y-81623986D01*
X129585362Y-81623986D02*
X129204410Y-81623986D01*
X130156791Y-81195415D02*
X130204410Y-81147796D01*
X130204410Y-81147796D02*
X130299648Y-81100177D01*
X130299648Y-81100177D02*
X130537743Y-81100177D01*
X130537743Y-81100177D02*
X130632981Y-81147796D01*
X130632981Y-81147796D02*
X130680600Y-81195415D01*
X130680600Y-81195415D02*
X130728219Y-81290653D01*
X130728219Y-81290653D02*
X130728219Y-81385891D01*
X130728219Y-81385891D02*
X130680600Y-81528748D01*
X130680600Y-81528748D02*
X130109172Y-82100177D01*
X130109172Y-82100177D02*
X130728219Y-82100177D01*
X131680600Y-82100177D02*
X131109172Y-82100177D01*
X131394886Y-82100177D02*
X131394886Y-81100177D01*
X131394886Y-81100177D02*
X131299648Y-81243034D01*
X131299648Y-81243034D02*
X131204410Y-81338272D01*
X131204410Y-81338272D02*
X131109172Y-81385891D01*
X106588276Y-105668215D02*
X106635896Y-105715834D01*
X106635896Y-105715834D02*
X106683515Y-105858691D01*
X106683515Y-105858691D02*
X106683515Y-105953929D01*
X106683515Y-105953929D02*
X106635896Y-106096786D01*
X106635896Y-106096786D02*
X106540657Y-106192024D01*
X106540657Y-106192024D02*
X106445419Y-106239643D01*
X106445419Y-106239643D02*
X106254943Y-106287262D01*
X106254943Y-106287262D02*
X106112086Y-106287262D01*
X106112086Y-106287262D02*
X105921610Y-106239643D01*
X105921610Y-106239643D02*
X105826372Y-106192024D01*
X105826372Y-106192024D02*
X105731134Y-106096786D01*
X105731134Y-106096786D02*
X105683515Y-105953929D01*
X105683515Y-105953929D02*
X105683515Y-105858691D01*
X105683515Y-105858691D02*
X105731134Y-105715834D01*
X105731134Y-105715834D02*
X105778753Y-105668215D01*
X105778753Y-105287262D02*
X105731134Y-105239643D01*
X105731134Y-105239643D02*
X105683515Y-105144405D01*
X105683515Y-105144405D02*
X105683515Y-104906310D01*
X105683515Y-104906310D02*
X105731134Y-104811072D01*
X105731134Y-104811072D02*
X105778753Y-104763453D01*
X105778753Y-104763453D02*
X105873991Y-104715834D01*
X105873991Y-104715834D02*
X105969229Y-104715834D01*
X105969229Y-104715834D02*
X106112086Y-104763453D01*
X106112086Y-104763453D02*
X106683515Y-105334881D01*
X106683515Y-105334881D02*
X106683515Y-104715834D01*
X106683515Y-103763453D02*
X106683515Y-104334881D01*
X106683515Y-104049167D02*
X105683515Y-104049167D01*
X105683515Y-104049167D02*
X105826372Y-104144405D01*
X105826372Y-104144405D02*
X105921610Y-104239643D01*
X105921610Y-104239643D02*
X105969229Y-104334881D01*
X108524819Y-70456666D02*
X108048628Y-70789999D01*
X108524819Y-71028094D02*
X107524819Y-71028094D01*
X107524819Y-71028094D02*
X107524819Y-70647142D01*
X107524819Y-70647142D02*
X107572438Y-70551904D01*
X107572438Y-70551904D02*
X107620057Y-70504285D01*
X107620057Y-70504285D02*
X107715295Y-70456666D01*
X107715295Y-70456666D02*
X107858152Y-70456666D01*
X107858152Y-70456666D02*
X107953390Y-70504285D01*
X107953390Y-70504285D02*
X108001009Y-70551904D01*
X108001009Y-70551904D02*
X108048628Y-70647142D01*
X108048628Y-70647142D02*
X108048628Y-71028094D01*
X107953390Y-69885237D02*
X107905771Y-69980475D01*
X107905771Y-69980475D02*
X107858152Y-70028094D01*
X107858152Y-70028094D02*
X107762914Y-70075713D01*
X107762914Y-70075713D02*
X107715295Y-70075713D01*
X107715295Y-70075713D02*
X107620057Y-70028094D01*
X107620057Y-70028094D02*
X107572438Y-69980475D01*
X107572438Y-69980475D02*
X107524819Y-69885237D01*
X107524819Y-69885237D02*
X107524819Y-69694761D01*
X107524819Y-69694761D02*
X107572438Y-69599523D01*
X107572438Y-69599523D02*
X107620057Y-69551904D01*
X107620057Y-69551904D02*
X107715295Y-69504285D01*
X107715295Y-69504285D02*
X107762914Y-69504285D01*
X107762914Y-69504285D02*
X107858152Y-69551904D01*
X107858152Y-69551904D02*
X107905771Y-69599523D01*
X107905771Y-69599523D02*
X107953390Y-69694761D01*
X107953390Y-69694761D02*
X107953390Y-69885237D01*
X107953390Y-69885237D02*
X108001009Y-69980475D01*
X108001009Y-69980475D02*
X108048628Y-70028094D01*
X108048628Y-70028094D02*
X108143866Y-70075713D01*
X108143866Y-70075713D02*
X108334342Y-70075713D01*
X108334342Y-70075713D02*
X108429580Y-70028094D01*
X108429580Y-70028094D02*
X108477200Y-69980475D01*
X108477200Y-69980475D02*
X108524819Y-69885237D01*
X108524819Y-69885237D02*
X108524819Y-69694761D01*
X108524819Y-69694761D02*
X108477200Y-69599523D01*
X108477200Y-69599523D02*
X108429580Y-69551904D01*
X108429580Y-69551904D02*
X108334342Y-69504285D01*
X108334342Y-69504285D02*
X108143866Y-69504285D01*
X108143866Y-69504285D02*
X108048628Y-69551904D01*
X108048628Y-69551904D02*
X108001009Y-69599523D01*
X108001009Y-69599523D02*
X107953390Y-69694761D01*
X93873333Y-64054819D02*
X93540000Y-63578628D01*
X93301905Y-64054819D02*
X93301905Y-63054819D01*
X93301905Y-63054819D02*
X93682857Y-63054819D01*
X93682857Y-63054819D02*
X93778095Y-63102438D01*
X93778095Y-63102438D02*
X93825714Y-63150057D01*
X93825714Y-63150057D02*
X93873333Y-63245295D01*
X93873333Y-63245295D02*
X93873333Y-63388152D01*
X93873333Y-63388152D02*
X93825714Y-63483390D01*
X93825714Y-63483390D02*
X93778095Y-63531009D01*
X93778095Y-63531009D02*
X93682857Y-63578628D01*
X93682857Y-63578628D02*
X93301905Y-63578628D01*
X94349524Y-64054819D02*
X94540000Y-64054819D01*
X94540000Y-64054819D02*
X94635238Y-64007200D01*
X94635238Y-64007200D02*
X94682857Y-63959580D01*
X94682857Y-63959580D02*
X94778095Y-63816723D01*
X94778095Y-63816723D02*
X94825714Y-63626247D01*
X94825714Y-63626247D02*
X94825714Y-63245295D01*
X94825714Y-63245295D02*
X94778095Y-63150057D01*
X94778095Y-63150057D02*
X94730476Y-63102438D01*
X94730476Y-63102438D02*
X94635238Y-63054819D01*
X94635238Y-63054819D02*
X94444762Y-63054819D01*
X94444762Y-63054819D02*
X94349524Y-63102438D01*
X94349524Y-63102438D02*
X94301905Y-63150057D01*
X94301905Y-63150057D02*
X94254286Y-63245295D01*
X94254286Y-63245295D02*
X94254286Y-63483390D01*
X94254286Y-63483390D02*
X94301905Y-63578628D01*
X94301905Y-63578628D02*
X94349524Y-63626247D01*
X94349524Y-63626247D02*
X94444762Y-63673866D01*
X94444762Y-63673866D02*
X94635238Y-63673866D01*
X94635238Y-63673866D02*
X94730476Y-63626247D01*
X94730476Y-63626247D02*
X94778095Y-63578628D01*
X94778095Y-63578628D02*
X94825714Y-63483390D01*
X126762029Y-105684938D02*
X126714410Y-105732558D01*
X126714410Y-105732558D02*
X126571553Y-105780177D01*
X126571553Y-105780177D02*
X126476315Y-105780177D01*
X126476315Y-105780177D02*
X126333458Y-105732558D01*
X126333458Y-105732558D02*
X126238220Y-105637319D01*
X126238220Y-105637319D02*
X126190601Y-105542081D01*
X126190601Y-105542081D02*
X126142982Y-105351605D01*
X126142982Y-105351605D02*
X126142982Y-105208748D01*
X126142982Y-105208748D02*
X126190601Y-105018272D01*
X126190601Y-105018272D02*
X126238220Y-104923034D01*
X126238220Y-104923034D02*
X126333458Y-104827796D01*
X126333458Y-104827796D02*
X126476315Y-104780177D01*
X126476315Y-104780177D02*
X126571553Y-104780177D01*
X126571553Y-104780177D02*
X126714410Y-104827796D01*
X126714410Y-104827796D02*
X126762029Y-104875415D01*
X127619172Y-105113510D02*
X127619172Y-105780177D01*
X127381077Y-104732558D02*
X127142982Y-105446843D01*
X127142982Y-105446843D02*
X127762029Y-105446843D01*
X140288276Y-92962024D02*
X140335896Y-93009643D01*
X140335896Y-93009643D02*
X140383515Y-93152500D01*
X140383515Y-93152500D02*
X140383515Y-93247738D01*
X140383515Y-93247738D02*
X140335896Y-93390595D01*
X140335896Y-93390595D02*
X140240657Y-93485833D01*
X140240657Y-93485833D02*
X140145419Y-93533452D01*
X140145419Y-93533452D02*
X139954943Y-93581071D01*
X139954943Y-93581071D02*
X139812086Y-93581071D01*
X139812086Y-93581071D02*
X139621610Y-93533452D01*
X139621610Y-93533452D02*
X139526372Y-93485833D01*
X139526372Y-93485833D02*
X139431134Y-93390595D01*
X139431134Y-93390595D02*
X139383515Y-93247738D01*
X139383515Y-93247738D02*
X139383515Y-93152500D01*
X139383515Y-93152500D02*
X139431134Y-93009643D01*
X139431134Y-93009643D02*
X139478753Y-92962024D01*
X139478753Y-92581071D02*
X139431134Y-92533452D01*
X139431134Y-92533452D02*
X139383515Y-92438214D01*
X139383515Y-92438214D02*
X139383515Y-92200119D01*
X139383515Y-92200119D02*
X139431134Y-92104881D01*
X139431134Y-92104881D02*
X139478753Y-92057262D01*
X139478753Y-92057262D02*
X139573991Y-92009643D01*
X139573991Y-92009643D02*
X139669229Y-92009643D01*
X139669229Y-92009643D02*
X139812086Y-92057262D01*
X139812086Y-92057262D02*
X140383515Y-92628690D01*
X140383515Y-92628690D02*
X140383515Y-92009643D01*
X118185838Y-92034938D02*
X118138219Y-92082558D01*
X118138219Y-92082558D02*
X117995362Y-92130177D01*
X117995362Y-92130177D02*
X117900124Y-92130177D01*
X117900124Y-92130177D02*
X117757267Y-92082558D01*
X117757267Y-92082558D02*
X117662029Y-91987319D01*
X117662029Y-91987319D02*
X117614410Y-91892081D01*
X117614410Y-91892081D02*
X117566791Y-91701605D01*
X117566791Y-91701605D02*
X117566791Y-91558748D01*
X117566791Y-91558748D02*
X117614410Y-91368272D01*
X117614410Y-91368272D02*
X117662029Y-91273034D01*
X117662029Y-91273034D02*
X117757267Y-91177796D01*
X117757267Y-91177796D02*
X117900124Y-91130177D01*
X117900124Y-91130177D02*
X117995362Y-91130177D01*
X117995362Y-91130177D02*
X118138219Y-91177796D01*
X118138219Y-91177796D02*
X118185838Y-91225415D01*
X119138219Y-92130177D02*
X118566791Y-92130177D01*
X118852505Y-92130177D02*
X118852505Y-91130177D01*
X118852505Y-91130177D02*
X118757267Y-91273034D01*
X118757267Y-91273034D02*
X118662029Y-91368272D01*
X118662029Y-91368272D02*
X118566791Y-91415891D01*
X120090600Y-92130177D02*
X119519172Y-92130177D01*
X119804886Y-92130177D02*
X119804886Y-91130177D01*
X119804886Y-91130177D02*
X119709648Y-91273034D01*
X119709648Y-91273034D02*
X119614410Y-91368272D01*
X119614410Y-91368272D02*
X119519172Y-91415891D01*
X203793515Y-87092024D02*
X203317324Y-87425357D01*
X203793515Y-87663452D02*
X202793515Y-87663452D01*
X202793515Y-87663452D02*
X202793515Y-87282500D01*
X202793515Y-87282500D02*
X202841134Y-87187262D01*
X202841134Y-87187262D02*
X202888753Y-87139643D01*
X202888753Y-87139643D02*
X202983991Y-87092024D01*
X202983991Y-87092024D02*
X203126848Y-87092024D01*
X203126848Y-87092024D02*
X203222086Y-87139643D01*
X203222086Y-87139643D02*
X203269705Y-87187262D01*
X203269705Y-87187262D02*
X203317324Y-87282500D01*
X203317324Y-87282500D02*
X203317324Y-87663452D01*
X202888753Y-86711071D02*
X202841134Y-86663452D01*
X202841134Y-86663452D02*
X202793515Y-86568214D01*
X202793515Y-86568214D02*
X202793515Y-86330119D01*
X202793515Y-86330119D02*
X202841134Y-86234881D01*
X202841134Y-86234881D02*
X202888753Y-86187262D01*
X202888753Y-86187262D02*
X202983991Y-86139643D01*
X202983991Y-86139643D02*
X203079229Y-86139643D01*
X203079229Y-86139643D02*
X203222086Y-86187262D01*
X203222086Y-86187262D02*
X203793515Y-86758690D01*
X203793515Y-86758690D02*
X203793515Y-86139643D01*
X123516667Y-61407200D02*
X123659524Y-61454819D01*
X123659524Y-61454819D02*
X123897619Y-61454819D01*
X123897619Y-61454819D02*
X123992857Y-61407200D01*
X123992857Y-61407200D02*
X124040476Y-61359580D01*
X124040476Y-61359580D02*
X124088095Y-61264342D01*
X124088095Y-61264342D02*
X124088095Y-61169104D01*
X124088095Y-61169104D02*
X124040476Y-61073866D01*
X124040476Y-61073866D02*
X123992857Y-61026247D01*
X123992857Y-61026247D02*
X123897619Y-60978628D01*
X123897619Y-60978628D02*
X123707143Y-60931009D01*
X123707143Y-60931009D02*
X123611905Y-60883390D01*
X123611905Y-60883390D02*
X123564286Y-60835771D01*
X123564286Y-60835771D02*
X123516667Y-60740533D01*
X123516667Y-60740533D02*
X123516667Y-60645295D01*
X123516667Y-60645295D02*
X123564286Y-60550057D01*
X123564286Y-60550057D02*
X123611905Y-60502438D01*
X123611905Y-60502438D02*
X123707143Y-60454819D01*
X123707143Y-60454819D02*
X123945238Y-60454819D01*
X123945238Y-60454819D02*
X124088095Y-60502438D01*
X124421429Y-60454819D02*
X124659524Y-61454819D01*
X124659524Y-61454819D02*
X124850000Y-60740533D01*
X124850000Y-60740533D02*
X125040476Y-61454819D01*
X125040476Y-61454819D02*
X125278572Y-60454819D01*
X126088095Y-60788152D02*
X126088095Y-61454819D01*
X125850000Y-60407200D02*
X125611905Y-61121485D01*
X125611905Y-61121485D02*
X126230952Y-61121485D01*
X121392029Y-90234938D02*
X121344410Y-90282558D01*
X121344410Y-90282558D02*
X121201553Y-90330177D01*
X121201553Y-90330177D02*
X121106315Y-90330177D01*
X121106315Y-90330177D02*
X120963458Y-90282558D01*
X120963458Y-90282558D02*
X120868220Y-90187319D01*
X120868220Y-90187319D02*
X120820601Y-90092081D01*
X120820601Y-90092081D02*
X120772982Y-89901605D01*
X120772982Y-89901605D02*
X120772982Y-89758748D01*
X120772982Y-89758748D02*
X120820601Y-89568272D01*
X120820601Y-89568272D02*
X120868220Y-89473034D01*
X120868220Y-89473034D02*
X120963458Y-89377796D01*
X120963458Y-89377796D02*
X121106315Y-89330177D01*
X121106315Y-89330177D02*
X121201553Y-89330177D01*
X121201553Y-89330177D02*
X121344410Y-89377796D01*
X121344410Y-89377796D02*
X121392029Y-89425415D01*
X122296791Y-89330177D02*
X121820601Y-89330177D01*
X121820601Y-89330177D02*
X121772982Y-89806367D01*
X121772982Y-89806367D02*
X121820601Y-89758748D01*
X121820601Y-89758748D02*
X121915839Y-89711129D01*
X121915839Y-89711129D02*
X122153934Y-89711129D01*
X122153934Y-89711129D02*
X122249172Y-89758748D01*
X122249172Y-89758748D02*
X122296791Y-89806367D01*
X122296791Y-89806367D02*
X122344410Y-89901605D01*
X122344410Y-89901605D02*
X122344410Y-90139700D01*
X122344410Y-90139700D02*
X122296791Y-90234938D01*
X122296791Y-90234938D02*
X122249172Y-90282558D01*
X122249172Y-90282558D02*
X122153934Y-90330177D01*
X122153934Y-90330177D02*
X121915839Y-90330177D01*
X121915839Y-90330177D02*
X121820601Y-90282558D01*
X121820601Y-90282558D02*
X121772982Y-90234938D01*
X117735838Y-99934938D02*
X117688219Y-99982558D01*
X117688219Y-99982558D02*
X117545362Y-100030177D01*
X117545362Y-100030177D02*
X117450124Y-100030177D01*
X117450124Y-100030177D02*
X117307267Y-99982558D01*
X117307267Y-99982558D02*
X117212029Y-99887319D01*
X117212029Y-99887319D02*
X117164410Y-99792081D01*
X117164410Y-99792081D02*
X117116791Y-99601605D01*
X117116791Y-99601605D02*
X117116791Y-99458748D01*
X117116791Y-99458748D02*
X117164410Y-99268272D01*
X117164410Y-99268272D02*
X117212029Y-99173034D01*
X117212029Y-99173034D02*
X117307267Y-99077796D01*
X117307267Y-99077796D02*
X117450124Y-99030177D01*
X117450124Y-99030177D02*
X117545362Y-99030177D01*
X117545362Y-99030177D02*
X117688219Y-99077796D01*
X117688219Y-99077796D02*
X117735838Y-99125415D01*
X118688219Y-100030177D02*
X118116791Y-100030177D01*
X118402505Y-100030177D02*
X118402505Y-99030177D01*
X118402505Y-99030177D02*
X118307267Y-99173034D01*
X118307267Y-99173034D02*
X118212029Y-99268272D01*
X118212029Y-99268272D02*
X118116791Y-99315891D01*
X119307267Y-99030177D02*
X119402505Y-99030177D01*
X119402505Y-99030177D02*
X119497743Y-99077796D01*
X119497743Y-99077796D02*
X119545362Y-99125415D01*
X119545362Y-99125415D02*
X119592981Y-99220653D01*
X119592981Y-99220653D02*
X119640600Y-99411129D01*
X119640600Y-99411129D02*
X119640600Y-99649224D01*
X119640600Y-99649224D02*
X119592981Y-99839700D01*
X119592981Y-99839700D02*
X119545362Y-99934938D01*
X119545362Y-99934938D02*
X119497743Y-99982558D01*
X119497743Y-99982558D02*
X119402505Y-100030177D01*
X119402505Y-100030177D02*
X119307267Y-100030177D01*
X119307267Y-100030177D02*
X119212029Y-99982558D01*
X119212029Y-99982558D02*
X119164410Y-99934938D01*
X119164410Y-99934938D02*
X119116791Y-99839700D01*
X119116791Y-99839700D02*
X119069172Y-99649224D01*
X119069172Y-99649224D02*
X119069172Y-99411129D01*
X119069172Y-99411129D02*
X119116791Y-99220653D01*
X119116791Y-99220653D02*
X119164410Y-99125415D01*
X119164410Y-99125415D02*
X119212029Y-99077796D01*
X119212029Y-99077796D02*
X119307267Y-99030177D01*
X106208515Y-92422024D02*
X106208515Y-92898214D01*
X106208515Y-92898214D02*
X105208515Y-92898214D01*
X106208515Y-91564881D02*
X106208515Y-92136309D01*
X106208515Y-91850595D02*
X105208515Y-91850595D01*
X105208515Y-91850595D02*
X105351372Y-91945833D01*
X105351372Y-91945833D02*
X105446610Y-92041071D01*
X105446610Y-92041071D02*
X105494229Y-92136309D01*
X118812029Y-103434938D02*
X118764410Y-103482558D01*
X118764410Y-103482558D02*
X118621553Y-103530177D01*
X118621553Y-103530177D02*
X118526315Y-103530177D01*
X118526315Y-103530177D02*
X118383458Y-103482558D01*
X118383458Y-103482558D02*
X118288220Y-103387319D01*
X118288220Y-103387319D02*
X118240601Y-103292081D01*
X118240601Y-103292081D02*
X118192982Y-103101605D01*
X118192982Y-103101605D02*
X118192982Y-102958748D01*
X118192982Y-102958748D02*
X118240601Y-102768272D01*
X118240601Y-102768272D02*
X118288220Y-102673034D01*
X118288220Y-102673034D02*
X118383458Y-102577796D01*
X118383458Y-102577796D02*
X118526315Y-102530177D01*
X118526315Y-102530177D02*
X118621553Y-102530177D01*
X118621553Y-102530177D02*
X118764410Y-102577796D01*
X118764410Y-102577796D02*
X118812029Y-102625415D01*
X119288220Y-103530177D02*
X119478696Y-103530177D01*
X119478696Y-103530177D02*
X119573934Y-103482558D01*
X119573934Y-103482558D02*
X119621553Y-103434938D01*
X119621553Y-103434938D02*
X119716791Y-103292081D01*
X119716791Y-103292081D02*
X119764410Y-103101605D01*
X119764410Y-103101605D02*
X119764410Y-102720653D01*
X119764410Y-102720653D02*
X119716791Y-102625415D01*
X119716791Y-102625415D02*
X119669172Y-102577796D01*
X119669172Y-102577796D02*
X119573934Y-102530177D01*
X119573934Y-102530177D02*
X119383458Y-102530177D01*
X119383458Y-102530177D02*
X119288220Y-102577796D01*
X119288220Y-102577796D02*
X119240601Y-102625415D01*
X119240601Y-102625415D02*
X119192982Y-102720653D01*
X119192982Y-102720653D02*
X119192982Y-102958748D01*
X119192982Y-102958748D02*
X119240601Y-103053986D01*
X119240601Y-103053986D02*
X119288220Y-103101605D01*
X119288220Y-103101605D02*
X119383458Y-103149224D01*
X119383458Y-103149224D02*
X119573934Y-103149224D01*
X119573934Y-103149224D02*
X119669172Y-103101605D01*
X119669172Y-103101605D02*
X119716791Y-103053986D01*
X119716791Y-103053986D02*
X119764410Y-102958748D01*
X113983333Y-69595180D02*
X113983333Y-68880895D01*
X113983333Y-68880895D02*
X114030952Y-68738038D01*
X114030952Y-68738038D02*
X114126190Y-68642800D01*
X114126190Y-68642800D02*
X114269047Y-68595180D01*
X114269047Y-68595180D02*
X114364285Y-68595180D01*
X113554761Y-69499942D02*
X113507142Y-69547561D01*
X113507142Y-69547561D02*
X113411904Y-69595180D01*
X113411904Y-69595180D02*
X113173809Y-69595180D01*
X113173809Y-69595180D02*
X113078571Y-69547561D01*
X113078571Y-69547561D02*
X113030952Y-69499942D01*
X113030952Y-69499942D02*
X112983333Y-69404704D01*
X112983333Y-69404704D02*
X112983333Y-69309466D01*
X112983333Y-69309466D02*
X113030952Y-69166609D01*
X113030952Y-69166609D02*
X113602380Y-68595180D01*
X113602380Y-68595180D02*
X112983333Y-68595180D01*
X120995362Y-104656367D02*
X120662029Y-104656367D01*
X120662029Y-105180177D02*
X120662029Y-104180177D01*
X120662029Y-104180177D02*
X121138219Y-104180177D01*
X121852505Y-104656367D02*
X121995362Y-104703986D01*
X121995362Y-104703986D02*
X122042981Y-104751605D01*
X122042981Y-104751605D02*
X122090600Y-104846843D01*
X122090600Y-104846843D02*
X122090600Y-104989700D01*
X122090600Y-104989700D02*
X122042981Y-105084938D01*
X122042981Y-105084938D02*
X121995362Y-105132558D01*
X121995362Y-105132558D02*
X121900124Y-105180177D01*
X121900124Y-105180177D02*
X121519172Y-105180177D01*
X121519172Y-105180177D02*
X121519172Y-104180177D01*
X121519172Y-104180177D02*
X121852505Y-104180177D01*
X121852505Y-104180177D02*
X121947743Y-104227796D01*
X121947743Y-104227796D02*
X121995362Y-104275415D01*
X121995362Y-104275415D02*
X122042981Y-104370653D01*
X122042981Y-104370653D02*
X122042981Y-104465891D01*
X122042981Y-104465891D02*
X121995362Y-104561129D01*
X121995362Y-104561129D02*
X121947743Y-104608748D01*
X121947743Y-104608748D02*
X121852505Y-104656367D01*
X121852505Y-104656367D02*
X121519172Y-104656367D01*
X123042981Y-105180177D02*
X122471553Y-105180177D01*
X122757267Y-105180177D02*
X122757267Y-104180177D01*
X122757267Y-104180177D02*
X122662029Y-104323034D01*
X122662029Y-104323034D02*
X122566791Y-104418272D01*
X122566791Y-104418272D02*
X122471553Y-104465891D01*
X73683515Y-74825952D02*
X72683515Y-74825952D01*
X72683515Y-74825952D02*
X72683515Y-74587857D01*
X72683515Y-74587857D02*
X72731134Y-74445000D01*
X72731134Y-74445000D02*
X72826372Y-74349762D01*
X72826372Y-74349762D02*
X72921610Y-74302143D01*
X72921610Y-74302143D02*
X73112086Y-74254524D01*
X73112086Y-74254524D02*
X73254943Y-74254524D01*
X73254943Y-74254524D02*
X73445419Y-74302143D01*
X73445419Y-74302143D02*
X73540657Y-74349762D01*
X73540657Y-74349762D02*
X73635896Y-74445000D01*
X73635896Y-74445000D02*
X73683515Y-74587857D01*
X73683515Y-74587857D02*
X73683515Y-74825952D01*
X72683515Y-73921190D02*
X72683515Y-73302143D01*
X72683515Y-73302143D02*
X73064467Y-73635476D01*
X73064467Y-73635476D02*
X73064467Y-73492619D01*
X73064467Y-73492619D02*
X73112086Y-73397381D01*
X73112086Y-73397381D02*
X73159705Y-73349762D01*
X73159705Y-73349762D02*
X73254943Y-73302143D01*
X73254943Y-73302143D02*
X73493038Y-73302143D01*
X73493038Y-73302143D02*
X73588276Y-73349762D01*
X73588276Y-73349762D02*
X73635896Y-73397381D01*
X73635896Y-73397381D02*
X73683515Y-73492619D01*
X73683515Y-73492619D02*
X73683515Y-73778333D01*
X73683515Y-73778333D02*
X73635896Y-73873571D01*
X73635896Y-73873571D02*
X73588276Y-73921190D01*
X56363291Y-82929177D02*
X56363291Y-83738700D01*
X56363291Y-83738700D02*
X56410910Y-83833938D01*
X56410910Y-83833938D02*
X56458529Y-83881558D01*
X56458529Y-83881558D02*
X56553767Y-83929177D01*
X56553767Y-83929177D02*
X56744243Y-83929177D01*
X56744243Y-83929177D02*
X56839481Y-83881558D01*
X56839481Y-83881558D02*
X56887100Y-83833938D01*
X56887100Y-83833938D02*
X56934719Y-83738700D01*
X56934719Y-83738700D02*
X56934719Y-82929177D01*
X57839481Y-83262510D02*
X57839481Y-83929177D01*
X57601386Y-82881558D02*
X57363291Y-83595843D01*
X57363291Y-83595843D02*
X57982338Y-83595843D01*
X123712029Y-86934938D02*
X123664410Y-86982558D01*
X123664410Y-86982558D02*
X123521553Y-87030177D01*
X123521553Y-87030177D02*
X123426315Y-87030177D01*
X123426315Y-87030177D02*
X123283458Y-86982558D01*
X123283458Y-86982558D02*
X123188220Y-86887319D01*
X123188220Y-86887319D02*
X123140601Y-86792081D01*
X123140601Y-86792081D02*
X123092982Y-86601605D01*
X123092982Y-86601605D02*
X123092982Y-86458748D01*
X123092982Y-86458748D02*
X123140601Y-86268272D01*
X123140601Y-86268272D02*
X123188220Y-86173034D01*
X123188220Y-86173034D02*
X123283458Y-86077796D01*
X123283458Y-86077796D02*
X123426315Y-86030177D01*
X123426315Y-86030177D02*
X123521553Y-86030177D01*
X123521553Y-86030177D02*
X123664410Y-86077796D01*
X123664410Y-86077796D02*
X123712029Y-86125415D01*
X124569172Y-86030177D02*
X124378696Y-86030177D01*
X124378696Y-86030177D02*
X124283458Y-86077796D01*
X124283458Y-86077796D02*
X124235839Y-86125415D01*
X124235839Y-86125415D02*
X124140601Y-86268272D01*
X124140601Y-86268272D02*
X124092982Y-86458748D01*
X124092982Y-86458748D02*
X124092982Y-86839700D01*
X124092982Y-86839700D02*
X124140601Y-86934938D01*
X124140601Y-86934938D02*
X124188220Y-86982558D01*
X124188220Y-86982558D02*
X124283458Y-87030177D01*
X124283458Y-87030177D02*
X124473934Y-87030177D01*
X124473934Y-87030177D02*
X124569172Y-86982558D01*
X124569172Y-86982558D02*
X124616791Y-86934938D01*
X124616791Y-86934938D02*
X124664410Y-86839700D01*
X124664410Y-86839700D02*
X124664410Y-86601605D01*
X124664410Y-86601605D02*
X124616791Y-86506367D01*
X124616791Y-86506367D02*
X124569172Y-86458748D01*
X124569172Y-86458748D02*
X124473934Y-86411129D01*
X124473934Y-86411129D02*
X124283458Y-86411129D01*
X124283458Y-86411129D02*
X124188220Y-86458748D01*
X124188220Y-86458748D02*
X124140601Y-86506367D01*
X124140601Y-86506367D02*
X124092982Y-86601605D01*
X98435838Y-101880177D02*
X98102505Y-101403986D01*
X97864410Y-101880177D02*
X97864410Y-100880177D01*
X97864410Y-100880177D02*
X98245362Y-100880177D01*
X98245362Y-100880177D02*
X98340600Y-100927796D01*
X98340600Y-100927796D02*
X98388219Y-100975415D01*
X98388219Y-100975415D02*
X98435838Y-101070653D01*
X98435838Y-101070653D02*
X98435838Y-101213510D01*
X98435838Y-101213510D02*
X98388219Y-101308748D01*
X98388219Y-101308748D02*
X98340600Y-101356367D01*
X98340600Y-101356367D02*
X98245362Y-101403986D01*
X98245362Y-101403986D02*
X97864410Y-101403986D01*
X99388219Y-101880177D02*
X98816791Y-101880177D01*
X99102505Y-101880177D02*
X99102505Y-100880177D01*
X99102505Y-100880177D02*
X99007267Y-101023034D01*
X99007267Y-101023034D02*
X98912029Y-101118272D01*
X98912029Y-101118272D02*
X98816791Y-101165891D01*
X99959648Y-101308748D02*
X99864410Y-101261129D01*
X99864410Y-101261129D02*
X99816791Y-101213510D01*
X99816791Y-101213510D02*
X99769172Y-101118272D01*
X99769172Y-101118272D02*
X99769172Y-101070653D01*
X99769172Y-101070653D02*
X99816791Y-100975415D01*
X99816791Y-100975415D02*
X99864410Y-100927796D01*
X99864410Y-100927796D02*
X99959648Y-100880177D01*
X99959648Y-100880177D02*
X100150124Y-100880177D01*
X100150124Y-100880177D02*
X100245362Y-100927796D01*
X100245362Y-100927796D02*
X100292981Y-100975415D01*
X100292981Y-100975415D02*
X100340600Y-101070653D01*
X100340600Y-101070653D02*
X100340600Y-101118272D01*
X100340600Y-101118272D02*
X100292981Y-101213510D01*
X100292981Y-101213510D02*
X100245362Y-101261129D01*
X100245362Y-101261129D02*
X100150124Y-101308748D01*
X100150124Y-101308748D02*
X99959648Y-101308748D01*
X99959648Y-101308748D02*
X99864410Y-101356367D01*
X99864410Y-101356367D02*
X99816791Y-101403986D01*
X99816791Y-101403986D02*
X99769172Y-101499224D01*
X99769172Y-101499224D02*
X99769172Y-101689700D01*
X99769172Y-101689700D02*
X99816791Y-101784938D01*
X99816791Y-101784938D02*
X99864410Y-101832558D01*
X99864410Y-101832558D02*
X99959648Y-101880177D01*
X99959648Y-101880177D02*
X100150124Y-101880177D01*
X100150124Y-101880177D02*
X100245362Y-101832558D01*
X100245362Y-101832558D02*
X100292981Y-101784938D01*
X100292981Y-101784938D02*
X100340600Y-101689700D01*
X100340600Y-101689700D02*
X100340600Y-101499224D01*
X100340600Y-101499224D02*
X100292981Y-101403986D01*
X100292981Y-101403986D02*
X100245362Y-101356367D01*
X100245362Y-101356367D02*
X100150124Y-101308748D01*
X207790476Y-110531009D02*
X207933333Y-110578628D01*
X207933333Y-110578628D02*
X207980952Y-110626247D01*
X207980952Y-110626247D02*
X208028571Y-110721485D01*
X208028571Y-110721485D02*
X208028571Y-110864342D01*
X208028571Y-110864342D02*
X207980952Y-110959580D01*
X207980952Y-110959580D02*
X207933333Y-111007200D01*
X207933333Y-111007200D02*
X207838095Y-111054819D01*
X207838095Y-111054819D02*
X207457143Y-111054819D01*
X207457143Y-111054819D02*
X207457143Y-110054819D01*
X207457143Y-110054819D02*
X207790476Y-110054819D01*
X207790476Y-110054819D02*
X207885714Y-110102438D01*
X207885714Y-110102438D02*
X207933333Y-110150057D01*
X207933333Y-110150057D02*
X207980952Y-110245295D01*
X207980952Y-110245295D02*
X207980952Y-110340533D01*
X207980952Y-110340533D02*
X207933333Y-110435771D01*
X207933333Y-110435771D02*
X207885714Y-110483390D01*
X207885714Y-110483390D02*
X207790476Y-110531009D01*
X207790476Y-110531009D02*
X207457143Y-110531009D01*
X208314286Y-110054819D02*
X208885714Y-110054819D01*
X208600000Y-111054819D02*
X208600000Y-110054819D01*
X209219048Y-111054819D02*
X209219048Y-110054819D01*
X209219048Y-110054819D02*
X209790476Y-111054819D01*
X209790476Y-111054819D02*
X209790476Y-110054819D01*
X210171429Y-110054819D02*
X210790476Y-110054819D01*
X210790476Y-110054819D02*
X210457143Y-110435771D01*
X210457143Y-110435771D02*
X210600000Y-110435771D01*
X210600000Y-110435771D02*
X210695238Y-110483390D01*
X210695238Y-110483390D02*
X210742857Y-110531009D01*
X210742857Y-110531009D02*
X210790476Y-110626247D01*
X210790476Y-110626247D02*
X210790476Y-110864342D01*
X210790476Y-110864342D02*
X210742857Y-110959580D01*
X210742857Y-110959580D02*
X210695238Y-111007200D01*
X210695238Y-111007200D02*
X210600000Y-111054819D01*
X210600000Y-111054819D02*
X210314286Y-111054819D01*
X210314286Y-111054819D02*
X210219048Y-111007200D01*
X210219048Y-111007200D02*
X210171429Y-110959580D01*
X50208529Y-83729177D02*
X49875196Y-83252986D01*
X49637101Y-83729177D02*
X49637101Y-82729177D01*
X49637101Y-82729177D02*
X50018053Y-82729177D01*
X50018053Y-82729177D02*
X50113291Y-82776796D01*
X50113291Y-82776796D02*
X50160910Y-82824415D01*
X50160910Y-82824415D02*
X50208529Y-82919653D01*
X50208529Y-82919653D02*
X50208529Y-83062510D01*
X50208529Y-83062510D02*
X50160910Y-83157748D01*
X50160910Y-83157748D02*
X50113291Y-83205367D01*
X50113291Y-83205367D02*
X50018053Y-83252986D01*
X50018053Y-83252986D02*
X49637101Y-83252986D01*
X51065672Y-82729177D02*
X50875196Y-82729177D01*
X50875196Y-82729177D02*
X50779958Y-82776796D01*
X50779958Y-82776796D02*
X50732339Y-82824415D01*
X50732339Y-82824415D02*
X50637101Y-82967272D01*
X50637101Y-82967272D02*
X50589482Y-83157748D01*
X50589482Y-83157748D02*
X50589482Y-83538700D01*
X50589482Y-83538700D02*
X50637101Y-83633938D01*
X50637101Y-83633938D02*
X50684720Y-83681558D01*
X50684720Y-83681558D02*
X50779958Y-83729177D01*
X50779958Y-83729177D02*
X50970434Y-83729177D01*
X50970434Y-83729177D02*
X51065672Y-83681558D01*
X51065672Y-83681558D02*
X51113291Y-83633938D01*
X51113291Y-83633938D02*
X51160910Y-83538700D01*
X51160910Y-83538700D02*
X51160910Y-83300605D01*
X51160910Y-83300605D02*
X51113291Y-83205367D01*
X51113291Y-83205367D02*
X51065672Y-83157748D01*
X51065672Y-83157748D02*
X50970434Y-83110129D01*
X50970434Y-83110129D02*
X50779958Y-83110129D01*
X50779958Y-83110129D02*
X50684720Y-83157748D01*
X50684720Y-83157748D02*
X50637101Y-83205367D01*
X50637101Y-83205367D02*
X50589482Y-83300605D01*
X90916667Y-62207200D02*
X91059524Y-62254819D01*
X91059524Y-62254819D02*
X91297619Y-62254819D01*
X91297619Y-62254819D02*
X91392857Y-62207200D01*
X91392857Y-62207200D02*
X91440476Y-62159580D01*
X91440476Y-62159580D02*
X91488095Y-62064342D01*
X91488095Y-62064342D02*
X91488095Y-61969104D01*
X91488095Y-61969104D02*
X91440476Y-61873866D01*
X91440476Y-61873866D02*
X91392857Y-61826247D01*
X91392857Y-61826247D02*
X91297619Y-61778628D01*
X91297619Y-61778628D02*
X91107143Y-61731009D01*
X91107143Y-61731009D02*
X91011905Y-61683390D01*
X91011905Y-61683390D02*
X90964286Y-61635771D01*
X90964286Y-61635771D02*
X90916667Y-61540533D01*
X90916667Y-61540533D02*
X90916667Y-61445295D01*
X90916667Y-61445295D02*
X90964286Y-61350057D01*
X90964286Y-61350057D02*
X91011905Y-61302438D01*
X91011905Y-61302438D02*
X91107143Y-61254819D01*
X91107143Y-61254819D02*
X91345238Y-61254819D01*
X91345238Y-61254819D02*
X91488095Y-61302438D01*
X91821429Y-61254819D02*
X92059524Y-62254819D01*
X92059524Y-62254819D02*
X92250000Y-61540533D01*
X92250000Y-61540533D02*
X92440476Y-62254819D01*
X92440476Y-62254819D02*
X92678572Y-61254819D01*
X93011905Y-61350057D02*
X93059524Y-61302438D01*
X93059524Y-61302438D02*
X93154762Y-61254819D01*
X93154762Y-61254819D02*
X93392857Y-61254819D01*
X93392857Y-61254819D02*
X93488095Y-61302438D01*
X93488095Y-61302438D02*
X93535714Y-61350057D01*
X93535714Y-61350057D02*
X93583333Y-61445295D01*
X93583333Y-61445295D02*
X93583333Y-61540533D01*
X93583333Y-61540533D02*
X93535714Y-61683390D01*
X93535714Y-61683390D02*
X92964286Y-62254819D01*
X92964286Y-62254819D02*
X93583333Y-62254819D01*
X96783515Y-75768215D02*
X96307324Y-76101548D01*
X96783515Y-76339643D02*
X95783515Y-76339643D01*
X95783515Y-76339643D02*
X95783515Y-75958691D01*
X95783515Y-75958691D02*
X95831134Y-75863453D01*
X95831134Y-75863453D02*
X95878753Y-75815834D01*
X95878753Y-75815834D02*
X95973991Y-75768215D01*
X95973991Y-75768215D02*
X96116848Y-75768215D01*
X96116848Y-75768215D02*
X96212086Y-75815834D01*
X96212086Y-75815834D02*
X96259705Y-75863453D01*
X96259705Y-75863453D02*
X96307324Y-75958691D01*
X96307324Y-75958691D02*
X96307324Y-76339643D01*
X96783515Y-74815834D02*
X96783515Y-75387262D01*
X96783515Y-75101548D02*
X95783515Y-75101548D01*
X95783515Y-75101548D02*
X95926372Y-75196786D01*
X95926372Y-75196786D02*
X96021610Y-75292024D01*
X96021610Y-75292024D02*
X96069229Y-75387262D01*
X95783515Y-74196786D02*
X95783515Y-74101548D01*
X95783515Y-74101548D02*
X95831134Y-74006310D01*
X95831134Y-74006310D02*
X95878753Y-73958691D01*
X95878753Y-73958691D02*
X95973991Y-73911072D01*
X95973991Y-73911072D02*
X96164467Y-73863453D01*
X96164467Y-73863453D02*
X96402562Y-73863453D01*
X96402562Y-73863453D02*
X96593038Y-73911072D01*
X96593038Y-73911072D02*
X96688276Y-73958691D01*
X96688276Y-73958691D02*
X96735896Y-74006310D01*
X96735896Y-74006310D02*
X96783515Y-74101548D01*
X96783515Y-74101548D02*
X96783515Y-74196786D01*
X96783515Y-74196786D02*
X96735896Y-74292024D01*
X96735896Y-74292024D02*
X96688276Y-74339643D01*
X96688276Y-74339643D02*
X96593038Y-74387262D01*
X96593038Y-74387262D02*
X96402562Y-74434881D01*
X96402562Y-74434881D02*
X96164467Y-74434881D01*
X96164467Y-74434881D02*
X95973991Y-74387262D01*
X95973991Y-74387262D02*
X95878753Y-74339643D01*
X95878753Y-74339643D02*
X95831134Y-74292024D01*
X95831134Y-74292024D02*
X95783515Y-74196786D01*
X73683515Y-78425952D02*
X72683515Y-78425952D01*
X72683515Y-78425952D02*
X72683515Y-78187857D01*
X72683515Y-78187857D02*
X72731134Y-78045000D01*
X72731134Y-78045000D02*
X72826372Y-77949762D01*
X72826372Y-77949762D02*
X72921610Y-77902143D01*
X72921610Y-77902143D02*
X73112086Y-77854524D01*
X73112086Y-77854524D02*
X73254943Y-77854524D01*
X73254943Y-77854524D02*
X73445419Y-77902143D01*
X73445419Y-77902143D02*
X73540657Y-77949762D01*
X73540657Y-77949762D02*
X73635896Y-78045000D01*
X73635896Y-78045000D02*
X73683515Y-78187857D01*
X73683515Y-78187857D02*
X73683515Y-78425952D01*
X73683515Y-76902143D02*
X73683515Y-77473571D01*
X73683515Y-77187857D02*
X72683515Y-77187857D01*
X72683515Y-77187857D02*
X72826372Y-77283095D01*
X72826372Y-77283095D02*
X72921610Y-77378333D01*
X72921610Y-77378333D02*
X72969229Y-77473571D01*
X101830884Y-73767499D02*
X101878504Y-73815118D01*
X101878504Y-73815118D02*
X101926123Y-73957975D01*
X101926123Y-73957975D02*
X101926123Y-74053213D01*
X101926123Y-74053213D02*
X101878504Y-74196070D01*
X101878504Y-74196070D02*
X101783265Y-74291308D01*
X101783265Y-74291308D02*
X101688027Y-74338927D01*
X101688027Y-74338927D02*
X101497551Y-74386546D01*
X101497551Y-74386546D02*
X101354694Y-74386546D01*
X101354694Y-74386546D02*
X101164218Y-74338927D01*
X101164218Y-74338927D02*
X101068980Y-74291308D01*
X101068980Y-74291308D02*
X100973742Y-74196070D01*
X100973742Y-74196070D02*
X100926123Y-74053213D01*
X100926123Y-74053213D02*
X100926123Y-73957975D01*
X100926123Y-73957975D02*
X100973742Y-73815118D01*
X100973742Y-73815118D02*
X101021361Y-73767499D01*
X101926123Y-72815118D02*
X101926123Y-73386546D01*
X101926123Y-73100832D02*
X100926123Y-73100832D01*
X100926123Y-73100832D02*
X101068980Y-73196070D01*
X101068980Y-73196070D02*
X101164218Y-73291308D01*
X101164218Y-73291308D02*
X101211837Y-73386546D01*
X100926123Y-71910356D02*
X100926123Y-72386546D01*
X100926123Y-72386546D02*
X101402313Y-72434165D01*
X101402313Y-72434165D02*
X101354694Y-72386546D01*
X101354694Y-72386546D02*
X101307075Y-72291308D01*
X101307075Y-72291308D02*
X101307075Y-72053213D01*
X101307075Y-72053213D02*
X101354694Y-71957975D01*
X101354694Y-71957975D02*
X101402313Y-71910356D01*
X101402313Y-71910356D02*
X101497551Y-71862737D01*
X101497551Y-71862737D02*
X101735646Y-71862737D01*
X101735646Y-71862737D02*
X101830884Y-71910356D01*
X101830884Y-71910356D02*
X101878504Y-71957975D01*
X101878504Y-71957975D02*
X101926123Y-72053213D01*
X101926123Y-72053213D02*
X101926123Y-72291308D01*
X101926123Y-72291308D02*
X101878504Y-72386546D01*
X101878504Y-72386546D02*
X101830884Y-72434165D01*
X99581672Y-91002653D02*
X99581672Y-91650272D01*
X99581672Y-91650272D02*
X99619767Y-91726462D01*
X99619767Y-91726462D02*
X99657862Y-91764558D01*
X99657862Y-91764558D02*
X99734053Y-91802653D01*
X99734053Y-91802653D02*
X99886434Y-91802653D01*
X99886434Y-91802653D02*
X99962624Y-91764558D01*
X99962624Y-91764558D02*
X100000719Y-91726462D01*
X100000719Y-91726462D02*
X100038815Y-91650272D01*
X100038815Y-91650272D02*
X100038815Y-91002653D01*
X100800719Y-91002653D02*
X100419767Y-91002653D01*
X100419767Y-91002653D02*
X100381671Y-91383605D01*
X100381671Y-91383605D02*
X100419767Y-91345510D01*
X100419767Y-91345510D02*
X100495957Y-91307415D01*
X100495957Y-91307415D02*
X100686433Y-91307415D01*
X100686433Y-91307415D02*
X100762624Y-91345510D01*
X100762624Y-91345510D02*
X100800719Y-91383605D01*
X100800719Y-91383605D02*
X100838814Y-91459796D01*
X100838814Y-91459796D02*
X100838814Y-91650272D01*
X100838814Y-91650272D02*
X100800719Y-91726462D01*
X100800719Y-91726462D02*
X100762624Y-91764558D01*
X100762624Y-91764558D02*
X100686433Y-91802653D01*
X100686433Y-91802653D02*
X100495957Y-91802653D01*
X100495957Y-91802653D02*
X100419767Y-91764558D01*
X100419767Y-91764558D02*
X100381671Y-91726462D01*
X118052505Y-90153986D02*
X118052505Y-90630177D01*
X117719172Y-89630177D02*
X118052505Y-90153986D01*
X118052505Y-90153986D02*
X118385838Y-89630177D01*
X119242981Y-90630177D02*
X118671553Y-90630177D01*
X118957267Y-90630177D02*
X118957267Y-89630177D01*
X118957267Y-89630177D02*
X118862029Y-89773034D01*
X118862029Y-89773034D02*
X118766791Y-89868272D01*
X118766791Y-89868272D02*
X118671553Y-89915891D01*
X98260838Y-77827438D02*
X98213219Y-77875058D01*
X98213219Y-77875058D02*
X98070362Y-77922677D01*
X98070362Y-77922677D02*
X97975124Y-77922677D01*
X97975124Y-77922677D02*
X97832267Y-77875058D01*
X97832267Y-77875058D02*
X97737029Y-77779819D01*
X97737029Y-77779819D02*
X97689410Y-77684581D01*
X97689410Y-77684581D02*
X97641791Y-77494105D01*
X97641791Y-77494105D02*
X97641791Y-77351248D01*
X97641791Y-77351248D02*
X97689410Y-77160772D01*
X97689410Y-77160772D02*
X97737029Y-77065534D01*
X97737029Y-77065534D02*
X97832267Y-76970296D01*
X97832267Y-76970296D02*
X97975124Y-76922677D01*
X97975124Y-76922677D02*
X98070362Y-76922677D01*
X98070362Y-76922677D02*
X98213219Y-76970296D01*
X98213219Y-76970296D02*
X98260838Y-77017915D01*
X99213219Y-77922677D02*
X98641791Y-77922677D01*
X98927505Y-77922677D02*
X98927505Y-76922677D01*
X98927505Y-76922677D02*
X98832267Y-77065534D01*
X98832267Y-77065534D02*
X98737029Y-77160772D01*
X98737029Y-77160772D02*
X98641791Y-77208391D01*
X100070362Y-77256010D02*
X100070362Y-77922677D01*
X99832267Y-76875058D02*
X99594172Y-77589343D01*
X99594172Y-77589343D02*
X100213219Y-77589343D01*
D12*
%TO.C,C3*%
X135460000Y-103522164D02*
X135460000Y-103737836D01*
X134740000Y-103522164D02*
X134740000Y-103737836D01*
%TO.C,U3*%
X92618696Y-68552858D02*
X93343696Y-68552858D01*
X92618696Y-69277858D02*
X92618696Y-68552858D01*
X92618696Y-72047858D02*
X92618696Y-72772858D01*
X92618696Y-72772858D02*
X93343696Y-72772858D01*
X96113696Y-68552858D02*
X96598696Y-68552858D01*
X96838696Y-69277858D02*
X96838696Y-68852858D01*
X96838696Y-72047858D02*
X96838696Y-72772858D01*
X96838696Y-72772858D02*
X96113696Y-72772858D01*
X97168696Y-68792858D02*
X96838696Y-68552858D01*
X97168696Y-68312858D01*
X97168696Y-68792858D01*
G36*
X97168696Y-68792858D02*
G01*
X96838696Y-68552858D01*
X97168696Y-68312858D01*
X97168696Y-68792858D01*
G37*
%TO.C,R20*%
X133665055Y-80095358D02*
X133972337Y-80095358D01*
X133665055Y-80855358D02*
X133972337Y-80855358D01*
%TO.C,D2*%
X74093696Y-79402858D02*
X74093696Y-81687858D01*
X75563696Y-79402858D02*
X74093696Y-79402858D01*
X75563696Y-81687858D02*
X75563696Y-79402858D01*
%TO.C,C16*%
X105613116Y-88365358D02*
X105894276Y-88365358D01*
X105613116Y-89385358D02*
X105894276Y-89385358D01*
%TO.C,C18*%
X105738748Y-82515000D02*
X106261252Y-82515000D01*
X105738748Y-83985000D02*
X106261252Y-83985000D01*
%TO.C,R17*%
X103665055Y-98495358D02*
X103972337Y-98495358D01*
X103665055Y-99255358D02*
X103972337Y-99255358D01*
%TO.C,U1*%
X124868696Y-91215358D02*
X124868696Y-92165358D01*
X124868696Y-101435358D02*
X124868696Y-100485358D01*
X125818696Y-91215358D02*
X124868696Y-91215358D01*
X125818696Y-101435358D02*
X124868696Y-101435358D01*
X134138696Y-91215358D02*
X135088696Y-91215358D01*
X134138696Y-101435358D02*
X135088696Y-101435358D01*
X135088696Y-91215358D02*
X135088696Y-92165358D01*
X135088696Y-101435358D02*
X135088696Y-100485358D01*
X124253696Y-92165358D02*
X123913696Y-91695358D01*
X124593696Y-91695358D01*
X124253696Y-92165358D01*
G36*
X124253696Y-92165358D02*
G01*
X123913696Y-91695358D01*
X124593696Y-91695358D01*
X124253696Y-92165358D01*
G37*
%TO.C,C12*%
X120768696Y-95383194D02*
X120768696Y-95167522D01*
X121488696Y-95383194D02*
X121488696Y-95167522D01*
%TO.C,C23*%
X110593696Y-104464106D02*
X110593696Y-104986610D01*
X112063696Y-104464106D02*
X112063696Y-104986610D01*
%TO.C,C24*%
X132792164Y-103890000D02*
X133007836Y-103890000D01*
X132792164Y-104610000D02*
X133007836Y-104610000D01*
%TO.C,BTN4*%
X195350000Y-96390000D02*
X195350000Y-97890000D01*
X196600000Y-100390000D02*
X201100000Y-100390000D01*
X201100000Y-93890000D02*
X196600000Y-93890000D01*
X202350000Y-97890000D02*
X202350000Y-96390000D01*
%TO.C,J1*%
X141598696Y-79605358D02*
X142928696Y-79605358D01*
X141598696Y-80935358D02*
X141598696Y-79605358D01*
X141598696Y-82205358D02*
X141598696Y-89885358D01*
X141598696Y-82205358D02*
X144258696Y-82205358D01*
X141598696Y-89885358D02*
X144258696Y-89885358D01*
X144258696Y-82205358D02*
X144258696Y-89885358D01*
%TO.C,C20*%
X103869276Y-96665358D02*
X103588116Y-96665358D01*
X103869276Y-97685358D02*
X103588116Y-97685358D01*
%TO.C,R4*%
X202548696Y-107918999D02*
X202548696Y-107611717D01*
X203308696Y-107918999D02*
X203308696Y-107611717D01*
%TO.C,R5*%
X191820000Y-95453641D02*
X191820000Y-95146359D01*
X192580000Y-95453641D02*
X192580000Y-95146359D01*
%TO.C,R19*%
X104682337Y-101895358D02*
X104375055Y-101895358D01*
X104682337Y-102655358D02*
X104375055Y-102655358D01*
%TO.C,C22*%
X107193696Y-104464106D02*
X107193696Y-104986610D01*
X108663696Y-104464106D02*
X108663696Y-104986610D01*
%TO.C,J6*%
X126778696Y-76345358D02*
X126778696Y-79005358D01*
X134458696Y-76345358D02*
X126778696Y-76345358D01*
X134458696Y-76345358D02*
X134458696Y-79005358D01*
X134458696Y-79005358D02*
X126778696Y-79005358D01*
X135728696Y-76345358D02*
X137058696Y-76345358D01*
X137058696Y-76345358D02*
X137058696Y-77675358D01*
%TO.C,J4*%
X163198696Y-73345358D02*
X163198696Y-106425358D01*
X163198696Y-73345358D02*
X165858696Y-73345358D01*
X163198696Y-106425358D02*
X165858696Y-106425358D01*
X164528696Y-70745358D02*
X165858696Y-70745358D01*
X165858696Y-70745358D02*
X165858696Y-72075358D01*
X165858696Y-73345358D02*
X165858696Y-106425358D01*
%TO.C,R16*%
X105772337Y-87095358D02*
X105465055Y-87095358D01*
X105772337Y-87855358D02*
X105465055Y-87855358D01*
%TO.C,C1*%
X126340860Y-88315358D02*
X126556532Y-88315358D01*
X126340860Y-89035358D02*
X126556532Y-89035358D01*
%TO.C,R12*%
X91653641Y-66870000D02*
X91346359Y-66870000D01*
X91653641Y-67630000D02*
X91346359Y-67630000D01*
%TO.C,C13*%
X101290000Y-66559420D02*
X101290000Y-66840580D01*
X102310000Y-66559420D02*
X102310000Y-66840580D01*
%TO.C,C19*%
X99768696Y-94187522D02*
X99768696Y-94403194D01*
X100488696Y-94187522D02*
X100488696Y-94403194D01*
%TO.C,C8*%
X121036532Y-101127858D02*
X120820860Y-101127858D01*
X121036532Y-101847858D02*
X120820860Y-101847858D01*
%TO.C,R7*%
X109470000Y-70086359D02*
X109470000Y-70393641D01*
X110230000Y-70086359D02*
X110230000Y-70393641D01*
%TO.C,J3*%
X87740000Y-77540000D02*
X87740000Y-78790000D01*
X88040000Y-77840000D02*
X88040000Y-82560000D01*
X88040000Y-79150000D02*
X88650000Y-79150000D01*
X88040000Y-80450000D02*
X88650000Y-80450000D01*
X88040000Y-82560000D02*
X94160000Y-82560000D01*
X88650000Y-78450000D02*
X88650000Y-81950000D01*
X88650000Y-81950000D02*
X93550000Y-81950000D01*
X88990000Y-77540000D02*
X87740000Y-77540000D01*
X89500000Y-77640000D02*
X89500000Y-77840000D01*
X89800000Y-77640000D02*
X89500000Y-77640000D01*
X89800000Y-77740000D02*
X89500000Y-77740000D01*
X89800000Y-77840000D02*
X89800000Y-77640000D01*
X90600000Y-77840000D02*
X90600000Y-78450000D01*
X90600000Y-78450000D02*
X88650000Y-78450000D01*
X91000000Y-81450000D02*
X91200000Y-81450000D01*
X91000000Y-81950000D02*
X91000000Y-81450000D01*
X91100000Y-81950000D02*
X91100000Y-81450000D01*
X91200000Y-81450000D02*
X91200000Y-81950000D01*
X91600000Y-78450000D02*
X91600000Y-77840000D01*
X93550000Y-78450000D02*
X91600000Y-78450000D01*
X93550000Y-81950000D02*
X93550000Y-78450000D01*
X94160000Y-77840000D02*
X88040000Y-77840000D01*
X94160000Y-79150000D02*
X93550000Y-79150000D01*
X94160000Y-80450000D02*
X93550000Y-80450000D01*
X94160000Y-82560000D02*
X94160000Y-77840000D01*
%TO.C,R15*%
X69720000Y-75736359D02*
X69720000Y-76043641D01*
X70480000Y-75736359D02*
X70480000Y-76043641D01*
%TO.C,SW1*%
X118318696Y-79725358D02*
X118318696Y-80625358D01*
X118528696Y-79525358D02*
X118318696Y-79725358D01*
X118528696Y-80825358D02*
X118318696Y-80625358D01*
X118528696Y-80825358D02*
X119818696Y-80825358D01*
X119818696Y-78075358D02*
X119818696Y-83775358D01*
X119818696Y-79525358D02*
X118528696Y-79525358D01*
X120828696Y-84375358D02*
X121618696Y-84375358D01*
X121618696Y-77475358D02*
X120828696Y-77475358D01*
X122668696Y-79325358D02*
X122668696Y-81025358D01*
X122668696Y-82325358D02*
X122668696Y-82525358D01*
%TO.C,R13*%
X69670000Y-79386359D02*
X69670000Y-79693641D01*
X70430000Y-79386359D02*
X70430000Y-79693641D01*
%TO.C,R11*%
X93348696Y-74971717D02*
X93348696Y-75278999D01*
X94108696Y-74971717D02*
X94108696Y-75278999D01*
%TO.C,R3*%
X215482337Y-91095358D02*
X215175055Y-91095358D01*
X215482337Y-91855358D02*
X215175055Y-91855358D01*
%TO.C,BTN2*%
X214678696Y-96315358D02*
X214678696Y-97815358D01*
X215928696Y-100315358D02*
X220428696Y-100315358D01*
X220428696Y-93815358D02*
X215928696Y-93815358D01*
X221678696Y-97815358D02*
X221678696Y-96315358D01*
%TO.C,R1*%
X127948696Y-84321717D02*
X127948696Y-84628999D01*
X128708696Y-84321717D02*
X128708696Y-84628999D01*
%TO.C,C17*%
X105688748Y-84965000D02*
X106211252Y-84965000D01*
X105688748Y-86435000D02*
X106211252Y-86435000D01*
%TO.C,BTN1*%
X204978696Y-88475358D02*
X204978696Y-89975358D01*
X206228696Y-92475358D02*
X210728696Y-92475358D01*
X210728696Y-85975358D02*
X206228696Y-85975358D01*
X211978696Y-89975358D02*
X211978696Y-88475358D01*
%TO.C,R14*%
X69670000Y-82746359D02*
X69670000Y-83053641D01*
X70430000Y-82746359D02*
X70430000Y-83053641D01*
%TO.C,BZ1*%
X178828696Y-88375357D02*
G75*
G02*
X178828696Y-85375358I6400000J1499999D01*
G01*
X191458696Y-86875358D02*
G75*
G02*
X178998696Y-86875358I-6230000J0D01*
G01*
X178998696Y-86875358D02*
G75*
G02*
X191458696Y-86875358I6230000J0D01*
G01*
%TO.C,C7*%
X121768696Y-98383194D02*
X121768696Y-98167522D01*
X122488696Y-98383194D02*
X122488696Y-98167522D01*
%TO.C,J5*%
X137458696Y-105005358D02*
X137458696Y-103675358D01*
X138788696Y-105005358D02*
X137458696Y-105005358D01*
X140058696Y-102345358D02*
X147738696Y-102345358D01*
X140058696Y-105005358D02*
X140058696Y-102345358D01*
X140058696Y-105005358D02*
X147738696Y-105005358D01*
X147738696Y-105005358D02*
X147738696Y-102345358D01*
%TO.C,R21*%
X130572337Y-80095358D02*
X130265055Y-80095358D01*
X130572337Y-80855358D02*
X130265055Y-80855358D01*
%TO.C,C21*%
X103793696Y-104464106D02*
X103793696Y-104986610D01*
X105263696Y-104464106D02*
X105263696Y-104986610D01*
%TO.C,R8*%
X106520000Y-70136359D02*
X106520000Y-70443641D01*
X107280000Y-70136359D02*
X107280000Y-70443641D01*
%TO.C,R9*%
X95693641Y-64570000D02*
X95386359Y-64570000D01*
X95693641Y-65330000D02*
X95386359Y-65330000D01*
%TO.C,C4*%
X127036532Y-103915358D02*
X126820860Y-103915358D01*
X127036532Y-104635358D02*
X126820860Y-104635358D01*
%TO.C,C2*%
X137368696Y-92687522D02*
X137368696Y-92903194D01*
X138088696Y-92687522D02*
X138088696Y-92903194D01*
%TO.C,C11*%
X120768696Y-93303194D02*
X120768696Y-93087522D01*
X121488696Y-93303194D02*
X121488696Y-93087522D01*
%TO.C,R2*%
X201788696Y-86771717D02*
X201788696Y-87078999D01*
X202548696Y-86771717D02*
X202548696Y-87078999D01*
%TO.C,SW4*%
X115200000Y-60910000D02*
X115200000Y-61700000D01*
X117250000Y-62750000D02*
X117050000Y-62750000D01*
X120250000Y-62750000D02*
X118550000Y-62750000D01*
X121500000Y-59900000D02*
X115800000Y-59900000D01*
X122100000Y-61700000D02*
X122100000Y-60910000D01*
%TO.C,C5*%
X122198696Y-91383194D02*
X122198696Y-91167522D01*
X122918696Y-91383194D02*
X122918696Y-91167522D01*
%TO.C,C10*%
X118568696Y-97967522D02*
X118568696Y-98183194D01*
X119288696Y-97967522D02*
X119288696Y-98183194D01*
D13*
%TO.C,L1*%
X106928696Y-90890358D02*
X110928696Y-90890358D01*
X106928696Y-94890358D02*
X106928696Y-90890358D01*
X110928696Y-90890358D02*
X110928696Y-94890358D01*
X110928696Y-94890358D02*
X106928696Y-94890358D01*
D14*
X109028696Y-95590358D02*
G75*
G02*
X108828696Y-95590358I-100000J0D01*
G01*
X108828696Y-95590358D02*
G75*
G02*
X109028696Y-95590358I100000J0D01*
G01*
D12*
%TO.C,C9*%
X121036532Y-102715358D02*
X120820860Y-102715358D01*
X121036532Y-103435358D02*
X120820860Y-103435358D01*
%TO.C,J2*%
X103970000Y-63500000D02*
X103970000Y-65200000D01*
X113310000Y-63500000D02*
X113310000Y-65200000D01*
%TO.C,FB1*%
X122418696Y-102125079D02*
X122418696Y-102450637D01*
X123438696Y-102125079D02*
X123438696Y-102450637D01*
%TO.C,D3*%
X74093696Y-72602858D02*
X74093696Y-74887858D01*
X75563696Y-72602858D02*
X74093696Y-72602858D01*
X75563696Y-74887858D02*
X75563696Y-72602858D01*
D13*
%TO.C,U4*%
X47455196Y-94241858D02*
X50605196Y-94241858D01*
X47455196Y-104041858D02*
X47455196Y-94241858D01*
X50605196Y-104041858D02*
X47455196Y-104041858D01*
X50605196Y-104311858D02*
X50605196Y-104041858D01*
X52485196Y-91141858D02*
X53105196Y-91141858D01*
X53105196Y-84841858D02*
X64005196Y-84841858D01*
X53105196Y-91141858D02*
X53105196Y-84841858D01*
X53705196Y-107041858D02*
X52485196Y-107041858D01*
X53705196Y-110241858D02*
X53705196Y-107041858D01*
X63405196Y-107041858D02*
X63405196Y-110241858D01*
X64005196Y-84841858D02*
X64005196Y-91141858D01*
X64005196Y-91141858D02*
X64635196Y-91141858D01*
X64635196Y-107041858D02*
X63405196Y-107041858D01*
X66505196Y-95041858D02*
X68055196Y-95041858D01*
X66505196Y-103141858D02*
X66505196Y-104261858D01*
X68055196Y-95041858D02*
X68055196Y-103141858D01*
X68055196Y-103141858D02*
X66505196Y-103141858D01*
D14*
X52605196Y-85791858D02*
G75*
G02*
X52405196Y-85791858I-100000J0D01*
G01*
X52405196Y-85791858D02*
G75*
G02*
X52605196Y-85791858I100000J0D01*
G01*
D12*
%TO.C,C6*%
X126263116Y-86115358D02*
X126544276Y-86115358D01*
X126263116Y-87135358D02*
X126544276Y-87135358D01*
%TO.C,R18*%
X102682337Y-101095358D02*
X102375055Y-101095358D01*
X102682337Y-101855358D02*
X102375055Y-101855358D01*
%TO.C,BTN3*%
X205778696Y-104275358D02*
X205778696Y-105775358D01*
X207028696Y-108275358D02*
X211528696Y-108275358D01*
X211528696Y-101775358D02*
X207028696Y-101775358D01*
X212778696Y-105775358D02*
X212778696Y-104275358D01*
%TO.C,R6*%
X49995196Y-85810717D02*
X49995196Y-86117999D01*
X50755196Y-85810717D02*
X50755196Y-86117999D01*
%TO.C,SW2*%
X95350000Y-60900000D02*
X95350000Y-61690000D01*
X97400000Y-62740000D02*
X97200000Y-62740000D01*
X100400000Y-62740000D02*
X98700000Y-62740000D01*
X101650000Y-59890000D02*
X95950000Y-59890000D01*
X102250000Y-61690000D02*
X102250000Y-60900000D01*
%TO.C,R10*%
X94548696Y-74971717D02*
X94548696Y-75278999D01*
X95308696Y-74971717D02*
X95308696Y-75278999D01*
%TO.C,D1*%
X74093696Y-76202858D02*
X74093696Y-78487858D01*
X75563696Y-76202858D02*
X74093696Y-76202858D01*
X75563696Y-78487858D02*
X75563696Y-76202858D01*
%TO.C,C15*%
X99290000Y-71459420D02*
X99290000Y-71740580D01*
X100310000Y-71459420D02*
X100310000Y-71740580D01*
D13*
%TO.C,U5*%
X102241196Y-91740358D02*
X102241196Y-92045358D01*
X102241196Y-94740358D02*
X102241196Y-94435358D01*
X102321196Y-91740358D02*
X102241196Y-91740358D01*
X102321196Y-94740358D02*
X102241196Y-94740358D01*
X104661196Y-91740358D02*
X104741196Y-91740358D01*
X104741196Y-91740358D02*
X104741196Y-92245358D01*
X104741196Y-94235358D02*
X104741196Y-94740358D01*
X104741196Y-94740358D02*
X104661196Y-94740358D01*
D14*
X101591196Y-92090358D02*
G75*
G02*
X101391196Y-92090358I-100000J0D01*
G01*
X101391196Y-92090358D02*
G75*
G02*
X101591196Y-92090358I100000J0D01*
G01*
D12*
%TO.C,Y1*%
X117153696Y-92375358D02*
X117153696Y-96375358D01*
X120303696Y-92375358D02*
X117153696Y-92375358D01*
%TO.C,C14*%
X99044276Y-75527858D02*
X98763116Y-75527858D01*
X99044276Y-76547858D02*
X98763116Y-76547858D01*
%TD*%
M02*
