%TF.GenerationSoftware,KiCad,Pcbnew,9.0.0*%
%TF.CreationDate,2025-08-15T01:25:27+03:00*%
%TF.ProjectId,Handheld,48616e64-6865-46c6-942e-6b696361645f,rev?*%
%TF.SameCoordinates,Original*%
%TF.FileFunction,Copper,L2,Bot*%
%TF.FilePolarity,Positive*%
%FSLAX46Y46*%
G04 Gerber Fmt 4.6, Leading zero omitted, Abs format (unit mm)*
G04 Created by KiCad (PCBNEW 9.0.0) date 2025-08-15 01:25:27*
%MOMM*%
%LPD*%
G01*
G04 APERTURE LIST*
G04 Aperture macros list*
%AMRoundRect*
0 Rectangle with rounded corners*
0 $1 Rounding radius*
0 $2 $3 $4 $5 $6 $7 $8 $9 X,Y pos of 4 corners*
0 Add a 4 corners polygon primitive as box body*
4,1,4,$2,$3,$4,$5,$6,$7,$8,$9,$2,$3,0*
0 Add four circle primitives for the rounded corners*
1,1,$1+$1,$2,$3*
1,1,$1+$1,$4,$5*
1,1,$1+$1,$6,$7*
1,1,$1+$1,$8,$9*
0 Add four rect primitives between the rounded corners*
20,1,$1+$1,$2,$3,$4,$5,0*
20,1,$1+$1,$4,$5,$6,$7,0*
20,1,$1+$1,$6,$7,$8,$9,0*
20,1,$1+$1,$8,$9,$2,$3,0*%
G04 Aperture macros list end*
%TA.AperFunction,ComponentPad*%
%ADD10C,2.000000*%
%TD*%
%TA.AperFunction,ComponentPad*%
%ADD11R,1.700000X1.700000*%
%TD*%
%TA.AperFunction,ComponentPad*%
%ADD12O,1.700000X1.700000*%
%TD*%
%TA.AperFunction,ComponentPad*%
%ADD13RoundRect,0.250000X-0.350000X-0.625000X0.350000X-0.625000X0.350000X0.625000X-0.350000X0.625000X0*%
%TD*%
%TA.AperFunction,ComponentPad*%
%ADD14O,1.200000X1.750000*%
%TD*%
%TA.AperFunction,ComponentPad*%
%ADD15R,2.000000X2.000000*%
%TD*%
%TA.AperFunction,HeatsinkPad*%
%ADD16O,1.000000X2.100000*%
%TD*%
%TA.AperFunction,HeatsinkPad*%
%ADD17O,1.000000X1.800000*%
%TD*%
%TA.AperFunction,ComponentPad*%
%ADD18C,1.778000*%
%TD*%
%TA.AperFunction,ComponentPad*%
%ADD19C,2.286000*%
%TD*%
%TA.AperFunction,ViaPad*%
%ADD20C,0.900000*%
%TD*%
%TA.AperFunction,ViaPad*%
%ADD21C,0.700000*%
%TD*%
%TA.AperFunction,ViaPad*%
%ADD22C,0.600000*%
%TD*%
%TA.AperFunction,Conductor*%
%ADD23C,0.500000*%
%TD*%
%TA.AperFunction,Conductor*%
%ADD24C,0.300000*%
%TD*%
G04 APERTURE END LIST*
D10*
%TO.P,BTN4,1,1*%
%TO.N,/Button4*%
X195600000Y-94890000D03*
X202100000Y-94890000D03*
%TO.P,BTN4,2,2*%
%TO.N,+3.3V*%
X195600000Y-99390000D03*
X202100000Y-99390000D03*
%TD*%
D11*
%TO.P,J1,1,Pin_1*%
%TO.N,GND*%
X142928696Y-80935358D03*
D12*
%TO.P,J1,2,Pin_2*%
%TO.N,/SWCLK*%
X142928696Y-83475358D03*
%TO.P,J1,3,Pin_3*%
%TO.N,/SWDIO*%
X142928696Y-86015358D03*
%TO.P,J1,4,Pin_4*%
%TO.N,+3.3V*%
X142928696Y-88555358D03*
%TD*%
D11*
%TO.P,J6,1,Pin_1*%
%TO.N,GND*%
X135728696Y-77675358D03*
D12*
%TO.P,J6,2,Pin_2*%
%TO.N,/I2C1_SCL*%
X133188696Y-77675358D03*
%TO.P,J6,3,Pin_3*%
%TO.N,/I2C1_SDA*%
X130648696Y-77675358D03*
%TO.P,J6,4,Pin_4*%
%TO.N,+3.3V*%
X128108696Y-77675358D03*
%TD*%
D11*
%TO.P,J4,1,Pin_1*%
%TO.N,unconnected-(J4-Pin_1-Pad1)*%
X164528696Y-72075358D03*
D12*
%TO.P,J4,2,Pin_2*%
%TO.N,unconnected-(J4-Pin_2-Pad2)*%
X164528696Y-74615358D03*
%TO.P,J4,3,Pin_3*%
%TO.N,unconnected-(J4-Pin_3-Pad3)*%
X164528696Y-77155358D03*
%TO.P,J4,4,Pin_4*%
%TO.N,unconnected-(J4-Pin_4-Pad4)*%
X164528696Y-79695358D03*
%TO.P,J4,5,Pin_5*%
%TO.N,unconnected-(J4-Pin_5-Pad5)*%
X164528696Y-82235358D03*
%TO.P,J4,6,Pin_6*%
%TO.N,unconnected-(J4-Pin_6-Pad6)*%
X164528696Y-84775358D03*
%TO.P,J4,7,Pin_7*%
%TO.N,+3.3V*%
X164528696Y-87315358D03*
%TO.P,J4,8,Pin_8*%
%TO.N,/SCK*%
X164528696Y-89855358D03*
%TO.P,J4,9,Pin_9*%
%TO.N,/MOSI*%
X164528696Y-92395358D03*
%TO.P,J4,10,Pin_10*%
%TO.N,/DC*%
X164528696Y-94935358D03*
%TO.P,J4,11,Pin_11*%
%TO.N,/RST*%
X164528696Y-97475358D03*
%TO.P,J4,12,Pin_12*%
%TO.N,/CS*%
X164528696Y-100015358D03*
%TO.P,J4,13,Pin_13*%
%TO.N,GND*%
X164528696Y-102555358D03*
%TO.P,J4,14,Pin_14*%
%TO.N,+3.3V*%
X164528696Y-105095358D03*
%TD*%
D13*
%TO.P,J3,1,Pin_1*%
%TO.N,GND*%
X90100000Y-79650000D03*
D14*
%TO.P,J3,2,Pin_2*%
%TO.N,Net-(J3-Pin_2)*%
X92100000Y-79650000D03*
%TD*%
D10*
%TO.P,BTN2,1,1*%
%TO.N,/Button2*%
X214928696Y-94815358D03*
X221428696Y-94815358D03*
%TO.P,BTN2,2,2*%
%TO.N,+3.3V*%
X214928696Y-99315358D03*
X221428696Y-99315358D03*
%TD*%
%TO.P,BTN1,1,1*%
%TO.N,+3.3V*%
X211728696Y-91475358D03*
X205228696Y-91475358D03*
%TO.P,BTN1,2,2*%
%TO.N,/Button1*%
X211728696Y-86975358D03*
X205228696Y-86975358D03*
%TD*%
D15*
%TO.P,BZ1,1,+*%
%TO.N,Net-(BZ1-+)*%
X182728696Y-86875358D03*
D10*
%TO.P,BZ1,2,-*%
%TO.N,GND*%
X187728696Y-86875358D03*
%TD*%
D11*
%TO.P,J5,1,Pin_1*%
%TO.N,GND*%
X138788696Y-103675358D03*
D12*
%TO.P,J5,2,Pin_2*%
%TO.N,/USART6_TX*%
X141328696Y-103675358D03*
%TO.P,J5,3,Pin_3*%
%TO.N,/USART6_RX*%
X143868696Y-103675358D03*
%TO.P,J5,4,Pin_4*%
%TO.N,+3.3V*%
X146408696Y-103675358D03*
%TD*%
D16*
%TO.P,J2,S1,SHIELD*%
%TO.N,GND*%
X112960000Y-66505000D03*
D17*
X112960000Y-62325000D03*
D16*
X104320000Y-66505000D03*
D17*
X104320000Y-62325000D03*
%TD*%
D18*
%TO.P,U4,B1A,SEL+*%
%TO.N,Net-(U1-PA2)*%
X55380196Y-86441858D03*
%TO.P,U4,B1B*%
%TO.N,N/C*%
X61730196Y-86441858D03*
%TO.P,U4,B2A,SEL-*%
%TO.N,GND*%
X55380196Y-91521858D03*
%TO.P,U4,B2B*%
%TO.N,N/C*%
X61730196Y-91521858D03*
%TO.P,U4,H1,H+*%
%TO.N,+3.3V*%
X56015196Y-109301858D03*
%TO.P,U4,H2,H*%
%TO.N,Net-(U1-PA3)*%
X58555196Y-109301858D03*
%TO.P,U4,H3,H-*%
%TO.N,GND*%
X61095196Y-109301858D03*
D19*
%TO.P,U4,S1,SHIELD*%
X50935196Y-92474358D03*
%TO.P,U4,S2,SHIELD*%
X50935196Y-105809358D03*
%TO.P,U4,S3,SHIELD*%
X66175196Y-105809358D03*
%TO.P,U4,S4,SHIELD*%
X66175196Y-92474358D03*
D18*
%TO.P,U4,V1,V+*%
%TO.N,+3.3V*%
X48395196Y-96601858D03*
%TO.P,U4,V2,V*%
%TO.N,Net-(U1-PA4)*%
X48395196Y-99141858D03*
%TO.P,U4,V3,V-*%
%TO.N,GND*%
X48395196Y-101681858D03*
%TD*%
D10*
%TO.P,BTN3,1,1*%
%TO.N,/Button3*%
X212528696Y-107275358D03*
X206028696Y-107275358D03*
%TO.P,BTN3,2,2*%
%TO.N,+3.3V*%
X212528696Y-102775358D03*
X206028696Y-102775358D03*
%TD*%
D20*
%TO.N,+3.3V*%
X132478696Y-105675358D03*
X174128696Y-107475358D03*
X126928696Y-105475358D03*
X138228696Y-87775358D03*
X137728696Y-81675358D03*
X177328696Y-107475358D03*
X65728696Y-108075358D03*
X123100000Y-105200000D03*
X61928696Y-107025358D03*
D21*
%TO.N,GND*%
X106850000Y-72000000D03*
X168550000Y-98100000D03*
X188550000Y-118100000D03*
X108550000Y-118100000D03*
X108550000Y-78100000D03*
X115900000Y-64800000D03*
X48550000Y-88100000D03*
X137450000Y-107750000D03*
X50478696Y-84275358D03*
X68550000Y-98100000D03*
X178550000Y-118100000D03*
X158550000Y-68100000D03*
X153800000Y-81550000D03*
X228550000Y-98100000D03*
X97900000Y-98150000D03*
X58550000Y-118100000D03*
X208550000Y-68100000D03*
X148550000Y-118100000D03*
X58550000Y-98100000D03*
X155850000Y-103100000D03*
X119528696Y-102875358D03*
X98550000Y-88100000D03*
X108550000Y-98100000D03*
X58550000Y-88100000D03*
X218550000Y-88100000D03*
X158550000Y-118100000D03*
X218550000Y-118100000D03*
X108600000Y-83400000D03*
X118550000Y-118100000D03*
X113100000Y-81950000D03*
X168550000Y-68100000D03*
X178550000Y-88100000D03*
X133150000Y-96500000D03*
X151250000Y-103150000D03*
X105828696Y-93075358D03*
X178550000Y-68100000D03*
X108640000Y-63400000D03*
X203028696Y-109375358D03*
X135050000Y-105150000D03*
X111950000Y-68900000D03*
X133750000Y-105400000D03*
X217178696Y-91125358D03*
X160450000Y-103150000D03*
X88550000Y-88100000D03*
X218550000Y-108100000D03*
X103028696Y-95875358D03*
X48550000Y-68100000D03*
X159850000Y-81600000D03*
X99800000Y-73950000D03*
X124828696Y-79075358D03*
X101028696Y-101375358D03*
X147900000Y-81700000D03*
X92728696Y-73725358D03*
X198550000Y-88100000D03*
X118928696Y-99575358D03*
X128550000Y-98100000D03*
X119050000Y-68050000D03*
X128550000Y-68100000D03*
X128550000Y-108100000D03*
X119528696Y-101475358D03*
X111278696Y-107175358D03*
X68550000Y-68100000D03*
X188550000Y-78100000D03*
X88550000Y-98100000D03*
X90800000Y-68500000D03*
X98550000Y-78100000D03*
X68550000Y-88100000D03*
X94878696Y-76825358D03*
X109850000Y-71850000D03*
X107150000Y-74500000D03*
X125778696Y-97925358D03*
X93628696Y-76775358D03*
X208550000Y-78100000D03*
X138828696Y-92975358D03*
X98550000Y-118100000D03*
X138550000Y-118100000D03*
D22*
X132850000Y-85300000D03*
D21*
X192100000Y-97000000D03*
X66450000Y-112300000D03*
X168550000Y-118100000D03*
X127028696Y-100575358D03*
X101725000Y-69275000D03*
X148400000Y-107450000D03*
X157900000Y-107700000D03*
X198550000Y-108100000D03*
X107828696Y-88675358D03*
X122128696Y-94625358D03*
X101578696Y-97175358D03*
X202128696Y-85325358D03*
X88550000Y-118100000D03*
X178550000Y-108100000D03*
X107978696Y-107275358D03*
X104750000Y-69000000D03*
X117378696Y-97075358D03*
X208550000Y-118100000D03*
X104228696Y-107025358D03*
X228550000Y-108100000D03*
X178550000Y-98100000D03*
X188550000Y-68100000D03*
X102616196Y-90675358D03*
X78550000Y-98100000D03*
X138550000Y-68100000D03*
X101000000Y-76000000D03*
X126928696Y-91975358D03*
X93900000Y-64750000D03*
X128550000Y-118100000D03*
X122578696Y-89725358D03*
X95450000Y-71350000D03*
X208550000Y-88100000D03*
X228550000Y-118100000D03*
X103850000Y-112250000D03*
X112200000Y-100100000D03*
X48550000Y-108100000D03*
X218550000Y-68100000D03*
X198550000Y-118100000D03*
X228550000Y-88100000D03*
X218550000Y-78100000D03*
D22*
X96950000Y-81700000D03*
D21*
X126200000Y-83750000D03*
X94050000Y-70050000D03*
X168550000Y-88100000D03*
X198550000Y-98100000D03*
X188550000Y-98100000D03*
X115800000Y-112150000D03*
X91528696Y-73200000D03*
X228550000Y-78100000D03*
X198550000Y-78100000D03*
X188550000Y-108100000D03*
X101128696Y-94175358D03*
X58550000Y-78100000D03*
X119978696Y-91625358D03*
X48550000Y-118100000D03*
X68550000Y-118100000D03*
X78550000Y-118100000D03*
X113200000Y-90400000D03*
X94000000Y-71350000D03*
X48550000Y-78100000D03*
X118550000Y-78100000D03*
X118550000Y-88100000D03*
X91050000Y-112100000D03*
X148550000Y-68100000D03*
X218550000Y-98100000D03*
X198550000Y-68100000D03*
X122078696Y-92875358D03*
X58550000Y-68100000D03*
X95450000Y-70000000D03*
X209350000Y-106150000D03*
X108350000Y-85600000D03*
X78550000Y-88100000D03*
X78400000Y-112200000D03*
X100150000Y-96250000D03*
X228550000Y-68100000D03*
D20*
%TO.N,VBUS*%
X98128696Y-70400000D03*
X88650000Y-68750000D03*
X95950000Y-66300000D03*
X90700000Y-72000000D03*
X91500000Y-65950000D03*
X98128696Y-67725358D03*
D21*
%TO.N,/SCK*%
X140328696Y-94275358D03*
X138128696Y-98875358D03*
%TO.N,Net-(SW4-B)*%
X105878696Y-81150000D03*
X104050000Y-82000000D03*
%TO.N,Net-(SW4-A)*%
X105328696Y-90475358D03*
X101928696Y-89875358D03*
%TD*%
D23*
%TO.N,+3.3V*%
X61928696Y-107025358D02*
X61928696Y-107075358D01*
X61928696Y-107075358D02*
X62128696Y-107275358D01*
X64928696Y-107275358D02*
X65728696Y-108075358D01*
X126978696Y-105525358D02*
X132328696Y-105525358D01*
X132328696Y-105525358D02*
X132478696Y-105675358D01*
X62128696Y-107275358D02*
X64928696Y-107275358D01*
X177328696Y-107475358D02*
X174128696Y-107475358D01*
X126928696Y-105475358D02*
X126978696Y-105525358D01*
X126653338Y-105200000D02*
X126928696Y-105475358D01*
X137728696Y-87275358D02*
X137728696Y-81675358D01*
X123100000Y-105200000D02*
X126653338Y-105200000D01*
X138228696Y-87775358D02*
X137728696Y-87275358D01*
D24*
%TO.N,GND*%
X95150000Y-66700000D02*
X95100000Y-66750000D01*
D23*
%TO.N,VBUS*%
X95950000Y-66300000D02*
X95600000Y-65950000D01*
X88650000Y-69950000D02*
X90700000Y-72000000D01*
X95600000Y-65950000D02*
X91500000Y-65950000D01*
X88650000Y-68750000D02*
X88650000Y-69950000D01*
X98128696Y-70400000D02*
X98128696Y-67725358D01*
D24*
%TO.N,/SCK*%
X138128696Y-98875358D02*
X138128696Y-96475358D01*
X138128696Y-96475358D02*
X140328696Y-94275358D01*
%TO.N,Net-(SW4-B)*%
X104550000Y-81500000D02*
X105500000Y-81500000D01*
X104050000Y-82000000D02*
X104550000Y-81500000D01*
X105850000Y-81150000D02*
X105878696Y-81150000D01*
X105500000Y-81500000D02*
X105850000Y-81150000D01*
%TO.N,Net-(SW4-A)*%
X101928696Y-89875358D02*
X104728696Y-89875358D01*
X104728696Y-89875358D02*
X105328696Y-90475358D01*
%TD*%
%TA.AperFunction,Conductor*%
%TO.N,GND*%
G36*
X234796235Y-59770543D02*
G01*
X234841990Y-59823347D01*
X234853196Y-59874858D01*
X234853196Y-120275858D01*
X234833511Y-120342897D01*
X234780707Y-120388652D01*
X234729196Y-120399858D01*
X39928196Y-120399858D01*
X39861157Y-120380173D01*
X39815402Y-120327369D01*
X39804196Y-120275858D01*
X39804196Y-109208242D01*
X54825696Y-109208242D01*
X54825696Y-109395473D01*
X54854986Y-109580401D01*
X54912841Y-109758464D01*
X54912842Y-109758467D01*
X54997847Y-109925295D01*
X55107890Y-110076758D01*
X55107894Y-110076763D01*
X55240290Y-110209159D01*
X55240295Y-110209163D01*
X55361845Y-110297473D01*
X55391762Y-110319209D01*
X55500816Y-110374775D01*
X55558586Y-110404211D01*
X55558589Y-110404212D01*
X55647620Y-110433139D01*
X55736654Y-110462068D01*
X55921580Y-110491358D01*
X55921581Y-110491358D01*
X56108811Y-110491358D01*
X56108812Y-110491358D01*
X56293738Y-110462068D01*
X56471805Y-110404211D01*
X56638630Y-110319209D01*
X56790103Y-110209158D01*
X56922496Y-110076765D01*
X57032547Y-109925292D01*
X57117549Y-109758467D01*
X57167265Y-109605456D01*
X57206702Y-109547781D01*
X57271061Y-109520582D01*
X57339907Y-109532496D01*
X57391383Y-109579740D01*
X57403127Y-109605456D01*
X57452841Y-109758464D01*
X57452842Y-109758467D01*
X57537847Y-109925295D01*
X57647890Y-110076758D01*
X57647894Y-110076763D01*
X57780290Y-110209159D01*
X57780295Y-110209163D01*
X57901845Y-110297473D01*
X57931762Y-110319209D01*
X58040816Y-110374775D01*
X58098586Y-110404211D01*
X58098589Y-110404212D01*
X58187620Y-110433139D01*
X58276654Y-110462068D01*
X58461580Y-110491358D01*
X58461581Y-110491358D01*
X58648811Y-110491358D01*
X58648812Y-110491358D01*
X58833738Y-110462068D01*
X59011805Y-110404211D01*
X59178630Y-110319209D01*
X59196089Y-110306524D01*
X59208548Y-110297473D01*
X59330097Y-110209163D01*
X59330099Y-110209160D01*
X59330103Y-110209158D01*
X59462496Y-110076765D01*
X59572547Y-109925292D01*
X59602758Y-109865997D01*
X59650732Y-109815203D01*
X59718553Y-109798407D01*
X59784688Y-109820944D01*
X59823728Y-109865998D01*
X59907216Y-110029851D01*
X59907217Y-110029853D01*
X59952002Y-110091496D01*
X59952003Y-110091496D01*
X60657548Y-109385951D01*
X60680988Y-109473429D01*
X60739507Y-109574788D01*
X60822266Y-109657547D01*
X60923625Y-109716066D01*
X61011101Y-109739505D01*
X60305556Y-110445049D01*
X60367204Y-110489838D01*
X60562004Y-110589095D01*
X60562007Y-110589096D01*
X60769936Y-110656655D01*
X60985880Y-110690858D01*
X61204512Y-110690858D01*
X61420455Y-110656655D01*
X61628384Y-110589096D01*
X61628387Y-110589095D01*
X61823191Y-110489836D01*
X61884834Y-110445049D01*
X61884835Y-110445049D01*
X61179290Y-109739505D01*
X61266767Y-109716066D01*
X61368126Y-109657547D01*
X61450885Y-109574788D01*
X61509404Y-109473429D01*
X61532843Y-109385953D01*
X62238387Y-110091497D01*
X62238387Y-110091496D01*
X62283174Y-110029853D01*
X62382433Y-109835049D01*
X62382434Y-109835046D01*
X62449993Y-109627117D01*
X62484196Y-109411174D01*
X62484196Y-109192541D01*
X62449993Y-108976598D01*
X62382434Y-108768669D01*
X62382433Y-108768666D01*
X62283176Y-108573866D01*
X62238387Y-108512218D01*
X61532843Y-109217762D01*
X61509404Y-109130287D01*
X61450885Y-109028928D01*
X61368126Y-108946169D01*
X61266767Y-108887650D01*
X61179288Y-108864210D01*
X61884834Y-108158665D01*
X61884834Y-108158664D01*
X61823191Y-108113879D01*
X61823189Y-108113878D01*
X61628387Y-108014620D01*
X61628384Y-108014619D01*
X61420455Y-107947060D01*
X61204512Y-107912858D01*
X60985880Y-107912858D01*
X60769936Y-107947060D01*
X60562007Y-108014619D01*
X60562004Y-108014620D01*
X60367197Y-108113881D01*
X60305556Y-108158664D01*
X60305556Y-108158665D01*
X61011101Y-108864210D01*
X60923625Y-108887650D01*
X60822266Y-108946169D01*
X60739507Y-109028928D01*
X60680988Y-109130287D01*
X60657548Y-109217763D01*
X59952003Y-108512218D01*
X59952002Y-108512218D01*
X59907217Y-108573862D01*
X59823727Y-108737718D01*
X59775753Y-108788513D01*
X59707931Y-108805308D01*
X59641797Y-108782770D01*
X59602758Y-108737717D01*
X59572544Y-108678419D01*
X59462501Y-108526957D01*
X59462497Y-108526952D01*
X59330101Y-108394556D01*
X59330096Y-108394552D01*
X59208547Y-108306242D01*
X59178633Y-108284509D01*
X59178632Y-108284508D01*
X59178630Y-108284507D01*
X59125184Y-108257274D01*
X59011805Y-108199504D01*
X59011802Y-108199503D01*
X58833739Y-108141648D01*
X58713293Y-108122571D01*
X58648812Y-108112358D01*
X58461580Y-108112358D01*
X58399938Y-108122121D01*
X58276652Y-108141648D01*
X58098589Y-108199503D01*
X58098586Y-108199504D01*
X57931758Y-108284509D01*
X57780295Y-108394552D01*
X57780290Y-108394556D01*
X57647894Y-108526952D01*
X57647890Y-108526957D01*
X57537847Y-108678420D01*
X57452842Y-108845248D01*
X57452841Y-108845251D01*
X57403127Y-108998259D01*
X57363690Y-109055934D01*
X57299331Y-109083133D01*
X57230485Y-109071219D01*
X57179009Y-109023974D01*
X57167265Y-108998259D01*
X57117550Y-108845251D01*
X57117549Y-108845248D01*
X57064148Y-108740445D01*
X57032547Y-108678424D01*
X56956579Y-108573862D01*
X56922501Y-108526957D01*
X56922497Y-108526952D01*
X56790101Y-108394556D01*
X56790096Y-108394552D01*
X56638633Y-108284509D01*
X56638632Y-108284508D01*
X56638630Y-108284507D01*
X56585184Y-108257274D01*
X56471805Y-108199504D01*
X56471802Y-108199503D01*
X56293739Y-108141648D01*
X56173293Y-108122571D01*
X56108812Y-108112358D01*
X55921580Y-108112358D01*
X55859938Y-108122121D01*
X55736652Y-108141648D01*
X55558589Y-108199503D01*
X55558586Y-108199504D01*
X55391758Y-108284509D01*
X55240295Y-108394552D01*
X55240290Y-108394556D01*
X55107894Y-108526952D01*
X55107890Y-108526957D01*
X54997847Y-108678420D01*
X54912842Y-108845248D01*
X54912841Y-108845251D01*
X54854986Y-109023314D01*
X54825696Y-109208242D01*
X39804196Y-109208242D01*
X39804196Y-105680051D01*
X49292196Y-105680051D01*
X49292196Y-105938664D01*
X49332652Y-106194091D01*
X49332652Y-106194092D01*
X49412570Y-106440053D01*
X49529979Y-106670480D01*
X49610159Y-106780839D01*
X49610160Y-106780840D01*
X50297033Y-106093967D01*
X50316193Y-106140222D01*
X50392635Y-106254626D01*
X50489928Y-106351919D01*
X50604332Y-106428361D01*
X50650586Y-106447519D01*
X49963712Y-107134392D01*
X49963713Y-107134394D01*
X50074073Y-107214574D01*
X50304500Y-107331983D01*
X50550462Y-107411901D01*
X50805890Y-107452358D01*
X51064502Y-107452358D01*
X51319929Y-107411901D01*
X51319930Y-107411901D01*
X51565891Y-107331983D01*
X51796315Y-107214576D01*
X51906677Y-107134392D01*
X51906678Y-107134392D01*
X51871564Y-107099278D01*
X61178195Y-107099278D01*
X61207036Y-107244265D01*
X61207039Y-107244275D01*
X61263608Y-107380846D01*
X61263615Y-107380859D01*
X61345744Y-107503773D01*
X61345747Y-107503777D01*
X61450276Y-107608306D01*
X61450280Y-107608309D01*
X61573194Y-107690438D01*
X61573207Y-107690445D01*
X61644244Y-107719869D01*
X61709783Y-107747016D01*
X61709787Y-107747016D01*
X61709788Y-107747017D01*
X61854775Y-107775858D01*
X61854778Y-107775858D01*
X61861407Y-107775858D01*
X61908858Y-107785296D01*
X61916209Y-107788341D01*
X61916211Y-107788342D01*
X62056221Y-107825858D01*
X62056222Y-107825858D01*
X62201170Y-107825858D01*
X64649309Y-107825858D01*
X64716348Y-107845543D01*
X64736990Y-107862177D01*
X64941877Y-108067064D01*
X64975362Y-108128387D01*
X64976963Y-108143278D01*
X64977599Y-108143216D01*
X64978195Y-108149278D01*
X65007036Y-108294265D01*
X65007039Y-108294275D01*
X65063608Y-108430846D01*
X65063615Y-108430859D01*
X65145744Y-108553773D01*
X65145747Y-108553777D01*
X65250276Y-108658306D01*
X65250280Y-108658309D01*
X65373194Y-108740438D01*
X65373207Y-108740445D01*
X65475390Y-108782770D01*
X65509783Y-108797016D01*
X65509787Y-108797016D01*
X65509788Y-108797017D01*
X65654775Y-108825858D01*
X65654778Y-108825858D01*
X65802616Y-108825858D01*
X65905923Y-108805308D01*
X65947609Y-108797016D01*
X66084191Y-108740442D01*
X66207112Y-108658309D01*
X66311647Y-108553774D01*
X66393780Y-108430853D01*
X66450354Y-108294271D01*
X66469205Y-108199503D01*
X66479196Y-108149278D01*
X66479196Y-108001437D01*
X66450355Y-107856450D01*
X66450354Y-107856449D01*
X66450354Y-107856445D01*
X66439756Y-107830859D01*
X66393783Y-107719869D01*
X66393776Y-107719856D01*
X66331218Y-107626232D01*
X66310340Y-107559555D01*
X66313159Y-107549278D01*
X173378195Y-107549278D01*
X173407036Y-107694265D01*
X173407039Y-107694275D01*
X173463608Y-107830846D01*
X173463615Y-107830859D01*
X173545744Y-107953773D01*
X173545747Y-107953777D01*
X173650276Y-108058306D01*
X173650280Y-108058309D01*
X173773194Y-108140438D01*
X173773207Y-108140445D01*
X173909778Y-108197014D01*
X173909783Y-108197016D01*
X173909787Y-108197016D01*
X173909788Y-108197017D01*
X174054775Y-108225858D01*
X174054778Y-108225858D01*
X174202616Y-108225858D01*
X174335106Y-108199503D01*
X174347609Y-108197016D01*
X174477494Y-108143216D01*
X174484184Y-108140445D01*
X174484184Y-108140444D01*
X174484191Y-108140442D01*
X174607112Y-108058309D01*
X174607116Y-108058304D01*
X174611822Y-108054444D01*
X174613550Y-108056549D01*
X174664568Y-108028692D01*
X174690926Y-108025858D01*
X176766466Y-108025858D01*
X176833505Y-108045543D01*
X176845164Y-108054938D01*
X176845570Y-108054444D01*
X176850280Y-108058309D01*
X176973194Y-108140438D01*
X176973207Y-108140445D01*
X177109778Y-108197014D01*
X177109783Y-108197016D01*
X177109787Y-108197016D01*
X177109788Y-108197017D01*
X177254775Y-108225858D01*
X177254778Y-108225858D01*
X177402616Y-108225858D01*
X177535106Y-108199503D01*
X177547609Y-108197016D01*
X177677494Y-108143216D01*
X177684184Y-108140445D01*
X177684184Y-108140444D01*
X177684191Y-108140442D01*
X177807112Y-108058309D01*
X177911647Y-107953774D01*
X177993780Y-107830853D01*
X178050354Y-107694271D01*
X178067454Y-107608306D01*
X178079196Y-107549278D01*
X178079196Y-107401437D01*
X178050355Y-107256450D01*
X178050354Y-107256449D01*
X178050354Y-107256445D01*
X178045313Y-107244275D01*
X178033430Y-107215586D01*
X178015793Y-107173006D01*
X204728196Y-107173006D01*
X204728196Y-107377709D01*
X204760218Y-107579892D01*
X204823477Y-107774581D01*
X204852150Y-107830853D01*
X204914783Y-107953777D01*
X204916411Y-107956971D01*
X205036724Y-108122571D01*
X205181482Y-108267329D01*
X205336445Y-108379914D01*
X205347086Y-108387645D01*
X205463303Y-108446861D01*
X205529472Y-108480576D01*
X205529474Y-108480576D01*
X205529477Y-108480578D01*
X205626855Y-108512218D01*
X205724161Y-108543835D01*
X205786907Y-108553773D01*
X205926344Y-108575858D01*
X205926345Y-108575858D01*
X206131047Y-108575858D01*
X206131048Y-108575858D01*
X206333230Y-108543835D01*
X206527915Y-108480578D01*
X206710306Y-108387645D01*
X206838820Y-108294275D01*
X206875909Y-108267329D01*
X206875911Y-108267326D01*
X206875915Y-108267324D01*
X207020662Y-108122577D01*
X207020664Y-108122573D01*
X207020667Y-108122571D01*
X207090932Y-108025858D01*
X207140983Y-107956968D01*
X207233916Y-107774577D01*
X207297173Y-107579892D01*
X207329196Y-107377710D01*
X207329196Y-107173006D01*
X211228196Y-107173006D01*
X211228196Y-107377709D01*
X211260218Y-107579892D01*
X211323477Y-107774581D01*
X211352150Y-107830853D01*
X211414783Y-107953777D01*
X211416411Y-107956971D01*
X211536724Y-108122571D01*
X211681482Y-108267329D01*
X211836445Y-108379914D01*
X211847086Y-108387645D01*
X211963303Y-108446861D01*
X212029472Y-108480576D01*
X212029474Y-108480576D01*
X212029477Y-108480578D01*
X212126855Y-108512218D01*
X212224161Y-108543835D01*
X212286907Y-108553773D01*
X212426344Y-108575858D01*
X212426345Y-108575858D01*
X212631047Y-108575858D01*
X212631048Y-108575858D01*
X212833230Y-108543835D01*
X213027915Y-108480578D01*
X213210306Y-108387645D01*
X213338820Y-108294275D01*
X213375909Y-108267329D01*
X213375911Y-108267326D01*
X213375915Y-108267324D01*
X213520662Y-108122577D01*
X213520664Y-108122573D01*
X213520667Y-108122571D01*
X213590932Y-108025858D01*
X213640983Y-107956968D01*
X213733916Y-107774577D01*
X213797173Y-107579892D01*
X213829196Y-107377710D01*
X213829196Y-107173006D01*
X213820778Y-107119856D01*
X213797173Y-106970823D01*
X213745006Y-106810270D01*
X213733916Y-106776139D01*
X213733914Y-106776136D01*
X213733914Y-106776134D01*
X213680078Y-106670477D01*
X213640983Y-106593748D01*
X213606974Y-106546938D01*
X213520667Y-106428144D01*
X213375909Y-106283386D01*
X213210309Y-106163073D01*
X213210308Y-106163072D01*
X213210306Y-106163071D01*
X213147302Y-106130969D01*
X213027919Y-106070139D01*
X212833230Y-106006880D01*
X212658691Y-105979236D01*
X212631048Y-105974858D01*
X212426344Y-105974858D01*
X212402025Y-105978709D01*
X212224161Y-106006880D01*
X212029472Y-106070139D01*
X211847082Y-106163073D01*
X211681482Y-106283386D01*
X211536724Y-106428144D01*
X211416411Y-106593744D01*
X211323477Y-106776134D01*
X211260218Y-106970823D01*
X211228196Y-107173006D01*
X207329196Y-107173006D01*
X207320778Y-107119856D01*
X207297173Y-106970823D01*
X207245006Y-106810270D01*
X207233916Y-106776139D01*
X207233914Y-106776136D01*
X207233914Y-106776134D01*
X207180078Y-106670477D01*
X207140983Y-106593748D01*
X207106974Y-106546938D01*
X207020667Y-106428144D01*
X206875909Y-106283386D01*
X206710309Y-106163073D01*
X206710308Y-106163072D01*
X206710306Y-106163071D01*
X206647302Y-106130969D01*
X206527919Y-106070139D01*
X206333230Y-106006880D01*
X206158691Y-105979236D01*
X206131048Y-105974858D01*
X205926344Y-105974858D01*
X205902025Y-105978709D01*
X205724161Y-106006880D01*
X205529472Y-106070139D01*
X205347082Y-106163073D01*
X205181482Y-106283386D01*
X205036724Y-106428144D01*
X204916411Y-106593744D01*
X204823477Y-106776134D01*
X204760218Y-106970823D01*
X204728196Y-107173006D01*
X178015793Y-107173006D01*
X177993783Y-107119869D01*
X177993776Y-107119856D01*
X177911647Y-106996942D01*
X177911644Y-106996938D01*
X177807115Y-106892409D01*
X177807111Y-106892406D01*
X177684197Y-106810277D01*
X177684184Y-106810270D01*
X177547613Y-106753701D01*
X177547603Y-106753698D01*
X177402616Y-106724858D01*
X177402614Y-106724858D01*
X177254778Y-106724858D01*
X177254776Y-106724858D01*
X177109788Y-106753698D01*
X177109778Y-106753701D01*
X176973207Y-106810270D01*
X176973194Y-106810277D01*
X176850280Y-106892406D01*
X176845570Y-106896272D01*
X176843841Y-106894166D01*
X176792824Y-106922024D01*
X176766466Y-106924858D01*
X174690926Y-106924858D01*
X174623887Y-106905173D01*
X174612227Y-106895777D01*
X174611822Y-106896272D01*
X174607111Y-106892406D01*
X174484197Y-106810277D01*
X174484184Y-106810270D01*
X174347613Y-106753701D01*
X174347603Y-106753698D01*
X174202616Y-106724858D01*
X174202614Y-106724858D01*
X174054778Y-106724858D01*
X174054776Y-106724858D01*
X173909788Y-106753698D01*
X173909778Y-106753701D01*
X173773207Y-106810270D01*
X173773194Y-106810277D01*
X173650280Y-106892406D01*
X173650276Y-106892409D01*
X173545747Y-106996938D01*
X173545744Y-106996942D01*
X173463615Y-107119856D01*
X173463608Y-107119869D01*
X173407039Y-107256440D01*
X173407036Y-107256450D01*
X173378196Y-107401437D01*
X173378196Y-107401440D01*
X173378196Y-107549276D01*
X173378196Y-107549278D01*
X173378195Y-107549278D01*
X66313159Y-107549278D01*
X66328824Y-107492174D01*
X66380803Y-107445484D01*
X66414923Y-107434868D01*
X66559928Y-107411902D01*
X66559930Y-107411901D01*
X66805891Y-107331983D01*
X66898371Y-107284863D01*
X67036315Y-107214576D01*
X67146677Y-107134392D01*
X67146678Y-107134392D01*
X66459805Y-106447520D01*
X66506060Y-106428361D01*
X66620464Y-106351919D01*
X66717757Y-106254626D01*
X66794199Y-106140222D01*
X66813357Y-106093967D01*
X67500230Y-106780840D01*
X67500230Y-106780839D01*
X67580414Y-106670477D01*
X67697821Y-106440053D01*
X67777739Y-106194092D01*
X67777739Y-106194091D01*
X67818196Y-105938664D01*
X67818196Y-105680051D01*
X67777739Y-105424624D01*
X67777739Y-105424623D01*
X67728773Y-105273920D01*
X122349499Y-105273920D01*
X122378340Y-105418907D01*
X122378343Y-105418917D01*
X122434912Y-105555488D01*
X122434919Y-105555501D01*
X122517048Y-105678415D01*
X122517051Y-105678419D01*
X122621580Y-105782948D01*
X122621584Y-105782951D01*
X122744498Y-105865080D01*
X122744511Y-105865087D01*
X122814978Y-105894275D01*
X122881087Y-105921658D01*
X122881091Y-105921658D01*
X122881092Y-105921659D01*
X123026079Y-105950500D01*
X123026082Y-105950500D01*
X123173920Y-105950500D01*
X123271462Y-105931096D01*
X123318913Y-105921658D01*
X123455495Y-105865084D01*
X123578416Y-105782951D01*
X123578420Y-105782946D01*
X123583126Y-105779086D01*
X123584854Y-105781191D01*
X123635872Y-105753334D01*
X123662230Y-105750500D01*
X126147475Y-105750500D01*
X126214514Y-105770185D01*
X126260269Y-105822989D01*
X126262032Y-105827038D01*
X126263612Y-105830853D01*
X126263615Y-105830857D01*
X126263618Y-105830863D01*
X126345741Y-105953769D01*
X126345747Y-105953777D01*
X126450276Y-106058306D01*
X126450280Y-106058309D01*
X126573194Y-106140438D01*
X126573207Y-106140445D01*
X126702721Y-106194091D01*
X126709783Y-106197016D01*
X126709787Y-106197016D01*
X126709788Y-106197017D01*
X126854775Y-106225858D01*
X126854778Y-106225858D01*
X127002616Y-106225858D01*
X127100158Y-106206454D01*
X127147609Y-106197016D01*
X127284191Y-106140442D01*
X127349572Y-106096756D01*
X127416249Y-106075878D01*
X127418463Y-106075858D01*
X131777404Y-106075858D01*
X131844443Y-106095543D01*
X131880507Y-106130969D01*
X131895743Y-106153772D01*
X131895747Y-106153777D01*
X132000276Y-106258306D01*
X132000280Y-106258309D01*
X132123194Y-106340438D01*
X132123207Y-106340445D01*
X132259778Y-106397014D01*
X132259783Y-106397016D01*
X132259787Y-106397016D01*
X132259788Y-106397017D01*
X132404775Y-106425858D01*
X132404778Y-106425858D01*
X132552616Y-106425858D01*
X132650158Y-106406454D01*
X132697609Y-106397016D01*
X132834191Y-106340442D01*
X132957112Y-106258309D01*
X133061647Y-106153774D01*
X133143780Y-106030853D01*
X133200354Y-105894271D01*
X133214533Y-105822989D01*
X133229196Y-105749278D01*
X133229196Y-105601437D01*
X133200355Y-105456450D01*
X133200354Y-105456449D01*
X133200354Y-105456445D01*
X133200352Y-105456440D01*
X133143783Y-105319869D01*
X133143776Y-105319856D01*
X133061647Y-105196942D01*
X133061644Y-105196938D01*
X132957115Y-105092409D01*
X132957111Y-105092406D01*
X132834197Y-105010277D01*
X132834184Y-105010270D01*
X132697613Y-104953701D01*
X132697603Y-104953698D01*
X132552616Y-104924858D01*
X132552614Y-104924858D01*
X132404778Y-104924858D01*
X132404776Y-104924858D01*
X132259788Y-104953698D01*
X132259778Y-104953701D01*
X132231490Y-104965419D01*
X132184038Y-104974858D01*
X127540925Y-104974858D01*
X127473886Y-104955173D01*
X127453243Y-104938538D01*
X127407115Y-104892409D01*
X127407111Y-104892406D01*
X127284197Y-104810277D01*
X127284184Y-104810270D01*
X127147613Y-104753701D01*
X127147603Y-104753698D01*
X127002616Y-104724858D01*
X127002614Y-104724858D01*
X126964593Y-104724858D01*
X126902593Y-104708245D01*
X126865825Y-104687017D01*
X126865824Y-104687016D01*
X126830820Y-104677637D01*
X126725813Y-104649500D01*
X126725810Y-104649500D01*
X123662230Y-104649500D01*
X123595191Y-104629815D01*
X123583531Y-104620419D01*
X123583126Y-104620914D01*
X123578415Y-104617048D01*
X123455501Y-104534919D01*
X123455488Y-104534912D01*
X123318917Y-104478343D01*
X123318907Y-104478340D01*
X123173920Y-104449500D01*
X123173918Y-104449500D01*
X123026082Y-104449500D01*
X123026080Y-104449500D01*
X122881092Y-104478340D01*
X122881082Y-104478343D01*
X122744511Y-104534912D01*
X122744498Y-104534919D01*
X122621584Y-104617048D01*
X122621580Y-104617051D01*
X122517051Y-104721580D01*
X122517048Y-104721584D01*
X122434919Y-104844498D01*
X122434912Y-104844511D01*
X122378343Y-104981082D01*
X122378340Y-104981092D01*
X122349500Y-105126079D01*
X122349500Y-105126082D01*
X122349500Y-105273918D01*
X122349500Y-105273920D01*
X122349499Y-105273920D01*
X67728773Y-105273920D01*
X67697822Y-105178664D01*
X67696613Y-105176291D01*
X67696612Y-105176287D01*
X67696610Y-105176285D01*
X67580412Y-104948235D01*
X67500232Y-104837875D01*
X67500230Y-104837874D01*
X66813357Y-105524747D01*
X66794199Y-105478494D01*
X66717757Y-105364090D01*
X66620464Y-105266797D01*
X66506060Y-105190355D01*
X66459804Y-105171195D01*
X67146678Y-104484322D01*
X67146677Y-104484321D01*
X67036318Y-104404141D01*
X66805891Y-104286732D01*
X66559929Y-104206814D01*
X66304502Y-104166358D01*
X66045890Y-104166358D01*
X65790462Y-104206814D01*
X65790461Y-104206814D01*
X65544500Y-104286732D01*
X65314080Y-104404137D01*
X65203713Y-104484322D01*
X65203713Y-104484323D01*
X65890586Y-105171195D01*
X65844332Y-105190355D01*
X65729928Y-105266797D01*
X65632635Y-105364090D01*
X65556193Y-105478494D01*
X65537033Y-105524749D01*
X64850160Y-104837875D01*
X64769975Y-104948242D01*
X64652570Y-105178662D01*
X64572652Y-105424623D01*
X64572652Y-105424624D01*
X64532196Y-105680051D01*
X64532196Y-105938664D01*
X64572652Y-106194091D01*
X64572652Y-106194092D01*
X64652570Y-106440053D01*
X64705821Y-106544563D01*
X64718717Y-106613232D01*
X64692441Y-106677972D01*
X64635335Y-106718230D01*
X64595336Y-106724858D01*
X62696806Y-106724858D01*
X62629767Y-106705173D01*
X62593704Y-106669749D01*
X62511647Y-106546941D01*
X62407115Y-106442409D01*
X62407111Y-106442406D01*
X62284197Y-106360277D01*
X62284184Y-106360270D01*
X62147613Y-106303701D01*
X62147603Y-106303698D01*
X62002616Y-106274858D01*
X62002614Y-106274858D01*
X61854778Y-106274858D01*
X61854776Y-106274858D01*
X61709788Y-106303698D01*
X61709778Y-106303701D01*
X61573207Y-106360270D01*
X61573194Y-106360277D01*
X61450280Y-106442406D01*
X61450276Y-106442409D01*
X61345747Y-106546938D01*
X61345744Y-106546942D01*
X61263615Y-106669856D01*
X61263608Y-106669869D01*
X61207039Y-106806440D01*
X61207036Y-106806450D01*
X61178196Y-106951437D01*
X61178196Y-106951440D01*
X61178196Y-107099276D01*
X61178196Y-107099278D01*
X61178195Y-107099278D01*
X51871564Y-107099278D01*
X51805315Y-107033029D01*
X51219805Y-106447520D01*
X51266060Y-106428361D01*
X51380464Y-106351919D01*
X51477757Y-106254626D01*
X51554199Y-106140222D01*
X51573357Y-106093967D01*
X52260230Y-106780840D01*
X52260230Y-106780839D01*
X52340414Y-106670477D01*
X52457821Y-106440053D01*
X52537739Y-106194092D01*
X52537739Y-106194091D01*
X52578196Y-105938664D01*
X52578196Y-105680051D01*
X52537739Y-105424624D01*
X52537739Y-105424623D01*
X52457821Y-105178662D01*
X52340412Y-104948235D01*
X52260232Y-104837875D01*
X52260230Y-104837874D01*
X51573357Y-105524747D01*
X51554199Y-105478494D01*
X51477757Y-105364090D01*
X51380464Y-105266797D01*
X51266060Y-105190355D01*
X51219804Y-105171195D01*
X51906678Y-104484322D01*
X51906677Y-104484321D01*
X51796318Y-104404141D01*
X51565891Y-104286732D01*
X51319929Y-104206814D01*
X51064502Y-104166358D01*
X50805890Y-104166358D01*
X50550462Y-104206814D01*
X50550461Y-104206814D01*
X50304500Y-104286732D01*
X50074080Y-104404137D01*
X49963713Y-104484322D01*
X49963713Y-104484323D01*
X50650586Y-105171195D01*
X50604332Y-105190355D01*
X50489928Y-105266797D01*
X50392635Y-105364090D01*
X50316193Y-105478494D01*
X50297033Y-105524748D01*
X49610161Y-104837875D01*
X49610160Y-104837875D01*
X49529975Y-104948242D01*
X49412570Y-105178662D01*
X49332652Y-105424623D01*
X49332652Y-105424624D01*
X49292196Y-105680051D01*
X39804196Y-105680051D01*
X39804196Y-101572541D01*
X47006196Y-101572541D01*
X47006196Y-101791174D01*
X47040398Y-102007117D01*
X47107957Y-102215046D01*
X47107958Y-102215049D01*
X47207216Y-102409851D01*
X47207217Y-102409853D01*
X47252002Y-102471496D01*
X47252003Y-102471496D01*
X47957548Y-101765951D01*
X47980988Y-101853429D01*
X48039507Y-101954788D01*
X48122266Y-102037547D01*
X48223625Y-102096066D01*
X48311101Y-102119505D01*
X47605556Y-102825049D01*
X47667204Y-102869838D01*
X47862004Y-102969095D01*
X47862007Y-102969096D01*
X48069936Y-103036655D01*
X48285880Y-103070858D01*
X48504512Y-103070858D01*
X48720455Y-103036655D01*
X48928384Y-102969096D01*
X48928387Y-102969095D01*
X49123191Y-102869836D01*
X49184834Y-102825049D01*
X49184835Y-102825049D01*
X49137299Y-102777513D01*
X137438696Y-102777513D01*
X137438696Y-103425358D01*
X138355684Y-103425358D01*
X138322771Y-103482365D01*
X138288696Y-103609532D01*
X138288696Y-103741184D01*
X138322771Y-103868351D01*
X138355684Y-103925358D01*
X137438696Y-103925358D01*
X137438696Y-104573202D01*
X137445097Y-104632730D01*
X137445099Y-104632737D01*
X137495341Y-104767444D01*
X137495345Y-104767451D01*
X137581505Y-104882545D01*
X137581508Y-104882548D01*
X137696602Y-104968708D01*
X137696609Y-104968712D01*
X137831316Y-105018954D01*
X137831323Y-105018956D01*
X137890851Y-105025357D01*
X137890868Y-105025358D01*
X138538696Y-105025358D01*
X138538696Y-104108370D01*
X138595703Y-104141283D01*
X138722870Y-104175358D01*
X138854522Y-104175358D01*
X138981689Y-104141283D01*
X139038696Y-104108370D01*
X139038696Y-105025358D01*
X139686524Y-105025358D01*
X139686540Y-105025357D01*
X139746068Y-105018956D01*
X139746075Y-105018954D01*
X139880782Y-104968712D01*
X139880789Y-104968708D01*
X139995883Y-104882548D01*
X139995886Y-104882545D01*
X140082046Y-104767451D01*
X140082050Y-104767444D01*
X140132292Y-104632737D01*
X140132294Y-104632730D01*
X140138695Y-104573202D01*
X140138696Y-104573185D01*
X140138696Y-104376445D01*
X140158381Y-104309406D01*
X140211185Y-104263651D01*
X140280343Y-104253707D01*
X140343899Y-104282732D01*
X140363014Y-104303560D01*
X140451137Y-104424853D01*
X140579196Y-104552912D01*
X140579201Y-104552916D01*
X140685045Y-104629815D01*
X140725702Y-104659354D01*
X140831180Y-104713098D01*
X140887056Y-104741569D01*
X140887059Y-104741570D01*
X140966693Y-104767444D01*
X141059287Y-104797529D01*
X141139731Y-104810270D01*
X141238145Y-104825858D01*
X141238150Y-104825858D01*
X141419247Y-104825858D01*
X141505955Y-104812123D01*
X141598105Y-104797529D01*
X141770335Y-104741569D01*
X141931690Y-104659354D01*
X142078197Y-104552911D01*
X142206249Y-104424859D01*
X142312692Y-104278352D01*
X142394907Y-104116997D01*
X142450867Y-103944767D01*
X142470805Y-103818885D01*
X142476223Y-103784679D01*
X142506152Y-103721544D01*
X142565464Y-103684613D01*
X142635326Y-103685611D01*
X142693559Y-103724221D01*
X142721169Y-103784679D01*
X142746525Y-103944768D01*
X142802483Y-104116994D01*
X142802484Y-104116997D01*
X142858360Y-104226658D01*
X142877209Y-104263651D01*
X142884702Y-104278355D01*
X142991137Y-104424852D01*
X142991141Y-104424857D01*
X143119196Y-104552912D01*
X143119201Y-104552916D01*
X143225045Y-104629815D01*
X143265702Y-104659354D01*
X143371180Y-104713098D01*
X143427056Y-104741569D01*
X143427059Y-104741570D01*
X143506693Y-104767444D01*
X143599287Y-104797529D01*
X143679731Y-104810270D01*
X143778145Y-104825858D01*
X143778150Y-104825858D01*
X143959247Y-104825858D01*
X144045955Y-104812123D01*
X144138105Y-104797529D01*
X144310335Y-104741569D01*
X144471690Y-104659354D01*
X144618197Y-104552911D01*
X144746249Y-104424859D01*
X144852692Y-104278352D01*
X144934907Y-104116997D01*
X144990867Y-103944767D01*
X145010805Y-103818885D01*
X145016223Y-103784679D01*
X145046152Y-103721544D01*
X145105464Y-103684613D01*
X145175326Y-103685611D01*
X145233559Y-103724221D01*
X145261169Y-103784679D01*
X145286525Y-103944768D01*
X145342483Y-104116994D01*
X145342484Y-104116997D01*
X145398360Y-104226658D01*
X145417209Y-104263651D01*
X145424702Y-104278355D01*
X145531137Y-104424852D01*
X145531141Y-104424857D01*
X145659196Y-104552912D01*
X145659201Y-104552916D01*
X145765045Y-104629815D01*
X145805702Y-104659354D01*
X145911180Y-104713098D01*
X145967056Y-104741569D01*
X145967059Y-104741570D01*
X146046693Y-104767444D01*
X146139287Y-104797529D01*
X146219731Y-104810270D01*
X146318145Y-104825858D01*
X146318150Y-104825858D01*
X146499247Y-104825858D01*
X146585955Y-104812123D01*
X146678105Y-104797529D01*
X146850335Y-104741569D01*
X147011690Y-104659354D01*
X147158197Y-104552911D01*
X147286249Y-104424859D01*
X147392692Y-104278352D01*
X147474907Y-104116997D01*
X147530867Y-103944767D01*
X147550805Y-103818885D01*
X147559196Y-103765909D01*
X147559196Y-103584806D01*
X147538948Y-103456971D01*
X147530867Y-103405949D01*
X147488184Y-103274581D01*
X147474908Y-103233721D01*
X147474907Y-103233718D01*
X147404633Y-103095800D01*
X147392692Y-103072364D01*
X147355580Y-103021283D01*
X147286254Y-102925863D01*
X147286250Y-102925858D01*
X147219087Y-102858695D01*
X147158197Y-102797805D01*
X147113013Y-102764977D01*
X147113004Y-102764969D01*
X147011693Y-102691364D01*
X147011692Y-102691363D01*
X147011690Y-102691362D01*
X146959996Y-102665022D01*
X146850335Y-102609146D01*
X146850332Y-102609145D01*
X146678106Y-102553187D01*
X146499247Y-102524858D01*
X146499242Y-102524858D01*
X146318150Y-102524858D01*
X146318145Y-102524858D01*
X146139285Y-102553187D01*
X145967059Y-102609145D01*
X145967056Y-102609146D01*
X145805698Y-102691364D01*
X145659201Y-102797799D01*
X145659196Y-102797803D01*
X145531141Y-102925858D01*
X145531137Y-102925863D01*
X145424702Y-103072360D01*
X145342484Y-103233718D01*
X145342483Y-103233721D01*
X145286525Y-103405947D01*
X145261169Y-103566036D01*
X145231240Y-103629171D01*
X145171928Y-103666102D01*
X145102065Y-103665104D01*
X145043833Y-103626494D01*
X145016223Y-103566036D01*
X144998948Y-103456971D01*
X144990867Y-103405949D01*
X144948184Y-103274581D01*
X144934908Y-103233721D01*
X144934907Y-103233718D01*
X144864633Y-103095800D01*
X144852692Y-103072364D01*
X144815580Y-103021283D01*
X144746254Y-102925863D01*
X144746250Y-102925858D01*
X144618195Y-102797803D01*
X144618190Y-102797799D01*
X144471693Y-102691364D01*
X144471692Y-102691363D01*
X144471690Y-102691362D01*
X144419996Y-102665022D01*
X144310335Y-102609146D01*
X144310332Y-102609145D01*
X144138106Y-102553187D01*
X143959247Y-102524858D01*
X143959242Y-102524858D01*
X143778150Y-102524858D01*
X143778145Y-102524858D01*
X143599285Y-102553187D01*
X143427059Y-102609145D01*
X143427056Y-102609146D01*
X143265698Y-102691364D01*
X143119201Y-102797799D01*
X143119196Y-102797803D01*
X142991141Y-102925858D01*
X142991137Y-102925863D01*
X142884702Y-103072360D01*
X142802484Y-103233718D01*
X142802483Y-103233721D01*
X142746525Y-103405947D01*
X142721169Y-103566036D01*
X142691240Y-103629171D01*
X142631928Y-103666102D01*
X142562065Y-103665104D01*
X142503833Y-103626494D01*
X142476223Y-103566036D01*
X142458948Y-103456971D01*
X142450867Y-103405949D01*
X142408184Y-103274581D01*
X142394908Y-103233721D01*
X142394907Y-103233718D01*
X142324633Y-103095800D01*
X142312692Y-103072364D01*
X142275580Y-103021283D01*
X142206254Y-102925863D01*
X142206250Y-102925858D01*
X142078195Y-102797803D01*
X142078190Y-102797799D01*
X141931693Y-102691364D01*
X141931692Y-102691363D01*
X141931690Y-102691362D01*
X141879996Y-102665022D01*
X141770335Y-102609146D01*
X141770332Y-102609145D01*
X141598106Y-102553187D01*
X141419247Y-102524858D01*
X141419242Y-102524858D01*
X141238150Y-102524858D01*
X141238145Y-102524858D01*
X141059285Y-102553187D01*
X140887059Y-102609145D01*
X140887056Y-102609146D01*
X140725698Y-102691364D01*
X140579201Y-102797799D01*
X140579196Y-102797803D01*
X140451141Y-102925858D01*
X140451137Y-102925863D01*
X140363014Y-103047155D01*
X140307684Y-103089821D01*
X140238071Y-103095800D01*
X140176276Y-103063194D01*
X140141919Y-103002356D01*
X140138696Y-102974270D01*
X140138696Y-102777530D01*
X140138695Y-102777513D01*
X140132294Y-102717985D01*
X140132292Y-102717978D01*
X140082050Y-102583271D01*
X140082046Y-102583264D01*
X139995886Y-102468170D01*
X139960511Y-102441688D01*
X139960509Y-102441686D01*
X139880789Y-102382007D01*
X139880782Y-102382003D01*
X139746075Y-102331761D01*
X139746068Y-102331759D01*
X139686540Y-102325358D01*
X139038696Y-102325358D01*
X139038696Y-103242346D01*
X138981689Y-103209433D01*
X138854522Y-103175358D01*
X138722870Y-103175358D01*
X138595703Y-103209433D01*
X138538696Y-103242346D01*
X138538696Y-102325358D01*
X137890851Y-102325358D01*
X137831323Y-102331759D01*
X137831316Y-102331761D01*
X137696609Y-102382003D01*
X137696602Y-102382007D01*
X137581508Y-102468167D01*
X137581505Y-102468170D01*
X137495345Y-102583264D01*
X137495341Y-102583271D01*
X137445099Y-102717978D01*
X137445097Y-102717985D01*
X137438696Y-102777513D01*
X49137299Y-102777513D01*
X48479290Y-102119505D01*
X48566767Y-102096066D01*
X48668126Y-102037547D01*
X48750885Y-101954788D01*
X48809404Y-101853429D01*
X48832843Y-101765952D01*
X49538387Y-102471497D01*
X49538387Y-102471496D01*
X49583174Y-102409853D01*
X49636418Y-102305358D01*
X163201465Y-102305358D01*
X164095684Y-102305358D01*
X164062771Y-102362365D01*
X164028696Y-102489532D01*
X164028696Y-102621184D01*
X164062771Y-102748351D01*
X164095684Y-102805358D01*
X163201465Y-102805358D01*
X163211938Y-102871484D01*
X163211938Y-102871487D01*
X163277600Y-103073575D01*
X163374075Y-103262915D01*
X163498968Y-103434817D01*
X163498972Y-103434822D01*
X163649231Y-103585081D01*
X163649236Y-103585085D01*
X163821138Y-103709978D01*
X164010476Y-103806452D01*
X164039401Y-103815850D01*
X164097077Y-103855287D01*
X164124276Y-103919645D01*
X164112363Y-103988492D01*
X164065120Y-104039968D01*
X164057381Y-104044266D01*
X163925700Y-104111362D01*
X163779201Y-104217799D01*
X163779196Y-104217803D01*
X163651141Y-104345858D01*
X163651137Y-104345863D01*
X163544702Y-104492360D01*
X163462484Y-104653718D01*
X163462483Y-104653721D01*
X163406525Y-104825947D01*
X163378196Y-105004806D01*
X163378196Y-105185909D01*
X163406525Y-105364768D01*
X163462483Y-105536994D01*
X163462484Y-105536997D01*
X163544702Y-105698355D01*
X163651137Y-105844852D01*
X163651141Y-105844857D01*
X163779196Y-105972912D01*
X163779201Y-105972916D01*
X163858954Y-106030859D01*
X163925702Y-106079354D01*
X164031180Y-106133098D01*
X164087056Y-106161569D01*
X164087059Y-106161570D01*
X164173172Y-106189549D01*
X164259287Y-106217529D01*
X164342125Y-106230649D01*
X164438145Y-106245858D01*
X164438150Y-106245858D01*
X164619247Y-106245858D01*
X164705955Y-106232123D01*
X164798105Y-106217529D01*
X164970335Y-106161569D01*
X165131690Y-106079354D01*
X165278197Y-105972911D01*
X165406249Y-105844859D01*
X165512692Y-105698352D01*
X165594907Y-105536997D01*
X165650867Y-105364767D01*
X165677448Y-105196942D01*
X165679196Y-105185909D01*
X165679196Y-105004806D01*
X165659831Y-104882545D01*
X165650867Y-104825949D01*
X165594907Y-104653719D01*
X165594907Y-104653718D01*
X165553881Y-104573202D01*
X165512692Y-104492364D01*
X165448592Y-104404137D01*
X165406254Y-104345863D01*
X165406250Y-104345858D01*
X165278195Y-104217803D01*
X165278190Y-104217799D01*
X165131691Y-104111362D01*
X165000010Y-104044266D01*
X164949215Y-103996292D01*
X164932420Y-103928471D01*
X164954958Y-103862336D01*
X165009673Y-103818885D01*
X165017991Y-103815850D01*
X165046913Y-103806453D01*
X165236253Y-103709978D01*
X165408155Y-103585085D01*
X165408160Y-103585081D01*
X165558419Y-103434822D01*
X165558423Y-103434817D01*
X165683316Y-103262915D01*
X165779791Y-103073575D01*
X165845453Y-102871487D01*
X165845453Y-102871484D01*
X165855927Y-102805358D01*
X164961708Y-102805358D01*
X164994621Y-102748351D01*
X165014810Y-102673006D01*
X204728196Y-102673006D01*
X204728196Y-102877709D01*
X204760218Y-103079892D01*
X204823477Y-103274581D01*
X204871256Y-103368351D01*
X204905122Y-103434817D01*
X204916411Y-103456971D01*
X205036724Y-103622571D01*
X205181482Y-103767329D01*
X205312251Y-103862336D01*
X205347086Y-103887645D01*
X205459194Y-103944767D01*
X205529472Y-103980576D01*
X205529474Y-103980576D01*
X205529477Y-103980578D01*
X205577840Y-103996292D01*
X205724161Y-104043835D01*
X205825253Y-104059846D01*
X205926344Y-104075858D01*
X205926345Y-104075858D01*
X206131047Y-104075858D01*
X206131048Y-104075858D01*
X206333230Y-104043835D01*
X206527915Y-103980578D01*
X206710306Y-103887645D01*
X206822058Y-103806453D01*
X206875909Y-103767329D01*
X206875911Y-103767326D01*
X206875915Y-103767324D01*
X207020662Y-103622577D01*
X207020664Y-103622573D01*
X207020667Y-103622571D01*
X207122531Y-103482365D01*
X207140983Y-103456968D01*
X207233916Y-103274577D01*
X207297173Y-103079892D01*
X207329196Y-102877710D01*
X207329196Y-102673006D01*
X211228196Y-102673006D01*
X211228196Y-102877709D01*
X211260218Y-103079892D01*
X211323477Y-103274581D01*
X211371256Y-103368351D01*
X211405122Y-103434817D01*
X211416411Y-103456971D01*
X211536724Y-103622571D01*
X211681482Y-103767329D01*
X211812251Y-103862336D01*
X211847086Y-103887645D01*
X211959194Y-103944767D01*
X212029472Y-103980576D01*
X212029474Y-103980576D01*
X212029477Y-103980578D01*
X212077840Y-103996292D01*
X212224161Y-104043835D01*
X212325253Y-104059846D01*
X212426344Y-104075858D01*
X212426345Y-104075858D01*
X212631047Y-104075858D01*
X212631048Y-104075858D01*
X212833230Y-104043835D01*
X213027915Y-103980578D01*
X213210306Y-103887645D01*
X213322058Y-103806453D01*
X213375909Y-103767329D01*
X213375911Y-103767326D01*
X213375915Y-103767324D01*
X213520662Y-103622577D01*
X213520664Y-103622573D01*
X213520667Y-103622571D01*
X213622531Y-103482365D01*
X213640983Y-103456968D01*
X213733916Y-103274577D01*
X213797173Y-103079892D01*
X213829196Y-102877710D01*
X213829196Y-102673006D01*
X213797280Y-102471497D01*
X213797173Y-102470823D01*
X213767823Y-102380495D01*
X213733916Y-102276139D01*
X213733914Y-102276136D01*
X213733914Y-102276134D01*
X213672324Y-102155259D01*
X213640983Y-102093748D01*
X213633252Y-102083107D01*
X213520667Y-101928144D01*
X213375909Y-101783386D01*
X213210309Y-101663073D01*
X213210308Y-101663072D01*
X213210306Y-101663071D01*
X213132326Y-101623338D01*
X213027919Y-101570139D01*
X212833230Y-101506880D01*
X212658691Y-101479236D01*
X212631048Y-101474858D01*
X212426344Y-101474858D01*
X212402025Y-101478709D01*
X212224161Y-101506880D01*
X212029472Y-101570139D01*
X211847082Y-101663073D01*
X211681482Y-101783386D01*
X211536724Y-101928144D01*
X211416411Y-102093744D01*
X211323477Y-102276134D01*
X211260218Y-102470823D01*
X211228196Y-102673006D01*
X207329196Y-102673006D01*
X207297280Y-102471497D01*
X207297173Y-102470823D01*
X207267823Y-102380495D01*
X207233916Y-102276139D01*
X207233914Y-102276136D01*
X207233914Y-102276134D01*
X207172324Y-102155259D01*
X207140983Y-102093748D01*
X207133252Y-102083107D01*
X207020667Y-101928144D01*
X206875909Y-101783386D01*
X206710309Y-101663073D01*
X206710308Y-101663072D01*
X206710306Y-101663071D01*
X206632326Y-101623338D01*
X206527919Y-101570139D01*
X206333230Y-101506880D01*
X206158691Y-101479236D01*
X206131048Y-101474858D01*
X205926344Y-101474858D01*
X205902025Y-101478709D01*
X205724161Y-101506880D01*
X205529472Y-101570139D01*
X205347082Y-101663073D01*
X205181482Y-101783386D01*
X205036724Y-101928144D01*
X204916411Y-102093744D01*
X204823477Y-102276134D01*
X204760218Y-102470823D01*
X204728196Y-102673006D01*
X165014810Y-102673006D01*
X165028696Y-102621184D01*
X165028696Y-102489532D01*
X164994621Y-102362365D01*
X164961708Y-102305358D01*
X165855927Y-102305358D01*
X165845453Y-102239231D01*
X165845453Y-102239228D01*
X165779791Y-102037140D01*
X165683316Y-101847800D01*
X165558423Y-101675898D01*
X165558419Y-101675893D01*
X165408160Y-101525634D01*
X165408155Y-101525630D01*
X165236253Y-101400737D01*
X165046913Y-101304262D01*
X165017988Y-101294864D01*
X164960312Y-101255426D01*
X164933114Y-101191068D01*
X164945029Y-101122221D01*
X164992273Y-101070746D01*
X165000011Y-101066448D01*
X165131690Y-100999354D01*
X165278197Y-100892911D01*
X165406249Y-100764859D01*
X165512692Y-100618352D01*
X165594907Y-100456997D01*
X165650867Y-100284767D01*
X165670221Y-100162571D01*
X165679196Y-100105909D01*
X165679196Y-99924806D01*
X165653931Y-99765295D01*
X165650867Y-99745949D01*
X165594907Y-99573719D01*
X165594907Y-99573718D01*
X165553448Y-99492352D01*
X165512692Y-99412364D01*
X165489637Y-99380631D01*
X165471496Y-99355661D01*
X165422082Y-99287648D01*
X194299500Y-99287648D01*
X194299500Y-99492352D01*
X194300848Y-99500860D01*
X194331522Y-99694534D01*
X194394781Y-99889223D01*
X194487715Y-100071613D01*
X194608028Y-100237213D01*
X194752786Y-100381971D01*
X194856053Y-100456997D01*
X194918390Y-100502287D01*
X194989786Y-100538665D01*
X195100776Y-100595218D01*
X195100778Y-100595218D01*
X195100781Y-100595220D01*
X195205137Y-100629127D01*
X195295465Y-100658477D01*
X195396557Y-100674488D01*
X195497648Y-100690500D01*
X195497649Y-100690500D01*
X195702351Y-100690500D01*
X195702352Y-100690500D01*
X195904534Y-100658477D01*
X196099219Y-100595220D01*
X196281610Y-100502287D01*
X196384351Y-100427642D01*
X196447213Y-100381971D01*
X196447215Y-100381968D01*
X196447219Y-100381966D01*
X196591966Y-100237219D01*
X196591968Y-100237215D01*
X196591971Y-100237213D01*
X196646196Y-100162577D01*
X196712287Y-100071610D01*
X196805220Y-99889219D01*
X196868477Y-99694534D01*
X196900500Y-99492352D01*
X196900500Y-99287648D01*
X200799500Y-99287648D01*
X200799500Y-99492352D01*
X200800848Y-99500860D01*
X200831522Y-99694534D01*
X200894781Y-99889223D01*
X200987715Y-100071613D01*
X201108028Y-100237213D01*
X201252786Y-100381971D01*
X201356053Y-100456997D01*
X201418390Y-100502287D01*
X201489786Y-100538665D01*
X201600776Y-100595218D01*
X201600778Y-100595218D01*
X201600781Y-100595220D01*
X201705137Y-100629127D01*
X201795465Y-100658477D01*
X201896557Y-100674488D01*
X201997648Y-100690500D01*
X201997649Y-100690500D01*
X202202351Y-100690500D01*
X202202352Y-100690500D01*
X202404534Y-100658477D01*
X202599219Y-100595220D01*
X202781610Y-100502287D01*
X202884351Y-100427642D01*
X202947213Y-100381971D01*
X202947215Y-100381968D01*
X202947219Y-100381966D01*
X203091966Y-100237219D01*
X203091968Y-100237215D01*
X203091971Y-100237213D01*
X203146196Y-100162577D01*
X203212287Y-100071610D01*
X203305220Y-99889219D01*
X203368477Y-99694534D01*
X203400500Y-99492352D01*
X203400500Y-99287648D01*
X203388678Y-99213006D01*
X213628196Y-99213006D01*
X213628196Y-99417709D01*
X213660218Y-99619892D01*
X213723477Y-99814581D01*
X213816411Y-99996971D01*
X213936724Y-100162571D01*
X214081482Y-100307329D01*
X214223335Y-100410389D01*
X214247086Y-100427645D01*
X214363303Y-100486861D01*
X214429472Y-100520576D01*
X214429474Y-100520576D01*
X214429477Y-100520578D01*
X214533833Y-100554485D01*
X214624161Y-100583835D01*
X214696030Y-100595218D01*
X214826344Y-100615858D01*
X214826345Y-100615858D01*
X215031047Y-100615858D01*
X215031048Y-100615858D01*
X215233230Y-100583835D01*
X215427915Y-100520578D01*
X215610306Y-100427645D01*
X215742835Y-100331358D01*
X215775909Y-100307329D01*
X215775911Y-100307326D01*
X215775915Y-100307324D01*
X215920662Y-100162577D01*
X215920664Y-100162573D01*
X215920667Y-100162571D01*
X216003065Y-100049158D01*
X216040983Y-99996968D01*
X216133916Y-99814577D01*
X216197173Y-99619892D01*
X216229196Y-99417710D01*
X216229196Y-99213006D01*
X220128196Y-99213006D01*
X220128196Y-99417709D01*
X220160218Y-99619892D01*
X220223477Y-99814581D01*
X220316411Y-99996971D01*
X220436724Y-100162571D01*
X220581482Y-100307329D01*
X220723335Y-100410389D01*
X220747086Y-100427645D01*
X220863303Y-100486861D01*
X220929472Y-100520576D01*
X220929474Y-100520576D01*
X220929477Y-100520578D01*
X221033833Y-100554485D01*
X221124161Y-100583835D01*
X221196030Y-100595218D01*
X221326344Y-100615858D01*
X221326345Y-100615858D01*
X221531047Y-100615858D01*
X221531048Y-100615858D01*
X221733230Y-100583835D01*
X221927915Y-100520578D01*
X222110306Y-100427645D01*
X222242835Y-100331358D01*
X222275909Y-100307329D01*
X222275911Y-100307326D01*
X222275915Y-100307324D01*
X222420662Y-100162577D01*
X222420664Y-100162573D01*
X222420667Y-100162571D01*
X222503065Y-100049158D01*
X222540983Y-99996968D01*
X222633916Y-99814577D01*
X222697173Y-99619892D01*
X222729196Y-99417710D01*
X222729196Y-99213006D01*
X222697173Y-99010824D01*
X222633916Y-98816139D01*
X222633914Y-98816136D01*
X222633914Y-98816134D01*
X222600199Y-98749965D01*
X222540983Y-98633748D01*
X222514668Y-98597528D01*
X222420667Y-98468144D01*
X222275909Y-98323386D01*
X222110309Y-98203073D01*
X222110308Y-98203072D01*
X222110306Y-98203071D01*
X222053349Y-98174049D01*
X221927919Y-98110139D01*
X221733230Y-98046880D01*
X221558691Y-98019236D01*
X221531048Y-98014858D01*
X221326344Y-98014858D01*
X221302025Y-98018709D01*
X221124161Y-98046880D01*
X220929472Y-98110139D01*
X220747082Y-98203073D01*
X220581482Y-98323386D01*
X220436724Y-98468144D01*
X220316411Y-98633744D01*
X220223477Y-98816134D01*
X220160218Y-99010823D01*
X220128196Y-99213006D01*
X216229196Y-99213006D01*
X216197173Y-99010824D01*
X216133916Y-98816139D01*
X216133914Y-98816136D01*
X216133914Y-98816134D01*
X216100199Y-98749965D01*
X216040983Y-98633748D01*
X216014668Y-98597528D01*
X215920667Y-98468144D01*
X215775909Y-98323386D01*
X215610309Y-98203073D01*
X215610308Y-98203072D01*
X215610306Y-98203071D01*
X215553349Y-98174049D01*
X215427919Y-98110139D01*
X215233230Y-98046880D01*
X215058691Y-98019236D01*
X215031048Y-98014858D01*
X214826344Y-98014858D01*
X214802025Y-98018709D01*
X214624161Y-98046880D01*
X214429472Y-98110139D01*
X214247082Y-98203073D01*
X214081482Y-98323386D01*
X213936724Y-98468144D01*
X213816411Y-98633744D01*
X213723477Y-98816134D01*
X213660218Y-99010823D01*
X213628196Y-99213006D01*
X203388678Y-99213006D01*
X203368477Y-99085466D01*
X203305220Y-98890781D01*
X203305218Y-98890778D01*
X203305218Y-98890776D01*
X203264715Y-98811286D01*
X203212287Y-98708390D01*
X203195743Y-98685619D01*
X203091971Y-98542786D01*
X202947213Y-98398028D01*
X202781613Y-98277715D01*
X202781612Y-98277714D01*
X202781610Y-98277713D01*
X202696902Y-98234552D01*
X202599223Y-98184781D01*
X202404534Y-98121522D01*
X202229995Y-98093878D01*
X202202352Y-98089500D01*
X201997648Y-98089500D01*
X201973329Y-98093351D01*
X201795465Y-98121522D01*
X201600776Y-98184781D01*
X201418386Y-98277715D01*
X201252786Y-98398028D01*
X201108028Y-98542786D01*
X200987715Y-98708386D01*
X200894781Y-98890776D01*
X200831522Y-99085465D01*
X200802951Y-99265857D01*
X200799500Y-99287648D01*
X196900500Y-99287648D01*
X196884002Y-99183485D01*
X196868477Y-99085465D01*
X196824184Y-98949146D01*
X196805220Y-98890781D01*
X196805218Y-98890778D01*
X196805218Y-98890776D01*
X196764715Y-98811286D01*
X196712287Y-98708390D01*
X196695743Y-98685619D01*
X196591971Y-98542786D01*
X196447213Y-98398028D01*
X196281613Y-98277715D01*
X196281612Y-98277714D01*
X196281610Y-98277713D01*
X196196902Y-98234552D01*
X196099223Y-98184781D01*
X195904534Y-98121522D01*
X195729995Y-98093878D01*
X195702352Y-98089500D01*
X195497648Y-98089500D01*
X195473329Y-98093351D01*
X195295465Y-98121522D01*
X195100776Y-98184781D01*
X194918386Y-98277715D01*
X194752786Y-98398028D01*
X194608028Y-98542786D01*
X194487715Y-98708386D01*
X194394781Y-98890776D01*
X194331522Y-99085465D01*
X194302951Y-99265857D01*
X194299500Y-99287648D01*
X165422082Y-99287648D01*
X165406254Y-99265863D01*
X165406250Y-99265858D01*
X165278195Y-99137803D01*
X165278190Y-99137799D01*
X165131693Y-99031364D01*
X165131692Y-99031363D01*
X165131690Y-99031362D01*
X165079996Y-99005022D01*
X164970335Y-98949146D01*
X164970332Y-98949145D01*
X164798106Y-98893187D01*
X164638017Y-98867831D01*
X164574882Y-98837902D01*
X164537951Y-98778590D01*
X164538949Y-98708728D01*
X164577559Y-98650495D01*
X164638017Y-98622885D01*
X164708121Y-98611780D01*
X164798105Y-98597529D01*
X164970335Y-98541569D01*
X165131690Y-98459354D01*
X165278197Y-98352911D01*
X165406249Y-98224859D01*
X165512692Y-98078352D01*
X165594907Y-97916997D01*
X165650867Y-97744767D01*
X165665461Y-97652617D01*
X165679196Y-97565909D01*
X165679196Y-97384806D01*
X165653931Y-97225295D01*
X165650867Y-97205949D01*
X165594907Y-97033719D01*
X165594907Y-97033718D01*
X165566436Y-96977842D01*
X165512692Y-96872364D01*
X165499092Y-96853645D01*
X165406254Y-96725863D01*
X165406250Y-96725858D01*
X165278195Y-96597803D01*
X165278190Y-96597799D01*
X165131693Y-96491364D01*
X165131692Y-96491363D01*
X165131690Y-96491362D01*
X165079996Y-96465022D01*
X164970335Y-96409146D01*
X164970332Y-96409145D01*
X164798106Y-96353187D01*
X164638017Y-96327831D01*
X164574882Y-96297902D01*
X164537951Y-96238590D01*
X164538949Y-96168728D01*
X164577559Y-96110495D01*
X164638017Y-96082885D01*
X164708121Y-96071780D01*
X164798105Y-96057529D01*
X164970335Y-96001569D01*
X165131690Y-95919354D01*
X165278197Y-95812911D01*
X165406249Y-95684859D01*
X165512692Y-95538352D01*
X165594907Y-95376997D01*
X165650867Y-95204767D01*
X165665461Y-95112617D01*
X165679196Y-95025909D01*
X165679196Y-94844805D01*
X165672444Y-94802173D01*
X165670143Y-94787648D01*
X194299500Y-94787648D01*
X194299500Y-94992351D01*
X194331522Y-95194534D01*
X194394781Y-95389223D01*
X194487715Y-95571613D01*
X194608028Y-95737213D01*
X194752786Y-95881971D01*
X194885545Y-95978424D01*
X194918390Y-96002287D01*
X195026808Y-96057529D01*
X195100776Y-96095218D01*
X195100778Y-96095218D01*
X195100781Y-96095220D01*
X195205137Y-96129127D01*
X195295465Y-96158477D01*
X195360187Y-96168728D01*
X195497648Y-96190500D01*
X195497649Y-96190500D01*
X195702351Y-96190500D01*
X195702352Y-96190500D01*
X195904534Y-96158477D01*
X196099219Y-96095220D01*
X196281610Y-96002287D01*
X196384351Y-95927642D01*
X196447213Y-95881971D01*
X196447215Y-95881968D01*
X196447219Y-95881966D01*
X196591966Y-95737219D01*
X196591968Y-95737215D01*
X196591971Y-95737213D01*
X196646196Y-95662577D01*
X196712287Y-95571610D01*
X196805220Y-95389219D01*
X196868477Y-95194534D01*
X196900500Y-94992352D01*
X196900500Y-94787648D01*
X200799500Y-94787648D01*
X200799500Y-94992351D01*
X200831522Y-95194534D01*
X200894781Y-95389223D01*
X200987715Y-95571613D01*
X201108028Y-95737213D01*
X201252786Y-95881971D01*
X201385545Y-95978424D01*
X201418390Y-96002287D01*
X201526808Y-96057529D01*
X201600776Y-96095218D01*
X201600778Y-96095218D01*
X201600781Y-96095220D01*
X201705137Y-96129127D01*
X201795465Y-96158477D01*
X201860187Y-96168728D01*
X201997648Y-96190500D01*
X201997649Y-96190500D01*
X202202351Y-96190500D01*
X202202352Y-96190500D01*
X202404534Y-96158477D01*
X202599219Y-96095220D01*
X202781610Y-96002287D01*
X202884351Y-95927642D01*
X202947213Y-95881971D01*
X202947215Y-95881968D01*
X202947219Y-95881966D01*
X203091966Y-95737219D01*
X203091968Y-95737215D01*
X203091971Y-95737213D01*
X203146196Y-95662577D01*
X203212287Y-95571610D01*
X203305220Y-95389219D01*
X203368477Y-95194534D01*
X203400500Y-94992352D01*
X203400500Y-94787648D01*
X203388678Y-94713006D01*
X213628196Y-94713006D01*
X213628196Y-94917710D01*
X213632574Y-94945353D01*
X213660218Y-95119892D01*
X213723477Y-95314581D01*
X213816411Y-95496971D01*
X213936724Y-95662571D01*
X214081482Y-95807329D01*
X214235670Y-95919351D01*
X214247086Y-95927645D01*
X214363303Y-95986861D01*
X214429472Y-96020576D01*
X214429474Y-96020576D01*
X214429477Y-96020578D01*
X214533833Y-96054485D01*
X214624161Y-96083835D01*
X214696030Y-96095218D01*
X214826344Y-96115858D01*
X214826345Y-96115858D01*
X215031047Y-96115858D01*
X215031048Y-96115858D01*
X215233230Y-96083835D01*
X215427915Y-96020578D01*
X215610306Y-95927645D01*
X215703286Y-95860090D01*
X215775909Y-95807329D01*
X215775911Y-95807326D01*
X215775915Y-95807324D01*
X215920662Y-95662577D01*
X215920664Y-95662573D01*
X215920667Y-95662571D01*
X215986753Y-95571610D01*
X216040983Y-95496968D01*
X216133916Y-95314577D01*
X216197173Y-95119892D01*
X216229196Y-94917710D01*
X216229196Y-94713006D01*
X220128196Y-94713006D01*
X220128196Y-94917710D01*
X220132574Y-94945353D01*
X220160218Y-95119892D01*
X220223477Y-95314581D01*
X220316411Y-95496971D01*
X220436724Y-95662571D01*
X220581482Y-95807329D01*
X220735670Y-95919351D01*
X220747086Y-95927645D01*
X220863303Y-95986861D01*
X220929472Y-96020576D01*
X220929474Y-96020576D01*
X220929477Y-96020578D01*
X221033833Y-96054485D01*
X221124161Y-96083835D01*
X221196030Y-96095218D01*
X221326344Y-96115858D01*
X221326345Y-96115858D01*
X221531047Y-96115858D01*
X221531048Y-96115858D01*
X221733230Y-96083835D01*
X221927915Y-96020578D01*
X222110306Y-95927645D01*
X222203286Y-95860090D01*
X222275909Y-95807329D01*
X222275911Y-95807326D01*
X222275915Y-95807324D01*
X222420662Y-95662577D01*
X222420664Y-95662573D01*
X222420667Y-95662571D01*
X222486753Y-95571610D01*
X222540983Y-95496968D01*
X222633916Y-95314577D01*
X222697173Y-95119892D01*
X222729196Y-94917710D01*
X222729196Y-94713006D01*
X222721743Y-94665949D01*
X222697173Y-94510823D01*
X222641483Y-94339429D01*
X222633916Y-94316139D01*
X222633914Y-94316136D01*
X222633914Y-94316134D01*
X222580492Y-94211289D01*
X222540983Y-94133748D01*
X222485808Y-94057805D01*
X222420667Y-93968144D01*
X222275909Y-93823386D01*
X222110309Y-93703073D01*
X222110308Y-93703072D01*
X222110306Y-93703071D01*
X222053349Y-93674049D01*
X221927919Y-93610139D01*
X221733230Y-93546880D01*
X221558691Y-93519236D01*
X221531048Y-93514858D01*
X221326344Y-93514858D01*
X221302025Y-93518709D01*
X221124161Y-93546880D01*
X220929472Y-93610139D01*
X220747082Y-93703073D01*
X220581482Y-93823386D01*
X220436724Y-93968144D01*
X220316411Y-94133744D01*
X220223477Y-94316134D01*
X220160218Y-94510823D01*
X220131835Y-94690030D01*
X220128196Y-94713006D01*
X216229196Y-94713006D01*
X216221743Y-94665949D01*
X216197173Y-94510823D01*
X216141483Y-94339429D01*
X216133916Y-94316139D01*
X216133914Y-94316136D01*
X216133914Y-94316134D01*
X216080492Y-94211289D01*
X216040983Y-94133748D01*
X215985808Y-94057805D01*
X215920667Y-93968144D01*
X215775909Y-93823386D01*
X215610309Y-93703073D01*
X215610308Y-93703072D01*
X215610306Y-93703071D01*
X215553349Y-93674049D01*
X215427919Y-93610139D01*
X215233230Y-93546880D01*
X215058691Y-93519236D01*
X215031048Y-93514858D01*
X214826344Y-93514858D01*
X214802025Y-93518709D01*
X214624161Y-93546880D01*
X214429472Y-93610139D01*
X214247082Y-93703073D01*
X214081482Y-93823386D01*
X213936724Y-93968144D01*
X213816411Y-94133744D01*
X213723477Y-94316134D01*
X213660218Y-94510823D01*
X213631835Y-94690030D01*
X213628196Y-94713006D01*
X203388678Y-94713006D01*
X203368477Y-94585466D01*
X203305220Y-94390781D01*
X203305218Y-94390778D01*
X203305218Y-94390776D01*
X203261222Y-94304431D01*
X203212287Y-94208390D01*
X203158057Y-94133748D01*
X203091971Y-94042786D01*
X202947213Y-93898028D01*
X202781613Y-93777715D01*
X202781612Y-93777714D01*
X202781610Y-93777713D01*
X202724653Y-93748691D01*
X202599223Y-93684781D01*
X202404534Y-93621522D01*
X202229995Y-93593878D01*
X202202352Y-93589500D01*
X201997648Y-93589500D01*
X201973329Y-93593351D01*
X201795465Y-93621522D01*
X201600776Y-93684781D01*
X201418386Y-93777715D01*
X201252786Y-93898028D01*
X201108028Y-94042786D01*
X200987715Y-94208386D01*
X200894781Y-94390776D01*
X200831522Y-94585465D01*
X200799500Y-94787648D01*
X196900500Y-94787648D01*
X196885038Y-94690026D01*
X196868477Y-94585465D01*
X196805218Y-94390776D01*
X196761222Y-94304431D01*
X196712287Y-94208390D01*
X196658057Y-94133748D01*
X196591971Y-94042786D01*
X196447213Y-93898028D01*
X196281613Y-93777715D01*
X196281612Y-93777714D01*
X196281610Y-93777713D01*
X196224653Y-93748691D01*
X196099223Y-93684781D01*
X195904534Y-93621522D01*
X195729995Y-93593878D01*
X195702352Y-93589500D01*
X195497648Y-93589500D01*
X195473329Y-93593351D01*
X195295465Y-93621522D01*
X195100776Y-93684781D01*
X194918386Y-93777715D01*
X194752786Y-93898028D01*
X194608028Y-94042786D01*
X194487715Y-94208386D01*
X194394781Y-94390776D01*
X194331522Y-94585465D01*
X194299500Y-94787648D01*
X165670143Y-94787648D01*
X165654681Y-94690030D01*
X165650867Y-94665949D01*
X165600465Y-94510824D01*
X165594908Y-94493721D01*
X165594907Y-94493718D01*
X165542457Y-94390781D01*
X165512692Y-94332364D01*
X165481008Y-94288754D01*
X165406254Y-94185863D01*
X165406250Y-94185858D01*
X165278195Y-94057803D01*
X165278190Y-94057799D01*
X165131693Y-93951364D01*
X165131692Y-93951363D01*
X165131690Y-93951362D01*
X165079996Y-93925022D01*
X164970335Y-93869146D01*
X164970332Y-93869145D01*
X164798106Y-93813187D01*
X164638017Y-93787831D01*
X164574882Y-93757902D01*
X164537951Y-93698590D01*
X164538949Y-93628728D01*
X164577559Y-93570495D01*
X164638017Y-93542885D01*
X164708121Y-93531780D01*
X164798105Y-93517529D01*
X164970335Y-93461569D01*
X165131690Y-93379354D01*
X165278197Y-93272911D01*
X165406249Y-93144859D01*
X165512692Y-92998352D01*
X165594907Y-92836997D01*
X165650867Y-92664767D01*
X165670129Y-92543154D01*
X165679196Y-92485909D01*
X165679196Y-92304806D01*
X165653931Y-92145295D01*
X165650867Y-92125949D01*
X165602947Y-91978464D01*
X165594908Y-91953721D01*
X165594907Y-91953718D01*
X165566436Y-91897842D01*
X165512692Y-91792364D01*
X165499092Y-91773645D01*
X165406254Y-91645863D01*
X165406250Y-91645858D01*
X165278197Y-91517805D01*
X165278189Y-91517799D01*
X165210268Y-91468452D01*
X165210267Y-91468450D01*
X165131693Y-91411364D01*
X165131692Y-91411363D01*
X165131690Y-91411362D01*
X165056413Y-91373006D01*
X203928196Y-91373006D01*
X203928196Y-91577709D01*
X203960218Y-91779892D01*
X204023477Y-91974581D01*
X204082095Y-92089623D01*
X204110461Y-92145295D01*
X204116411Y-92156971D01*
X204236724Y-92322571D01*
X204381482Y-92467329D01*
X204536445Y-92579914D01*
X204547086Y-92587645D01*
X204618851Y-92624211D01*
X204729472Y-92680576D01*
X204729474Y-92680576D01*
X204729477Y-92680578D01*
X204819524Y-92709836D01*
X204924161Y-92743835D01*
X205025253Y-92759846D01*
X205126344Y-92775858D01*
X205126345Y-92775858D01*
X205331047Y-92775858D01*
X205331048Y-92775858D01*
X205533230Y-92743835D01*
X205727915Y-92680578D01*
X205910306Y-92587645D01*
X206050342Y-92485904D01*
X206075909Y-92467329D01*
X206075911Y-92467326D01*
X206075915Y-92467324D01*
X206220662Y-92322577D01*
X206220664Y-92322573D01*
X206220667Y-92322571D01*
X206273500Y-92249851D01*
X206340983Y-92156968D01*
X206433916Y-91974577D01*
X206497173Y-91779892D01*
X206529196Y-91577710D01*
X206529196Y-91373006D01*
X210428196Y-91373006D01*
X210428196Y-91577709D01*
X210460218Y-91779892D01*
X210523477Y-91974581D01*
X210582095Y-92089623D01*
X210610461Y-92145295D01*
X210616411Y-92156971D01*
X210736724Y-92322571D01*
X210881482Y-92467329D01*
X211036445Y-92579914D01*
X211047086Y-92587645D01*
X211118851Y-92624211D01*
X211229472Y-92680576D01*
X211229474Y-92680576D01*
X211229477Y-92680578D01*
X211319524Y-92709836D01*
X211424161Y-92743835D01*
X211525253Y-92759846D01*
X211626344Y-92775858D01*
X211626345Y-92775858D01*
X211831047Y-92775858D01*
X211831048Y-92775858D01*
X212033230Y-92743835D01*
X212227915Y-92680578D01*
X212410306Y-92587645D01*
X212550342Y-92485904D01*
X212575909Y-92467329D01*
X212575911Y-92467326D01*
X212575915Y-92467324D01*
X212720662Y-92322577D01*
X212720664Y-92322573D01*
X212720667Y-92322571D01*
X212773500Y-92249851D01*
X212840983Y-92156968D01*
X212933916Y-91974577D01*
X212997173Y-91779892D01*
X213029196Y-91577710D01*
X213029196Y-91373006D01*
X213008655Y-91243316D01*
X212997173Y-91170823D01*
X212962869Y-91065248D01*
X212933916Y-90976139D01*
X212933914Y-90976136D01*
X212933914Y-90976134D01*
X212890039Y-90890026D01*
X212840983Y-90793748D01*
X212806984Y-90746952D01*
X212720667Y-90628144D01*
X212575909Y-90483386D01*
X212410309Y-90363073D01*
X212410308Y-90363072D01*
X212410306Y-90363071D01*
X212342834Y-90328692D01*
X212227919Y-90270139D01*
X212033230Y-90206880D01*
X211858691Y-90179236D01*
X211831048Y-90174858D01*
X211626344Y-90174858D01*
X211602025Y-90178709D01*
X211424161Y-90206880D01*
X211229472Y-90270139D01*
X211047082Y-90363073D01*
X210881482Y-90483386D01*
X210736724Y-90628144D01*
X210616411Y-90793744D01*
X210523477Y-90976134D01*
X210460218Y-91170823D01*
X210428196Y-91373006D01*
X206529196Y-91373006D01*
X206508655Y-91243316D01*
X206497173Y-91170823D01*
X206462869Y-91065248D01*
X206433916Y-90976139D01*
X206433914Y-90976136D01*
X206433914Y-90976134D01*
X206390039Y-90890026D01*
X206340983Y-90793748D01*
X206306984Y-90746952D01*
X206220667Y-90628144D01*
X206075909Y-90483386D01*
X205910309Y-90363073D01*
X205910308Y-90363072D01*
X205910306Y-90363071D01*
X205842834Y-90328692D01*
X205727919Y-90270139D01*
X205533230Y-90206880D01*
X205358691Y-90179236D01*
X205331048Y-90174858D01*
X205126344Y-90174858D01*
X205102025Y-90178709D01*
X204924161Y-90206880D01*
X204729472Y-90270139D01*
X204547082Y-90363073D01*
X204381482Y-90483386D01*
X204236724Y-90628144D01*
X204116411Y-90793744D01*
X204023477Y-90976134D01*
X203960218Y-91170823D01*
X203928196Y-91373006D01*
X165056413Y-91373006D01*
X164970335Y-91329146D01*
X164970332Y-91329145D01*
X164798106Y-91273187D01*
X164638017Y-91247831D01*
X164574882Y-91217902D01*
X164537951Y-91158590D01*
X164538949Y-91088728D01*
X164577559Y-91030495D01*
X164638017Y-91002885D01*
X164708121Y-90991780D01*
X164798105Y-90977529D01*
X164970335Y-90921569D01*
X165131690Y-90839354D01*
X165278197Y-90732911D01*
X165406249Y-90604859D01*
X165512692Y-90458352D01*
X165594907Y-90296997D01*
X165650867Y-90124767D01*
X165665461Y-90032617D01*
X165679196Y-89945909D01*
X165679196Y-89764806D01*
X165662715Y-89660755D01*
X165650867Y-89585949D01*
X165610167Y-89460685D01*
X165594908Y-89413721D01*
X165594907Y-89413718D01*
X165566436Y-89357842D01*
X165512692Y-89252364D01*
X165444389Y-89158352D01*
X165406254Y-89105863D01*
X165406250Y-89105858D01*
X165278195Y-88977803D01*
X165278190Y-88977799D01*
X165131693Y-88871364D01*
X165131692Y-88871363D01*
X165131690Y-88871362D01*
X165040243Y-88824767D01*
X164970335Y-88789146D01*
X164970332Y-88789145D01*
X164798106Y-88733187D01*
X164638017Y-88707831D01*
X164574882Y-88677902D01*
X164537951Y-88618590D01*
X164538949Y-88548728D01*
X164577559Y-88490495D01*
X164638017Y-88462885D01*
X164708121Y-88451780D01*
X164798105Y-88437529D01*
X164970335Y-88381569D01*
X165131690Y-88299354D01*
X165278197Y-88192911D01*
X165406249Y-88064859D01*
X165512692Y-87918352D01*
X165594907Y-87756997D01*
X165650867Y-87584767D01*
X165668320Y-87474575D01*
X165679196Y-87405909D01*
X165679196Y-87224806D01*
X165662715Y-87120755D01*
X165650867Y-87045949D01*
X165602947Y-86898464D01*
X165594908Y-86873721D01*
X165594907Y-86873718D01*
X165562202Y-86809532D01*
X165512692Y-86712364D01*
X165444389Y-86618352D01*
X165406254Y-86565863D01*
X165406250Y-86565858D01*
X165278195Y-86437803D01*
X165278190Y-86437799D01*
X165131693Y-86331364D01*
X165131692Y-86331363D01*
X165131690Y-86331362D01*
X165040243Y-86284767D01*
X164970335Y-86249146D01*
X164970332Y-86249145D01*
X164798106Y-86193187D01*
X164638017Y-86167831D01*
X164574882Y-86137902D01*
X164537951Y-86078590D01*
X164538949Y-86008728D01*
X164577559Y-85950495D01*
X164638017Y-85922885D01*
X164708121Y-85911780D01*
X164798105Y-85897529D01*
X164970335Y-85841569D01*
X164992081Y-85830489D01*
X181428196Y-85830489D01*
X181428196Y-87920214D01*
X181428198Y-87920240D01*
X181431109Y-87945345D01*
X181431111Y-87945349D01*
X181476489Y-88048122D01*
X181476490Y-88048123D01*
X181555931Y-88127564D01*
X181658705Y-88172943D01*
X181683831Y-88175858D01*
X183773560Y-88175857D01*
X183773575Y-88175855D01*
X183773578Y-88175855D01*
X183798683Y-88172944D01*
X183798684Y-88172943D01*
X183798687Y-88172943D01*
X183901461Y-88127564D01*
X183980902Y-88048123D01*
X184026281Y-87945349D01*
X184029196Y-87920223D01*
X184029195Y-86757305D01*
X186228696Y-86757305D01*
X186228696Y-86993410D01*
X186265630Y-87226605D01*
X186338593Y-87451160D01*
X186445783Y-87661532D01*
X186506034Y-87744462D01*
X186506036Y-87744463D01*
X187245733Y-87004766D01*
X187262771Y-87068351D01*
X187328597Y-87182365D01*
X187421689Y-87275457D01*
X187535703Y-87341283D01*
X187599286Y-87358320D01*
X186859589Y-88098016D01*
X186942524Y-88158272D01*
X187152893Y-88265460D01*
X187377448Y-88338423D01*
X187377447Y-88338423D01*
X187610644Y-88375358D01*
X187846748Y-88375358D01*
X188079943Y-88338423D01*
X188304498Y-88265460D01*
X188514859Y-88158276D01*
X188514865Y-88158272D01*
X188597800Y-88098016D01*
X188597801Y-88098016D01*
X187858104Y-87358320D01*
X187921689Y-87341283D01*
X188035703Y-87275457D01*
X188128795Y-87182365D01*
X188194621Y-87068351D01*
X188211658Y-87004766D01*
X188951354Y-87744463D01*
X188951354Y-87744462D01*
X189011610Y-87661527D01*
X189011614Y-87661521D01*
X189118798Y-87451160D01*
X189191761Y-87226605D01*
X189228696Y-86993410D01*
X189228696Y-86873006D01*
X203928196Y-86873006D01*
X203928196Y-87077710D01*
X203932574Y-87105353D01*
X203960218Y-87279892D01*
X204023477Y-87474581D01*
X204116411Y-87656971D01*
X204236724Y-87822571D01*
X204381482Y-87967329D01*
X204536445Y-88079914D01*
X204547086Y-88087645D01*
X204663303Y-88146861D01*
X204729472Y-88180576D01*
X204729474Y-88180576D01*
X204729477Y-88180578D01*
X204833833Y-88214485D01*
X204924161Y-88243835D01*
X204986907Y-88253773D01*
X205126344Y-88275858D01*
X205126345Y-88275858D01*
X205331047Y-88275858D01*
X205331048Y-88275858D01*
X205533230Y-88243835D01*
X205727915Y-88180578D01*
X205910306Y-88087645D01*
X206003286Y-88020090D01*
X206075909Y-87967329D01*
X206075911Y-87967326D01*
X206075915Y-87967324D01*
X206220662Y-87822577D01*
X206220664Y-87822573D01*
X206220667Y-87822571D01*
X206308672Y-87701440D01*
X206340983Y-87656968D01*
X206433916Y-87474577D01*
X206497173Y-87279892D01*
X206529196Y-87077710D01*
X206529196Y-86873006D01*
X210428196Y-86873006D01*
X210428196Y-87077710D01*
X210432574Y-87105353D01*
X210460218Y-87279892D01*
X210523477Y-87474581D01*
X210616411Y-87656971D01*
X210736724Y-87822571D01*
X210881482Y-87967329D01*
X211036445Y-88079914D01*
X211047086Y-88087645D01*
X211163303Y-88146861D01*
X211229472Y-88180576D01*
X211229474Y-88180576D01*
X211229477Y-88180578D01*
X211333833Y-88214485D01*
X211424161Y-88243835D01*
X211486907Y-88253773D01*
X211626344Y-88275858D01*
X211626345Y-88275858D01*
X211831047Y-88275858D01*
X211831048Y-88275858D01*
X212033230Y-88243835D01*
X212227915Y-88180578D01*
X212410306Y-88087645D01*
X212503286Y-88020090D01*
X212575909Y-87967329D01*
X212575911Y-87967326D01*
X212575915Y-87967324D01*
X212720662Y-87822577D01*
X212720664Y-87822573D01*
X212720667Y-87822571D01*
X212808672Y-87701440D01*
X212840983Y-87656968D01*
X212933916Y-87474577D01*
X212997173Y-87279892D01*
X213029196Y-87077710D01*
X213029196Y-86873006D01*
X213012066Y-86764852D01*
X212997173Y-86670823D01*
X212933914Y-86476134D01*
X212860148Y-86331362D01*
X212840983Y-86293748D01*
X212808578Y-86249146D01*
X212720667Y-86128144D01*
X212575909Y-85983386D01*
X212410309Y-85863073D01*
X212410308Y-85863072D01*
X212410306Y-85863071D01*
X212346333Y-85830475D01*
X212227919Y-85770139D01*
X212033230Y-85706880D01*
X211858691Y-85679236D01*
X211831048Y-85674858D01*
X211626344Y-85674858D01*
X211602025Y-85678709D01*
X211424161Y-85706880D01*
X211229472Y-85770139D01*
X211047082Y-85863073D01*
X210881482Y-85983386D01*
X210736724Y-86128144D01*
X210616411Y-86293744D01*
X210523477Y-86476134D01*
X210460218Y-86670823D01*
X210438249Y-86809532D01*
X210428196Y-86873006D01*
X206529196Y-86873006D01*
X206512066Y-86764852D01*
X206497173Y-86670823D01*
X206433914Y-86476134D01*
X206360148Y-86331362D01*
X206340983Y-86293748D01*
X206308578Y-86249146D01*
X206220667Y-86128144D01*
X206075909Y-85983386D01*
X205910309Y-85863073D01*
X205910308Y-85863072D01*
X205910306Y-85863071D01*
X205846333Y-85830475D01*
X205727919Y-85770139D01*
X205533230Y-85706880D01*
X205358691Y-85679236D01*
X205331048Y-85674858D01*
X205126344Y-85674858D01*
X205102025Y-85678709D01*
X204924161Y-85706880D01*
X204729472Y-85770139D01*
X204547082Y-85863073D01*
X204381482Y-85983386D01*
X204236724Y-86128144D01*
X204116411Y-86293744D01*
X204023477Y-86476134D01*
X203960218Y-86670823D01*
X203938249Y-86809532D01*
X203928196Y-86873006D01*
X189228696Y-86873006D01*
X189228696Y-86757305D01*
X189191761Y-86524110D01*
X189118798Y-86299555D01*
X189011610Y-86089186D01*
X188951354Y-86006252D01*
X188951354Y-86006251D01*
X188211658Y-86745948D01*
X188194621Y-86682365D01*
X188128795Y-86568351D01*
X188035703Y-86475259D01*
X187921689Y-86409433D01*
X187858105Y-86392395D01*
X188597801Y-85652698D01*
X188597800Y-85652696D01*
X188514870Y-85592445D01*
X188304498Y-85485255D01*
X188079943Y-85412292D01*
X188079944Y-85412292D01*
X187846748Y-85375358D01*
X187610644Y-85375358D01*
X187377448Y-85412292D01*
X187152893Y-85485255D01*
X186942526Y-85592442D01*
X186859590Y-85652698D01*
X187599287Y-86392395D01*
X187535703Y-86409433D01*
X187421689Y-86475259D01*
X187328597Y-86568351D01*
X187262771Y-86682365D01*
X187245733Y-86745949D01*
X186506036Y-86006252D01*
X186445780Y-86089188D01*
X186338593Y-86299555D01*
X186265630Y-86524110D01*
X186228696Y-86757305D01*
X184029195Y-86757305D01*
X184029195Y-85830494D01*
X184029193Y-85830475D01*
X184026282Y-85805370D01*
X184026281Y-85805369D01*
X184026281Y-85805367D01*
X183980902Y-85702593D01*
X183901461Y-85623152D01*
X183901459Y-85623151D01*
X183798688Y-85577773D01*
X183773561Y-85574858D01*
X181683839Y-85574858D01*
X181683813Y-85574860D01*
X181658708Y-85577771D01*
X181658704Y-85577773D01*
X181555931Y-85623151D01*
X181476490Y-85702592D01*
X181431111Y-85805364D01*
X181431111Y-85805366D01*
X181428196Y-85830489D01*
X164992081Y-85830489D01*
X165131690Y-85759354D01*
X165176782Y-85726593D01*
X165176784Y-85726592D01*
X165278190Y-85652916D01*
X165278188Y-85652916D01*
X165278197Y-85652911D01*
X165406249Y-85524859D01*
X165512692Y-85378352D01*
X165594907Y-85216997D01*
X165650867Y-85044767D01*
X165674875Y-84893187D01*
X165679196Y-84865909D01*
X165679196Y-84684806D01*
X165662715Y-84580755D01*
X165650867Y-84505949D01*
X165622887Y-84419834D01*
X165594908Y-84333721D01*
X165594907Y-84333718D01*
X165566436Y-84277842D01*
X165512692Y-84172364D01*
X165444389Y-84078352D01*
X165406254Y-84025863D01*
X165406250Y-84025858D01*
X165278195Y-83897803D01*
X165278190Y-83897799D01*
X165131693Y-83791364D01*
X165131692Y-83791363D01*
X165131690Y-83791362D01*
X165040243Y-83744767D01*
X164970335Y-83709146D01*
X164970332Y-83709145D01*
X164798106Y-83653187D01*
X164638017Y-83627831D01*
X164574882Y-83597902D01*
X164537951Y-83538590D01*
X164538949Y-83468728D01*
X164577559Y-83410495D01*
X164638017Y-83382885D01*
X164708121Y-83371780D01*
X164798105Y-83357529D01*
X164970335Y-83301569D01*
X165131690Y-83219354D01*
X165278197Y-83112911D01*
X165406249Y-82984859D01*
X165512692Y-82838352D01*
X165594907Y-82676997D01*
X165650867Y-82504767D01*
X165666012Y-82409147D01*
X165679196Y-82325909D01*
X165679196Y-82144806D01*
X165654138Y-81986603D01*
X165650867Y-81965949D01*
X165607730Y-81833185D01*
X165594908Y-81793721D01*
X165594907Y-81793718D01*
X165559820Y-81724858D01*
X165512692Y-81632364D01*
X165463508Y-81564668D01*
X165406254Y-81485863D01*
X165406250Y-81485858D01*
X165278195Y-81357803D01*
X165278190Y-81357799D01*
X165131693Y-81251364D01*
X165131692Y-81251363D01*
X165131690Y-81251362D01*
X165058499Y-81214069D01*
X164970335Y-81169146D01*
X164970332Y-81169145D01*
X164798106Y-81113187D01*
X164638017Y-81087831D01*
X164574882Y-81057902D01*
X164537951Y-80998590D01*
X164538949Y-80928728D01*
X164577559Y-80870495D01*
X164638017Y-80842885D01*
X164708121Y-80831780D01*
X164798105Y-80817529D01*
X164970335Y-80761569D01*
X165131690Y-80679354D01*
X165278197Y-80572911D01*
X165406249Y-80444859D01*
X165512692Y-80298352D01*
X165594907Y-80136997D01*
X165650867Y-79964767D01*
X165677796Y-79794745D01*
X165679196Y-79785909D01*
X165679196Y-79604806D01*
X165661701Y-79494351D01*
X165650867Y-79425949D01*
X165605495Y-79286306D01*
X165594908Y-79253721D01*
X165594907Y-79253718D01*
X165566436Y-79197842D01*
X165512692Y-79092364D01*
X165464009Y-79025357D01*
X165406254Y-78945863D01*
X165406250Y-78945858D01*
X165278195Y-78817803D01*
X165278190Y-78817799D01*
X165131693Y-78711364D01*
X165131692Y-78711363D01*
X165131690Y-78711362D01*
X165061376Y-78675535D01*
X164970335Y-78629146D01*
X164970332Y-78629145D01*
X164798106Y-78573187D01*
X164638017Y-78547831D01*
X164574882Y-78517902D01*
X164537951Y-78458590D01*
X164538949Y-78388728D01*
X164577559Y-78330495D01*
X164638017Y-78302885D01*
X164708121Y-78291780D01*
X164798105Y-78277529D01*
X164970335Y-78221569D01*
X165131690Y-78139354D01*
X165278197Y-78032911D01*
X165406249Y-77904859D01*
X165512692Y-77758352D01*
X165594907Y-77596997D01*
X165650867Y-77424767D01*
X165674547Y-77275259D01*
X165679196Y-77245909D01*
X165679196Y-77064806D01*
X165662715Y-76960755D01*
X165650867Y-76885949D01*
X165594907Y-76713719D01*
X165594907Y-76713718D01*
X165566436Y-76657842D01*
X165512692Y-76552364D01*
X165451520Y-76468167D01*
X165406254Y-76405863D01*
X165406250Y-76405858D01*
X165278195Y-76277803D01*
X165278190Y-76277799D01*
X165131693Y-76171364D01*
X165131692Y-76171363D01*
X165131690Y-76171362D01*
X165079996Y-76145022D01*
X164970335Y-76089146D01*
X164970332Y-76089145D01*
X164798106Y-76033187D01*
X164638017Y-76007831D01*
X164574882Y-75977902D01*
X164537951Y-75918590D01*
X164538949Y-75848728D01*
X164577559Y-75790495D01*
X164638017Y-75762885D01*
X164708121Y-75751780D01*
X164798105Y-75737529D01*
X164970335Y-75681569D01*
X165131690Y-75599354D01*
X165278197Y-75492911D01*
X165406249Y-75364859D01*
X165512692Y-75218352D01*
X165594907Y-75056997D01*
X165650867Y-74884767D01*
X165665461Y-74792617D01*
X165679196Y-74705909D01*
X165679196Y-74524806D01*
X165662715Y-74420755D01*
X165650867Y-74345949D01*
X165594907Y-74173719D01*
X165594907Y-74173718D01*
X165566436Y-74117842D01*
X165512692Y-74012364D01*
X165499092Y-73993645D01*
X165406254Y-73865863D01*
X165406250Y-73865858D01*
X165278195Y-73737803D01*
X165278190Y-73737799D01*
X165131693Y-73631364D01*
X165131692Y-73631363D01*
X165131690Y-73631362D01*
X165079996Y-73605022D01*
X164970335Y-73549146D01*
X164970332Y-73549145D01*
X164798106Y-73493187D01*
X164666424Y-73472330D01*
X164603290Y-73442400D01*
X164566359Y-73383089D01*
X164567357Y-73313226D01*
X164605967Y-73254994D01*
X164669931Y-73226880D01*
X164685816Y-73225857D01*
X165423560Y-73225857D01*
X165423575Y-73225855D01*
X165423578Y-73225855D01*
X165448683Y-73222944D01*
X165448684Y-73222943D01*
X165448687Y-73222943D01*
X165551461Y-73177564D01*
X165630902Y-73098123D01*
X165676281Y-72995349D01*
X165679196Y-72970223D01*
X165679195Y-71180494D01*
X165679193Y-71180475D01*
X165676282Y-71155370D01*
X165676281Y-71155368D01*
X165676281Y-71155367D01*
X165630902Y-71052593D01*
X165551461Y-70973152D01*
X165551459Y-70973151D01*
X165448688Y-70927773D01*
X165423561Y-70924858D01*
X163633839Y-70924858D01*
X163633813Y-70924860D01*
X163608708Y-70927771D01*
X163608704Y-70927773D01*
X163505931Y-70973151D01*
X163426490Y-71052592D01*
X163381111Y-71155364D01*
X163381111Y-71155366D01*
X163378196Y-71180489D01*
X163378196Y-72970214D01*
X163378198Y-72970240D01*
X163381109Y-72995345D01*
X163381111Y-72995349D01*
X163426489Y-73098122D01*
X163426490Y-73098123D01*
X163505931Y-73177564D01*
X163608705Y-73222943D01*
X163633831Y-73225858D01*
X164371569Y-73225857D01*
X164438606Y-73245541D01*
X164484361Y-73298345D01*
X164494305Y-73367504D01*
X164465280Y-73431060D01*
X164406502Y-73468834D01*
X164390966Y-73472330D01*
X164259285Y-73493187D01*
X164087059Y-73549145D01*
X164087056Y-73549146D01*
X163925698Y-73631364D01*
X163779201Y-73737799D01*
X163779196Y-73737803D01*
X163651141Y-73865858D01*
X163651137Y-73865863D01*
X163544702Y-74012360D01*
X163462484Y-74173718D01*
X163462483Y-74173721D01*
X163406525Y-74345947D01*
X163378196Y-74524806D01*
X163378196Y-74705909D01*
X163406525Y-74884768D01*
X163462483Y-75056994D01*
X163462484Y-75056997D01*
X163544702Y-75218355D01*
X163651137Y-75364852D01*
X163651141Y-75364857D01*
X163779196Y-75492912D01*
X163779201Y-75492916D01*
X163906983Y-75585754D01*
X163925702Y-75599354D01*
X164031180Y-75653098D01*
X164087056Y-75681569D01*
X164087059Y-75681570D01*
X164173172Y-75709549D01*
X164259287Y-75737529D01*
X164332335Y-75749098D01*
X164419374Y-75762885D01*
X164482509Y-75792814D01*
X164519440Y-75852126D01*
X164518442Y-75921989D01*
X164479832Y-75980221D01*
X164419374Y-76007831D01*
X164259285Y-76033187D01*
X164087059Y-76089145D01*
X164087056Y-76089146D01*
X163925698Y-76171364D01*
X163779201Y-76277799D01*
X163779196Y-76277803D01*
X163651141Y-76405858D01*
X163651137Y-76405863D01*
X163544702Y-76552360D01*
X163462484Y-76713718D01*
X163462483Y-76713721D01*
X163406525Y-76885947D01*
X163378196Y-77064806D01*
X163378196Y-77245909D01*
X163406525Y-77424768D01*
X163462483Y-77596994D01*
X163462484Y-77596997D01*
X163497187Y-77665104D01*
X163535952Y-77741184D01*
X163544702Y-77758355D01*
X163651137Y-77904852D01*
X163651141Y-77904857D01*
X163779196Y-78032912D01*
X163779201Y-78032916D01*
X163894926Y-78116994D01*
X163925702Y-78139354D01*
X164031180Y-78193098D01*
X164087056Y-78221569D01*
X164087059Y-78221570D01*
X164173172Y-78249549D01*
X164259287Y-78277529D01*
X164332335Y-78289098D01*
X164419374Y-78302885D01*
X164482509Y-78332814D01*
X164519440Y-78392126D01*
X164518442Y-78461989D01*
X164479832Y-78520221D01*
X164419374Y-78547831D01*
X164259285Y-78573187D01*
X164087059Y-78629145D01*
X164087056Y-78629146D01*
X163925698Y-78711364D01*
X163779201Y-78817799D01*
X163779196Y-78817803D01*
X163651141Y-78945858D01*
X163651137Y-78945863D01*
X163544702Y-79092360D01*
X163462484Y-79253718D01*
X163462483Y-79253721D01*
X163406525Y-79425947D01*
X163378196Y-79604806D01*
X163378196Y-79785909D01*
X163406525Y-79964768D01*
X163462483Y-80136994D01*
X163462484Y-80136997D01*
X163544702Y-80298355D01*
X163651137Y-80444852D01*
X163651141Y-80444857D01*
X163779196Y-80572912D01*
X163779201Y-80572916D01*
X163878040Y-80644726D01*
X163925702Y-80679354D01*
X164011387Y-80723013D01*
X164087056Y-80761569D01*
X164087059Y-80761570D01*
X164173172Y-80789549D01*
X164259287Y-80817529D01*
X164332335Y-80829098D01*
X164419374Y-80842885D01*
X164482509Y-80872814D01*
X164519440Y-80932126D01*
X164518442Y-81001989D01*
X164479832Y-81060221D01*
X164419374Y-81087831D01*
X164259285Y-81113187D01*
X164087059Y-81169145D01*
X164087056Y-81169146D01*
X163925698Y-81251364D01*
X163779201Y-81357799D01*
X163779196Y-81357803D01*
X163651141Y-81485858D01*
X163651137Y-81485863D01*
X163544702Y-81632360D01*
X163462484Y-81793718D01*
X163462483Y-81793721D01*
X163406525Y-81965947D01*
X163378196Y-82144806D01*
X163378196Y-82325909D01*
X163406525Y-82504768D01*
X163462483Y-82676994D01*
X163462484Y-82676997D01*
X163544702Y-82838355D01*
X163651137Y-82984852D01*
X163651141Y-82984857D01*
X163779196Y-83112912D01*
X163779201Y-83112916D01*
X163906983Y-83205754D01*
X163925702Y-83219354D01*
X164031180Y-83273098D01*
X164087056Y-83301569D01*
X164087059Y-83301570D01*
X164173172Y-83329549D01*
X164259287Y-83357529D01*
X164332335Y-83369098D01*
X164419374Y-83382885D01*
X164482509Y-83412814D01*
X164519440Y-83472126D01*
X164518442Y-83541989D01*
X164479832Y-83600221D01*
X164419374Y-83627831D01*
X164259285Y-83653187D01*
X164087059Y-83709145D01*
X164087056Y-83709146D01*
X163925698Y-83791364D01*
X163779201Y-83897799D01*
X163779196Y-83897803D01*
X163651141Y-84025858D01*
X163651137Y-84025863D01*
X163544702Y-84172360D01*
X163462484Y-84333718D01*
X163462483Y-84333721D01*
X163406525Y-84505947D01*
X163378196Y-84684806D01*
X163378196Y-84865909D01*
X163406525Y-85044768D01*
X163462483Y-85216994D01*
X163462484Y-85216997D01*
X163518360Y-85326658D01*
X163543174Y-85375358D01*
X163544702Y-85378355D01*
X163651137Y-85524852D01*
X163651141Y-85524857D01*
X163779196Y-85652912D01*
X163779201Y-85652916D01*
X163880609Y-85726592D01*
X163925702Y-85759354D01*
X164016001Y-85805364D01*
X164087056Y-85841569D01*
X164087059Y-85841570D01*
X164173172Y-85869549D01*
X164259287Y-85897529D01*
X164332335Y-85909098D01*
X164419374Y-85922885D01*
X164482509Y-85952814D01*
X164519440Y-86012126D01*
X164518442Y-86081989D01*
X164479832Y-86140221D01*
X164419374Y-86167831D01*
X164259285Y-86193187D01*
X164087059Y-86249145D01*
X164087056Y-86249146D01*
X163925698Y-86331364D01*
X163779201Y-86437799D01*
X163779196Y-86437803D01*
X163651141Y-86565858D01*
X163651137Y-86565863D01*
X163544702Y-86712360D01*
X163462484Y-86873718D01*
X163462483Y-86873721D01*
X163406525Y-87045947D01*
X163378196Y-87224806D01*
X163378196Y-87405909D01*
X163406525Y-87584768D01*
X163462483Y-87756994D01*
X163462484Y-87756997D01*
X163544702Y-87918355D01*
X163651137Y-88064852D01*
X163651141Y-88064857D01*
X163779196Y-88192912D01*
X163779201Y-88192916D01*
X163893362Y-88275858D01*
X163925702Y-88299354D01*
X164002379Y-88338423D01*
X164087056Y-88381569D01*
X164087059Y-88381570D01*
X164173172Y-88409549D01*
X164259287Y-88437529D01*
X164332335Y-88449098D01*
X164419374Y-88462885D01*
X164482509Y-88492814D01*
X164519440Y-88552126D01*
X164518442Y-88621989D01*
X164479832Y-88680221D01*
X164419374Y-88707831D01*
X164259285Y-88733187D01*
X164087059Y-88789145D01*
X164087056Y-88789146D01*
X163925698Y-88871364D01*
X163779201Y-88977799D01*
X163779196Y-88977803D01*
X163651141Y-89105858D01*
X163651137Y-89105863D01*
X163544702Y-89252360D01*
X163462484Y-89413718D01*
X163462483Y-89413721D01*
X163406525Y-89585947D01*
X163378196Y-89764806D01*
X163378196Y-89945909D01*
X163406525Y-90124768D01*
X163462483Y-90296994D01*
X163462484Y-90296997D01*
X163504097Y-90378665D01*
X163541373Y-90451823D01*
X163544702Y-90458355D01*
X163651137Y-90604852D01*
X163651141Y-90604857D01*
X163779196Y-90732912D01*
X163779201Y-90732916D01*
X163862925Y-90793744D01*
X163925702Y-90839354D01*
X164025151Y-90890026D01*
X164087056Y-90921569D01*
X164087059Y-90921570D01*
X164173172Y-90949549D01*
X164259287Y-90977529D01*
X164332335Y-90989098D01*
X164419374Y-91002885D01*
X164482509Y-91032814D01*
X164519440Y-91092126D01*
X164518442Y-91161989D01*
X164479832Y-91220221D01*
X164419374Y-91247831D01*
X164259285Y-91273187D01*
X164087059Y-91329145D01*
X164087056Y-91329146D01*
X163925698Y-91411364D01*
X163779201Y-91517799D01*
X163779196Y-91517803D01*
X163651141Y-91645858D01*
X163651137Y-91645863D01*
X163544702Y-91792360D01*
X163462484Y-91953718D01*
X163462483Y-91953721D01*
X163406525Y-92125947D01*
X163378196Y-92304806D01*
X163378196Y-92485909D01*
X163406525Y-92664768D01*
X163462483Y-92836994D01*
X163462484Y-92836997D01*
X163544702Y-92998355D01*
X163651137Y-93144852D01*
X163651141Y-93144857D01*
X163779196Y-93272912D01*
X163779201Y-93272916D01*
X163865310Y-93335477D01*
X163925702Y-93379354D01*
X164031180Y-93433098D01*
X164087056Y-93461569D01*
X164087059Y-93461570D01*
X164173172Y-93489549D01*
X164259287Y-93517529D01*
X164332335Y-93529098D01*
X164419374Y-93542885D01*
X164482509Y-93572814D01*
X164519440Y-93632126D01*
X164518442Y-93701989D01*
X164479832Y-93760221D01*
X164419374Y-93787831D01*
X164259285Y-93813187D01*
X164087059Y-93869145D01*
X164087056Y-93869146D01*
X163925698Y-93951364D01*
X163779201Y-94057799D01*
X163779196Y-94057803D01*
X163651141Y-94185858D01*
X163651137Y-94185863D01*
X163544702Y-94332360D01*
X163462484Y-94493718D01*
X163462483Y-94493721D01*
X163406525Y-94665947D01*
X163378196Y-94844806D01*
X163378196Y-95025909D01*
X163406525Y-95204768D01*
X163462483Y-95376994D01*
X163462484Y-95376997D01*
X163544702Y-95538355D01*
X163651137Y-95684852D01*
X163651141Y-95684857D01*
X163779196Y-95812912D01*
X163779201Y-95812916D01*
X163874248Y-95881971D01*
X163925702Y-95919354D01*
X164031180Y-95973098D01*
X164087056Y-96001569D01*
X164087059Y-96001570D01*
X164173172Y-96029549D01*
X164259287Y-96057529D01*
X164332335Y-96069098D01*
X164419374Y-96082885D01*
X164482509Y-96112814D01*
X164519440Y-96172126D01*
X164518442Y-96241989D01*
X164479832Y-96300221D01*
X164419374Y-96327831D01*
X164259285Y-96353187D01*
X164087059Y-96409145D01*
X164087056Y-96409146D01*
X163925698Y-96491364D01*
X163779201Y-96597799D01*
X163779196Y-96597803D01*
X163651141Y-96725858D01*
X163651137Y-96725863D01*
X163544702Y-96872360D01*
X163462484Y-97033718D01*
X163462483Y-97033721D01*
X163406525Y-97205947D01*
X163378196Y-97384806D01*
X163378196Y-97565909D01*
X163406525Y-97744768D01*
X163462483Y-97916994D01*
X163462484Y-97916997D01*
X163544702Y-98078355D01*
X163651137Y-98224852D01*
X163651141Y-98224857D01*
X163779196Y-98352912D01*
X163779201Y-98352916D01*
X163902134Y-98442231D01*
X163925702Y-98459354D01*
X164031180Y-98513098D01*
X164087056Y-98541569D01*
X164087059Y-98541570D01*
X164166016Y-98567224D01*
X164259287Y-98597529D01*
X164332335Y-98609098D01*
X164419374Y-98622885D01*
X164482509Y-98652814D01*
X164519440Y-98712126D01*
X164518442Y-98781989D01*
X164479832Y-98840221D01*
X164419374Y-98867831D01*
X164259285Y-98893187D01*
X164087059Y-98949145D01*
X164087056Y-98949146D01*
X163925698Y-99031364D01*
X163779201Y-99137799D01*
X163779196Y-99137803D01*
X163651141Y-99265858D01*
X163651137Y-99265863D01*
X163544702Y-99412360D01*
X163462484Y-99573718D01*
X163462483Y-99573721D01*
X163406525Y-99745947D01*
X163378196Y-99924806D01*
X163378196Y-100105909D01*
X163406525Y-100284768D01*
X163462483Y-100456994D01*
X163462484Y-100456997D01*
X163504097Y-100538665D01*
X163543429Y-100615858D01*
X163544702Y-100618355D01*
X163651137Y-100764852D01*
X163651141Y-100764857D01*
X163779196Y-100892912D01*
X163779201Y-100892916D01*
X163863083Y-100953859D01*
X163925702Y-100999354D01*
X164027476Y-101051211D01*
X164057380Y-101066448D01*
X164108176Y-101114423D01*
X164124971Y-101182244D01*
X164102433Y-101248379D01*
X164047718Y-101291830D01*
X164039404Y-101294864D01*
X164010477Y-101304263D01*
X163821138Y-101400737D01*
X163649236Y-101525630D01*
X163649231Y-101525634D01*
X163498972Y-101675893D01*
X163498968Y-101675898D01*
X163374075Y-101847800D01*
X163277600Y-102037140D01*
X163211938Y-102239228D01*
X163211938Y-102239231D01*
X163201465Y-102305358D01*
X49636418Y-102305358D01*
X49682433Y-102215049D01*
X49682434Y-102215046D01*
X49749993Y-102007117D01*
X49784196Y-101791174D01*
X49784196Y-101572541D01*
X49749993Y-101356598D01*
X49682434Y-101148669D01*
X49682433Y-101148666D01*
X49583176Y-100953866D01*
X49538387Y-100892218D01*
X48832843Y-101597762D01*
X48809404Y-101510287D01*
X48750885Y-101408928D01*
X48668126Y-101326169D01*
X48566767Y-101267650D01*
X48479288Y-101244210D01*
X49184834Y-100538665D01*
X49184834Y-100538664D01*
X49123191Y-100493879D01*
X49123189Y-100493878D01*
X48959336Y-100410390D01*
X48908540Y-100362415D01*
X48891745Y-100294594D01*
X48914283Y-100228459D01*
X48959335Y-100189421D01*
X49018630Y-100159209D01*
X49170103Y-100049158D01*
X49302496Y-99916765D01*
X49412547Y-99765292D01*
X49497549Y-99598467D01*
X49555406Y-99420400D01*
X49584696Y-99235474D01*
X49584696Y-99048242D01*
X49567461Y-98939429D01*
X137478195Y-98939429D01*
X137503193Y-99065096D01*
X137503195Y-99065102D01*
X137552229Y-99183482D01*
X137552234Y-99183491D01*
X137623419Y-99290026D01*
X137623422Y-99290030D01*
X137714023Y-99380631D01*
X137714027Y-99380634D01*
X137820562Y-99451819D01*
X137820568Y-99451822D01*
X137820569Y-99451823D01*
X137938952Y-99500859D01*
X137938956Y-99500859D01*
X137938957Y-99500860D01*
X138064624Y-99525858D01*
X138064627Y-99525858D01*
X138192767Y-99525858D01*
X138277311Y-99509040D01*
X138318440Y-99500859D01*
X138436823Y-99451823D01*
X138543365Y-99380634D01*
X138633972Y-99290027D01*
X138705161Y-99183485D01*
X138754197Y-99065102D01*
X138779196Y-98939427D01*
X138779196Y-98811289D01*
X138779196Y-98811286D01*
X138754198Y-98685619D01*
X138754197Y-98685618D01*
X138754197Y-98685614D01*
X138705161Y-98567231D01*
X138705160Y-98567230D01*
X138705157Y-98567224D01*
X138633972Y-98460689D01*
X138633969Y-98460685D01*
X138615515Y-98442231D01*
X138582030Y-98380908D01*
X138579196Y-98354550D01*
X138579196Y-96713323D01*
X138598881Y-96646284D01*
X138615515Y-96625642D01*
X140278981Y-94962177D01*
X140340304Y-94928692D01*
X140366662Y-94925858D01*
X140392767Y-94925858D01*
X140477311Y-94909040D01*
X140518440Y-94900859D01*
X140636823Y-94851823D01*
X140743365Y-94780634D01*
X140833972Y-94690027D01*
X140905161Y-94583485D01*
X140954197Y-94465102D01*
X140979196Y-94339427D01*
X140979196Y-94211289D01*
X140979196Y-94211286D01*
X140954198Y-94085619D01*
X140954197Y-94085618D01*
X140954197Y-94085614D01*
X140905161Y-93967231D01*
X140905160Y-93967230D01*
X140905157Y-93967224D01*
X140833972Y-93860689D01*
X140833969Y-93860685D01*
X140743368Y-93770084D01*
X140743364Y-93770081D01*
X140636829Y-93698896D01*
X140636820Y-93698891D01*
X140518440Y-93649857D01*
X140518434Y-93649855D01*
X140392767Y-93624858D01*
X140392765Y-93624858D01*
X140264627Y-93624858D01*
X140264625Y-93624858D01*
X140138957Y-93649855D01*
X140138951Y-93649857D01*
X140020571Y-93698891D01*
X140020562Y-93698896D01*
X139914027Y-93770081D01*
X139914023Y-93770084D01*
X139823422Y-93860685D01*
X139823419Y-93860689D01*
X139752234Y-93967224D01*
X139752229Y-93967233D01*
X139703195Y-94085613D01*
X139703193Y-94085619D01*
X139678196Y-94211286D01*
X139678196Y-94237392D01*
X139658511Y-94304431D01*
X139641877Y-94325073D01*
X137768209Y-96198741D01*
X137768205Y-96198747D01*
X137708897Y-96301470D01*
X137708896Y-96301475D01*
X137678196Y-96416049D01*
X137678196Y-98354550D01*
X137658511Y-98421589D01*
X137641877Y-98442231D01*
X137623422Y-98460685D01*
X137623419Y-98460689D01*
X137552234Y-98567224D01*
X137552229Y-98567233D01*
X137503195Y-98685613D01*
X137503193Y-98685619D01*
X137478196Y-98811286D01*
X137478196Y-98811289D01*
X137478196Y-98939427D01*
X137478196Y-98939429D01*
X137478195Y-98939429D01*
X49567461Y-98939429D01*
X49555406Y-98863316D01*
X49538501Y-98811286D01*
X49497550Y-98685251D01*
X49497549Y-98685248D01*
X49452853Y-98597529D01*
X49412547Y-98518424D01*
X49370600Y-98460689D01*
X49302501Y-98366957D01*
X49302497Y-98366952D01*
X49170101Y-98234556D01*
X49170096Y-98234552D01*
X49018633Y-98124509D01*
X49018632Y-98124508D01*
X49018630Y-98124507D01*
X48949925Y-98089500D01*
X48851805Y-98039504D01*
X48851802Y-98039503D01*
X48698794Y-97989789D01*
X48641119Y-97950352D01*
X48613920Y-97885993D01*
X48625834Y-97817147D01*
X48673078Y-97765671D01*
X48698794Y-97753927D01*
X48851802Y-97704212D01*
X48851805Y-97704211D01*
X49018630Y-97619209D01*
X49170103Y-97509158D01*
X49302496Y-97376765D01*
X49412547Y-97225292D01*
X49497549Y-97058467D01*
X49555406Y-96880400D01*
X49584696Y-96695474D01*
X49584696Y-96508242D01*
X49555406Y-96323316D01*
X49526477Y-96234282D01*
X49497550Y-96145251D01*
X49497549Y-96145248D01*
X49452853Y-96057529D01*
X49412547Y-95978424D01*
X49375652Y-95927642D01*
X49302501Y-95826957D01*
X49302497Y-95826952D01*
X49170101Y-95694556D01*
X49170096Y-95694552D01*
X49018633Y-95584509D01*
X49018632Y-95584508D01*
X49018630Y-95584507D01*
X48965184Y-95557274D01*
X48851805Y-95499504D01*
X48851802Y-95499503D01*
X48673739Y-95441648D01*
X48581275Y-95427003D01*
X48488812Y-95412358D01*
X48301580Y-95412358D01*
X48239938Y-95422121D01*
X48116652Y-95441648D01*
X47938589Y-95499503D01*
X47938586Y-95499504D01*
X47771758Y-95584509D01*
X47620295Y-95694552D01*
X47620290Y-95694556D01*
X47487894Y-95826952D01*
X47487890Y-95826957D01*
X47377847Y-95978420D01*
X47292842Y-96145248D01*
X47292841Y-96145251D01*
X47234986Y-96323314D01*
X47221391Y-96409147D01*
X47205696Y-96508242D01*
X47205696Y-96695474D01*
X47210509Y-96725863D01*
X47234986Y-96880401D01*
X47292841Y-97058464D01*
X47292842Y-97058467D01*
X47350612Y-97171846D01*
X47367989Y-97205949D01*
X47377847Y-97225295D01*
X47487890Y-97376758D01*
X47487894Y-97376763D01*
X47620290Y-97509159D01*
X47620295Y-97509163D01*
X47698400Y-97565909D01*
X47771762Y-97619209D01*
X47880816Y-97674775D01*
X47938586Y-97704211D01*
X47938589Y-97704212D01*
X48091597Y-97753927D01*
X48149272Y-97793364D01*
X48176471Y-97857723D01*
X48164557Y-97926569D01*
X48117312Y-97978045D01*
X48091597Y-97989789D01*
X47938589Y-98039503D01*
X47938586Y-98039504D01*
X47771758Y-98124509D01*
X47620295Y-98234552D01*
X47620290Y-98234556D01*
X47487894Y-98366952D01*
X47487890Y-98366957D01*
X47377847Y-98518420D01*
X47292842Y-98685248D01*
X47292841Y-98685251D01*
X47234986Y-98863314D01*
X47208370Y-99031362D01*
X47205696Y-99048242D01*
X47205696Y-99235474D01*
X47210509Y-99265863D01*
X47234986Y-99420401D01*
X47292841Y-99598464D01*
X47292842Y-99598467D01*
X47341792Y-99694534D01*
X47367989Y-99745949D01*
X47377847Y-99765295D01*
X47487890Y-99916758D01*
X47487894Y-99916763D01*
X47620290Y-100049159D01*
X47620295Y-100049163D01*
X47771757Y-100159206D01*
X47771759Y-100159207D01*
X47771762Y-100159209D01*
X47831056Y-100189420D01*
X47881851Y-100237394D01*
X47898646Y-100305215D01*
X47876109Y-100371350D01*
X47831056Y-100410389D01*
X47667200Y-100493879D01*
X47605556Y-100538664D01*
X47605556Y-100538665D01*
X48311101Y-101244210D01*
X48223625Y-101267650D01*
X48122266Y-101326169D01*
X48039507Y-101408928D01*
X47980988Y-101510287D01*
X47957548Y-101597763D01*
X47252003Y-100892218D01*
X47252002Y-100892218D01*
X47207219Y-100953859D01*
X47107958Y-101148666D01*
X47107957Y-101148669D01*
X47040398Y-101356598D01*
X47006196Y-101572541D01*
X39804196Y-101572541D01*
X39804196Y-92345051D01*
X49292196Y-92345051D01*
X49292196Y-92603664D01*
X49332652Y-92859091D01*
X49332652Y-92859092D01*
X49412570Y-93105053D01*
X49529979Y-93335480D01*
X49610159Y-93445839D01*
X49610160Y-93445840D01*
X50297033Y-92758967D01*
X50316193Y-92805222D01*
X50392635Y-92919626D01*
X50489928Y-93016919D01*
X50604332Y-93093361D01*
X50650586Y-93112519D01*
X49963712Y-93799392D01*
X49963713Y-93799394D01*
X50074073Y-93879574D01*
X50304500Y-93996983D01*
X50550462Y-94076901D01*
X50805890Y-94117358D01*
X51064502Y-94117358D01*
X51319929Y-94076901D01*
X51319930Y-94076901D01*
X51565891Y-93996983D01*
X51796315Y-93879576D01*
X51906677Y-93799392D01*
X51906678Y-93799392D01*
X51219805Y-93112520D01*
X51266060Y-93093361D01*
X51380464Y-93016919D01*
X51477757Y-92919626D01*
X51554199Y-92805222D01*
X51573357Y-92758967D01*
X52260230Y-93445840D01*
X52260230Y-93445839D01*
X52340414Y-93335477D01*
X52457821Y-93105053D01*
X52537739Y-92859092D01*
X52537739Y-92859091D01*
X52578195Y-92603667D01*
X52578196Y-92603660D01*
X52578196Y-92345051D01*
X52537739Y-92089624D01*
X52537739Y-92089623D01*
X52457821Y-91843662D01*
X52340412Y-91613235D01*
X52260232Y-91502875D01*
X52260230Y-91502874D01*
X51573357Y-92189747D01*
X51554199Y-92143494D01*
X51477757Y-92029090D01*
X51380464Y-91931797D01*
X51266060Y-91855355D01*
X51219804Y-91836195D01*
X51643459Y-91412541D01*
X53991196Y-91412541D01*
X53991196Y-91631174D01*
X54025398Y-91847117D01*
X54092957Y-92055046D01*
X54092958Y-92055049D01*
X54192216Y-92249851D01*
X54192217Y-92249853D01*
X54237002Y-92311496D01*
X54237003Y-92311496D01*
X54938057Y-91610442D01*
X54960863Y-91695552D01*
X55020106Y-91798164D01*
X55103890Y-91881948D01*
X55206502Y-91941191D01*
X55291610Y-91963995D01*
X54590556Y-92665049D01*
X54652204Y-92709838D01*
X54847004Y-92809095D01*
X54847007Y-92809096D01*
X55054936Y-92876655D01*
X55270880Y-92910858D01*
X55489512Y-92910858D01*
X55705455Y-92876655D01*
X55913384Y-92809096D01*
X55913387Y-92809095D01*
X56108191Y-92709836D01*
X56169834Y-92665049D01*
X56169835Y-92665049D01*
X55468781Y-91963996D01*
X55553890Y-91941191D01*
X55656502Y-91881948D01*
X55740286Y-91798164D01*
X55799529Y-91695552D01*
X55822333Y-91610443D01*
X56523387Y-92311497D01*
X56523387Y-92311496D01*
X56568174Y-92249853D01*
X56667433Y-92055049D01*
X56667434Y-92055046D01*
X56734993Y-91847117D01*
X56769196Y-91631174D01*
X56769196Y-91428242D01*
X60540696Y-91428242D01*
X60540696Y-91615474D01*
X60545509Y-91645863D01*
X60569986Y-91800401D01*
X60627841Y-91978464D01*
X60627842Y-91978467D01*
X60684480Y-92089623D01*
X60702989Y-92125949D01*
X60712847Y-92145295D01*
X60822890Y-92296758D01*
X60822894Y-92296763D01*
X60955290Y-92429159D01*
X60955295Y-92429163D01*
X61033400Y-92485909D01*
X61106762Y-92539209D01*
X61201817Y-92587642D01*
X61273586Y-92624211D01*
X61273589Y-92624212D01*
X61362620Y-92653139D01*
X61451654Y-92682068D01*
X61636580Y-92711358D01*
X61636581Y-92711358D01*
X61823811Y-92711358D01*
X61823812Y-92711358D01*
X62008738Y-92682068D01*
X62186805Y-92624211D01*
X62353630Y-92539209D01*
X62505103Y-92429158D01*
X62589210Y-92345051D01*
X64532196Y-92345051D01*
X64532196Y-92603664D01*
X64572652Y-92859091D01*
X64572652Y-92859092D01*
X64652570Y-93105053D01*
X64769979Y-93335480D01*
X64850159Y-93445839D01*
X64850160Y-93445840D01*
X65537033Y-92758966D01*
X65556193Y-92805222D01*
X65632635Y-92919626D01*
X65729928Y-93016919D01*
X65844332Y-93093361D01*
X65890586Y-93112519D01*
X65203712Y-93799392D01*
X65203713Y-93799394D01*
X65314073Y-93879574D01*
X65544500Y-93996983D01*
X65790462Y-94076901D01*
X66045890Y-94117358D01*
X66304502Y-94117358D01*
X66559929Y-94076901D01*
X66559930Y-94076901D01*
X66805891Y-93996983D01*
X67036315Y-93879576D01*
X67146677Y-93799392D01*
X67146678Y-93799392D01*
X66459805Y-93112520D01*
X66506060Y-93093361D01*
X66620464Y-93016919D01*
X66717757Y-92919626D01*
X66794199Y-92805222D01*
X66813357Y-92758967D01*
X67500230Y-93445840D01*
X67500230Y-93445839D01*
X67580414Y-93335477D01*
X67697821Y-93105053D01*
X67777739Y-92859092D01*
X67777739Y-92859091D01*
X67818196Y-92603664D01*
X67818196Y-92345051D01*
X67777739Y-92089624D01*
X67777739Y-92089623D01*
X67697821Y-91843662D01*
X67580412Y-91613235D01*
X67500232Y-91502875D01*
X67500230Y-91502874D01*
X66813357Y-92189747D01*
X66794199Y-92143494D01*
X66717757Y-92029090D01*
X66620464Y-91931797D01*
X66506060Y-91855355D01*
X66459804Y-91836195D01*
X67146678Y-91149322D01*
X67146677Y-91149321D01*
X67036318Y-91069141D01*
X66805891Y-90951732D01*
X66559929Y-90871814D01*
X66304502Y-90831358D01*
X66045890Y-90831358D01*
X65790462Y-90871814D01*
X65790461Y-90871814D01*
X65544500Y-90951732D01*
X65314080Y-91069137D01*
X65203713Y-91149322D01*
X65203713Y-91149323D01*
X65890586Y-91836195D01*
X65844332Y-91855355D01*
X65729928Y-91931797D01*
X65632635Y-92029090D01*
X65556193Y-92143494D01*
X65537033Y-92189748D01*
X64850161Y-91502875D01*
X64850160Y-91502875D01*
X64769975Y-91613242D01*
X64652570Y-91843662D01*
X64572652Y-92089623D01*
X64572652Y-92089624D01*
X64532196Y-92345051D01*
X62589210Y-92345051D01*
X62637496Y-92296765D01*
X62638954Y-92294757D01*
X62658909Y-92267294D01*
X62711144Y-92195396D01*
X62747547Y-92145292D01*
X62832549Y-91978467D01*
X62890406Y-91800400D01*
X62919696Y-91615474D01*
X62919696Y-91428242D01*
X62890406Y-91243316D01*
X62866033Y-91168304D01*
X62832550Y-91065251D01*
X62832549Y-91065248D01*
X62787853Y-90977529D01*
X62747547Y-90898424D01*
X62728214Y-90871814D01*
X62637501Y-90746957D01*
X62637497Y-90746952D01*
X62505101Y-90614556D01*
X62505096Y-90614552D01*
X62353633Y-90504509D01*
X62353632Y-90504508D01*
X62353630Y-90504507D01*
X62300184Y-90477274D01*
X62186805Y-90419504D01*
X62186802Y-90419503D01*
X62008739Y-90361648D01*
X61837348Y-90334502D01*
X61823812Y-90332358D01*
X61636580Y-90332358D01*
X61623044Y-90334502D01*
X61451652Y-90361648D01*
X61273589Y-90419503D01*
X61273586Y-90419504D01*
X61106758Y-90504509D01*
X60955295Y-90614552D01*
X60955290Y-90614556D01*
X60822894Y-90746952D01*
X60822890Y-90746957D01*
X60712847Y-90898420D01*
X60627842Y-91065248D01*
X60627841Y-91065251D01*
X60569986Y-91243314D01*
X60556391Y-91329147D01*
X60540696Y-91428242D01*
X56769196Y-91428242D01*
X56769196Y-91412541D01*
X56734993Y-91196598D01*
X56667434Y-90988669D01*
X56667433Y-90988666D01*
X56568176Y-90793866D01*
X56523387Y-90732218D01*
X55822333Y-91433272D01*
X55799529Y-91348164D01*
X55740286Y-91245552D01*
X55656502Y-91161768D01*
X55553890Y-91102525D01*
X55468779Y-91079719D01*
X56169834Y-90378665D01*
X56169834Y-90378664D01*
X56108191Y-90333879D01*
X56108189Y-90333878D01*
X55913387Y-90234620D01*
X55913384Y-90234619D01*
X55705455Y-90167060D01*
X55489512Y-90132858D01*
X55270880Y-90132858D01*
X55054936Y-90167060D01*
X54847007Y-90234619D01*
X54847004Y-90234620D01*
X54652197Y-90333881D01*
X54590556Y-90378664D01*
X54590556Y-90378665D01*
X55291610Y-91079719D01*
X55206502Y-91102525D01*
X55103890Y-91161768D01*
X55020106Y-91245552D01*
X54960863Y-91348164D01*
X54938057Y-91433272D01*
X54237003Y-90732218D01*
X54237002Y-90732218D01*
X54192219Y-90793859D01*
X54092958Y-90988666D01*
X54092957Y-90988669D01*
X54025398Y-91196598D01*
X53991196Y-91412541D01*
X51643459Y-91412541D01*
X51906678Y-91149322D01*
X51906677Y-91149321D01*
X51796318Y-91069141D01*
X51565891Y-90951732D01*
X51319929Y-90871814D01*
X51064502Y-90831358D01*
X50805890Y-90831358D01*
X50550462Y-90871814D01*
X50550461Y-90871814D01*
X50304500Y-90951732D01*
X50074080Y-91069137D01*
X49963713Y-91149322D01*
X49963713Y-91149323D01*
X50650586Y-91836195D01*
X50604332Y-91855355D01*
X50489928Y-91931797D01*
X50392635Y-92029090D01*
X50316193Y-92143494D01*
X50297033Y-92189748D01*
X49610161Y-91502875D01*
X49610160Y-91502875D01*
X49529975Y-91613242D01*
X49412570Y-91843662D01*
X49332652Y-92089623D01*
X49332652Y-92089624D01*
X49292196Y-92345051D01*
X39804196Y-92345051D01*
X39804196Y-89939429D01*
X101278195Y-89939429D01*
X101303193Y-90065096D01*
X101303195Y-90065102D01*
X101352229Y-90183482D01*
X101352234Y-90183491D01*
X101423419Y-90290026D01*
X101423422Y-90290030D01*
X101514023Y-90380631D01*
X101514027Y-90380634D01*
X101620562Y-90451819D01*
X101620571Y-90451824D01*
X101645044Y-90461961D01*
X101738952Y-90500859D01*
X101738956Y-90500859D01*
X101738957Y-90500860D01*
X101864624Y-90525858D01*
X101864627Y-90525858D01*
X101992767Y-90525858D01*
X102077311Y-90509040D01*
X102118440Y-90500859D01*
X102236823Y-90451823D01*
X102343365Y-90380634D01*
X102345335Y-90378664D01*
X102361823Y-90362177D01*
X102423146Y-90328692D01*
X102449504Y-90325858D01*
X104490731Y-90325858D01*
X104520171Y-90334502D01*
X104550158Y-90341026D01*
X104555173Y-90344780D01*
X104557770Y-90345543D01*
X104578412Y-90362177D01*
X104641877Y-90425642D01*
X104675362Y-90486965D01*
X104678196Y-90513323D01*
X104678196Y-90539427D01*
X104678196Y-90539429D01*
X104678195Y-90539429D01*
X104703193Y-90665096D01*
X104703195Y-90665102D01*
X104752229Y-90783482D01*
X104752234Y-90783491D01*
X104823419Y-90890026D01*
X104823422Y-90890030D01*
X104914024Y-90980632D01*
X105020562Y-91051819D01*
X105020568Y-91051822D01*
X105020569Y-91051823D01*
X105138952Y-91100859D01*
X105138956Y-91100859D01*
X105138957Y-91100860D01*
X105264624Y-91125858D01*
X105264627Y-91125858D01*
X105392767Y-91125858D01*
X105477311Y-91109040D01*
X105518440Y-91100859D01*
X105636823Y-91051823D01*
X105743365Y-90980634D01*
X105743364Y-90980634D01*
X105743368Y-90980632D01*
X105743368Y-90980631D01*
X105833969Y-90890030D01*
X105833972Y-90890027D01*
X105905161Y-90783485D01*
X105954197Y-90665102D01*
X105979196Y-90539427D01*
X105979196Y-90411289D01*
X105979196Y-90411286D01*
X105954198Y-90285619D01*
X105954197Y-90285618D01*
X105954197Y-90285614D01*
X105905161Y-90167231D01*
X105905160Y-90167230D01*
X105905157Y-90167224D01*
X105833972Y-90060689D01*
X105833969Y-90060685D01*
X105743368Y-89970084D01*
X105743364Y-89970081D01*
X105636829Y-89898896D01*
X105636820Y-89898891D01*
X105518440Y-89849857D01*
X105518434Y-89849855D01*
X105392767Y-89824858D01*
X105392765Y-89824858D01*
X105366661Y-89824858D01*
X105299622Y-89805173D01*
X105278980Y-89788539D01*
X105005312Y-89514871D01*
X105005310Y-89514869D01*
X104953946Y-89485214D01*
X104902584Y-89455559D01*
X104890476Y-89452315D01*
X104878369Y-89449071D01*
X104878366Y-89449070D01*
X104840174Y-89438836D01*
X104788005Y-89424858D01*
X104788004Y-89424858D01*
X102449504Y-89424858D01*
X102382465Y-89405173D01*
X102361823Y-89388539D01*
X102343368Y-89370084D01*
X102343364Y-89370081D01*
X102236829Y-89298896D01*
X102236820Y-89298891D01*
X102118440Y-89249857D01*
X102118434Y-89249855D01*
X101992767Y-89224858D01*
X101992765Y-89224858D01*
X101864627Y-89224858D01*
X101864625Y-89224858D01*
X101738957Y-89249855D01*
X101738951Y-89249857D01*
X101620571Y-89298891D01*
X101620562Y-89298896D01*
X101514027Y-89370081D01*
X101514023Y-89370084D01*
X101423422Y-89460685D01*
X101423419Y-89460689D01*
X101352234Y-89567224D01*
X101352229Y-89567233D01*
X101303195Y-89685613D01*
X101303193Y-89685619D01*
X101278196Y-89811286D01*
X101278196Y-89811289D01*
X101278196Y-89939427D01*
X101278196Y-89939429D01*
X101278195Y-89939429D01*
X39804196Y-89939429D01*
X39804196Y-86348242D01*
X54190696Y-86348242D01*
X54190696Y-86535474D01*
X54195509Y-86565863D01*
X54219986Y-86720401D01*
X54277841Y-86898464D01*
X54277842Y-86898467D01*
X54302546Y-86946950D01*
X54352989Y-87045949D01*
X54362847Y-87065295D01*
X54472890Y-87216758D01*
X54472894Y-87216763D01*
X54605290Y-87349159D01*
X54605295Y-87349163D01*
X54737408Y-87445148D01*
X54756762Y-87459209D01*
X54865816Y-87514775D01*
X54923586Y-87544211D01*
X54923589Y-87544212D01*
X55007150Y-87571362D01*
X55101654Y-87602068D01*
X55286580Y-87631358D01*
X55286581Y-87631358D01*
X55473811Y-87631358D01*
X55473812Y-87631358D01*
X55658738Y-87602068D01*
X55836805Y-87544211D01*
X56003630Y-87459209D01*
X56155103Y-87349158D01*
X56287496Y-87216765D01*
X56397547Y-87065292D01*
X56482549Y-86898467D01*
X56540406Y-86720400D01*
X56569696Y-86535474D01*
X56569696Y-86348242D01*
X60540696Y-86348242D01*
X60540696Y-86535474D01*
X60545509Y-86565863D01*
X60569986Y-86720401D01*
X60627841Y-86898464D01*
X60627842Y-86898467D01*
X60652546Y-86946950D01*
X60702989Y-87045949D01*
X60712847Y-87065295D01*
X60822890Y-87216758D01*
X60822894Y-87216763D01*
X60955290Y-87349159D01*
X60955295Y-87349163D01*
X61087408Y-87445148D01*
X61106762Y-87459209D01*
X61215816Y-87514775D01*
X61273586Y-87544211D01*
X61273589Y-87544212D01*
X61357150Y-87571362D01*
X61451654Y-87602068D01*
X61636580Y-87631358D01*
X61636581Y-87631358D01*
X61823811Y-87631358D01*
X61823812Y-87631358D01*
X62008738Y-87602068D01*
X62186805Y-87544211D01*
X62353630Y-87459209D01*
X62505103Y-87349158D01*
X62637496Y-87216765D01*
X62747547Y-87065292D01*
X62832549Y-86898467D01*
X62890406Y-86720400D01*
X62919696Y-86535474D01*
X62919696Y-86348242D01*
X62890406Y-86163316D01*
X62832549Y-85985249D01*
X62832549Y-85985248D01*
X62787853Y-85897529D01*
X62747547Y-85818424D01*
X62712465Y-85770138D01*
X62637501Y-85666957D01*
X62637497Y-85666952D01*
X62505101Y-85534556D01*
X62505096Y-85534552D01*
X62353633Y-85424509D01*
X62353632Y-85424508D01*
X62353630Y-85424507D01*
X62300184Y-85397274D01*
X62186805Y-85339504D01*
X62186802Y-85339503D01*
X62008739Y-85281648D01*
X61909040Y-85265857D01*
X61823812Y-85252358D01*
X61636580Y-85252358D01*
X61574938Y-85262121D01*
X61451652Y-85281648D01*
X61273589Y-85339503D01*
X61273586Y-85339504D01*
X61106758Y-85424509D01*
X60955295Y-85534552D01*
X60955290Y-85534556D01*
X60822894Y-85666952D01*
X60822890Y-85666957D01*
X60712847Y-85818420D01*
X60627842Y-85985248D01*
X60627841Y-85985251D01*
X60569986Y-86163314D01*
X60556391Y-86249147D01*
X60540696Y-86348242D01*
X56569696Y-86348242D01*
X56540406Y-86163316D01*
X56482549Y-85985249D01*
X56482549Y-85985248D01*
X56437853Y-85897529D01*
X56397547Y-85818424D01*
X56362465Y-85770138D01*
X56287501Y-85666957D01*
X56287497Y-85666952D01*
X56155101Y-85534556D01*
X56155096Y-85534552D01*
X56003633Y-85424509D01*
X56003632Y-85424508D01*
X56003630Y-85424507D01*
X55950184Y-85397274D01*
X55836805Y-85339504D01*
X55836802Y-85339503D01*
X55658739Y-85281648D01*
X55559040Y-85265857D01*
X55473812Y-85252358D01*
X55286580Y-85252358D01*
X55224938Y-85262121D01*
X55101652Y-85281648D01*
X54923589Y-85339503D01*
X54923586Y-85339504D01*
X54756758Y-85424509D01*
X54605295Y-85534552D01*
X54605290Y-85534556D01*
X54472894Y-85666952D01*
X54472890Y-85666957D01*
X54362847Y-85818420D01*
X54277842Y-85985248D01*
X54277841Y-85985251D01*
X54219986Y-86163314D01*
X54206391Y-86249147D01*
X54190696Y-86348242D01*
X39804196Y-86348242D01*
X39804196Y-82064071D01*
X103399499Y-82064071D01*
X103424497Y-82189738D01*
X103424499Y-82189744D01*
X103473533Y-82308124D01*
X103473538Y-82308133D01*
X103544723Y-82414668D01*
X103544726Y-82414672D01*
X103635327Y-82505273D01*
X103635331Y-82505276D01*
X103741866Y-82576461D01*
X103741872Y-82576464D01*
X103741873Y-82576465D01*
X103860256Y-82625501D01*
X103860260Y-82625501D01*
X103860261Y-82625502D01*
X103985928Y-82650500D01*
X103985931Y-82650500D01*
X104114071Y-82650500D01*
X104218735Y-82629680D01*
X104239744Y-82625501D01*
X104358127Y-82576465D01*
X104464669Y-82505276D01*
X104475592Y-82494353D01*
X120518195Y-82494353D01*
X120545114Y-82629680D01*
X120545117Y-82629690D01*
X120597917Y-82757162D01*
X120597924Y-82757175D01*
X120674581Y-82871899D01*
X120674584Y-82871903D01*
X120772150Y-82969469D01*
X120772154Y-82969472D01*
X120886878Y-83046129D01*
X120886891Y-83046136D01*
X121014363Y-83098936D01*
X121014368Y-83098938D01*
X121014372Y-83098938D01*
X121014373Y-83098939D01*
X121149700Y-83125858D01*
X121149703Y-83125858D01*
X121287691Y-83125858D01*
X121378737Y-83107747D01*
X121423024Y-83098938D01*
X121550507Y-83046133D01*
X121665238Y-82969472D01*
X121762810Y-82871900D01*
X121839471Y-82757169D01*
X121892276Y-82629686D01*
X121917023Y-82505276D01*
X121919196Y-82494353D01*
X121919196Y-82356362D01*
X121892277Y-82221035D01*
X121892276Y-82221034D01*
X121892276Y-82221030D01*
X121879317Y-82189744D01*
X121839474Y-82093553D01*
X121839467Y-82093540D01*
X121762810Y-81978816D01*
X121762807Y-81978812D01*
X121665241Y-81881246D01*
X121665237Y-81881243D01*
X121550513Y-81804586D01*
X121550500Y-81804579D01*
X121423028Y-81751779D01*
X121423018Y-81751776D01*
X121410460Y-81749278D01*
X136978195Y-81749278D01*
X137007036Y-81894265D01*
X137007039Y-81894275D01*
X137063608Y-82030846D01*
X137063615Y-82030859D01*
X137145744Y-82153773D01*
X137149610Y-82158484D01*
X137147483Y-82160228D01*
X137175332Y-82211091D01*
X137178196Y-82237587D01*
X137178196Y-87347833D01*
X137212157Y-87474577D01*
X137215712Y-87487843D01*
X137215713Y-87487846D01*
X137288183Y-87613369D01*
X137288187Y-87613374D01*
X137441877Y-87767064D01*
X137475362Y-87828387D01*
X137476963Y-87843278D01*
X137477599Y-87843216D01*
X137478195Y-87849278D01*
X137507036Y-87994265D01*
X137507039Y-87994275D01*
X137563608Y-88130846D01*
X137563615Y-88130859D01*
X137645744Y-88253773D01*
X137645747Y-88253777D01*
X137750276Y-88358306D01*
X137750280Y-88358309D01*
X137873194Y-88440438D01*
X137873207Y-88440445D01*
X137994040Y-88490495D01*
X138009783Y-88497016D01*
X138009787Y-88497016D01*
X138009788Y-88497017D01*
X138154775Y-88525858D01*
X138154778Y-88525858D01*
X138302616Y-88525858D01*
X138400158Y-88506454D01*
X138447609Y-88497016D01*
X138584191Y-88440442D01*
X138707112Y-88358309D01*
X138811647Y-88253774D01*
X138893780Y-88130853D01*
X138950354Y-87994271D01*
X138965083Y-87920226D01*
X138979196Y-87849278D01*
X138979196Y-87701437D01*
X138950355Y-87556450D01*
X138950354Y-87556449D01*
X138950354Y-87556445D01*
X138945287Y-87544211D01*
X138893783Y-87419869D01*
X138893776Y-87419856D01*
X138811647Y-87296942D01*
X138811644Y-87296938D01*
X138707115Y-87192409D01*
X138707111Y-87192406D01*
X138584197Y-87110277D01*
X138584184Y-87110270D01*
X138447613Y-87053701D01*
X138447604Y-87053698D01*
X138379003Y-87040052D01*
X138317092Y-87007666D01*
X138282519Y-86946950D01*
X138279196Y-86918435D01*
X138279196Y-82237587D01*
X138298881Y-82170548D01*
X138308282Y-82158894D01*
X138307782Y-82158484D01*
X138311642Y-82153778D01*
X138311647Y-82153774D01*
X138393780Y-82030853D01*
X138450354Y-81894271D01*
X138468194Y-81804586D01*
X138479196Y-81749278D01*
X138479196Y-81601437D01*
X138450355Y-81456450D01*
X138450354Y-81456449D01*
X138450354Y-81456445D01*
X138450352Y-81456440D01*
X138393783Y-81319869D01*
X138393776Y-81319856D01*
X138315620Y-81202887D01*
X138311646Y-81196940D01*
X138207115Y-81092409D01*
X138207111Y-81092406D01*
X138084197Y-81010277D01*
X138084184Y-81010270D01*
X137947613Y-80953701D01*
X137947603Y-80953698D01*
X137802616Y-80924858D01*
X137802614Y-80924858D01*
X137654778Y-80924858D01*
X137654776Y-80924858D01*
X137509788Y-80953698D01*
X137509778Y-80953701D01*
X137373207Y-81010270D01*
X137373194Y-81010277D01*
X137250280Y-81092406D01*
X137250276Y-81092409D01*
X137145747Y-81196938D01*
X137145744Y-81196942D01*
X137063615Y-81319856D01*
X137063608Y-81319869D01*
X137007039Y-81456440D01*
X137007036Y-81456450D01*
X136978196Y-81601437D01*
X136978196Y-81601440D01*
X136978196Y-81749276D01*
X136978196Y-81749278D01*
X136978195Y-81749278D01*
X121410460Y-81749278D01*
X121287691Y-81724858D01*
X121287689Y-81724858D01*
X121149703Y-81724858D01*
X121149701Y-81724858D01*
X121014373Y-81751776D01*
X121014363Y-81751779D01*
X120886891Y-81804579D01*
X120886878Y-81804586D01*
X120772154Y-81881243D01*
X120772150Y-81881246D01*
X120674584Y-81978812D01*
X120674581Y-81978816D01*
X120597924Y-82093540D01*
X120597917Y-82093553D01*
X120545117Y-82221025D01*
X120545114Y-82221035D01*
X120518196Y-82356362D01*
X120518196Y-82356365D01*
X120518196Y-82494351D01*
X120518196Y-82494353D01*
X120518195Y-82494353D01*
X104475592Y-82494353D01*
X104555276Y-82414669D01*
X104626465Y-82308127D01*
X104675501Y-82189744D01*
X104700500Y-82064069D01*
X104700500Y-82064061D01*
X104700670Y-82062344D01*
X104701012Y-82061496D01*
X104701689Y-82058094D01*
X104702334Y-82058222D01*
X104726832Y-81997557D01*
X104783868Y-81957199D01*
X104824073Y-81950500D01*
X105559308Y-81950500D01*
X105559309Y-81950500D01*
X105649673Y-81926286D01*
X105673887Y-81919799D01*
X105776614Y-81860489D01*
X105811424Y-81825678D01*
X105824992Y-81817680D01*
X105844212Y-81812831D01*
X105861607Y-81803334D01*
X105887965Y-81800500D01*
X105942767Y-81800500D01*
X106027311Y-81783682D01*
X106068440Y-81775501D01*
X106186823Y-81726465D01*
X106293365Y-81655276D01*
X106383972Y-81564669D01*
X106397535Y-81544369D01*
X106409505Y-81526457D01*
X106455157Y-81458133D01*
X106455157Y-81458132D01*
X106455161Y-81458127D01*
X106504197Y-81339744D01*
X106512378Y-81298615D01*
X106529196Y-81214071D01*
X106529196Y-81085928D01*
X106504198Y-80960261D01*
X106504197Y-80960257D01*
X106504197Y-80960256D01*
X106455161Y-80841873D01*
X106455160Y-80841872D01*
X106455157Y-80841866D01*
X106383972Y-80735331D01*
X106383969Y-80735327D01*
X106293368Y-80644726D01*
X106293364Y-80644723D01*
X106186829Y-80573538D01*
X106186820Y-80573533D01*
X106068440Y-80524499D01*
X106068434Y-80524497D01*
X105942767Y-80499500D01*
X105942765Y-80499500D01*
X105814627Y-80499500D01*
X105814625Y-80499500D01*
X105688957Y-80524497D01*
X105688951Y-80524499D01*
X105570571Y-80573533D01*
X105570562Y-80573538D01*
X105464027Y-80644723D01*
X105464023Y-80644726D01*
X105373422Y-80735327D01*
X105373419Y-80735331D01*
X105302234Y-80841866D01*
X105302229Y-80841875D01*
X105253194Y-80960257D01*
X105252816Y-80961505D01*
X105252440Y-80962077D01*
X105250864Y-80965884D01*
X105250141Y-80965584D01*
X105214513Y-81019941D01*
X105150699Y-81048392D01*
X105134158Y-81049500D01*
X104490691Y-81049500D01*
X104400325Y-81073713D01*
X104400324Y-81073712D01*
X104376115Y-81080200D01*
X104376106Y-81080204D01*
X104273392Y-81139505D01*
X104273384Y-81139511D01*
X104099715Y-81313181D01*
X104038392Y-81346666D01*
X104012034Y-81349500D01*
X103985929Y-81349500D01*
X103860261Y-81374497D01*
X103860255Y-81374499D01*
X103741875Y-81423533D01*
X103741866Y-81423538D01*
X103635331Y-81494723D01*
X103635327Y-81494726D01*
X103544726Y-81585327D01*
X103544723Y-81585331D01*
X103473538Y-81691866D01*
X103473533Y-81691875D01*
X103424499Y-81810255D01*
X103424497Y-81810261D01*
X103399500Y-81935928D01*
X103399500Y-81935931D01*
X103399500Y-82064069D01*
X103399500Y-82064071D01*
X103399499Y-82064071D01*
X39804196Y-82064071D01*
X39804196Y-78975013D01*
X89000000Y-78975013D01*
X89000000Y-79400000D01*
X89819670Y-79400000D01*
X89799925Y-79419745D01*
X89750556Y-79505255D01*
X89725000Y-79600630D01*
X89725000Y-79699370D01*
X89750556Y-79794745D01*
X89799925Y-79880255D01*
X89819670Y-79900000D01*
X89000001Y-79900000D01*
X89000001Y-80324986D01*
X89010494Y-80427697D01*
X89065641Y-80594119D01*
X89065643Y-80594124D01*
X89157684Y-80743345D01*
X89281654Y-80867315D01*
X89430875Y-80959356D01*
X89430880Y-80959358D01*
X89597302Y-81014505D01*
X89597309Y-81014506D01*
X89700019Y-81024999D01*
X89849999Y-81024999D01*
X89850000Y-81024998D01*
X89850000Y-79930330D01*
X89869745Y-79950075D01*
X89955255Y-79999444D01*
X90050630Y-80025000D01*
X90149370Y-80025000D01*
X90244745Y-79999444D01*
X90330255Y-79950075D01*
X90350000Y-79930330D01*
X90350000Y-81024999D01*
X90499972Y-81024999D01*
X90499986Y-81024998D01*
X90602697Y-81014505D01*
X90769119Y-80959358D01*
X90769124Y-80959356D01*
X90918345Y-80867315D01*
X91042315Y-80743345D01*
X91134356Y-80594124D01*
X91134358Y-80594119D01*
X91163841Y-80505146D01*
X91203613Y-80447701D01*
X91268129Y-80420878D01*
X91336905Y-80433193D01*
X91384649Y-80475259D01*
X91400535Y-80499034D01*
X91400538Y-80499038D01*
X91525961Y-80624461D01*
X91525965Y-80624464D01*
X91673446Y-80723009D01*
X91673459Y-80723016D01*
X91720173Y-80742365D01*
X91837334Y-80790894D01*
X91837336Y-80790894D01*
X91837341Y-80790896D01*
X92011304Y-80825499D01*
X92011307Y-80825500D01*
X92011309Y-80825500D01*
X92188693Y-80825500D01*
X92188694Y-80825499D01*
X92246682Y-80813964D01*
X92362658Y-80790896D01*
X92362661Y-80790894D01*
X92362666Y-80790894D01*
X92526547Y-80723013D01*
X92674035Y-80624464D01*
X92799464Y-80499035D01*
X92898013Y-80351547D01*
X92965894Y-80187666D01*
X92975974Y-80136994D01*
X93000499Y-80013695D01*
X93000500Y-80013693D01*
X93000500Y-79494353D01*
X120518195Y-79494353D01*
X120545114Y-79629680D01*
X120545117Y-79629690D01*
X120597917Y-79757162D01*
X120597924Y-79757175D01*
X120674581Y-79871899D01*
X120674584Y-79871903D01*
X120772150Y-79969469D01*
X120772154Y-79969472D01*
X120886878Y-80046129D01*
X120886891Y-80046136D01*
X121014363Y-80098936D01*
X121014368Y-80098938D01*
X121014372Y-80098938D01*
X121014373Y-80098939D01*
X121149700Y-80125858D01*
X121149703Y-80125858D01*
X121287691Y-80125858D01*
X121378737Y-80107747D01*
X121423024Y-80098938D01*
X121550507Y-80046133D01*
X121563408Y-80037513D01*
X141578696Y-80037513D01*
X141578696Y-80685358D01*
X142495684Y-80685358D01*
X142462771Y-80742365D01*
X142428696Y-80869532D01*
X142428696Y-81001184D01*
X142462771Y-81128351D01*
X142495684Y-81185358D01*
X141578696Y-81185358D01*
X141578696Y-81833202D01*
X141585097Y-81892730D01*
X141585099Y-81892737D01*
X141635341Y-82027444D01*
X141635345Y-82027451D01*
X141721505Y-82142545D01*
X141721508Y-82142548D01*
X141836602Y-82228708D01*
X141836609Y-82228712D01*
X141971316Y-82278954D01*
X141971323Y-82278956D01*
X142030851Y-82285357D01*
X142030868Y-82285358D01*
X142227609Y-82285358D01*
X142294648Y-82305043D01*
X142340403Y-82357847D01*
X142350347Y-82427005D01*
X142321322Y-82490561D01*
X142300494Y-82509676D01*
X142179200Y-82597799D01*
X142051141Y-82725858D01*
X142051137Y-82725863D01*
X141944702Y-82872360D01*
X141862484Y-83033718D01*
X141862483Y-83033721D01*
X141806525Y-83205947D01*
X141778196Y-83384806D01*
X141778196Y-83565909D01*
X141806525Y-83744768D01*
X141862483Y-83916994D01*
X141862484Y-83916997D01*
X141944702Y-84078355D01*
X142051137Y-84224852D01*
X142051141Y-84224857D01*
X142179196Y-84352912D01*
X142179201Y-84352916D01*
X142306983Y-84445754D01*
X142325702Y-84459354D01*
X142431180Y-84513098D01*
X142487056Y-84541569D01*
X142487059Y-84541570D01*
X142573172Y-84569549D01*
X142659287Y-84597529D01*
X142732335Y-84609098D01*
X142819374Y-84622885D01*
X142882509Y-84652814D01*
X142919440Y-84712126D01*
X142918442Y-84781989D01*
X142879832Y-84840221D01*
X142819374Y-84867831D01*
X142659285Y-84893187D01*
X142487059Y-84949145D01*
X142487056Y-84949146D01*
X142325698Y-85031364D01*
X142179201Y-85137799D01*
X142179196Y-85137803D01*
X142051141Y-85265858D01*
X142051137Y-85265863D01*
X141944702Y-85412360D01*
X141862484Y-85573718D01*
X141862483Y-85573721D01*
X141806525Y-85745947D01*
X141778196Y-85924806D01*
X141778196Y-86105909D01*
X141806525Y-86284768D01*
X141862483Y-86456994D01*
X141862484Y-86456997D01*
X141944702Y-86618355D01*
X142051137Y-86764852D01*
X142051141Y-86764857D01*
X142179196Y-86892912D01*
X142179201Y-86892916D01*
X142306983Y-86985754D01*
X142325702Y-86999354D01*
X142431180Y-87053098D01*
X142487056Y-87081569D01*
X142487059Y-87081570D01*
X142573172Y-87109549D01*
X142659287Y-87137529D01*
X142732335Y-87149098D01*
X142819374Y-87162885D01*
X142882509Y-87192814D01*
X142919440Y-87252126D01*
X142918442Y-87321989D01*
X142879832Y-87380221D01*
X142819374Y-87407831D01*
X142659285Y-87433187D01*
X142487059Y-87489145D01*
X142487056Y-87489146D01*
X142325698Y-87571364D01*
X142179201Y-87677799D01*
X142179196Y-87677803D01*
X142051141Y-87805858D01*
X142051137Y-87805863D01*
X141944702Y-87952360D01*
X141862484Y-88113718D01*
X141862483Y-88113721D01*
X141806525Y-88285947D01*
X141778196Y-88464806D01*
X141778196Y-88645909D01*
X141806525Y-88824768D01*
X141862483Y-88996994D01*
X141862484Y-88996997D01*
X141944702Y-89158355D01*
X142051137Y-89304852D01*
X142051141Y-89304857D01*
X142179196Y-89432912D01*
X142179201Y-89432916D01*
X142217428Y-89460689D01*
X142325702Y-89539354D01*
X142431180Y-89593098D01*
X142487056Y-89621569D01*
X142487059Y-89621570D01*
X142573172Y-89649549D01*
X142659287Y-89677529D01*
X142742125Y-89690649D01*
X142838145Y-89705858D01*
X142838150Y-89705858D01*
X143019247Y-89705858D01*
X143105955Y-89692123D01*
X143198105Y-89677529D01*
X143370335Y-89621569D01*
X143531690Y-89539354D01*
X143678197Y-89432911D01*
X143806249Y-89304859D01*
X143912692Y-89158352D01*
X143994907Y-88996997D01*
X144050867Y-88824767D01*
X144073761Y-88680221D01*
X144079196Y-88645909D01*
X144079196Y-88464806D01*
X144052990Y-88299354D01*
X144050867Y-88285949D01*
X144020638Y-88192911D01*
X143994908Y-88113721D01*
X143994907Y-88113718D01*
X143961483Y-88048122D01*
X143912692Y-87952364D01*
X143818397Y-87822577D01*
X143806254Y-87805863D01*
X143806250Y-87805858D01*
X143678195Y-87677803D01*
X143678190Y-87677799D01*
X143531693Y-87571364D01*
X143531692Y-87571363D01*
X143531690Y-87571362D01*
X143478405Y-87544212D01*
X143370335Y-87489146D01*
X143370332Y-87489145D01*
X143198106Y-87433187D01*
X143038017Y-87407831D01*
X142974882Y-87377902D01*
X142937951Y-87318590D01*
X142938949Y-87248728D01*
X142977559Y-87190495D01*
X143038017Y-87162885D01*
X143108121Y-87151780D01*
X143198105Y-87137529D01*
X143370335Y-87081569D01*
X143531690Y-86999354D01*
X143678197Y-86892911D01*
X143806249Y-86764859D01*
X143912692Y-86618352D01*
X143994907Y-86456997D01*
X144050867Y-86284767D01*
X144073761Y-86140221D01*
X144079196Y-86105909D01*
X144079196Y-85924806D01*
X144052990Y-85759354D01*
X144050867Y-85745949D01*
X144020568Y-85652696D01*
X143994908Y-85573721D01*
X143994907Y-85573718D01*
X143949832Y-85485255D01*
X143912692Y-85412364D01*
X143859757Y-85339505D01*
X143806254Y-85265863D01*
X143806250Y-85265858D01*
X143678195Y-85137803D01*
X143678190Y-85137799D01*
X143531693Y-85031364D01*
X143531692Y-85031363D01*
X143531690Y-85031362D01*
X143479996Y-85005022D01*
X143370335Y-84949146D01*
X143370332Y-84949145D01*
X143198106Y-84893187D01*
X143038017Y-84867831D01*
X142974882Y-84837902D01*
X142937951Y-84778590D01*
X142938949Y-84708728D01*
X142977559Y-84650495D01*
X143038017Y-84622885D01*
X143108121Y-84611780D01*
X143198105Y-84597529D01*
X143370335Y-84541569D01*
X143531690Y-84459354D01*
X143678197Y-84352911D01*
X143806249Y-84224859D01*
X143912692Y-84078352D01*
X143994907Y-83916997D01*
X144050867Y-83744767D01*
X144073761Y-83600221D01*
X144079196Y-83565909D01*
X144079196Y-83384806D01*
X144052990Y-83219354D01*
X144050867Y-83205949D01*
X144016097Y-83098936D01*
X143994908Y-83033721D01*
X143994907Y-83033718D01*
X143962170Y-82969469D01*
X143912692Y-82872364D01*
X143829003Y-82757175D01*
X143806254Y-82725863D01*
X143806250Y-82725858D01*
X143678191Y-82597799D01*
X143556898Y-82509676D01*
X143514232Y-82454347D01*
X143508253Y-82384733D01*
X143540858Y-82322938D01*
X143601697Y-82288581D01*
X143629783Y-82285358D01*
X143826524Y-82285358D01*
X143826540Y-82285357D01*
X143886068Y-82278956D01*
X143886075Y-82278954D01*
X144020782Y-82228712D01*
X144020789Y-82228708D01*
X144135883Y-82142548D01*
X144135886Y-82142545D01*
X144222046Y-82027451D01*
X144222050Y-82027444D01*
X144272292Y-81892737D01*
X144272294Y-81892730D01*
X144278695Y-81833202D01*
X144278696Y-81833185D01*
X144278696Y-81185358D01*
X143361708Y-81185358D01*
X143394621Y-81128351D01*
X143428696Y-81001184D01*
X143428696Y-80869532D01*
X143394621Y-80742365D01*
X143361708Y-80685358D01*
X144278696Y-80685358D01*
X144278696Y-80037530D01*
X144278695Y-80037513D01*
X144272294Y-79977985D01*
X144272292Y-79977978D01*
X144222050Y-79843271D01*
X144222046Y-79843264D01*
X144135886Y-79728170D01*
X144135883Y-79728167D01*
X144020789Y-79642007D01*
X144020782Y-79642003D01*
X143886075Y-79591761D01*
X143886068Y-79591759D01*
X143826540Y-79585358D01*
X143178696Y-79585358D01*
X143178696Y-80502346D01*
X143121689Y-80469433D01*
X142994522Y-80435358D01*
X142862870Y-80435358D01*
X142735703Y-80469433D01*
X142678696Y-80502346D01*
X142678696Y-79585358D01*
X142030851Y-79585358D01*
X141971323Y-79591759D01*
X141971316Y-79591761D01*
X141836609Y-79642003D01*
X141836602Y-79642007D01*
X141721508Y-79728167D01*
X141721505Y-79728170D01*
X141635345Y-79843264D01*
X141635341Y-79843271D01*
X141585099Y-79977978D01*
X141585097Y-79977985D01*
X141578696Y-80037513D01*
X121563408Y-80037513D01*
X121665238Y-79969472D01*
X121669943Y-79964767D01*
X121688183Y-79946528D01*
X121762807Y-79871903D01*
X121762810Y-79871900D01*
X121839471Y-79757169D01*
X121892276Y-79629686D01*
X121919196Y-79494351D01*
X121919196Y-79356365D01*
X121919196Y-79356362D01*
X121892277Y-79221035D01*
X121892276Y-79221034D01*
X121892276Y-79221030D01*
X121847252Y-79112332D01*
X121839474Y-79093553D01*
X121839467Y-79093540D01*
X121762810Y-78978816D01*
X121762807Y-78978812D01*
X121665241Y-78881246D01*
X121665237Y-78881243D01*
X121550513Y-78804586D01*
X121550500Y-78804579D01*
X121423028Y-78751779D01*
X121423018Y-78751776D01*
X121287691Y-78724858D01*
X121287689Y-78724858D01*
X121149703Y-78724858D01*
X121149701Y-78724858D01*
X121014373Y-78751776D01*
X121014363Y-78751779D01*
X120886891Y-78804579D01*
X120886878Y-78804586D01*
X120772154Y-78881243D01*
X120772150Y-78881246D01*
X120674584Y-78978812D01*
X120674581Y-78978816D01*
X120597924Y-79093540D01*
X120597917Y-79093553D01*
X120545117Y-79221025D01*
X120545114Y-79221035D01*
X120518196Y-79356362D01*
X120518196Y-79356365D01*
X120518196Y-79494351D01*
X120518196Y-79494353D01*
X120518195Y-79494353D01*
X93000500Y-79494353D01*
X93000500Y-79286306D01*
X93000499Y-79286304D01*
X92965896Y-79112341D01*
X92965893Y-79112332D01*
X92957620Y-79092360D01*
X92929868Y-79025358D01*
X92898016Y-78948459D01*
X92898009Y-78948446D01*
X92799464Y-78800965D01*
X92799461Y-78800961D01*
X92674038Y-78675538D01*
X92674034Y-78675535D01*
X92526553Y-78576990D01*
X92526540Y-78576983D01*
X92362667Y-78509106D01*
X92362658Y-78509103D01*
X92188694Y-78474500D01*
X92188691Y-78474500D01*
X92011309Y-78474500D01*
X92011306Y-78474500D01*
X91837341Y-78509103D01*
X91837332Y-78509106D01*
X91673459Y-78576983D01*
X91673446Y-78576990D01*
X91525965Y-78675535D01*
X91525961Y-78675538D01*
X91400536Y-78800963D01*
X91384648Y-78824742D01*
X91331035Y-78869546D01*
X91261710Y-78878252D01*
X91198683Y-78848096D01*
X91163841Y-78794853D01*
X91134358Y-78705880D01*
X91134356Y-78705875D01*
X91042315Y-78556654D01*
X90918345Y-78432684D01*
X90769124Y-78340643D01*
X90769119Y-78340641D01*
X90602697Y-78285494D01*
X90602690Y-78285493D01*
X90499986Y-78275000D01*
X90350000Y-78275000D01*
X90350000Y-79369670D01*
X90330255Y-79349925D01*
X90244745Y-79300556D01*
X90149370Y-79275000D01*
X90050630Y-79275000D01*
X89955255Y-79300556D01*
X89869745Y-79349925D01*
X89850000Y-79369670D01*
X89850000Y-78275000D01*
X89700027Y-78275000D01*
X89700012Y-78275001D01*
X89597302Y-78285494D01*
X89430880Y-78340641D01*
X89430875Y-78340643D01*
X89281654Y-78432684D01*
X89157684Y-78556654D01*
X89065643Y-78705875D01*
X89065641Y-78705880D01*
X89010494Y-78872302D01*
X89010493Y-78872309D01*
X89000000Y-78975013D01*
X39804196Y-78975013D01*
X39804196Y-77584806D01*
X126958196Y-77584806D01*
X126958196Y-77765909D01*
X126986525Y-77944768D01*
X127042483Y-78116994D01*
X127042484Y-78116997D01*
X127095767Y-78221569D01*
X127124280Y-78277528D01*
X127124702Y-78278355D01*
X127231137Y-78424852D01*
X127231141Y-78424857D01*
X127359196Y-78552912D01*
X127359201Y-78552916D01*
X127464124Y-78629146D01*
X127505702Y-78659354D01*
X127597004Y-78705875D01*
X127667056Y-78741569D01*
X127667059Y-78741570D01*
X127746693Y-78767444D01*
X127839287Y-78797529D01*
X127922125Y-78810649D01*
X128018145Y-78825858D01*
X128018150Y-78825858D01*
X128199247Y-78825858D01*
X128285955Y-78812123D01*
X128378105Y-78797529D01*
X128550335Y-78741569D01*
X128711690Y-78659354D01*
X128858197Y-78552911D01*
X128986249Y-78424859D01*
X129092692Y-78278352D01*
X129174907Y-78116997D01*
X129230867Y-77944767D01*
X129245118Y-77854783D01*
X129256223Y-77784679D01*
X129286152Y-77721544D01*
X129345464Y-77684613D01*
X129415326Y-77685611D01*
X129473559Y-77724221D01*
X129501169Y-77784679D01*
X129526525Y-77944768D01*
X129582483Y-78116994D01*
X129582484Y-78116997D01*
X129635767Y-78221569D01*
X129664280Y-78277528D01*
X129664702Y-78278355D01*
X129771137Y-78424852D01*
X129771141Y-78424857D01*
X129899196Y-78552912D01*
X129899201Y-78552916D01*
X130004124Y-78629146D01*
X130045702Y-78659354D01*
X130137004Y-78705875D01*
X130207056Y-78741569D01*
X130207059Y-78741570D01*
X130286693Y-78767444D01*
X130379287Y-78797529D01*
X130462125Y-78810649D01*
X130558145Y-78825858D01*
X130558150Y-78825858D01*
X130739247Y-78825858D01*
X130825955Y-78812123D01*
X130918105Y-78797529D01*
X131090335Y-78741569D01*
X131251690Y-78659354D01*
X131398197Y-78552911D01*
X131526249Y-78424859D01*
X131632692Y-78278352D01*
X131714907Y-78116997D01*
X131770867Y-77944767D01*
X131785118Y-77854783D01*
X131796223Y-77784679D01*
X131826152Y-77721544D01*
X131885464Y-77684613D01*
X131955326Y-77685611D01*
X132013559Y-77724221D01*
X132041169Y-77784679D01*
X132066525Y-77944768D01*
X132122483Y-78116994D01*
X132122484Y-78116997D01*
X132175767Y-78221569D01*
X132204280Y-78277528D01*
X132204702Y-78278355D01*
X132311137Y-78424852D01*
X132311141Y-78424857D01*
X132439196Y-78552912D01*
X132439201Y-78552916D01*
X132544124Y-78629146D01*
X132585702Y-78659354D01*
X132677004Y-78705875D01*
X132747056Y-78741569D01*
X132747059Y-78741570D01*
X132826693Y-78767444D01*
X132919287Y-78797529D01*
X133002125Y-78810649D01*
X133098145Y-78825858D01*
X133098150Y-78825858D01*
X133279247Y-78825858D01*
X133365955Y-78812123D01*
X133458105Y-78797529D01*
X133630335Y-78741569D01*
X133791690Y-78659354D01*
X133938197Y-78552911D01*
X134066249Y-78424859D01*
X134066251Y-78424855D01*
X134066254Y-78424853D01*
X134154378Y-78303560D01*
X134209707Y-78260894D01*
X134279321Y-78254915D01*
X134341116Y-78287520D01*
X134375473Y-78348359D01*
X134378696Y-78376445D01*
X134378696Y-78573202D01*
X134385097Y-78632730D01*
X134385099Y-78632737D01*
X134435341Y-78767444D01*
X134435345Y-78767451D01*
X134521505Y-78882545D01*
X134521508Y-78882548D01*
X134636602Y-78968708D01*
X134636609Y-78968712D01*
X134771316Y-79018954D01*
X134771323Y-79018956D01*
X134830851Y-79025357D01*
X134830868Y-79025358D01*
X135478696Y-79025358D01*
X135478696Y-78108370D01*
X135535703Y-78141283D01*
X135662870Y-78175358D01*
X135794522Y-78175358D01*
X135921689Y-78141283D01*
X135978696Y-78108370D01*
X135978696Y-79025358D01*
X136626524Y-79025358D01*
X136626540Y-79025357D01*
X136686068Y-79018956D01*
X136686075Y-79018954D01*
X136820782Y-78968712D01*
X136820789Y-78968708D01*
X136935883Y-78882548D01*
X136935886Y-78882545D01*
X137022046Y-78767451D01*
X137022050Y-78767444D01*
X137072292Y-78632737D01*
X137072294Y-78632730D01*
X137078695Y-78573202D01*
X137078696Y-78573185D01*
X137078696Y-77925358D01*
X136161708Y-77925358D01*
X136194621Y-77868351D01*
X136228696Y-77741184D01*
X136228696Y-77609532D01*
X136194621Y-77482365D01*
X136161708Y-77425358D01*
X137078696Y-77425358D01*
X137078696Y-76777530D01*
X137078695Y-76777513D01*
X137072294Y-76717985D01*
X137072292Y-76717978D01*
X137022050Y-76583271D01*
X137022046Y-76583264D01*
X136935886Y-76468170D01*
X136935883Y-76468167D01*
X136820789Y-76382007D01*
X136820782Y-76382003D01*
X136686075Y-76331761D01*
X136686068Y-76331759D01*
X136626540Y-76325358D01*
X135978696Y-76325358D01*
X135978696Y-77242346D01*
X135921689Y-77209433D01*
X135794522Y-77175358D01*
X135662870Y-77175358D01*
X135535703Y-77209433D01*
X135478696Y-77242346D01*
X135478696Y-76325358D01*
X134830851Y-76325358D01*
X134771323Y-76331759D01*
X134771316Y-76331761D01*
X134636609Y-76382003D01*
X134636602Y-76382007D01*
X134521508Y-76468167D01*
X134521505Y-76468170D01*
X134435345Y-76583264D01*
X134435341Y-76583271D01*
X134385099Y-76717978D01*
X134385097Y-76717985D01*
X134378696Y-76777513D01*
X134378696Y-76974270D01*
X134359011Y-77041309D01*
X134306207Y-77087064D01*
X134237049Y-77097008D01*
X134173493Y-77067983D01*
X134154378Y-77047155D01*
X134066254Y-76925863D01*
X134066250Y-76925858D01*
X133938195Y-76797803D01*
X133938190Y-76797799D01*
X133791693Y-76691364D01*
X133791692Y-76691363D01*
X133791690Y-76691362D01*
X133739996Y-76665022D01*
X133630335Y-76609146D01*
X133630332Y-76609145D01*
X133458106Y-76553187D01*
X133279247Y-76524858D01*
X133279242Y-76524858D01*
X133098150Y-76524858D01*
X133098145Y-76524858D01*
X132919285Y-76553187D01*
X132747059Y-76609145D01*
X132747056Y-76609146D01*
X132585698Y-76691364D01*
X132439201Y-76797799D01*
X132439196Y-76797803D01*
X132311141Y-76925858D01*
X132311137Y-76925863D01*
X132204702Y-77072360D01*
X132122484Y-77233718D01*
X132122483Y-77233721D01*
X132066525Y-77405947D01*
X132041169Y-77566036D01*
X132011240Y-77629171D01*
X131951928Y-77666102D01*
X131882065Y-77665104D01*
X131823833Y-77626494D01*
X131796223Y-77566036D01*
X131773941Y-77425358D01*
X131770867Y-77405949D01*
X131714907Y-77233719D01*
X131714907Y-77233718D01*
X131685170Y-77175358D01*
X131632692Y-77072364D01*
X131561423Y-76974270D01*
X131526254Y-76925863D01*
X131526250Y-76925858D01*
X131398195Y-76797803D01*
X131398190Y-76797799D01*
X131251693Y-76691364D01*
X131251692Y-76691363D01*
X131251690Y-76691362D01*
X131199996Y-76665022D01*
X131090335Y-76609146D01*
X131090332Y-76609145D01*
X130918106Y-76553187D01*
X130739247Y-76524858D01*
X130739242Y-76524858D01*
X130558150Y-76524858D01*
X130558145Y-76524858D01*
X130379285Y-76553187D01*
X130207059Y-76609145D01*
X130207056Y-76609146D01*
X130045698Y-76691364D01*
X129899201Y-76797799D01*
X129899196Y-76797803D01*
X129771141Y-76925858D01*
X129771137Y-76925863D01*
X129664702Y-77072360D01*
X129582484Y-77233718D01*
X129582483Y-77233721D01*
X129526525Y-77405947D01*
X129501169Y-77566036D01*
X129471240Y-77629171D01*
X129411928Y-77666102D01*
X129342065Y-77665104D01*
X129283833Y-77626494D01*
X129256223Y-77566036D01*
X129233941Y-77425358D01*
X129230867Y-77405949D01*
X129174907Y-77233719D01*
X129174907Y-77233718D01*
X129145170Y-77175358D01*
X129092692Y-77072364D01*
X129021423Y-76974270D01*
X128986254Y-76925863D01*
X128986250Y-76925858D01*
X128858195Y-76797803D01*
X128858190Y-76797799D01*
X128711693Y-76691364D01*
X128711692Y-76691363D01*
X128711690Y-76691362D01*
X128659996Y-76665022D01*
X128550335Y-76609146D01*
X128550332Y-76609145D01*
X128378106Y-76553187D01*
X128199247Y-76524858D01*
X128199242Y-76524858D01*
X128018150Y-76524858D01*
X128018145Y-76524858D01*
X127839285Y-76553187D01*
X127667059Y-76609145D01*
X127667056Y-76609146D01*
X127505698Y-76691364D01*
X127359201Y-76797799D01*
X127359196Y-76797803D01*
X127231141Y-76925858D01*
X127231137Y-76925863D01*
X127124702Y-77072360D01*
X127042484Y-77233718D01*
X127042483Y-77233721D01*
X126986525Y-77405947D01*
X126958196Y-77584806D01*
X39804196Y-77584806D01*
X39804196Y-68823920D01*
X87899499Y-68823920D01*
X87928340Y-68968907D01*
X87928343Y-68968917D01*
X87984912Y-69105488D01*
X87984919Y-69105501D01*
X88067048Y-69228415D01*
X88070914Y-69233126D01*
X88068787Y-69234870D01*
X88096636Y-69285733D01*
X88099500Y-69312229D01*
X88099500Y-69877526D01*
X88099500Y-70022474D01*
X88105405Y-70044511D01*
X88137016Y-70162485D01*
X88209489Y-70288013D01*
X88209491Y-70288016D01*
X89913181Y-71991706D01*
X89946666Y-72053029D01*
X89948267Y-72067920D01*
X89948903Y-72067858D01*
X89949499Y-72073920D01*
X89978340Y-72218907D01*
X89978343Y-72218917D01*
X90034912Y-72355488D01*
X90034919Y-72355501D01*
X90117048Y-72478415D01*
X90117051Y-72478419D01*
X90221580Y-72582948D01*
X90221584Y-72582951D01*
X90344498Y-72665080D01*
X90344511Y-72665087D01*
X90481082Y-72721656D01*
X90481087Y-72721658D01*
X90481091Y-72721658D01*
X90481092Y-72721659D01*
X90626079Y-72750500D01*
X90626082Y-72750500D01*
X90773920Y-72750500D01*
X90871462Y-72731096D01*
X90918913Y-72721658D01*
X91055495Y-72665084D01*
X91178416Y-72582951D01*
X91282951Y-72478416D01*
X91365084Y-72355495D01*
X91421658Y-72218913D01*
X91450500Y-72073918D01*
X91450500Y-71926082D01*
X91450500Y-71926079D01*
X91421659Y-71781092D01*
X91421658Y-71781091D01*
X91421658Y-71781087D01*
X91421656Y-71781082D01*
X91365087Y-71644511D01*
X91365080Y-71644498D01*
X91282951Y-71521584D01*
X91282948Y-71521580D01*
X91178419Y-71417051D01*
X91178415Y-71417048D01*
X91055501Y-71334919D01*
X91055488Y-71334912D01*
X90918917Y-71278343D01*
X90918907Y-71278340D01*
X90773920Y-71249499D01*
X90767858Y-71248903D01*
X90768124Y-71246193D01*
X90712348Y-71229815D01*
X90691706Y-71213181D01*
X89236819Y-69758294D01*
X89203334Y-69696971D01*
X89200500Y-69670613D01*
X89200500Y-69312229D01*
X89220185Y-69245190D01*
X89229586Y-69233536D01*
X89229086Y-69233126D01*
X89232946Y-69228420D01*
X89232951Y-69228416D01*
X89315084Y-69105495D01*
X89371658Y-68968913D01*
X89400500Y-68823918D01*
X89400500Y-68676082D01*
X89400500Y-68676079D01*
X89371659Y-68531092D01*
X89371658Y-68531091D01*
X89371658Y-68531087D01*
X89371656Y-68531082D01*
X89315087Y-68394511D01*
X89315080Y-68394498D01*
X89232951Y-68271584D01*
X89232948Y-68271580D01*
X89128419Y-68167051D01*
X89128415Y-68167048D01*
X89005501Y-68084919D01*
X89005488Y-68084912D01*
X88868917Y-68028343D01*
X88868907Y-68028340D01*
X88723920Y-67999500D01*
X88723918Y-67999500D01*
X88576082Y-67999500D01*
X88576080Y-67999500D01*
X88431092Y-68028340D01*
X88431082Y-68028343D01*
X88294511Y-68084912D01*
X88294498Y-68084919D01*
X88171584Y-68167048D01*
X88171580Y-68167051D01*
X88067051Y-68271580D01*
X88067048Y-68271584D01*
X87984919Y-68394498D01*
X87984912Y-68394511D01*
X87928343Y-68531082D01*
X87928340Y-68531092D01*
X87899500Y-68676079D01*
X87899500Y-68676082D01*
X87899500Y-68823918D01*
X87899500Y-68823920D01*
X87899499Y-68823920D01*
X39804196Y-68823920D01*
X39804196Y-67799278D01*
X97378195Y-67799278D01*
X97407036Y-67944265D01*
X97407039Y-67944275D01*
X97463608Y-68080846D01*
X97463615Y-68080859D01*
X97545744Y-68203773D01*
X97549610Y-68208484D01*
X97547483Y-68210228D01*
X97575332Y-68261091D01*
X97578196Y-68287587D01*
X97578196Y-69837770D01*
X97558511Y-69904809D01*
X97549115Y-69916468D01*
X97549610Y-69916874D01*
X97545744Y-69921584D01*
X97463615Y-70044498D01*
X97463608Y-70044511D01*
X97407039Y-70181082D01*
X97407036Y-70181092D01*
X97378196Y-70326079D01*
X97378196Y-70326082D01*
X97378196Y-70473918D01*
X97378196Y-70473920D01*
X97378195Y-70473920D01*
X97407036Y-70618907D01*
X97407039Y-70618917D01*
X97463608Y-70755488D01*
X97463615Y-70755501D01*
X97545744Y-70878415D01*
X97545747Y-70878419D01*
X97650276Y-70982948D01*
X97650280Y-70982951D01*
X97773194Y-71065080D01*
X97773207Y-71065087D01*
X97909778Y-71121656D01*
X97909783Y-71121658D01*
X97909787Y-71121658D01*
X97909788Y-71121659D01*
X98054775Y-71150500D01*
X98054778Y-71150500D01*
X98202616Y-71150500D01*
X98300158Y-71131096D01*
X98347609Y-71121658D01*
X98484191Y-71065084D01*
X98607112Y-70982951D01*
X98711647Y-70878416D01*
X98793780Y-70755495D01*
X98850354Y-70618913D01*
X98879196Y-70473918D01*
X98879196Y-70326082D01*
X98879196Y-70326079D01*
X98850355Y-70181092D01*
X98850354Y-70181091D01*
X98850354Y-70181087D01*
X98842649Y-70162485D01*
X98793783Y-70044511D01*
X98793776Y-70044498D01*
X98711647Y-69921584D01*
X98707782Y-69916874D01*
X98709887Y-69915145D01*
X98682030Y-69864128D01*
X98679196Y-69837770D01*
X98679196Y-68287587D01*
X98698881Y-68220548D01*
X98708282Y-68208894D01*
X98707782Y-68208484D01*
X98711642Y-68203778D01*
X98711647Y-68203774D01*
X98793780Y-68080853D01*
X98850354Y-67944271D01*
X98879196Y-67799276D01*
X98879196Y-67651440D01*
X98879196Y-67651437D01*
X98850355Y-67506450D01*
X98850354Y-67506449D01*
X98850354Y-67506445D01*
X98850352Y-67506440D01*
X98793783Y-67369869D01*
X98793776Y-67369856D01*
X98711647Y-67246942D01*
X98711644Y-67246938D01*
X98607115Y-67142409D01*
X98607111Y-67142406D01*
X98484197Y-67060277D01*
X98484184Y-67060270D01*
X98347613Y-67003701D01*
X98347603Y-67003698D01*
X98202616Y-66974858D01*
X98202614Y-66974858D01*
X98054778Y-66974858D01*
X98054776Y-66974858D01*
X97909788Y-67003698D01*
X97909778Y-67003701D01*
X97773207Y-67060270D01*
X97773194Y-67060277D01*
X97650280Y-67142406D01*
X97650276Y-67142409D01*
X97545747Y-67246938D01*
X97545744Y-67246942D01*
X97463615Y-67369856D01*
X97463608Y-67369869D01*
X97407039Y-67506440D01*
X97407036Y-67506450D01*
X97378196Y-67651437D01*
X97378196Y-67651440D01*
X97378196Y-67799276D01*
X97378196Y-67799278D01*
X97378195Y-67799278D01*
X39804196Y-67799278D01*
X39804196Y-66023920D01*
X90749499Y-66023920D01*
X90778340Y-66168907D01*
X90778343Y-66168917D01*
X90834912Y-66305488D01*
X90834919Y-66305501D01*
X90917048Y-66428415D01*
X90917051Y-66428419D01*
X91021580Y-66532948D01*
X91021584Y-66532951D01*
X91144498Y-66615080D01*
X91144511Y-66615087D01*
X91242049Y-66655488D01*
X91281087Y-66671658D01*
X91281091Y-66671658D01*
X91281092Y-66671659D01*
X91426079Y-66700500D01*
X91426082Y-66700500D01*
X91573920Y-66700500D01*
X91671462Y-66681096D01*
X91718913Y-66671658D01*
X91855495Y-66615084D01*
X91978416Y-66532951D01*
X91978420Y-66532946D01*
X91983126Y-66529086D01*
X91984854Y-66531191D01*
X92035872Y-66503334D01*
X92062230Y-66500500D01*
X95137861Y-66500500D01*
X95204900Y-66520185D01*
X95250655Y-66572989D01*
X95252422Y-66577048D01*
X95284912Y-66655488D01*
X95284919Y-66655501D01*
X95367048Y-66778415D01*
X95367051Y-66778419D01*
X95471580Y-66882948D01*
X95471584Y-66882951D01*
X95594498Y-66965080D01*
X95594511Y-66965087D01*
X95731082Y-67021656D01*
X95731087Y-67021658D01*
X95731091Y-67021658D01*
X95731092Y-67021659D01*
X95876079Y-67050500D01*
X95876082Y-67050500D01*
X96023920Y-67050500D01*
X96121462Y-67031096D01*
X96168913Y-67021658D01*
X96305495Y-66965084D01*
X96428416Y-66882951D01*
X96532951Y-66778416D01*
X96615084Y-66655495D01*
X96671658Y-66518913D01*
X96689659Y-66428419D01*
X96700500Y-66373920D01*
X96700500Y-66226079D01*
X96671659Y-66081092D01*
X96671658Y-66081091D01*
X96671658Y-66081087D01*
X96627923Y-65975500D01*
X96615087Y-65944511D01*
X96615081Y-65944500D01*
X96598248Y-65919307D01*
X96598247Y-65919306D01*
X96556284Y-65856504D01*
X103320000Y-65856504D01*
X103320000Y-66255000D01*
X104020000Y-66255000D01*
X104020000Y-66755000D01*
X103320000Y-66755000D01*
X103320000Y-67153495D01*
X103358427Y-67346681D01*
X103358430Y-67346693D01*
X103433807Y-67528671D01*
X103433814Y-67528684D01*
X103543248Y-67692462D01*
X103543251Y-67692466D01*
X103682533Y-67831748D01*
X103682537Y-67831751D01*
X103846315Y-67941185D01*
X103846328Y-67941192D01*
X104028308Y-68016569D01*
X104070000Y-68024862D01*
X104070000Y-67221988D01*
X104079940Y-67239205D01*
X104135795Y-67295060D01*
X104204204Y-67334556D01*
X104280504Y-67355000D01*
X104359496Y-67355000D01*
X104435796Y-67334556D01*
X104504205Y-67295060D01*
X104560060Y-67239205D01*
X104570000Y-67221988D01*
X104570000Y-68024862D01*
X104611690Y-68016569D01*
X104611692Y-68016569D01*
X104793671Y-67941192D01*
X104793684Y-67941185D01*
X104957462Y-67831751D01*
X104957466Y-67831748D01*
X105096748Y-67692466D01*
X105096751Y-67692462D01*
X105206185Y-67528684D01*
X105206192Y-67528671D01*
X105281569Y-67346693D01*
X105281572Y-67346681D01*
X105319999Y-67153495D01*
X105320000Y-67153492D01*
X105320000Y-66755000D01*
X104620000Y-66755000D01*
X104620000Y-66255000D01*
X105320000Y-66255000D01*
X105320000Y-66031044D01*
X105339685Y-65964005D01*
X105392489Y-65918250D01*
X105461647Y-65908306D01*
X105506000Y-65923657D01*
X105527865Y-65936281D01*
X105674234Y-65975500D01*
X105674236Y-65975500D01*
X105825764Y-65975500D01*
X105825766Y-65975500D01*
X105972135Y-65936281D01*
X106103365Y-65860515D01*
X106210515Y-65753365D01*
X106286281Y-65622135D01*
X106325500Y-65475766D01*
X106325500Y-65324234D01*
X110954500Y-65324234D01*
X110954500Y-65475766D01*
X110964525Y-65513181D01*
X110993719Y-65622136D01*
X111017489Y-65663306D01*
X111069485Y-65753365D01*
X111176635Y-65860515D01*
X111307865Y-65936281D01*
X111454234Y-65975500D01*
X111454236Y-65975500D01*
X111605764Y-65975500D01*
X111605766Y-65975500D01*
X111752135Y-65936281D01*
X111773999Y-65923657D01*
X111841897Y-65907184D01*
X111907925Y-65930035D01*
X111951117Y-65984955D01*
X111960000Y-66031044D01*
X111960000Y-66255000D01*
X112660000Y-66255000D01*
X112660000Y-66755000D01*
X111960000Y-66755000D01*
X111960000Y-67153495D01*
X111998427Y-67346681D01*
X111998430Y-67346693D01*
X112073807Y-67528671D01*
X112073814Y-67528684D01*
X112183248Y-67692462D01*
X112183251Y-67692466D01*
X112322533Y-67831748D01*
X112322537Y-67831751D01*
X112486315Y-67941185D01*
X112486328Y-67941192D01*
X112668308Y-68016569D01*
X112710000Y-68024862D01*
X112710000Y-67221988D01*
X112719940Y-67239205D01*
X112775795Y-67295060D01*
X112844204Y-67334556D01*
X112920504Y-67355000D01*
X112999496Y-67355000D01*
X113075796Y-67334556D01*
X113144205Y-67295060D01*
X113200060Y-67239205D01*
X113210000Y-67221988D01*
X113210000Y-68024862D01*
X113251690Y-68016569D01*
X113251692Y-68016569D01*
X113433671Y-67941192D01*
X113433684Y-67941185D01*
X113597462Y-67831751D01*
X113597466Y-67831748D01*
X113736748Y-67692466D01*
X113736751Y-67692462D01*
X113846185Y-67528684D01*
X113846192Y-67528671D01*
X113921569Y-67346693D01*
X113921572Y-67346681D01*
X113959999Y-67153495D01*
X113960000Y-67153492D01*
X113960000Y-66755000D01*
X113260000Y-66755000D01*
X113260000Y-66255000D01*
X113960000Y-66255000D01*
X113960000Y-65856508D01*
X113959999Y-65856504D01*
X113921572Y-65663318D01*
X113921569Y-65663306D01*
X113846192Y-65481328D01*
X113846185Y-65481315D01*
X113736751Y-65317537D01*
X113736748Y-65317533D01*
X113597466Y-65178251D01*
X113597462Y-65178248D01*
X113433684Y-65068814D01*
X113433671Y-65068807D01*
X113251691Y-64993429D01*
X113251683Y-64993427D01*
X113210000Y-64985135D01*
X113210000Y-65788011D01*
X113200060Y-65770795D01*
X113144205Y-65714940D01*
X113075796Y-65675444D01*
X112999496Y-65655000D01*
X112920504Y-65655000D01*
X112844204Y-65675444D01*
X112775795Y-65714940D01*
X112719940Y-65770795D01*
X112710000Y-65788011D01*
X112710000Y-64985136D01*
X112709999Y-64985135D01*
X112668316Y-64993427D01*
X112668308Y-64993429D01*
X112486328Y-65068807D01*
X112486315Y-65068814D01*
X112322537Y-65178248D01*
X112322532Y-65178252D01*
X112272382Y-65228402D01*
X112211059Y-65261886D01*
X112141367Y-65256901D01*
X112085434Y-65215030D01*
X112070751Y-65184804D01*
X112069389Y-65185369D01*
X112066281Y-65177865D01*
X112066280Y-65177863D01*
X111990515Y-65046635D01*
X111883365Y-64939485D01*
X111817750Y-64901602D01*
X111752136Y-64863719D01*
X111678950Y-64844109D01*
X111605766Y-64824500D01*
X111454234Y-64824500D01*
X111307863Y-64863719D01*
X111176635Y-64939485D01*
X111176632Y-64939487D01*
X111069487Y-65046632D01*
X111069485Y-65046635D01*
X110993719Y-65177863D01*
X110956294Y-65317537D01*
X110954500Y-65324234D01*
X106325500Y-65324234D01*
X106286281Y-65177865D01*
X106210515Y-65046635D01*
X106103365Y-64939485D01*
X106037750Y-64901602D01*
X105972136Y-64863719D01*
X105898950Y-64844109D01*
X105825766Y-64824500D01*
X105674234Y-64824500D01*
X105527863Y-64863719D01*
X105396635Y-64939485D01*
X105396632Y-64939487D01*
X105289487Y-65046632D01*
X105289485Y-65046635D01*
X105213718Y-65177865D01*
X105210611Y-65185369D01*
X105208069Y-65184316D01*
X105178676Y-65232502D01*
X105115819Y-65263010D01*
X105046446Y-65254692D01*
X105007616Y-65228401D01*
X104957466Y-65178251D01*
X104957462Y-65178248D01*
X104793684Y-65068814D01*
X104793671Y-65068807D01*
X104611691Y-64993429D01*
X104611683Y-64993427D01*
X104570000Y-64985135D01*
X104570000Y-65788011D01*
X104560060Y-65770795D01*
X104504205Y-65714940D01*
X104435796Y-65675444D01*
X104359496Y-65655000D01*
X104280504Y-65655000D01*
X104204204Y-65675444D01*
X104135795Y-65714940D01*
X104079940Y-65770795D01*
X104070000Y-65788011D01*
X104070000Y-64985136D01*
X104069999Y-64985135D01*
X104028316Y-64993427D01*
X104028308Y-64993429D01*
X103846328Y-65068807D01*
X103846315Y-65068814D01*
X103682537Y-65178248D01*
X103682533Y-65178251D01*
X103543251Y-65317533D01*
X103543248Y-65317537D01*
X103433814Y-65481315D01*
X103433807Y-65481328D01*
X103358430Y-65663306D01*
X103358427Y-65663318D01*
X103320000Y-65856504D01*
X96556284Y-65856504D01*
X96532951Y-65821584D01*
X96532948Y-65821580D01*
X96428419Y-65717051D01*
X96428415Y-65717048D01*
X96305501Y-65634919D01*
X96305488Y-65634912D01*
X96168917Y-65578343D01*
X96168907Y-65578340D01*
X96023920Y-65549499D01*
X96017858Y-65548903D01*
X96018124Y-65546193D01*
X95962348Y-65529815D01*
X95941706Y-65513181D01*
X95938016Y-65509491D01*
X95938015Y-65509490D01*
X95812485Y-65437016D01*
X95812486Y-65437016D01*
X95777482Y-65427637D01*
X95672475Y-65399500D01*
X95672472Y-65399500D01*
X92062230Y-65399500D01*
X91995191Y-65379815D01*
X91983531Y-65370419D01*
X91983126Y-65370914D01*
X91978415Y-65367048D01*
X91855501Y-65284919D01*
X91855488Y-65284912D01*
X91718917Y-65228343D01*
X91718907Y-65228340D01*
X91573920Y-65199500D01*
X91573918Y-65199500D01*
X91426082Y-65199500D01*
X91426080Y-65199500D01*
X91281092Y-65228340D01*
X91281082Y-65228343D01*
X91144511Y-65284912D01*
X91144498Y-65284919D01*
X91021584Y-65367048D01*
X91021580Y-65367051D01*
X90917051Y-65471580D01*
X90917048Y-65471584D01*
X90834919Y-65594498D01*
X90834912Y-65594511D01*
X90778343Y-65731082D01*
X90778340Y-65731092D01*
X90749500Y-65876079D01*
X90749500Y-65876082D01*
X90749500Y-66023918D01*
X90749500Y-66023920D01*
X90749499Y-66023920D01*
X39804196Y-66023920D01*
X39804196Y-61358995D01*
X96599499Y-61358995D01*
X96626418Y-61494322D01*
X96626421Y-61494332D01*
X96679221Y-61621804D01*
X96679228Y-61621817D01*
X96755885Y-61736541D01*
X96755888Y-61736545D01*
X96853454Y-61834111D01*
X96853458Y-61834114D01*
X96968182Y-61910771D01*
X96968195Y-61910778D01*
X97095667Y-61963578D01*
X97095672Y-61963580D01*
X97095676Y-61963580D01*
X97095677Y-61963581D01*
X97231004Y-61990500D01*
X97231007Y-61990500D01*
X97368995Y-61990500D01*
X97460041Y-61972389D01*
X97504328Y-61963580D01*
X97631811Y-61910775D01*
X97746542Y-61834114D01*
X97844114Y-61736542D01*
X97920775Y-61621811D01*
X97973580Y-61494328D01*
X97982389Y-61450041D01*
X98000500Y-61358995D01*
X99599499Y-61358995D01*
X99626418Y-61494322D01*
X99626421Y-61494332D01*
X99679221Y-61621804D01*
X99679228Y-61621817D01*
X99755885Y-61736541D01*
X99755888Y-61736545D01*
X99853454Y-61834111D01*
X99853458Y-61834114D01*
X99968182Y-61910771D01*
X99968195Y-61910778D01*
X100095667Y-61963578D01*
X100095672Y-61963580D01*
X100095676Y-61963580D01*
X100095677Y-61963581D01*
X100231004Y-61990500D01*
X100231007Y-61990500D01*
X100368995Y-61990500D01*
X100460041Y-61972389D01*
X100504328Y-61963580D01*
X100631811Y-61910775D01*
X100746542Y-61834114D01*
X100754152Y-61826504D01*
X103320000Y-61826504D01*
X103320000Y-62075000D01*
X104020000Y-62075000D01*
X104020000Y-62575000D01*
X103320000Y-62575000D01*
X103320000Y-62823495D01*
X103358427Y-63016681D01*
X103358430Y-63016693D01*
X103433807Y-63198671D01*
X103433814Y-63198684D01*
X103543248Y-63362462D01*
X103543251Y-63362466D01*
X103682533Y-63501748D01*
X103682537Y-63501751D01*
X103846315Y-63611185D01*
X103846328Y-63611192D01*
X104028308Y-63686569D01*
X104070000Y-63694862D01*
X104070000Y-62891988D01*
X104079940Y-62909205D01*
X104135795Y-62965060D01*
X104204204Y-63004556D01*
X104280504Y-63025000D01*
X104359496Y-63025000D01*
X104435796Y-63004556D01*
X104504205Y-62965060D01*
X104560060Y-62909205D01*
X104570000Y-62891988D01*
X104570000Y-63694862D01*
X104611690Y-63686569D01*
X104611692Y-63686569D01*
X104793671Y-63611192D01*
X104793684Y-63611185D01*
X104957462Y-63501751D01*
X104957466Y-63501748D01*
X105096748Y-63362466D01*
X105096751Y-63362462D01*
X105206185Y-63198684D01*
X105206192Y-63198671D01*
X105281569Y-63016693D01*
X105281572Y-63016681D01*
X105319999Y-62823495D01*
X105320000Y-62823492D01*
X105320000Y-62575000D01*
X104620000Y-62575000D01*
X104620000Y-62075000D01*
X105320000Y-62075000D01*
X105320000Y-61826508D01*
X105319999Y-61826504D01*
X111960000Y-61826504D01*
X111960000Y-62075000D01*
X112660000Y-62075000D01*
X112660000Y-62575000D01*
X111960000Y-62575000D01*
X111960000Y-62823495D01*
X111998427Y-63016681D01*
X111998430Y-63016693D01*
X112073807Y-63198671D01*
X112073814Y-63198684D01*
X112183248Y-63362462D01*
X112183251Y-63362466D01*
X112322533Y-63501748D01*
X112322537Y-63501751D01*
X112486315Y-63611185D01*
X112486328Y-63611192D01*
X112668308Y-63686569D01*
X112710000Y-63694862D01*
X112710000Y-62891988D01*
X112719940Y-62909205D01*
X112775795Y-62965060D01*
X112844204Y-63004556D01*
X112920504Y-63025000D01*
X112999496Y-63025000D01*
X113075796Y-63004556D01*
X113144205Y-62965060D01*
X113200060Y-62909205D01*
X113210000Y-62891988D01*
X113210000Y-63694862D01*
X113251690Y-63686569D01*
X113251692Y-63686569D01*
X113433671Y-63611192D01*
X113433684Y-63611185D01*
X113597462Y-63501751D01*
X113597466Y-63501748D01*
X113736748Y-63362466D01*
X113736751Y-63362462D01*
X113846185Y-63198684D01*
X113846192Y-63198671D01*
X113921569Y-63016693D01*
X113921572Y-63016681D01*
X113959999Y-62823495D01*
X113960000Y-62823492D01*
X113960000Y-62575000D01*
X113260000Y-62575000D01*
X113260000Y-62075000D01*
X113960000Y-62075000D01*
X113960000Y-61826508D01*
X113959999Y-61826504D01*
X113921572Y-61633318D01*
X113921569Y-61633306D01*
X113846192Y-61451328D01*
X113846185Y-61451315D01*
X113791180Y-61368995D01*
X116449499Y-61368995D01*
X116476418Y-61504322D01*
X116476421Y-61504332D01*
X116529221Y-61631804D01*
X116529228Y-61631817D01*
X116605885Y-61746541D01*
X116605888Y-61746545D01*
X116703454Y-61844111D01*
X116703458Y-61844114D01*
X116818182Y-61920771D01*
X116818195Y-61920778D01*
X116921532Y-61963581D01*
X116945672Y-61973580D01*
X116945676Y-61973580D01*
X116945677Y-61973581D01*
X117081004Y-62000500D01*
X117081007Y-62000500D01*
X117218995Y-62000500D01*
X117310041Y-61982389D01*
X117354328Y-61973580D01*
X117481811Y-61920775D01*
X117596542Y-61844114D01*
X117694114Y-61746542D01*
X117770775Y-61631811D01*
X117823580Y-61504328D01*
X117850500Y-61368995D01*
X119449499Y-61368995D01*
X119476418Y-61504322D01*
X119476421Y-61504332D01*
X119529221Y-61631804D01*
X119529228Y-61631817D01*
X119605885Y-61746541D01*
X119605888Y-61746545D01*
X119703454Y-61844111D01*
X119703458Y-61844114D01*
X119818182Y-61920771D01*
X119818195Y-61920778D01*
X119921532Y-61963581D01*
X119945672Y-61973580D01*
X119945676Y-61973580D01*
X119945677Y-61973581D01*
X120081004Y-62000500D01*
X120081007Y-62000500D01*
X120218995Y-62000500D01*
X120310041Y-61982389D01*
X120354328Y-61973580D01*
X120481811Y-61920775D01*
X120596542Y-61844114D01*
X120694114Y-61746542D01*
X120770775Y-61631811D01*
X120823580Y-61504328D01*
X120850500Y-61368993D01*
X120850500Y-61231007D01*
X120850500Y-61231004D01*
X120823581Y-61095677D01*
X120823580Y-61095676D01*
X120823580Y-61095672D01*
X120800026Y-61038807D01*
X120770778Y-60968195D01*
X120770771Y-60968182D01*
X120694114Y-60853458D01*
X120694111Y-60853454D01*
X120596545Y-60755888D01*
X120596541Y-60755885D01*
X120481817Y-60679228D01*
X120481804Y-60679221D01*
X120354332Y-60626421D01*
X120354322Y-60626418D01*
X120218995Y-60599500D01*
X120218993Y-60599500D01*
X120081007Y-60599500D01*
X120081005Y-60599500D01*
X119945677Y-60626418D01*
X119945667Y-60626421D01*
X119818195Y-60679221D01*
X119818182Y-60679228D01*
X119703458Y-60755885D01*
X119703454Y-60755888D01*
X119605888Y-60853454D01*
X119605885Y-60853458D01*
X119529228Y-60968182D01*
X119529221Y-60968195D01*
X119476421Y-61095667D01*
X119476418Y-61095677D01*
X119449500Y-61231004D01*
X119449500Y-61231007D01*
X119449500Y-61368993D01*
X119449500Y-61368995D01*
X119449499Y-61368995D01*
X117850500Y-61368995D01*
X117850500Y-61368993D01*
X117850500Y-61231007D01*
X117850500Y-61231004D01*
X117823581Y-61095677D01*
X117823580Y-61095676D01*
X117823580Y-61095672D01*
X117800026Y-61038807D01*
X117770778Y-60968195D01*
X117770771Y-60968182D01*
X117694114Y-60853458D01*
X117694111Y-60853454D01*
X117596545Y-60755888D01*
X117596541Y-60755885D01*
X117481817Y-60679228D01*
X117481804Y-60679221D01*
X117354332Y-60626421D01*
X117354322Y-60626418D01*
X117218995Y-60599500D01*
X117218993Y-60599500D01*
X117081007Y-60599500D01*
X117081005Y-60599500D01*
X116945677Y-60626418D01*
X116945667Y-60626421D01*
X116818195Y-60679221D01*
X116818182Y-60679228D01*
X116703458Y-60755885D01*
X116703454Y-60755888D01*
X116605888Y-60853454D01*
X116605885Y-60853458D01*
X116529228Y-60968182D01*
X116529221Y-60968195D01*
X116476421Y-61095667D01*
X116476418Y-61095677D01*
X116449500Y-61231004D01*
X116449500Y-61231007D01*
X116449500Y-61368993D01*
X116449500Y-61368995D01*
X116449499Y-61368995D01*
X113791180Y-61368995D01*
X113740940Y-61293806D01*
X113740939Y-61293805D01*
X113736749Y-61287534D01*
X113597466Y-61148251D01*
X113597462Y-61148248D01*
X113433684Y-61038814D01*
X113433671Y-61038807D01*
X113251691Y-60963429D01*
X113251683Y-60963427D01*
X113210000Y-60955135D01*
X113210000Y-61758011D01*
X113200060Y-61740795D01*
X113144205Y-61684940D01*
X113075796Y-61645444D01*
X112999496Y-61625000D01*
X112920504Y-61625000D01*
X112844204Y-61645444D01*
X112775795Y-61684940D01*
X112719940Y-61740795D01*
X112710000Y-61758011D01*
X112710000Y-60955136D01*
X112709999Y-60955135D01*
X112668316Y-60963427D01*
X112668308Y-60963429D01*
X112486328Y-61038807D01*
X112486315Y-61038814D01*
X112322537Y-61148248D01*
X112322533Y-61148251D01*
X112183251Y-61287533D01*
X112183248Y-61287537D01*
X112073814Y-61451315D01*
X112073807Y-61451328D01*
X111998430Y-61633306D01*
X111998427Y-61633318D01*
X111960000Y-61826504D01*
X105319999Y-61826504D01*
X105281572Y-61633318D01*
X105281569Y-61633306D01*
X105206192Y-61451328D01*
X105206185Y-61451315D01*
X105096751Y-61287537D01*
X105096748Y-61287533D01*
X104957466Y-61148251D01*
X104957462Y-61148248D01*
X104793684Y-61038814D01*
X104793671Y-61038807D01*
X104611691Y-60963429D01*
X104611683Y-60963427D01*
X104570000Y-60955135D01*
X104570000Y-61758011D01*
X104560060Y-61740795D01*
X104504205Y-61684940D01*
X104435796Y-61645444D01*
X104359496Y-61625000D01*
X104280504Y-61625000D01*
X104204204Y-61645444D01*
X104135795Y-61684940D01*
X104079940Y-61740795D01*
X104070000Y-61758011D01*
X104070000Y-60955136D01*
X104069999Y-60955135D01*
X104028316Y-60963427D01*
X104028308Y-60963429D01*
X103846328Y-61038807D01*
X103846315Y-61038814D01*
X103682537Y-61148248D01*
X103682533Y-61148251D01*
X103543251Y-61287533D01*
X103543248Y-61287537D01*
X103433814Y-61451315D01*
X103433807Y-61451328D01*
X103358430Y-61633306D01*
X103358427Y-61633318D01*
X103320000Y-61826504D01*
X100754152Y-61826504D01*
X100844114Y-61736542D01*
X100920775Y-61621811D01*
X100973580Y-61494328D01*
X100982389Y-61450041D01*
X101000500Y-61358995D01*
X101000500Y-61221004D01*
X100973581Y-61085677D01*
X100973580Y-61085676D01*
X100973580Y-61085672D01*
X100924920Y-60968195D01*
X100920778Y-60958195D01*
X100920771Y-60958182D01*
X100844114Y-60843458D01*
X100844111Y-60843454D01*
X100746545Y-60745888D01*
X100746541Y-60745885D01*
X100631817Y-60669228D01*
X100631804Y-60669221D01*
X100504332Y-60616421D01*
X100504322Y-60616418D01*
X100368995Y-60589500D01*
X100368993Y-60589500D01*
X100231007Y-60589500D01*
X100231005Y-60589500D01*
X100095677Y-60616418D01*
X100095667Y-60616421D01*
X99968195Y-60669221D01*
X99968182Y-60669228D01*
X99853458Y-60745885D01*
X99853454Y-60745888D01*
X99755888Y-60843454D01*
X99755885Y-60843458D01*
X99679228Y-60958182D01*
X99679221Y-60958195D01*
X99626421Y-61085667D01*
X99626418Y-61085677D01*
X99599500Y-61221004D01*
X99599500Y-61221007D01*
X99599500Y-61358993D01*
X99599500Y-61358995D01*
X99599499Y-61358995D01*
X98000500Y-61358995D01*
X98000500Y-61221004D01*
X97973581Y-61085677D01*
X97973580Y-61085676D01*
X97973580Y-61085672D01*
X97924920Y-60968195D01*
X97920778Y-60958195D01*
X97920771Y-60958182D01*
X97844114Y-60843458D01*
X97844111Y-60843454D01*
X97746545Y-60745888D01*
X97746541Y-60745885D01*
X97631817Y-60669228D01*
X97631804Y-60669221D01*
X97504332Y-60616421D01*
X97504322Y-60616418D01*
X97368995Y-60589500D01*
X97368993Y-60589500D01*
X97231007Y-60589500D01*
X97231005Y-60589500D01*
X97095677Y-60616418D01*
X97095667Y-60616421D01*
X96968195Y-60669221D01*
X96968182Y-60669228D01*
X96853458Y-60745885D01*
X96853454Y-60745888D01*
X96755888Y-60843454D01*
X96755885Y-60843458D01*
X96679228Y-60958182D01*
X96679221Y-60958195D01*
X96626421Y-61085667D01*
X96626418Y-61085677D01*
X96599500Y-61221004D01*
X96599500Y-61221007D01*
X96599500Y-61358993D01*
X96599500Y-61358995D01*
X96599499Y-61358995D01*
X39804196Y-61358995D01*
X39804196Y-59874858D01*
X39823881Y-59807819D01*
X39876685Y-59762064D01*
X39928196Y-59750858D01*
X234729196Y-59750858D01*
X234796235Y-59770543D01*
G37*
%TD.AperFunction*%
%TD*%
M02*
