%TF.GenerationSoftware,KiCad,Pcbnew,9.0.0*%
%TF.CreationDate,2025-08-15T01:25:27+03:00*%
%TF.ProjectId,Handheld,48616e64-6865-46c6-942e-6b696361645f,rev?*%
%TF.SameCoordinates,Original*%
%TF.FileFunction,Paste,Top*%
%TF.FilePolarity,Positive*%
%FSLAX46Y46*%
G04 Gerber Fmt 4.6, Leading zero omitted, Abs format (unit mm)*
G04 Created by KiCad (PCBNEW 9.0.0) date 2025-08-15 01:25:27*
%MOMM*%
%LPD*%
G01*
G04 APERTURE LIST*
G04 Aperture macros list*
%AMRoundRect*
0 Rectangle with rounded corners*
0 $1 Rounding radius*
0 $2 $3 $4 $5 $6 $7 $8 $9 X,Y pos of 4 corners*
0 Add a 4 corners polygon primitive as box body*
4,1,4,$2,$3,$4,$5,$6,$7,$8,$9,$2,$3,0*
0 Add four circle primitives for the rounded corners*
1,1,$1+$1,$2,$3*
1,1,$1+$1,$4,$5*
1,1,$1+$1,$6,$7*
1,1,$1+$1,$8,$9*
0 Add four rect primitives between the rounded corners*
20,1,$1+$1,$2,$3,$4,$5,0*
20,1,$1+$1,$4,$5,$6,$7,0*
20,1,$1+$1,$6,$7,$8,$9,0*
20,1,$1+$1,$8,$9,$2,$3,0*%
G04 Aperture macros list end*
%ADD10C,0.010000*%
%ADD11RoundRect,0.140000X-0.170000X0.140000X-0.170000X-0.140000X0.170000X-0.140000X0.170000X0.140000X0*%
%ADD12RoundRect,0.250000X-0.255000X0.255000X-0.255000X-0.255000X0.255000X-0.255000X0.255000X0.255000X0*%
%ADD13RoundRect,0.062500X-0.062500X0.350000X-0.062500X-0.350000X0.062500X-0.350000X0.062500X0.350000X0*%
%ADD14RoundRect,0.062500X-0.350000X0.062500X-0.350000X-0.062500X0.350000X-0.062500X0.350000X0.062500X0*%
%ADD15RoundRect,0.135000X-0.135000X-0.185000X0.135000X-0.185000X0.135000X0.185000X-0.135000X0.185000X0*%
%ADD16RoundRect,0.218750X-0.256250X0.218750X-0.256250X-0.218750X0.256250X-0.218750X0.256250X0.218750X0*%
%ADD17RoundRect,0.225000X-0.225000X-0.250000X0.225000X-0.250000X0.225000X0.250000X-0.225000X0.250000X0*%
%ADD18RoundRect,0.250000X-0.250000X-0.475000X0.250000X-0.475000X0.250000X0.475000X-0.250000X0.475000X0*%
%ADD19RoundRect,0.075000X-0.700000X-0.075000X0.700000X-0.075000X0.700000X0.075000X-0.700000X0.075000X0*%
%ADD20RoundRect,0.075000X-0.075000X-0.700000X0.075000X-0.700000X0.075000X0.700000X-0.075000X0.700000X0*%
%ADD21RoundRect,0.140000X0.170000X-0.140000X0.170000X0.140000X-0.170000X0.140000X-0.170000X-0.140000X0*%
%ADD22RoundRect,0.250000X-0.475000X0.250000X-0.475000X-0.250000X0.475000X-0.250000X0.475000X0.250000X0*%
%ADD23RoundRect,0.140000X-0.140000X-0.170000X0.140000X-0.170000X0.140000X0.170000X-0.140000X0.170000X0*%
%ADD24RoundRect,0.225000X0.225000X0.250000X-0.225000X0.250000X-0.225000X-0.250000X0.225000X-0.250000X0*%
%ADD25RoundRect,0.135000X0.185000X-0.135000X0.185000X0.135000X-0.185000X0.135000X-0.185000X-0.135000X0*%
%ADD26RoundRect,0.135000X0.135000X0.185000X-0.135000X0.185000X-0.135000X-0.185000X0.135000X-0.185000X0*%
%ADD27RoundRect,0.225000X-0.250000X0.225000X-0.250000X-0.225000X0.250000X-0.225000X0.250000X0.225000X0*%
%ADD28RoundRect,0.140000X0.140000X0.170000X-0.140000X0.170000X-0.140000X-0.170000X0.140000X-0.170000X0*%
%ADD29RoundRect,0.135000X-0.185000X0.135000X-0.185000X-0.135000X0.185000X-0.135000X0.185000X0.135000X0*%
%ADD30R,0.800000X1.000000*%
%ADD31R,1.500000X0.700000*%
%ADD32R,1.000000X0.800000*%
%ADD33R,0.700000X1.500000*%
%ADD34R,3.400000X0.980000*%
%ADD35RoundRect,0.150000X0.150000X0.425000X-0.150000X0.425000X-0.150000X-0.425000X0.150000X-0.425000X0*%
%ADD36RoundRect,0.075000X0.075000X0.500000X-0.075000X0.500000X-0.075000X-0.500000X0.075000X-0.500000X0*%
%ADD37O,1.000000X2.100000*%
%ADD38O,1.000000X1.800000*%
%ADD39RoundRect,0.006250X-0.293750X-0.118750X0.293750X-0.118750X0.293750X0.118750X-0.293750X0.118750X0*%
%ADD40RoundRect,0.006250X-0.118750X-0.293750X0.118750X-0.293750X0.118750X0.293750X-0.118750X0.293750X0*%
%ADD41R,1.150000X1.400000*%
G04 APERTURE END LIST*
D10*
%TO.C,U5*%
X103991196Y-93365358D02*
X103271196Y-93365358D01*
X103271196Y-93115358D01*
X103991196Y-93115358D01*
X103991196Y-93365358D01*
G36*
X103991196Y-93365358D02*
G01*
X103271196Y-93365358D01*
X103271196Y-93115358D01*
X103991196Y-93115358D01*
X103991196Y-93365358D01*
G37*
X104166696Y-92865358D02*
X103591696Y-92865358D01*
X103591696Y-92615358D01*
X104166696Y-92615358D01*
X104166696Y-92865358D01*
G36*
X104166696Y-92865358D02*
G01*
X103591696Y-92865358D01*
X103591696Y-92615358D01*
X104166696Y-92615358D01*
X104166696Y-92865358D01*
G37*
X104166696Y-93865358D02*
X103591696Y-93865358D01*
X103591696Y-93615358D01*
X104166696Y-93615358D01*
X104166696Y-93865358D01*
G36*
X104166696Y-93865358D02*
G01*
X103591696Y-93865358D01*
X103591696Y-93615358D01*
X104166696Y-93615358D01*
X104166696Y-93865358D01*
G37*
X104911196Y-93365358D02*
X104191196Y-93365358D01*
X104191196Y-93115358D01*
X104911196Y-93115358D01*
X104911196Y-93365358D01*
G36*
X104911196Y-93365358D02*
G01*
X104191196Y-93365358D01*
X104191196Y-93115358D01*
X104911196Y-93115358D01*
X104911196Y-93365358D01*
G37*
X104941696Y-92865358D02*
X104366696Y-92865358D01*
X104366696Y-92615358D01*
X104941696Y-92615358D01*
X104941696Y-92865358D01*
G36*
X104941696Y-92865358D02*
G01*
X104366696Y-92865358D01*
X104366696Y-92615358D01*
X104941696Y-92615358D01*
X104941696Y-92865358D01*
G37*
X104941696Y-93865358D02*
X104366696Y-93865358D01*
X104366696Y-93615358D01*
X104941696Y-93615358D01*
X104941696Y-93865358D01*
G36*
X104941696Y-93865358D02*
G01*
X104366696Y-93865358D01*
X104366696Y-93615358D01*
X104941696Y-93615358D01*
X104941696Y-93865358D01*
G37*
X104391196Y-94940358D02*
X104141196Y-94940358D01*
X104141196Y-94590358D01*
X103891196Y-94590358D01*
X103891196Y-94940358D01*
X103641196Y-94940358D01*
X103641196Y-94340358D01*
X104391196Y-94340358D01*
X104391196Y-94940358D01*
G36*
X104391196Y-94940358D02*
G01*
X104141196Y-94940358D01*
X104141196Y-94590358D01*
X103891196Y-94590358D01*
X103891196Y-94940358D01*
X103641196Y-94940358D01*
X103641196Y-94340358D01*
X104391196Y-94340358D01*
X104391196Y-94940358D01*
G37*
X103891196Y-91890358D02*
X104141196Y-91890358D01*
X104141196Y-91540358D01*
X104391196Y-91540358D01*
X104391196Y-92140358D01*
X103641196Y-92140358D01*
X103641196Y-91540358D01*
X103891196Y-91540358D01*
X103891196Y-91890358D01*
G36*
X103891196Y-91890358D02*
G01*
X104141196Y-91890358D01*
X104141196Y-91540358D01*
X104391196Y-91540358D01*
X104391196Y-92140358D01*
X103641196Y-92140358D01*
X103641196Y-91540358D01*
X103891196Y-91540358D01*
X103891196Y-91890358D01*
G37*
%TD*%
D11*
%TO.C,C3*%
X135100000Y-104110000D03*
X135100000Y-103150000D03*
%TD*%
D12*
%TO.C,U3*%
X95353696Y-70037858D03*
X94103696Y-70037858D03*
X95353696Y-71287858D03*
X94103696Y-71287858D03*
D13*
X95728696Y-68725358D03*
X95228696Y-68725358D03*
X94728696Y-68725358D03*
X94228696Y-68725358D03*
X93728696Y-68725358D03*
D14*
X92791196Y-69662858D03*
X92791196Y-70162858D03*
X92791196Y-70662858D03*
X92791196Y-71162858D03*
X92791196Y-71662858D03*
D13*
X93728696Y-72600358D03*
X94228696Y-72600358D03*
X94728696Y-72600358D03*
X95228696Y-72600358D03*
X95728696Y-72600358D03*
D14*
X96666196Y-71662858D03*
X96666196Y-71162858D03*
X96666196Y-70662858D03*
X96666196Y-70162858D03*
X96666196Y-69662858D03*
%TD*%
D15*
%TO.C,R20*%
X133308696Y-80475358D03*
X134328696Y-80475358D03*
%TD*%
D16*
%TO.C,D2*%
X74828696Y-80100358D03*
X74828696Y-81675358D03*
%TD*%
D17*
%TO.C,C16*%
X104978696Y-88875358D03*
X106528696Y-88875358D03*
%TD*%
D18*
%TO.C,C18*%
X105050000Y-83250000D03*
X106950000Y-83250000D03*
%TD*%
D15*
%TO.C,R17*%
X103308696Y-98875358D03*
X104328696Y-98875358D03*
%TD*%
D19*
%TO.C,U1*%
X124303696Y-92575358D03*
X124303696Y-93075358D03*
X124303696Y-93575358D03*
X124303696Y-94075358D03*
X124303696Y-94575358D03*
X124303696Y-95075358D03*
X124303696Y-95575358D03*
X124303696Y-96075358D03*
X124303696Y-96575358D03*
X124303696Y-97075358D03*
X124303696Y-97575358D03*
X124303696Y-98075358D03*
X124303696Y-98575358D03*
X124303696Y-99075358D03*
X124303696Y-99575358D03*
X124303696Y-100075358D03*
D20*
X126228696Y-102000358D03*
X126728696Y-102000358D03*
X127228696Y-102000358D03*
X127728696Y-102000358D03*
X128228696Y-102000358D03*
X128728696Y-102000358D03*
X129228696Y-102000358D03*
X129728696Y-102000358D03*
X130228696Y-102000358D03*
X130728696Y-102000358D03*
X131228696Y-102000358D03*
X131728696Y-102000358D03*
X132228696Y-102000358D03*
X132728696Y-102000358D03*
X133228696Y-102000358D03*
X133728696Y-102000358D03*
D19*
X135653696Y-100075358D03*
X135653696Y-99575358D03*
X135653696Y-99075358D03*
X135653696Y-98575358D03*
X135653696Y-98075358D03*
X135653696Y-97575358D03*
X135653696Y-97075358D03*
X135653696Y-96575358D03*
X135653696Y-96075358D03*
X135653696Y-95575358D03*
X135653696Y-95075358D03*
X135653696Y-94575358D03*
X135653696Y-94075358D03*
X135653696Y-93575358D03*
X135653696Y-93075358D03*
X135653696Y-92575358D03*
D20*
X133728696Y-90650358D03*
X133228696Y-90650358D03*
X132728696Y-90650358D03*
X132228696Y-90650358D03*
X131728696Y-90650358D03*
X131228696Y-90650358D03*
X130728696Y-90650358D03*
X130228696Y-90650358D03*
X129728696Y-90650358D03*
X129228696Y-90650358D03*
X128728696Y-90650358D03*
X128228696Y-90650358D03*
X127728696Y-90650358D03*
X127228696Y-90650358D03*
X126728696Y-90650358D03*
X126228696Y-90650358D03*
%TD*%
D21*
%TO.C,C12*%
X121128696Y-95755358D03*
X121128696Y-94795358D03*
%TD*%
D22*
%TO.C,C23*%
X111328696Y-103775358D03*
X111328696Y-105675358D03*
%TD*%
D23*
%TO.C,C24*%
X132420000Y-104250000D03*
X133380000Y-104250000D03*
%TD*%
D24*
%TO.C,C20*%
X104503696Y-97175358D03*
X102953696Y-97175358D03*
%TD*%
D25*
%TO.C,R4*%
X202928696Y-108275358D03*
X202928696Y-107255358D03*
%TD*%
%TO.C,R5*%
X192200000Y-95810000D03*
X192200000Y-94790000D03*
%TD*%
D26*
%TO.C,R19*%
X105038696Y-102275358D03*
X104018696Y-102275358D03*
%TD*%
D22*
%TO.C,C22*%
X107928696Y-103775358D03*
X107928696Y-105675358D03*
%TD*%
D26*
%TO.C,R16*%
X106128696Y-87475358D03*
X105108696Y-87475358D03*
%TD*%
D23*
%TO.C,C1*%
X125968696Y-88675358D03*
X126928696Y-88675358D03*
%TD*%
D26*
%TO.C,R12*%
X92010000Y-67250000D03*
X90990000Y-67250000D03*
%TD*%
D27*
%TO.C,C13*%
X101800000Y-65925000D03*
X101800000Y-67475000D03*
%TD*%
D11*
%TO.C,C19*%
X100128696Y-93815358D03*
X100128696Y-94775358D03*
%TD*%
D28*
%TO.C,C8*%
X121408696Y-101487858D03*
X120448696Y-101487858D03*
%TD*%
D29*
%TO.C,R7*%
X109850000Y-69730000D03*
X109850000Y-70750000D03*
%TD*%
%TO.C,R15*%
X70100000Y-75380000D03*
X70100000Y-76400000D03*
%TD*%
D30*
%TO.C,SW1*%
X122328696Y-77275358D03*
X120118696Y-77275358D03*
X122328696Y-84575358D03*
X120118696Y-84575358D03*
D31*
X122978696Y-78675358D03*
X122978696Y-81675358D03*
X122978696Y-83175358D03*
%TD*%
D29*
%TO.C,R13*%
X70050000Y-79030000D03*
X70050000Y-80050000D03*
%TD*%
%TO.C,R11*%
X93728696Y-74615358D03*
X93728696Y-75635358D03*
%TD*%
D26*
%TO.C,R3*%
X215838696Y-91475358D03*
X214818696Y-91475358D03*
%TD*%
D29*
%TO.C,R1*%
X128328696Y-83965358D03*
X128328696Y-84985358D03*
%TD*%
D18*
%TO.C,C17*%
X105000000Y-85700000D03*
X106900000Y-85700000D03*
%TD*%
D29*
%TO.C,R14*%
X70050000Y-82390000D03*
X70050000Y-83410000D03*
%TD*%
D21*
%TO.C,C7*%
X122128696Y-98755358D03*
X122128696Y-97795358D03*
%TD*%
D26*
%TO.C,R21*%
X130928696Y-80475358D03*
X129908696Y-80475358D03*
%TD*%
D22*
%TO.C,C21*%
X104528696Y-103775358D03*
X104528696Y-105675358D03*
%TD*%
D29*
%TO.C,R8*%
X106900000Y-69780000D03*
X106900000Y-70800000D03*
%TD*%
D26*
%TO.C,R9*%
X96050000Y-64950000D03*
X95030000Y-64950000D03*
%TD*%
D28*
%TO.C,C4*%
X127408696Y-104275358D03*
X126448696Y-104275358D03*
%TD*%
D11*
%TO.C,C2*%
X137728696Y-92315358D03*
X137728696Y-93275358D03*
%TD*%
D21*
%TO.C,C11*%
X121128696Y-93675358D03*
X121128696Y-92715358D03*
%TD*%
D29*
%TO.C,R2*%
X202168696Y-86415358D03*
X202168696Y-87435358D03*
%TD*%
D32*
%TO.C,SW4*%
X122300000Y-62410000D03*
X122300000Y-60200000D03*
X115000000Y-62410000D03*
X115000000Y-60200000D03*
D33*
X120900000Y-63060000D03*
X117900000Y-63060000D03*
X116400000Y-63060000D03*
%TD*%
D21*
%TO.C,C5*%
X122558696Y-91755358D03*
X122558696Y-90795358D03*
%TD*%
D11*
%TO.C,C10*%
X118928696Y-97595358D03*
X118928696Y-98555358D03*
%TD*%
D34*
%TO.C,L1*%
X108928696Y-94075358D03*
X108928696Y-91705358D03*
%TD*%
D28*
%TO.C,C9*%
X121408696Y-103075358D03*
X120448696Y-103075358D03*
%TD*%
D35*
%TO.C,J2*%
X111840000Y-67080000D03*
X111040000Y-67080000D03*
D36*
X109890000Y-67080000D03*
X108890000Y-67080000D03*
X108390000Y-67080000D03*
X107390000Y-67080000D03*
D35*
X106240000Y-67080000D03*
X105440000Y-67080000D03*
X105440000Y-67080000D03*
X106240000Y-67080000D03*
D36*
X106890000Y-67080000D03*
X107890000Y-67080000D03*
X109390000Y-67080000D03*
X110390000Y-67080000D03*
D35*
X111040000Y-67080000D03*
X111840000Y-67080000D03*
D37*
X112960000Y-66505000D03*
D38*
X112960000Y-62325000D03*
D37*
X104320000Y-66505000D03*
D38*
X104320000Y-62325000D03*
%TD*%
D16*
%TO.C,FB1*%
X122928696Y-101500358D03*
X122928696Y-103075358D03*
%TD*%
%TO.C,D3*%
X74828696Y-73300358D03*
X74828696Y-74875358D03*
%TD*%
D17*
%TO.C,C6*%
X125628696Y-86625358D03*
X127178696Y-86625358D03*
%TD*%
D26*
%TO.C,R18*%
X103038696Y-101475358D03*
X102018696Y-101475358D03*
%TD*%
D29*
%TO.C,R6*%
X50375196Y-85454358D03*
X50375196Y-86474358D03*
%TD*%
D32*
%TO.C,SW2*%
X102450000Y-62400000D03*
X102450000Y-60190000D03*
X95150000Y-62400000D03*
X95150000Y-60190000D03*
D33*
X101050000Y-63050000D03*
X98050000Y-63050000D03*
X96550000Y-63050000D03*
%TD*%
D29*
%TO.C,R10*%
X94928696Y-74615358D03*
X94928696Y-75635358D03*
%TD*%
D16*
%TO.C,D1*%
X74828696Y-76900358D03*
X74828696Y-78475358D03*
%TD*%
D27*
%TO.C,C15*%
X99800000Y-70825000D03*
X99800000Y-72375000D03*
%TD*%
D39*
%TO.C,U5*%
X102341196Y-92490358D03*
X102341196Y-92990358D03*
X102341196Y-93490358D03*
X102341196Y-93990358D03*
D40*
X102766196Y-94640358D03*
X103266196Y-94640358D03*
X103266196Y-91840358D03*
X102766196Y-91840358D03*
%TD*%
D41*
%TO.C,Y1*%
X117928696Y-93275358D03*
X117928696Y-95475358D03*
X119528696Y-95475358D03*
X119528696Y-93275358D03*
%TD*%
D24*
%TO.C,C14*%
X99678696Y-76037858D03*
X98128696Y-76037858D03*
%TD*%
M02*
