%TF.GenerationSoftware,KiCad,Pcbnew,9.0.0*%
%TF.CreationDate,2025-08-15T01:25:28+03:00*%
%TF.ProjectId,Handheld,48616e64-6865-46c6-942e-6b696361645f,rev?*%
%TF.SameCoordinates,Original*%
%TF.FileFunction,Legend,Bot*%
%TF.FilePolarity,Positive*%
%FSLAX46Y46*%
G04 Gerber Fmt 4.6, Leading zero omitted, Abs format (unit mm)*
G04 Created by KiCad (PCBNEW 9.0.0) date 2025-08-15 01:25:28*
%MOMM*%
%LPD*%
G01*
G04 APERTURE LIST*
%ADD10C,0.100000*%
G04 APERTURE END LIST*
D10*
X190408145Y-114470158D02*
X188979573Y-114708253D01*
X188979573Y-114708253D02*
X186598621Y-114708253D01*
X186598621Y-114708253D02*
X185646240Y-114470158D01*
X185646240Y-114470158D02*
X185170049Y-114232062D01*
X185170049Y-114232062D02*
X184693859Y-113755872D01*
X184693859Y-113755872D02*
X184693859Y-113279681D01*
X184693859Y-113279681D02*
X185170049Y-112803491D01*
X185170049Y-112803491D02*
X185646240Y-112565396D01*
X185646240Y-112565396D02*
X186598621Y-112327300D01*
X186598621Y-112327300D02*
X188503383Y-112089205D01*
X188503383Y-112089205D02*
X189455764Y-111851110D01*
X189455764Y-111851110D02*
X189931954Y-111613015D01*
X189931954Y-111613015D02*
X190408145Y-111136824D01*
X190408145Y-111136824D02*
X190408145Y-110660634D01*
X190408145Y-110660634D02*
X189931954Y-110184443D01*
X189931954Y-110184443D02*
X189455764Y-109946348D01*
X189455764Y-109946348D02*
X188503383Y-109708253D01*
X188503383Y-109708253D02*
X186122430Y-109708253D01*
X186122430Y-109708253D02*
X184693859Y-109946348D01*
X181836716Y-111374919D02*
X178027192Y-111374919D01*
X180408144Y-109708253D02*
X180408144Y-113993967D01*
X180408144Y-113993967D02*
X179931954Y-114470158D01*
X179931954Y-114470158D02*
X178979573Y-114708253D01*
X178979573Y-114708253D02*
X178027192Y-114708253D01*
X170884334Y-114470158D02*
X171836715Y-114708253D01*
X171836715Y-114708253D02*
X173741477Y-114708253D01*
X173741477Y-114708253D02*
X174693858Y-114470158D01*
X174693858Y-114470158D02*
X175170049Y-113993967D01*
X175170049Y-113993967D02*
X175170049Y-112089205D01*
X175170049Y-112089205D02*
X174693858Y-111613015D01*
X174693858Y-111613015D02*
X173741477Y-111374919D01*
X173741477Y-111374919D02*
X171836715Y-111374919D01*
X171836715Y-111374919D02*
X170884334Y-111613015D01*
X170884334Y-111613015D02*
X170408144Y-112089205D01*
X170408144Y-112089205D02*
X170408144Y-112565396D01*
X170408144Y-112565396D02*
X175170049Y-113041586D01*
X167074810Y-111374919D02*
X164693858Y-114708253D01*
X164693858Y-114708253D02*
X162312905Y-111374919D01*
X154693857Y-114470158D02*
X155646238Y-114708253D01*
X155646238Y-114708253D02*
X157551000Y-114708253D01*
X157551000Y-114708253D02*
X158503381Y-114470158D01*
X158503381Y-114470158D02*
X158979572Y-113993967D01*
X158979572Y-113993967D02*
X158979572Y-112089205D01*
X158979572Y-112089205D02*
X158503381Y-111613015D01*
X158503381Y-111613015D02*
X157551000Y-111374919D01*
X157551000Y-111374919D02*
X155646238Y-111374919D01*
X155646238Y-111374919D02*
X154693857Y-111613015D01*
X154693857Y-111613015D02*
X154217667Y-112089205D01*
X154217667Y-112089205D02*
X154217667Y-112565396D01*
X154217667Y-112565396D02*
X158979572Y-113041586D01*
X149931952Y-111374919D02*
X149931952Y-114708253D01*
X149931952Y-111851110D02*
X149455762Y-111613015D01*
X149455762Y-111613015D02*
X148503381Y-111374919D01*
X148503381Y-111374919D02*
X147074809Y-111374919D01*
X147074809Y-111374919D02*
X146122428Y-111613015D01*
X146122428Y-111613015D02*
X145646238Y-112089205D01*
X145646238Y-112089205D02*
X145646238Y-114708253D01*
X133265285Y-114708253D02*
X133265285Y-109708253D01*
X127550999Y-114708253D02*
X131836714Y-111851110D01*
X127550999Y-109708253D02*
X133265285Y-112565396D01*
X121836714Y-114708253D02*
X122789095Y-114470158D01*
X122789095Y-114470158D02*
X123265285Y-114232062D01*
X123265285Y-114232062D02*
X123741476Y-113755872D01*
X123741476Y-113755872D02*
X123741476Y-112327300D01*
X123741476Y-112327300D02*
X123265285Y-111851110D01*
X123265285Y-111851110D02*
X122789095Y-111613015D01*
X122789095Y-111613015D02*
X121836714Y-111374919D01*
X121836714Y-111374919D02*
X120408142Y-111374919D01*
X120408142Y-111374919D02*
X119455761Y-111613015D01*
X119455761Y-111613015D02*
X118979571Y-111851110D01*
X118979571Y-111851110D02*
X118503380Y-112327300D01*
X118503380Y-112327300D02*
X118503380Y-113755872D01*
X118503380Y-113755872D02*
X118979571Y-114232062D01*
X118979571Y-114232062D02*
X119455761Y-114470158D01*
X119455761Y-114470158D02*
X120408142Y-114708253D01*
X120408142Y-114708253D02*
X121836714Y-114708253D01*
X109931952Y-111374919D02*
X109931952Y-114708253D01*
X114217666Y-111374919D02*
X114217666Y-113993967D01*
X114217666Y-113993967D02*
X113741476Y-114470158D01*
X113741476Y-114470158D02*
X112789095Y-114708253D01*
X112789095Y-114708253D02*
X111360523Y-114708253D01*
X111360523Y-114708253D02*
X110408142Y-114470158D01*
X110408142Y-114470158D02*
X109931952Y-114232062D01*
X105170047Y-114708253D02*
X105170047Y-111374919D01*
X105170047Y-112327300D02*
X104693857Y-111851110D01*
X104693857Y-111851110D02*
X104217666Y-111613015D01*
X104217666Y-111613015D02*
X103265285Y-111374919D01*
X103265285Y-111374919D02*
X102312904Y-111374919D01*
X94693857Y-114708253D02*
X94693857Y-112089205D01*
X94693857Y-112089205D02*
X95170047Y-111613015D01*
X95170047Y-111613015D02*
X96122428Y-111374919D01*
X96122428Y-111374919D02*
X98027190Y-111374919D01*
X98027190Y-111374919D02*
X98979571Y-111613015D01*
X94693857Y-114470158D02*
X95646238Y-114708253D01*
X95646238Y-114708253D02*
X98027190Y-114708253D01*
X98027190Y-114708253D02*
X98979571Y-114470158D01*
X98979571Y-114470158D02*
X99455762Y-113993967D01*
X99455762Y-113993967D02*
X99455762Y-113517777D01*
X99455762Y-113517777D02*
X98979571Y-113041586D01*
X98979571Y-113041586D02*
X98027190Y-112803491D01*
X98027190Y-112803491D02*
X95646238Y-112803491D01*
X95646238Y-112803491D02*
X94693857Y-112565396D01*
X89931952Y-111374919D02*
X89931952Y-114708253D01*
X89931952Y-111851110D02*
X89455762Y-111613015D01*
X89455762Y-111613015D02*
X88503381Y-111374919D01*
X88503381Y-111374919D02*
X87074809Y-111374919D01*
X87074809Y-111374919D02*
X86122428Y-111613015D01*
X86122428Y-111613015D02*
X85646238Y-112089205D01*
X85646238Y-112089205D02*
X85646238Y-114708253D01*
X80884333Y-114708253D02*
X80884333Y-111374919D01*
X80884333Y-109708253D02*
X81360524Y-109946348D01*
X81360524Y-109946348D02*
X80884333Y-110184443D01*
X80884333Y-110184443D02*
X80408143Y-109946348D01*
X80408143Y-109946348D02*
X80884333Y-109708253D01*
X80884333Y-109708253D02*
X80884333Y-110184443D01*
X226977192Y-111103015D02*
X225977192Y-114103015D01*
X225977192Y-114103015D02*
X224977192Y-111103015D01*
X222834335Y-113960158D02*
X223120049Y-114103015D01*
X223120049Y-114103015D02*
X223691478Y-114103015D01*
X223691478Y-114103015D02*
X223977192Y-113960158D01*
X223977192Y-113960158D02*
X224120049Y-113674443D01*
X224120049Y-113674443D02*
X224120049Y-112531586D01*
X224120049Y-112531586D02*
X223977192Y-112245872D01*
X223977192Y-112245872D02*
X223691478Y-112103015D01*
X223691478Y-112103015D02*
X223120049Y-112103015D01*
X223120049Y-112103015D02*
X222834335Y-112245872D01*
X222834335Y-112245872D02*
X222691478Y-112531586D01*
X222691478Y-112531586D02*
X222691478Y-112817300D01*
X222691478Y-112817300D02*
X224120049Y-113103015D01*
X221405763Y-114103015D02*
X221405763Y-112103015D01*
X221405763Y-112674443D02*
X221262906Y-112388729D01*
X221262906Y-112388729D02*
X221120049Y-112245872D01*
X221120049Y-112245872D02*
X220834334Y-112103015D01*
X220834334Y-112103015D02*
X220548620Y-112103015D01*
X219691477Y-113960158D02*
X219405763Y-114103015D01*
X219405763Y-114103015D02*
X218834334Y-114103015D01*
X218834334Y-114103015D02*
X218548620Y-113960158D01*
X218548620Y-113960158D02*
X218405763Y-113674443D01*
X218405763Y-113674443D02*
X218405763Y-113531586D01*
X218405763Y-113531586D02*
X218548620Y-113245872D01*
X218548620Y-113245872D02*
X218834334Y-113103015D01*
X218834334Y-113103015D02*
X219262906Y-113103015D01*
X219262906Y-113103015D02*
X219548620Y-112960158D01*
X219548620Y-112960158D02*
X219691477Y-112674443D01*
X219691477Y-112674443D02*
X219691477Y-112531586D01*
X219691477Y-112531586D02*
X219548620Y-112245872D01*
X219548620Y-112245872D02*
X219262906Y-112103015D01*
X219262906Y-112103015D02*
X218834334Y-112103015D01*
X218834334Y-112103015D02*
X218548620Y-112245872D01*
X217120049Y-114103015D02*
X217120049Y-112103015D01*
X217120049Y-111103015D02*
X217262906Y-111245872D01*
X217262906Y-111245872D02*
X217120049Y-111388729D01*
X217120049Y-111388729D02*
X216977192Y-111245872D01*
X216977192Y-111245872D02*
X217120049Y-111103015D01*
X217120049Y-111103015D02*
X217120049Y-111388729D01*
X215262906Y-114103015D02*
X215548621Y-113960158D01*
X215548621Y-113960158D02*
X215691478Y-113817300D01*
X215691478Y-113817300D02*
X215834335Y-113531586D01*
X215834335Y-113531586D02*
X215834335Y-112674443D01*
X215834335Y-112674443D02*
X215691478Y-112388729D01*
X215691478Y-112388729D02*
X215548621Y-112245872D01*
X215548621Y-112245872D02*
X215262906Y-112103015D01*
X215262906Y-112103015D02*
X214834335Y-112103015D01*
X214834335Y-112103015D02*
X214548621Y-112245872D01*
X214548621Y-112245872D02*
X214405764Y-112388729D01*
X214405764Y-112388729D02*
X214262906Y-112674443D01*
X214262906Y-112674443D02*
X214262906Y-113531586D01*
X214262906Y-113531586D02*
X214405764Y-113817300D01*
X214405764Y-113817300D02*
X214548621Y-113960158D01*
X214548621Y-113960158D02*
X214834335Y-114103015D01*
X214834335Y-114103015D02*
X215262906Y-114103015D01*
X212977192Y-112103015D02*
X212977192Y-114103015D01*
X212977192Y-112388729D02*
X212834335Y-112245872D01*
X212834335Y-112245872D02*
X212548620Y-112103015D01*
X212548620Y-112103015D02*
X212120049Y-112103015D01*
X212120049Y-112103015D02*
X211834335Y-112245872D01*
X211834335Y-112245872D02*
X211691478Y-112531586D01*
X211691478Y-112531586D02*
X211691478Y-114103015D01*
X208262906Y-111103015D02*
X206405763Y-111103015D01*
X206405763Y-111103015D02*
X207405763Y-112245872D01*
X207405763Y-112245872D02*
X206977192Y-112245872D01*
X206977192Y-112245872D02*
X206691478Y-112388729D01*
X206691478Y-112388729D02*
X206548620Y-112531586D01*
X206548620Y-112531586D02*
X206405763Y-112817300D01*
X206405763Y-112817300D02*
X206405763Y-113531586D01*
X206405763Y-113531586D02*
X206548620Y-113817300D01*
X206548620Y-113817300D02*
X206691478Y-113960158D01*
X206691478Y-113960158D02*
X206977192Y-114103015D01*
X206977192Y-114103015D02*
X207834335Y-114103015D01*
X207834335Y-114103015D02*
X208120049Y-113960158D01*
X208120049Y-113960158D02*
X208262906Y-113817300D01*
X233481954Y-73258253D02*
X233481954Y-68258253D01*
X233481954Y-70639205D02*
X227767668Y-70639205D01*
X227767668Y-73258253D02*
X227767668Y-68258253D01*
X218720050Y-73258253D02*
X218720050Y-70639205D01*
X218720050Y-70639205D02*
X219196240Y-70163015D01*
X219196240Y-70163015D02*
X220148621Y-69924919D01*
X220148621Y-69924919D02*
X222053383Y-69924919D01*
X222053383Y-69924919D02*
X223005764Y-70163015D01*
X218720050Y-73020158D02*
X219672431Y-73258253D01*
X219672431Y-73258253D02*
X222053383Y-73258253D01*
X222053383Y-73258253D02*
X223005764Y-73020158D01*
X223005764Y-73020158D02*
X223481955Y-72543967D01*
X223481955Y-72543967D02*
X223481955Y-72067777D01*
X223481955Y-72067777D02*
X223005764Y-71591586D01*
X223005764Y-71591586D02*
X222053383Y-71353491D01*
X222053383Y-71353491D02*
X219672431Y-71353491D01*
X219672431Y-71353491D02*
X218720050Y-71115396D01*
X213958145Y-69924919D02*
X213958145Y-73258253D01*
X213958145Y-70401110D02*
X213481955Y-70163015D01*
X213481955Y-70163015D02*
X212529574Y-69924919D01*
X212529574Y-69924919D02*
X211101002Y-69924919D01*
X211101002Y-69924919D02*
X210148621Y-70163015D01*
X210148621Y-70163015D02*
X209672431Y-70639205D01*
X209672431Y-70639205D02*
X209672431Y-73258253D01*
X200624812Y-73258253D02*
X200624812Y-68258253D01*
X200624812Y-73020158D02*
X201577193Y-73258253D01*
X201577193Y-73258253D02*
X203481955Y-73258253D01*
X203481955Y-73258253D02*
X204434336Y-73020158D01*
X204434336Y-73020158D02*
X204910526Y-72782062D01*
X204910526Y-72782062D02*
X205386717Y-72305872D01*
X205386717Y-72305872D02*
X205386717Y-70877300D01*
X205386717Y-70877300D02*
X204910526Y-70401110D01*
X204910526Y-70401110D02*
X204434336Y-70163015D01*
X204434336Y-70163015D02*
X203481955Y-69924919D01*
X203481955Y-69924919D02*
X201577193Y-69924919D01*
X201577193Y-69924919D02*
X200624812Y-70163015D01*
X195862907Y-73258253D02*
X195862907Y-68258253D01*
X191577193Y-73258253D02*
X191577193Y-70639205D01*
X191577193Y-70639205D02*
X192053383Y-70163015D01*
X192053383Y-70163015D02*
X193005764Y-69924919D01*
X193005764Y-69924919D02*
X194434336Y-69924919D01*
X194434336Y-69924919D02*
X195386717Y-70163015D01*
X195386717Y-70163015D02*
X195862907Y-70401110D01*
X183005764Y-73020158D02*
X183958145Y-73258253D01*
X183958145Y-73258253D02*
X185862907Y-73258253D01*
X185862907Y-73258253D02*
X186815288Y-73020158D01*
X186815288Y-73020158D02*
X187291479Y-72543967D01*
X187291479Y-72543967D02*
X187291479Y-70639205D01*
X187291479Y-70639205D02*
X186815288Y-70163015D01*
X186815288Y-70163015D02*
X185862907Y-69924919D01*
X185862907Y-69924919D02*
X183958145Y-69924919D01*
X183958145Y-69924919D02*
X183005764Y-70163015D01*
X183005764Y-70163015D02*
X182529574Y-70639205D01*
X182529574Y-70639205D02*
X182529574Y-71115396D01*
X182529574Y-71115396D02*
X187291479Y-71591586D01*
X176815288Y-73258253D02*
X177767669Y-73020158D01*
X177767669Y-73020158D02*
X178243859Y-72543967D01*
X178243859Y-72543967D02*
X178243859Y-68258253D01*
X168720050Y-73258253D02*
X168720050Y-68258253D01*
X168720050Y-73020158D02*
X169672431Y-73258253D01*
X169672431Y-73258253D02*
X171577193Y-73258253D01*
X171577193Y-73258253D02*
X172529574Y-73020158D01*
X172529574Y-73020158D02*
X173005764Y-72782062D01*
X173005764Y-72782062D02*
X173481955Y-72305872D01*
X173481955Y-72305872D02*
X173481955Y-70877300D01*
X173481955Y-70877300D02*
X173005764Y-70401110D01*
X173005764Y-70401110D02*
X172529574Y-70163015D01*
X172529574Y-70163015D02*
X171577193Y-69924919D01*
X171577193Y-69924919D02*
X169672431Y-69924919D01*
X169672431Y-69924919D02*
X168720050Y-70163015D01*
X151101002Y-68496348D02*
X152053383Y-68258253D01*
X152053383Y-68258253D02*
X153481954Y-68258253D01*
X153481954Y-68258253D02*
X154910526Y-68496348D01*
X154910526Y-68496348D02*
X155862907Y-68972538D01*
X155862907Y-68972538D02*
X156339097Y-69448729D01*
X156339097Y-69448729D02*
X156815288Y-70401110D01*
X156815288Y-70401110D02*
X156815288Y-71115396D01*
X156815288Y-71115396D02*
X156339097Y-72067777D01*
X156339097Y-72067777D02*
X155862907Y-72543967D01*
X155862907Y-72543967D02*
X154910526Y-73020158D01*
X154910526Y-73020158D02*
X153481954Y-73258253D01*
X153481954Y-73258253D02*
X152529573Y-73258253D01*
X152529573Y-73258253D02*
X151101002Y-73020158D01*
X151101002Y-73020158D02*
X150624811Y-72782062D01*
X150624811Y-72782062D02*
X150624811Y-71115396D01*
X150624811Y-71115396D02*
X152529573Y-71115396D01*
X142053383Y-73258253D02*
X142053383Y-70639205D01*
X142053383Y-70639205D02*
X142529573Y-70163015D01*
X142529573Y-70163015D02*
X143481954Y-69924919D01*
X143481954Y-69924919D02*
X145386716Y-69924919D01*
X145386716Y-69924919D02*
X146339097Y-70163015D01*
X142053383Y-73020158D02*
X143005764Y-73258253D01*
X143005764Y-73258253D02*
X145386716Y-73258253D01*
X145386716Y-73258253D02*
X146339097Y-73020158D01*
X146339097Y-73020158D02*
X146815288Y-72543967D01*
X146815288Y-72543967D02*
X146815288Y-72067777D01*
X146815288Y-72067777D02*
X146339097Y-71591586D01*
X146339097Y-71591586D02*
X145386716Y-71353491D01*
X145386716Y-71353491D02*
X143005764Y-71353491D01*
X143005764Y-71353491D02*
X142053383Y-71115396D01*
X137291478Y-73258253D02*
X137291478Y-69924919D01*
X137291478Y-70401110D02*
X136815288Y-70163015D01*
X136815288Y-70163015D02*
X135862907Y-69924919D01*
X135862907Y-69924919D02*
X134434335Y-69924919D01*
X134434335Y-69924919D02*
X133481954Y-70163015D01*
X133481954Y-70163015D02*
X133005764Y-70639205D01*
X133005764Y-70639205D02*
X133005764Y-73258253D01*
X133005764Y-70639205D02*
X132529573Y-70163015D01*
X132529573Y-70163015D02*
X131577192Y-69924919D01*
X131577192Y-69924919D02*
X130148621Y-69924919D01*
X130148621Y-69924919D02*
X129196240Y-70163015D01*
X129196240Y-70163015D02*
X128720050Y-70639205D01*
X128720050Y-70639205D02*
X128720050Y-73258253D01*
X120148621Y-73020158D02*
X121101002Y-73258253D01*
X121101002Y-73258253D02*
X123005764Y-73258253D01*
X123005764Y-73258253D02*
X123958145Y-73020158D01*
X123958145Y-73020158D02*
X124434336Y-72543967D01*
X124434336Y-72543967D02*
X124434336Y-70639205D01*
X124434336Y-70639205D02*
X123958145Y-70163015D01*
X123958145Y-70163015D02*
X123005764Y-69924919D01*
X123005764Y-69924919D02*
X121101002Y-69924919D01*
X121101002Y-69924919D02*
X120148621Y-70163015D01*
X120148621Y-70163015D02*
X119672431Y-70639205D01*
X119672431Y-70639205D02*
X119672431Y-71115396D01*
X119672431Y-71115396D02*
X124434336Y-71591586D01*
M02*
